  0
SECTION
  2
HEADER
  9
$ANGBASE
  50
0.0
  9
$ANGDIR
  70
1
  9
$MEASUREMENT
  70
0
  0
ENDSEC
  0
SECTION
  2
TABLES
  0
TABLE
  2
LTYPE
  70
4
  0
LTYPE
  5
40F
  2
CONTINUOUS
  70
0
  3
Solid line
  72
65
  73
0
  40
0.0
  0
LTYPE
  5
410
  2
DASHDOT
 70
0
  3
Dash Dot ____ _ ____ _
 72
65
 73
4
 40
2.0
 49
1.25
 49
-0.25
 49
0.25
 49
-0.25
  0
LTYPE
  5
411
  2
DASHED
 70
0
  3
Dashed __ __ __ __ __
 72
65
 73
2
 40
0.75
 49
0.5
 49
-0.25
  0
LTYPE
  5
43B
  2
DOTTED
 70
0
  3
Dotted .  .  .  .
 72
65
 73
2
 40
0.2
 49
0.0
 49
-0.2
  0
ENDTAB
  0
TABLE
  2
STYLE
  70
4
  0
STYLE
  2
KICAD
  70
0
  40
0
  41
1
  42
1
  50
0
  71
0
  3
isocp.shx
  0
STYLE
  2
KICADB
  70
0
  40
0
  41
1
  42
1
  50
0
  71
0
  3
isocp.shx
  0
STYLE
  2
KICADI
  70
0
  40
0
  41
1
  42
1
  50
15
  71
0
  3
isocp.shx
  0
STYLE
  2
KICADBI
  70
0
  40
0
  41
1
  42
1
  50
15
  71
0
  3
isocp.shx
  0
ENDTAB
  0
TABLE
  2
LAYER
  70
1
  0
LAYER
  2
BLACK
  70
0
  62
7
  6
CONTINUOUS
  0
ENDTAB
  0
ENDSEC
  0
SECTION
  2
ENTITIES
0
LINE
8
BLACK
6
CONTINUOUS
10
6.64901
20
-4.00099
11
6.62004
21
-4.00403
0
LINE
8
BLACK
6
CONTINUOUS
10
6.62004
20
-4.00403
11
6.59226
21
-4.01263
0
LINE
8
BLACK
6
CONTINUOUS
10
6.59226
20
-4.01263
11
6.56667
21
-4.02646
0
LINE
8
BLACK
6
CONTINUOUS
10
6.56667
20
-4.02646
11
6.54427
21
-4.045
0
LINE
8
BLACK
6
CONTINUOUS
10
6.54427
20
-4.045
11
6.52589
21
-4.06754
0
LINE
8
BLACK
6
CONTINUOUS
10
6.52589
20
-4.06754
11
6.51223
21
-4.09322
0
LINE
8
BLACK
6
CONTINUOUS
10
6.51223
20
-4.09322
11
6.50383
21
-4.12106
0
LINE
8
BLACK
6
CONTINUOUS
10
6.50383
20
-4.12106
11
6.50098
21
-4.15005
0
LINE
8
BLACK
6
CONTINUOUS
10
6.50098
20
-4.15005
11
6.50098
21
-6.00005
0
LINE
8
BLACK
6
CONTINUOUS
10
6.50098
20
-6.00005
11
6.50098
21
-6.0001
0
LINE
8
BLACK
6
CONTINUOUS
10
6.50098
20
-6.0001
11
6.50098
21
-6.0001
0
LINE
8
BLACK
6
CONTINUOUS
10
6.50098
20
-6.0001
11
6.49812
21
-6.02923
0
LINE
8
BLACK
6
CONTINUOUS
10
6.49812
20
-6.02923
11
6.49812
21
-6.02924
0
LINE
8
BLACK
6
CONTINUOUS
10
6.49812
20
-6.02924
11
6.4981
21
-6.02933
0
LINE
8
BLACK
6
CONTINUOUS
10
6.4981
20
-6.02933
11
6.49809
21
-6.02942
0
LINE
8
BLACK
6
CONTINUOUS
10
6.49809
20
-6.02942
11
6.48962
21
-6.05745
0
LINE
8
BLACK
6
CONTINUOUS
10
6.48962
20
-6.05745
11
6.48962
21
-6.05746
0
LINE
8
BLACK
6
CONTINUOUS
10
6.48962
20
-6.05746
11
6.48958
21
-6.05754
0
LINE
8
BLACK
6
CONTINUOUS
10
6.48958
20
-6.05754
11
6.48955
21
-6.05762
0
LINE
8
BLACK
6
CONTINUOUS
10
6.48955
20
-6.05762
11
6.47581
21
-6.08347
0
LINE
8
BLACK
6
CONTINUOUS
10
6.47581
20
-6.08347
11
6.4758
21
-6.08348
0
LINE
8
BLACK
6
CONTINUOUS
10
6.4758
20
-6.08348
11
6.47575
21
-6.08356
0
LINE
8
BLACK
6
CONTINUOUS
10
6.47575
20
-6.08356
11
6.4757
21
-6.08363
0
LINE
8
BLACK
6
CONTINUOUS
10
6.4757
20
-6.08363
11
6.4572
21
-6.10632
0
LINE
8
BLACK
6
CONTINUOUS
10
6.4572
20
-6.10632
11
6.45719
21
-6.10633
0
LINE
8
BLACK
6
CONTINUOUS
10
6.45719
20
-6.10633
11
6.45713
21
-6.10639
0
LINE
8
BLACK
6
CONTINUOUS
10
6.45713
20
-6.10639
11
6.45706
21
-6.10645
0
LINE
8
BLACK
6
CONTINUOUS
10
6.45706
20
-6.10645
11
6.43451
21
-6.12511
0
LINE
8
BLACK
6
CONTINUOUS
10
6.43451
20
-6.12511
11
6.4345
21
-6.12512
0
LINE
8
BLACK
6
CONTINUOUS
10
6.4345
20
-6.12512
11
6.43442
21
-6.12517
0
LINE
8
BLACK
6
CONTINUOUS
10
6.43442
20
-6.12517
11
6.43435
21
-6.12522
0
LINE
8
BLACK
6
CONTINUOUS
10
6.43435
20
-6.12522
11
6.4086
21
-6.13915
0
LINE
8
BLACK
6
CONTINUOUS
10
6.4086
20
-6.13915
11
6.40858
21
-6.13915
0
LINE
8
BLACK
6
CONTINUOUS
10
6.40858
20
-6.13915
11
6.4085
21
-6.13919
0
LINE
8
BLACK
6
CONTINUOUS
10
6.4085
20
-6.13919
11
6.40842
21
-6.13922
0
LINE
8
BLACK
6
CONTINUOUS
10
6.40842
20
-6.13922
11
6.38045
21
-6.14788
0
LINE
8
BLACK
6
CONTINUOUS
10
6.38045
20
-6.14788
11
6.38044
21
-6.14788
0
LINE
8
BLACK
6
CONTINUOUS
10
6.38044
20
-6.14788
11
6.38035
21
-6.1479
0
LINE
8
BLACK
6
CONTINUOUS
10
6.38035
20
-6.1479
11
6.38026
21
-6.14792
0
LINE
8
BLACK
6
CONTINUOUS
10
6.38026
20
-6.14792
11
6.35115
21
-6.15098
0
LINE
8
BLACK
6
CONTINUOUS
10
6.35115
20
-6.15098
11
6.35114
21
-6.15098
0
LINE
8
BLACK
6
CONTINUOUS
10
6.35114
20
-6.15098
11
6.35109
21
-6.15098
0
LINE
8
BLACK
6
CONTINUOUS
10
6.35109
20
-6.15098
11
6.35105
21
-6.15098
0
LINE
8
BLACK
6
CONTINUOUS
10
6.35105
20
-6.15098
11
6.35005
21
-6.15098
0
LINE
8
BLACK
6
CONTINUOUS
10
6.35005
20
-6.15098
11
6.35005
21
-6.15098
0
LINE
8
BLACK
6
CONTINUOUS
10
6.35005
20
-6.15098
11
5.04995
21
-6.15098
0
LINE
8
BLACK
6
CONTINUOUS
10
5.04995
20
-6.15098
11
5.0499
21
-6.15098
0
LINE
8
BLACK
6
CONTINUOUS
10
5.0499
20
-6.15098
11
5.0499
21
-6.15098
0
LINE
8
BLACK
6
CONTINUOUS
10
5.0499
20
-6.15098
11
5.02077
21
-6.14812
0
LINE
8
BLACK
6
CONTINUOUS
10
5.02077
20
-6.14812
11
5.02076
21
-6.14812
0
LINE
8
BLACK
6
CONTINUOUS
10
5.02076
20
-6.14812
11
5.02067
21
-6.1481
0
LINE
8
BLACK
6
CONTINUOUS
10
5.02067
20
-6.1481
11
5.02058
21
-6.14809
0
LINE
8
BLACK
6
CONTINUOUS
10
5.02058
20
-6.14809
11
4.99255
21
-6.13962
0
LINE
8
BLACK
6
CONTINUOUS
10
4.99255
20
-6.13962
11
4.99254
21
-6.13962
0
LINE
8
BLACK
6
CONTINUOUS
10
4.99254
20
-6.13962
11
4.99246
21
-6.13958
0
LINE
8
BLACK
6
CONTINUOUS
10
4.99246
20
-6.13958
11
4.99238
21
-6.13955
0
LINE
8
BLACK
6
CONTINUOUS
10
4.99238
20
-6.13955
11
4.96653
21
-6.12581
0
LINE
8
BLACK
6
CONTINUOUS
10
4.96653
20
-6.12581
11
4.96652
21
-6.1258
0
LINE
8
BLACK
6
CONTINUOUS
10
4.96652
20
-6.1258
11
4.96644
21
-6.12575
0
LINE
8
BLACK
6
CONTINUOUS
10
4.96644
20
-6.12575
11
4.96637
21
-6.1257
0
LINE
8
BLACK
6
CONTINUOUS
10
4.96637
20
-6.1257
11
4.94368
21
-6.1072
0
LINE
8
BLACK
6
CONTINUOUS
10
4.94368
20
-6.1072
11
4.94367
21
-6.10719
0
LINE
8
BLACK
6
CONTINUOUS
10
4.94367
20
-6.10719
11
4.94361
21
-6.10713
0
LINE
8
BLACK
6
CONTINUOUS
10
4.94361
20
-6.10713
11
4.94355
21
-6.10706
0
LINE
8
BLACK
6
CONTINUOUS
10
4.94355
20
-6.10706
11
4.92489
21
-6.08451
0
LINE
8
BLACK
6
CONTINUOUS
10
4.92489
20
-6.08451
11
4.92488
21
-6.0845
0
LINE
8
BLACK
6
CONTINUOUS
10
4.92488
20
-6.0845
11
4.92483
21
-6.08442
0
LINE
8
BLACK
6
CONTINUOUS
10
4.92483
20
-6.08442
11
4.92478
21
-6.08435
0
LINE
8
BLACK
6
CONTINUOUS
10
4.92478
20
-6.08435
11
4.91085
21
-6.0586
0
LINE
8
BLACK
6
CONTINUOUS
10
4.91085
20
-6.0586
11
4.91085
21
-6.05858
0
LINE
8
BLACK
6
CONTINUOUS
10
4.91085
20
-6.05858
11
4.91081
21
-6.0585
0
LINE
8
BLACK
6
CONTINUOUS
10
4.91081
20
-6.0585
11
4.91078
21
-6.05842
0
LINE
8
BLACK
6
CONTINUOUS
10
4.91078
20
-6.05842
11
4.90212
21
-6.03045
0
LINE
8
BLACK
6
CONTINUOUS
10
4.90212
20
-6.03045
11
4.90212
21
-6.03044
0
LINE
8
BLACK
6
CONTINUOUS
10
4.90212
20
-6.03044
11
4.9021
21
-6.03035
0
LINE
8
BLACK
6
CONTINUOUS
10
4.9021
20
-6.03035
11
4.90208
21
-6.03026
0
LINE
8
BLACK
6
CONTINUOUS
10
4.90208
20
-6.03026
11
4.89902
21
-6.00115
0
LINE
8
BLACK
6
CONTINUOUS
10
4.89902
20
-6.00115
11
4.89902
21
-6.00114
0
LINE
8
BLACK
6
CONTINUOUS
10
4.89902
20
-6.00114
11
4.89902
21
-6.00109
0
LINE
8
BLACK
6
CONTINUOUS
10
4.89902
20
-6.00109
11
4.89902
21
-6.00105
0
LINE
8
BLACK
6
CONTINUOUS
10
4.89902
20
-6.00105
11
4.89902
21
-6.00005
0
LINE
8
BLACK
6
CONTINUOUS
10
4.89902
20
-6.00005
11
4.89902
21
-6.00005
0
LINE
8
BLACK
6
CONTINUOUS
10
4.89902
20
-6.00005
11
4.89902
21
-6.00001
0
LINE
8
BLACK
6
CONTINUOUS
10
4.89902
20
-6.00001
11
4.89902
21
-6
0
LINE
8
BLACK
6
CONTINUOUS
10
4.89902
20
-6
11
4.89902
21
-5.99999
0
LINE
8
BLACK
6
CONTINUOUS
10
4.89902
20
-5.99999
11
4.89902
21
-4.85
0
LINE
8
BLACK
6
CONTINUOUS
10
4.89902
20
-4.85
11
4.89901
21
-4.84901
0
LINE
8
BLACK
6
CONTINUOUS
10
4.89901
20
-4.84901
11
4.89597
21
-4.82004
0
LINE
8
BLACK
6
CONTINUOUS
10
4.89597
20
-4.82004
11
4.88737
21
-4.79226
0
LINE
8
BLACK
6
CONTINUOUS
10
4.88737
20
-4.79226
11
4.87354
21
-4.76667
0
LINE
8
BLACK
6
CONTINUOUS
10
4.87354
20
-4.76667
11
4.855
21
-4.74427
0
LINE
8
BLACK
6
CONTINUOUS
10
4.855
20
-4.74427
11
4.83246
21
-4.72589
0
LINE
8
BLACK
6
CONTINUOUS
10
4.83246
20
-4.72589
11
4.80678
21
-4.71223
0
LINE
8
BLACK
6
CONTINUOUS
10
4.80678
20
-4.71223
11
4.77894
21
-4.70383
0
LINE
8
BLACK
6
CONTINUOUS
10
4.77894
20
-4.70383
11
4.74995
21
-4.70098
0
LINE
8
BLACK
6
CONTINUOUS
10
4.74995
20
-4.70098
11
3.64995
21
-4.70098
0
LINE
8
BLACK
6
CONTINUOUS
10
3.64995
20
-4.70098
11
3.6499
21
-4.70098
0
LINE
8
BLACK
6
CONTINUOUS
10
3.6499
20
-4.70098
11
3.6499
21
-4.70098
0
LINE
8
BLACK
6
CONTINUOUS
10
3.6499
20
-4.70098
11
3.62077
21
-4.69812
0
LINE
8
BLACK
6
CONTINUOUS
10
3.62077
20
-4.69812
11
3.62076
21
-4.69812
0
LINE
8
BLACK
6
CONTINUOUS
10
3.62076
20
-4.69812
11
3.62067
21
-4.6981
0
LINE
8
BLACK
6
CONTINUOUS
10
3.62067
20
-4.6981
11
3.62058
21
-4.69809
0
LINE
8
BLACK
6
CONTINUOUS
10
3.62058
20
-4.69809
11
3.59255
21
-4.68962
0
LINE
8
BLACK
6
CONTINUOUS
10
3.59255
20
-4.68962
11
3.59254
21
-4.68962
0
LINE
8
BLACK
6
CONTINUOUS
10
3.59254
20
-4.68962
11
3.59246
21
-4.68958
0
LINE
8
BLACK
6
CONTINUOUS
10
3.59246
20
-4.68958
11
3.59238
21
-4.68955
0
LINE
8
BLACK
6
CONTINUOUS
10
3.59238
20
-4.68955
11
3.56653
21
-4.67581
0
LINE
8
BLACK
6
CONTINUOUS
10
3.56653
20
-4.67581
11
3.56652
21
-4.6758
0
LINE
8
BLACK
6
CONTINUOUS
10
3.56652
20
-4.6758
11
3.56644
21
-4.67575
0
LINE
8
BLACK
6
CONTINUOUS
10
3.56644
20
-4.67575
11
3.56637
21
-4.6757
0
LINE
8
BLACK
6
CONTINUOUS
10
3.56637
20
-4.6757
11
3.54368
21
-4.6572
0
LINE
8
BLACK
6
CONTINUOUS
10
3.54368
20
-4.6572
11
3.54367
21
-4.65719
0
LINE
8
BLACK
6
CONTINUOUS
10
3.54367
20
-4.65719
11
3.54361
21
-4.65713
0
LINE
8
BLACK
6
CONTINUOUS
10
3.54361
20
-4.65713
11
3.54355
21
-4.65706
0
LINE
8
BLACK
6
CONTINUOUS
10
3.54355
20
-4.65706
11
3.52489
21
-4.63451
0
LINE
8
BLACK
6
CONTINUOUS
10
3.52489
20
-4.63451
11
3.52488
21
-4.6345
0
LINE
8
BLACK
6
CONTINUOUS
10
3.52488
20
-4.6345
11
3.52483
21
-4.63442
0
LINE
8
BLACK
6
CONTINUOUS
10
3.52483
20
-4.63442
11
3.52478
21
-4.63435
0
LINE
8
BLACK
6
CONTINUOUS
10
3.52478
20
-4.63435
11
3.51085
21
-4.6086
0
LINE
8
BLACK
6
CONTINUOUS
10
3.51085
20
-4.6086
11
3.51085
21
-4.60858
0
LINE
8
BLACK
6
CONTINUOUS
10
3.51085
20
-4.60858
11
3.51081
21
-4.6085
0
LINE
8
BLACK
6
CONTINUOUS
10
3.51081
20
-4.6085
11
3.51078
21
-4.60842
0
LINE
8
BLACK
6
CONTINUOUS
10
3.51078
20
-4.60842
11
3.50212
21
-4.58045
0
LINE
8
BLACK
6
CONTINUOUS
10
3.50212
20
-4.58045
11
3.50212
21
-4.58044
0
LINE
8
BLACK
6
CONTINUOUS
10
3.50212
20
-4.58044
11
3.5021
21
-4.58035
0
LINE
8
BLACK
6
CONTINUOUS
10
3.5021
20
-4.58035
11
3.50208
21
-4.58026
0
LINE
8
BLACK
6
CONTINUOUS
10
3.50208
20
-4.58026
11
3.49902
21
-4.55115
0
LINE
8
BLACK
6
CONTINUOUS
10
3.49902
20
-4.55115
11
3.49902
21
-4.55114
0
LINE
8
BLACK
6
CONTINUOUS
10
3.49902
20
-4.55114
11
3.49902
21
-4.55109
0
LINE
8
BLACK
6
CONTINUOUS
10
3.49902
20
-4.55109
11
3.49902
21
-4.55105
0
LINE
8
BLACK
6
CONTINUOUS
10
3.49902
20
-4.55105
11
3.49902
21
-4.55005
0
LINE
8
BLACK
6
CONTINUOUS
10
3.49902
20
-4.55005
11
3.49902
21
-4.55005
0
LINE
8
BLACK
6
CONTINUOUS
10
3.49902
20
-4.55005
11
3.49902
21
-4.55001
0
LINE
8
BLACK
6
CONTINUOUS
10
3.49902
20
-4.55001
11
3.49902
21
-4.55
0
LINE
8
BLACK
6
CONTINUOUS
10
3.49902
20
-4.55
11
3.49902
21
-4.54999
0
LINE
8
BLACK
6
CONTINUOUS
10
3.49902
20
-4.54999
11
3.49902
21
-3.29995
0
LINE
8
BLACK
6
CONTINUOUS
10
3.49902
20
-3.29995
11
3.49902
21
-3.2999
0
LINE
8
BLACK
6
CONTINUOUS
10
3.49902
20
-3.2999
11
3.49902
21
-3.2999
0
LINE
8
BLACK
6
CONTINUOUS
10
3.49902
20
-3.2999
11
3.50188
21
-3.27077
0
LINE
8
BLACK
6
CONTINUOUS
10
3.50188
20
-3.27077
11
3.50188
21
-3.27076
0
LINE
8
BLACK
6
CONTINUOUS
10
3.50188
20
-3.27076
11
3.5019
21
-3.27067
0
LINE
8
BLACK
6
CONTINUOUS
10
3.5019
20
-3.27067
11
3.50191
21
-3.27058
0
LINE
8
BLACK
6
CONTINUOUS
10
3.50191
20
-3.27058
11
3.51038
21
-3.24255
0
LINE
8
BLACK
6
CONTINUOUS
10
3.51038
20
-3.24255
11
3.51038
21
-3.24254
0
LINE
8
BLACK
6
CONTINUOUS
10
3.51038
20
-3.24254
11
3.51042
21
-3.24246
0
LINE
8
BLACK
6
CONTINUOUS
10
3.51042
20
-3.24246
11
3.51045
21
-3.24238
0
LINE
8
BLACK
6
CONTINUOUS
10
3.51045
20
-3.24238
11
3.52419
21
-3.21653
0
LINE
8
BLACK
6
CONTINUOUS
10
3.52419
20
-3.21653
11
3.5242
21
-3.21652
0
LINE
8
BLACK
6
CONTINUOUS
10
3.5242
20
-3.21652
11
3.52425
21
-3.21644
0
LINE
8
BLACK
6
CONTINUOUS
10
3.52425
20
-3.21644
11
3.5243
21
-3.21637
0
LINE
8
BLACK
6
CONTINUOUS
10
3.5243
20
-3.21637
11
3.5428
21
-3.19368
0
LINE
8
BLACK
6
CONTINUOUS
10
3.5428
20
-3.19368
11
3.54281
21
-3.19367
0
LINE
8
BLACK
6
CONTINUOUS
10
3.54281
20
-3.19367
11
3.54287
21
-3.19361
0
LINE
8
BLACK
6
CONTINUOUS
10
3.54287
20
-3.19361
11
3.54294
21
-3.19355
0
LINE
8
BLACK
6
CONTINUOUS
10
3.54294
20
-3.19355
11
3.56549
21
-3.17489
0
LINE
8
BLACK
6
CONTINUOUS
10
3.56549
20
-3.17489
11
3.5655
21
-3.17488
0
LINE
8
BLACK
6
CONTINUOUS
10
3.5655
20
-3.17488
11
3.56558
21
-3.17483
0
LINE
8
BLACK
6
CONTINUOUS
10
3.56558
20
-3.17483
11
3.56565
21
-3.17478
0
LINE
8
BLACK
6
CONTINUOUS
10
3.56565
20
-3.17478
11
3.5914
21
-3.16085
0
LINE
8
BLACK
6
CONTINUOUS
10
3.5914
20
-3.16085
11
3.59142
21
-3.16085
0
LINE
8
BLACK
6
CONTINUOUS
10
3.59142
20
-3.16085
11
3.5915
21
-3.16081
0
LINE
8
BLACK
6
CONTINUOUS
10
3.5915
20
-3.16081
11
3.59158
21
-3.16078
0
LINE
8
BLACK
6
CONTINUOUS
10
3.59158
20
-3.16078
11
3.61955
21
-3.15212
0
LINE
8
BLACK
6
CONTINUOUS
10
3.61955
20
-3.15212
11
3.61956
21
-3.15212
0
LINE
8
BLACK
6
CONTINUOUS
10
3.61956
20
-3.15212
11
3.61965
21
-3.1521
0
LINE
8
BLACK
6
CONTINUOUS
10
3.61965
20
-3.1521
11
3.61974
21
-3.15208
0
LINE
8
BLACK
6
CONTINUOUS
10
3.61974
20
-3.15208
11
3.64885
21
-3.14902
0
LINE
8
BLACK
6
CONTINUOUS
10
3.64885
20
-3.14902
11
3.64886
21
-3.14902
0
LINE
8
BLACK
6
CONTINUOUS
10
3.64886
20
-3.14902
11
3.64891
21
-3.14902
0
LINE
8
BLACK
6
CONTINUOUS
10
3.64891
20
-3.14902
11
3.64895
21
-3.14902
0
LINE
8
BLACK
6
CONTINUOUS
10
3.64895
20
-3.14902
11
3.64995
21
-3.14902
0
LINE
8
BLACK
6
CONTINUOUS
10
3.64995
20
-3.14902
11
3.64995
21
-3.14902
0
LINE
8
BLACK
6
CONTINUOUS
10
3.64995
20
-3.14902
11
3.8
21
-3.14902
0
LINE
8
BLACK
6
CONTINUOUS
10
3.8
20
-3.14902
11
3.8003
21
-3.14901
0
LINE
8
BLACK
6
CONTINUOUS
10
3.8003
20
-3.14901
11
3.80985
21
-3.14801
0
LINE
8
BLACK
6
CONTINUOUS
10
3.80985
20
-3.14801
11
3.81899
21
-3.14518
0
LINE
8
BLACK
6
CONTINUOUS
10
3.81899
20
-3.14518
11
3.82741
21
-3.14063
0
LINE
8
BLACK
6
CONTINUOUS
10
3.82741
20
-3.14063
11
3.83478
21
-3.13453
0
LINE
8
BLACK
6
CONTINUOUS
10
3.83478
20
-3.13453
11
3.84082
21
-3.12712
0
LINE
8
BLACK
6
CONTINUOUS
10
3.84082
20
-3.12712
11
3.84531
21
-3.11868
0
LINE
8
BLACK
6
CONTINUOUS
10
3.84531
20
-3.11868
11
3.84808
21
-3.10952
0
LINE
8
BLACK
6
CONTINUOUS
10
3.84808
20
-3.10952
11
3.84902
21
-3.09995
0
LINE
8
BLACK
6
CONTINUOUS
10
3.84902
20
-3.09995
11
3.84852
21
-2.24995
0
LINE
8
BLACK
6
CONTINUOUS
10
3.84852
20
-2.24995
11
3.84852
21
-2.2499
0
LINE
8
BLACK
6
CONTINUOUS
10
3.84852
20
-2.2499
11
3.84852
21
-2.2499
0
LINE
8
BLACK
6
CONTINUOUS
10
3.84852
20
-2.2499
11
3.85139
21
-2.22067
0
LINE
8
BLACK
6
CONTINUOUS
10
3.85139
20
-2.22067
11
3.85139
21
-2.22066
0
LINE
8
BLACK
6
CONTINUOUS
10
3.85139
20
-2.22066
11
3.85141
21
-2.22057
0
LINE
8
BLACK
6
CONTINUOUS
10
3.85141
20
-2.22057
11
3.85142
21
-2.22048
0
LINE
8
BLACK
6
CONTINUOUS
10
3.85142
20
-2.22048
11
3.85991
21
-2.19236
0
LINE
8
BLACK
6
CONTINUOUS
10
3.85991
20
-2.19236
11
3.85992
21
-2.19235
0
LINE
8
BLACK
6
CONTINUOUS
10
3.85992
20
-2.19235
11
3.85995
21
-2.19227
0
LINE
8
BLACK
6
CONTINUOUS
10
3.85995
20
-2.19227
11
3.85999
21
-2.19219
0
LINE
8
BLACK
6
CONTINUOUS
10
3.85999
20
-2.19219
11
3.87378
21
-2.16625
0
LINE
8
BLACK
6
CONTINUOUS
10
3.87378
20
-2.16625
11
3.87378
21
-2.16624
0
LINE
8
BLACK
6
CONTINUOUS
10
3.87378
20
-2.16624
11
3.87383
21
-2.16617
0
LINE
8
BLACK
6
CONTINUOUS
10
3.87383
20
-2.16617
11
3.87388
21
-2.16609
0
LINE
8
BLACK
6
CONTINUOUS
10
3.87388
20
-2.16609
11
3.89245
21
-2.14333
0
LINE
8
BLACK
6
CONTINUOUS
10
3.89245
20
-2.14333
11
3.89246
21
-2.14332
0
LINE
8
BLACK
6
CONTINUOUS
10
3.89246
20
-2.14332
11
3.89252
21
-2.14326
0
LINE
8
BLACK
6
CONTINUOUS
10
3.89252
20
-2.14326
11
3.89258
21
-2.14319
0
LINE
8
BLACK
6
CONTINUOUS
10
3.89258
20
-2.14319
11
3.91521
21
-2.12447
0
LINE
8
BLACK
6
CONTINUOUS
10
3.91521
20
-2.12447
11
3.91522
21
-2.12446
0
LINE
8
BLACK
6
CONTINUOUS
10
3.91522
20
-2.12446
11
3.9153
21
-2.12441
0
LINE
8
BLACK
6
CONTINUOUS
10
3.9153
20
-2.12441
11
3.91537
21
-2.12436
0
LINE
8
BLACK
6
CONTINUOUS
10
3.91537
20
-2.12436
11
3.94121
21
-2.11039
0
LINE
8
BLACK
6
CONTINUOUS
10
3.94121
20
-2.11039
11
3.94122
21
-2.11039
0
LINE
8
BLACK
6
CONTINUOUS
10
3.94122
20
-2.11039
11
3.94131
21
-2.11035
0
LINE
8
BLACK
6
CONTINUOUS
10
3.94131
20
-2.11035
11
3.94139
21
-2.11032
0
LINE
8
BLACK
6
CONTINUOUS
10
3.94139
20
-2.11032
11
3.96945
21
-2.10163
0
LINE
8
BLACK
6
CONTINUOUS
10
3.96945
20
-2.10163
11
3.96946
21
-2.10163
0
LINE
8
BLACK
6
CONTINUOUS
10
3.96946
20
-2.10163
11
3.96955
21
-2.10161
0
LINE
8
BLACK
6
CONTINUOUS
10
3.96955
20
-2.10161
11
3.96963
21
-2.1016
0
LINE
8
BLACK
6
CONTINUOUS
10
3.96963
20
-2.1016
11
3.99885
21
-2.09852
0
LINE
8
BLACK
6
CONTINUOUS
10
3.99885
20
-2.09852
11
3.99886
21
-2.09852
0
LINE
8
BLACK
6
CONTINUOUS
10
3.99886
20
-2.09852
11
3.9989
21
-2.09852
0
LINE
8
BLACK
6
CONTINUOUS
10
3.9989
20
-2.09852
11
3.99895
21
-2.09852
0
LINE
8
BLACK
6
CONTINUOUS
10
3.99895
20
-2.09852
11
3.99995
21
-2.09852
0
LINE
8
BLACK
6
CONTINUOUS
10
3.99995
20
-2.09852
11
3.99995
21
-2.09852
0
LINE
8
BLACK
6
CONTINUOUS
10
3.99995
20
-2.09852
11
3.99999
21
-2.09852
0
LINE
8
BLACK
6
CONTINUOUS
10
3.99999
20
-2.09852
11
4
21
-2.09852
0
LINE
8
BLACK
6
CONTINUOUS
10
4
20
-2.09852
11
4.00001
21
-2.09852
0
LINE
8
BLACK
6
CONTINUOUS
10
4.00001
20
-2.09852
11
4.00001
21
-2.09852
0
LINE
8
BLACK
6
CONTINUOUS
10
4.00001
20
-2.09852
11
4.2
21
-2.09902
0
LINE
8
BLACK
6
CONTINUOUS
10
4.2
20
-2.09902
11
4.2
21
-2.09902
0
LINE
8
BLACK
6
CONTINUOUS
10
4.2
20
-2.09902
11
4.2003
21
-2.09901
0
LINE
8
BLACK
6
CONTINUOUS
10
4.2003
20
-2.09901
11
4.20986
21
-2.09801
0
LINE
8
BLACK
6
CONTINUOUS
10
4.20986
20
-2.09801
11
4.21899
21
-2.09518
0
LINE
8
BLACK
6
CONTINUOUS
10
4.21899
20
-2.09518
11
4.22741
21
-2.09063
0
LINE
8
BLACK
6
CONTINUOUS
10
4.22741
20
-2.09063
11
4.23478
21
-2.08453
0
LINE
8
BLACK
6
CONTINUOUS
10
4.23478
20
-2.08453
11
4.24082
21
-2.07712
0
LINE
8
BLACK
6
CONTINUOUS
10
4.24082
20
-2.07712
11
4.24531
21
-2.06868
0
LINE
8
BLACK
6
CONTINUOUS
10
4.24531
20
-2.06868
11
4.24808
21
-2.05952
0
LINE
8
BLACK
6
CONTINUOUS
10
4.24808
20
-2.05952
11
4.24902
21
-2.04995
0
LINE
8
BLACK
6
CONTINUOUS
10
4.24902
20
-2.04995
11
4.24902
21
-1.09995
0
LINE
8
BLACK
6
CONTINUOUS
10
4.24902
20
-1.09995
11
4.24902
21
-1.0999
0
LINE
8
BLACK
6
CONTINUOUS
10
4.24902
20
-1.0999
11
4.24902
21
-1.0999
0
LINE
8
BLACK
6
CONTINUOUS
10
4.24902
20
-1.0999
11
4.25188
21
-1.07077
0
LINE
8
BLACK
6
CONTINUOUS
10
4.25188
20
-1.07077
11
4.25188
21
-1.07076
0
LINE
8
BLACK
6
CONTINUOUS
10
4.25188
20
-1.07076
11
4.2519
21
-1.07067
0
LINE
8
BLACK
6
CONTINUOUS
10
4.2519
20
-1.07067
11
4.25191
21
-1.07058
0
LINE
8
BLACK
6
CONTINUOUS
10
4.25191
20
-1.07058
11
4.26038
21
-1.04255
0
LINE
8
BLACK
6
CONTINUOUS
10
4.26038
20
-1.04255
11
4.26038
21
-1.04254
0
LINE
8
BLACK
6
CONTINUOUS
10
4.26038
20
-1.04254
11
4.26042
21
-1.04246
0
LINE
8
BLACK
6
CONTINUOUS
10
4.26042
20
-1.04246
11
4.26045
21
-1.04238
0
LINE
8
BLACK
6
CONTINUOUS
10
4.26045
20
-1.04238
11
4.27419
21
-1.01653
0
LINE
8
BLACK
6
CONTINUOUS
10
4.27419
20
-1.01653
11
4.2742
21
-1.01652
0
LINE
8
BLACK
6
CONTINUOUS
10
4.2742
20
-1.01652
11
4.27425
21
-1.01644
0
LINE
8
BLACK
6
CONTINUOUS
10
4.27425
20
-1.01644
11
4.2743
21
-1.01637
0
LINE
8
BLACK
6
CONTINUOUS
10
4.2743
20
-1.01637
11
4.2928
21
-0.993683
0
LINE
8
BLACK
6
CONTINUOUS
10
4.2928
20
-0.993683
11
4.29281
21
-0.993672
0
LINE
8
BLACK
6
CONTINUOUS
10
4.29281
20
-0.993672
11
4.29287
21
-0.99361
0
LINE
8
BLACK
6
CONTINUOUS
10
4.29287
20
-0.99361
11
4.29294
21
-0.993546
0
LINE
8
BLACK
6
CONTINUOUS
10
4.29294
20
-0.993546
11
4.31549
21
-0.974886
0
LINE
8
BLACK
6
CONTINUOUS
10
4.31549
20
-0.974886
11
4.3155
21
-0.974877
0
LINE
8
BLACK
6
CONTINUOUS
10
4.3155
20
-0.974877
11
4.31558
21
-0.974828
0
LINE
8
BLACK
6
CONTINUOUS
10
4.31558
20
-0.974828
11
4.31565
21
-0.974779
0
LINE
8
BLACK
6
CONTINUOUS
10
4.31565
20
-0.974779
11
4.3414
21
-0.960855
0
LINE
8
BLACK
6
CONTINUOUS
10
4.3414
20
-0.960855
11
4.34142
21
-0.960848
0
LINE
8
BLACK
6
CONTINUOUS
10
4.34142
20
-0.960848
11
4.3415
21
-0.960815
0
LINE
8
BLACK
6
CONTINUOUS
10
4.3415
20
-0.960815
11
4.34158
21
-0.96078
0
LINE
8
BLACK
6
CONTINUOUS
10
4.34158
20
-0.96078
11
4.36955
21
-0.952123
0
LINE
8
BLACK
6
CONTINUOUS
10
4.36955
20
-0.952123
11
4.36956
21
-0.952119
0
LINE
8
BLACK
6
CONTINUOUS
10
4.36956
20
-0.952119
11
4.36965
21
-0.952103
0
LINE
8
BLACK
6
CONTINUOUS
10
4.36965
20
-0.952103
11
4.36974
21
-0.952085
0
LINE
8
BLACK
6
CONTINUOUS
10
4.36974
20
-0.952085
11
4.39885
21
-0.949025
0
LINE
8
BLACK
6
CONTINUOUS
10
4.39885
20
-0.949025
11
4.39886
21
-0.949023
0
LINE
8
BLACK
6
CONTINUOUS
10
4.39886
20
-0.949023
11
4.39891
21
-0.949024
0
LINE
8
BLACK
6
CONTINUOUS
10
4.39891
20
-0.949024
11
4.39895
21
-0.949019
0
LINE
8
BLACK
6
CONTINUOUS
10
4.39895
20
-0.949019
11
4.39995
21
-0.949016
0
LINE
8
BLACK
6
CONTINUOUS
10
4.39995
20
-0.949016
11
4.39995
21
-0.949016
0
LINE
8
BLACK
6
CONTINUOUS
10
4.39995
20
-0.949016
11
6.50005
21
-0.949016
0
LINE
8
BLACK
6
CONTINUOUS
10
6.50005
20
-0.949016
11
6.5001
21
-0.94902
0
LINE
8
BLACK
6
CONTINUOUS
10
6.5001
20
-0.94902
11
6.5001
21
-0.94902
0
LINE
8
BLACK
6
CONTINUOUS
10
6.5001
20
-0.94902
11
6.52923
21
-0.951877
0
LINE
8
BLACK
6
CONTINUOUS
10
6.52923
20
-0.951877
11
6.52924
21
-0.951879
0
LINE
8
BLACK
6
CONTINUOUS
10
6.52924
20
-0.951879
11
6.52933
21
-0.951897
0
LINE
8
BLACK
6
CONTINUOUS
10
6.52933
20
-0.951897
11
6.52942
21
-0.951914
0
LINE
8
BLACK
6
CONTINUOUS
10
6.52942
20
-0.951914
11
6.55745
21
-0.960376
0
LINE
8
BLACK
6
CONTINUOUS
10
6.55745
20
-0.960376
11
6.55746
21
-0.96038
0
LINE
8
BLACK
6
CONTINUOUS
10
6.55746
20
-0.96038
11
6.55754
21
-0.960415
0
LINE
8
BLACK
6
CONTINUOUS
10
6.55754
20
-0.960415
11
6.55762
21
-0.960449
0
LINE
8
BLACK
6
CONTINUOUS
10
6.55762
20
-0.960449
11
6.58347
21
-0.974193
0
LINE
8
BLACK
6
CONTINUOUS
10
6.58347
20
-0.974193
11
6.58348
21
-0.974199
0
LINE
8
BLACK
6
CONTINUOUS
10
6.58348
20
-0.974199
11
6.58356
21
-0.974249
0
LINE
8
BLACK
6
CONTINUOUS
10
6.58356
20
-0.974249
11
6.58363
21
-0.974299
0
LINE
8
BLACK
6
CONTINUOUS
10
6.58363
20
-0.974299
11
6.60632
21
-0.992802
0
LINE
8
BLACK
6
CONTINUOUS
10
6.60632
20
-0.992802
11
6.60633
21
-0.99281
0
LINE
8
BLACK
6
CONTINUOUS
10
6.60633
20
-0.99281
11
6.60639
21
-0.992874
0
LINE
8
BLACK
6
CONTINUOUS
10
6.60639
20
-0.992874
11
6.60645
21
-0.992937
0
LINE
8
BLACK
6
CONTINUOUS
10
6.60645
20
-0.992937
11
6.62511
21
-1.01549
0
LINE
8
BLACK
6
CONTINUOUS
10
6.62511
20
-1.01549
11
6.62512
21
-1.0155
0
LINE
8
BLACK
6
CONTINUOUS
10
6.62512
20
-1.0155
11
6.62517
21
-1.01558
0
LINE
8
BLACK
6
CONTINUOUS
10
6.62517
20
-1.01558
11
6.62522
21
-1.01565
0
LINE
8
BLACK
6
CONTINUOUS
10
6.62522
20
-1.01565
11
6.63915
21
-1.0414
0
LINE
8
BLACK
6
CONTINUOUS
10
6.63915
20
-1.0414
11
6.63915
21
-1.04142
0
LINE
8
BLACK
6
CONTINUOUS
10
6.63915
20
-1.04142
11
6.63919
21
-1.0415
0
LINE
8
BLACK
6
CONTINUOUS
10
6.63919
20
-1.0415
11
6.63922
21
-1.04158
0
LINE
8
BLACK
6
CONTINUOUS
10
6.63922
20
-1.04158
11
6.64788
21
-1.06955
0
LINE
8
BLACK
6
CONTINUOUS
10
6.64788
20
-1.06955
11
6.64788
21
-1.06956
0
LINE
8
BLACK
6
CONTINUOUS
10
6.64788
20
-1.06956
11
6.6479
21
-1.06965
0
LINE
8
BLACK
6
CONTINUOUS
10
6.6479
20
-1.06965
11
6.64792
21
-1.06974
0
LINE
8
BLACK
6
CONTINUOUS
10
6.64792
20
-1.06974
11
6.65098
21
-1.09885
0
LINE
8
BLACK
6
CONTINUOUS
10
6.65098
20
-1.09885
11
6.65098
21
-1.09886
0
LINE
8
BLACK
6
CONTINUOUS
10
6.65098
20
-1.09886
11
6.65098
21
-1.09891
0
LINE
8
BLACK
6
CONTINUOUS
10
6.65098
20
-1.09891
11
6.65098
21
-1.09895
0
LINE
8
BLACK
6
CONTINUOUS
10
6.65098
20
-1.09895
11
6.65098
21
-1.09995
0
LINE
8
BLACK
6
CONTINUOUS
10
6.65098
20
-1.09995
11
6.65098
21
-1.09995
0
LINE
8
BLACK
6
CONTINUOUS
10
6.65098
20
-1.09995
11
6.65098
21
-1.7
0
LINE
8
BLACK
6
CONTINUOUS
10
6.65098
20
-1.7
11
6.65099
21
-1.70099
0
LINE
8
BLACK
6
CONTINUOUS
10
6.65099
20
-1.70099
11
6.65403
21
-1.72996
0
LINE
8
BLACK
6
CONTINUOUS
10
6.65403
20
-1.72996
11
6.66263
21
-1.75774
0
LINE
8
BLACK
6
CONTINUOUS
10
6.66263
20
-1.75774
11
6.67646
21
-1.78333
0
LINE
8
BLACK
6
CONTINUOUS
10
6.67646
20
-1.78333
11
6.695
21
-1.80573
0
LINE
8
BLACK
6
CONTINUOUS
10
6.695
20
-1.80573
11
6.71754
21
-1.82411
0
LINE
8
BLACK
6
CONTINUOUS
10
6.71754
20
-1.82411
11
6.74322
21
-1.83777
0
LINE
8
BLACK
6
CONTINUOUS
10
6.74322
20
-1.83777
11
6.77106
21
-1.84617
0
LINE
8
BLACK
6
CONTINUOUS
10
6.77106
20
-1.84617
11
6.80005
21
-1.84902
0
LINE
8
BLACK
6
CONTINUOUS
10
6.80005
20
-1.84902
11
8.35005
21
-1.84902
0
LINE
8
BLACK
6
CONTINUOUS
10
8.35005
20
-1.84902
11
8.3501
21
-1.84902
0
LINE
8
BLACK
6
CONTINUOUS
10
8.3501
20
-1.84902
11
8.3501
21
-1.84902
0
LINE
8
BLACK
6
CONTINUOUS
10
8.3501
20
-1.84902
11
8.37923
21
-1.85188
0
LINE
8
BLACK
6
CONTINUOUS
10
8.37923
20
-1.85188
11
8.37924
21
-1.85188
0
LINE
8
BLACK
6
CONTINUOUS
10
8.37924
20
-1.85188
11
8.37933
21
-1.8519
0
LINE
8
BLACK
6
CONTINUOUS
10
8.37933
20
-1.8519
11
8.37942
21
-1.85191
0
LINE
8
BLACK
6
CONTINUOUS
10
8.37942
20
-1.85191
11
8.40745
21
-1.86038
0
LINE
8
BLACK
6
CONTINUOUS
10
8.40745
20
-1.86038
11
8.40746
21
-1.86038
0
LINE
8
BLACK
6
CONTINUOUS
10
8.40746
20
-1.86038
11
8.40754
21
-1.86042
0
LINE
8
BLACK
6
CONTINUOUS
10
8.40754
20
-1.86042
11
8.40762
21
-1.86045
0
LINE
8
BLACK
6
CONTINUOUS
10
8.40762
20
-1.86045
11
8.43347
21
-1.87419
0
LINE
8
BLACK
6
CONTINUOUS
10
8.43347
20
-1.87419
11
8.43348
21
-1.8742
0
LINE
8
BLACK
6
CONTINUOUS
10
8.43348
20
-1.8742
11
8.43356
21
-1.87425
0
LINE
8
BLACK
6
CONTINUOUS
10
8.43356
20
-1.87425
11
8.43363
21
-1.8743
0
LINE
8
BLACK
6
CONTINUOUS
10
8.43363
20
-1.8743
11
8.45632
21
-1.8928
0
LINE
8
BLACK
6
CONTINUOUS
10
8.45632
20
-1.8928
11
8.45633
21
-1.89281
0
LINE
8
BLACK
6
CONTINUOUS
10
8.45633
20
-1.89281
11
8.45639
21
-1.89287
0
LINE
8
BLACK
6
CONTINUOUS
10
8.45639
20
-1.89287
11
8.45645
21
-1.89294
0
LINE
8
BLACK
6
CONTINUOUS
10
8.45645
20
-1.89294
11
8.47511
21
-1.91549
0
LINE
8
BLACK
6
CONTINUOUS
10
8.47511
20
-1.91549
11
8.47512
21
-1.9155
0
LINE
8
BLACK
6
CONTINUOUS
10
8.47512
20
-1.9155
11
8.47517
21
-1.91558
0
LINE
8
BLACK
6
CONTINUOUS
10
8.47517
20
-1.91558
11
8.47522
21
-1.91565
0
LINE
8
BLACK
6
CONTINUOUS
10
8.47522
20
-1.91565
11
8.48915
21
-1.9414
0
LINE
8
BLACK
6
CONTINUOUS
10
8.48915
20
-1.9414
11
8.48915
21
-1.94142
0
LINE
8
BLACK
6
CONTINUOUS
10
8.48915
20
-1.94142
11
8.48919
21
-1.9415
0
LINE
8
BLACK
6
CONTINUOUS
10
8.48919
20
-1.9415
11
8.48922
21
-1.94158
0
LINE
8
BLACK
6
CONTINUOUS
10
8.48922
20
-1.94158
11
8.49788
21
-1.96955
0
LINE
8
BLACK
6
CONTINUOUS
10
8.49788
20
-1.96955
11
8.49788
21
-1.96956
0
LINE
8
BLACK
6
CONTINUOUS
10
8.49788
20
-1.96956
11
8.4979
21
-1.96965
0
LINE
8
BLACK
6
CONTINUOUS
10
8.4979
20
-1.96965
11
8.49792
21
-1.96974
0
LINE
8
BLACK
6
CONTINUOUS
10
8.49792
20
-1.96974
11
8.50098
21
-1.99885
0
LINE
8
BLACK
6
CONTINUOUS
10
8.50098
20
-1.99885
11
8.50098
21
-1.99886
0
LINE
8
BLACK
6
CONTINUOUS
10
8.50098
20
-1.99886
11
8.50098
21
-1.99891
0
LINE
8
BLACK
6
CONTINUOUS
10
8.50098
20
-1.99891
11
8.50098
21
-1.99895
0
LINE
8
BLACK
6
CONTINUOUS
10
8.50098
20
-1.99895
11
8.50098
21
-1.99995
0
LINE
8
BLACK
6
CONTINUOUS
10
8.50098
20
-1.99995
11
8.50098
21
-1.99995
0
LINE
8
BLACK
6
CONTINUOUS
10
8.50098
20
-1.99995
11
8.50098
21
-3.85005
0
LINE
8
BLACK
6
CONTINUOUS
10
8.50098
20
-3.85005
11
8.50098
21
-3.8501
0
LINE
8
BLACK
6
CONTINUOUS
10
8.50098
20
-3.8501
11
8.50098
21
-3.8501
0
LINE
8
BLACK
6
CONTINUOUS
10
8.50098
20
-3.8501
11
8.49812
21
-3.87923
0
LINE
8
BLACK
6
CONTINUOUS
10
8.49812
20
-3.87923
11
8.49812
21
-3.87924
0
LINE
8
BLACK
6
CONTINUOUS
10
8.49812
20
-3.87924
11
8.4981
21
-3.87933
0
LINE
8
BLACK
6
CONTINUOUS
10
8.4981
20
-3.87933
11
8.49809
21
-3.87942
0
LINE
8
BLACK
6
CONTINUOUS
10
8.49809
20
-3.87942
11
8.48962
21
-3.90745
0
LINE
8
BLACK
6
CONTINUOUS
10
8.48962
20
-3.90745
11
8.48962
21
-3.90746
0
LINE
8
BLACK
6
CONTINUOUS
10
8.48962
20
-3.90746
11
8.48958
21
-3.90754
0
LINE
8
BLACK
6
CONTINUOUS
10
8.48958
20
-3.90754
11
8.48955
21
-3.90762
0
LINE
8
BLACK
6
CONTINUOUS
10
8.48955
20
-3.90762
11
8.47581
21
-3.93347
0
LINE
8
BLACK
6
CONTINUOUS
10
8.47581
20
-3.93347
11
8.4758
21
-3.93348
0
LINE
8
BLACK
6
CONTINUOUS
10
8.4758
20
-3.93348
11
8.47575
21
-3.93356
0
LINE
8
BLACK
6
CONTINUOUS
10
8.47575
20
-3.93356
11
8.4757
21
-3.93363
0
LINE
8
BLACK
6
CONTINUOUS
10
8.4757
20
-3.93363
11
8.4572
21
-3.95632
0
LINE
8
BLACK
6
CONTINUOUS
10
8.4572
20
-3.95632
11
8.45719
21
-3.95633
0
LINE
8
BLACK
6
CONTINUOUS
10
8.45719
20
-3.95633
11
8.45713
21
-3.95639
0
LINE
8
BLACK
6
CONTINUOUS
10
8.45713
20
-3.95639
11
8.45706
21
-3.95645
0
LINE
8
BLACK
6
CONTINUOUS
10
8.45706
20
-3.95645
11
8.43451
21
-3.97511
0
LINE
8
BLACK
6
CONTINUOUS
10
8.43451
20
-3.97511
11
8.4345
21
-3.97512
0
LINE
8
BLACK
6
CONTINUOUS
10
8.4345
20
-3.97512
11
8.43442
21
-3.97517
0
LINE
8
BLACK
6
CONTINUOUS
10
8.43442
20
-3.97517
11
8.43435
21
-3.97522
0
LINE
8
BLACK
6
CONTINUOUS
10
8.43435
20
-3.97522
11
8.4086
21
-3.98915
0
LINE
8
BLACK
6
CONTINUOUS
10
8.4086
20
-3.98915
11
8.40858
21
-3.98915
0
LINE
8
BLACK
6
CONTINUOUS
10
8.40858
20
-3.98915
11
8.4085
21
-3.98919
0
LINE
8
BLACK
6
CONTINUOUS
10
8.4085
20
-3.98919
11
8.40842
21
-3.98922
0
LINE
8
BLACK
6
CONTINUOUS
10
8.40842
20
-3.98922
11
8.38045
21
-3.99788
0
LINE
8
BLACK
6
CONTINUOUS
10
8.38045
20
-3.99788
11
8.38044
21
-3.99788
0
LINE
8
BLACK
6
CONTINUOUS
10
8.38044
20
-3.99788
11
8.38035
21
-3.9979
0
LINE
8
BLACK
6
CONTINUOUS
10
8.38035
20
-3.9979
11
8.38026
21
-3.99792
0
LINE
8
BLACK
6
CONTINUOUS
10
8.38026
20
-3.99792
11
8.35115
21
-4.00098
0
LINE
8
BLACK
6
CONTINUOUS
10
8.35115
20
-4.00098
11
8.35114
21
-4.00098
0
LINE
8
BLACK
6
CONTINUOUS
10
8.35114
20
-4.00098
11
8.35109
21
-4.00098
0
LINE
8
BLACK
6
CONTINUOUS
10
8.35109
20
-4.00098
11
8.35105
21
-4.00098
0
LINE
8
BLACK
6
CONTINUOUS
10
8.35105
20
-4.00098
11
8.35005
21
-4.00098
0
LINE
8
BLACK
6
CONTINUOUS
10
8.35005
20
-4.00098
11
8.35005
21
-4.00098
0
LINE
8
BLACK
6
CONTINUOUS
10
8.35005
20
-4.00098
11
6.65
21
-4.00098
0
LINE
8
BLACK
6
CONTINUOUS
10
6.65
20
-4.00098
11
6.64901
21
-4.00099
0
LINE
8
BLACK
6
CONTINUOUS
10
3.64901
20
-3.15099
11
3.62004
21
-3.15403
0
LINE
8
BLACK
6
CONTINUOUS
10
3.62004
20
-3.15403
11
3.59226
21
-3.16263
0
LINE
8
BLACK
6
CONTINUOUS
10
3.59226
20
-3.16263
11
3.56667
21
-3.17646
0
LINE
8
BLACK
6
CONTINUOUS
10
3.56667
20
-3.17646
11
3.54427
21
-3.195
0
LINE
8
BLACK
6
CONTINUOUS
10
3.54427
20
-3.195
11
3.52589
21
-3.21754
0
LINE
8
BLACK
6
CONTINUOUS
10
3.52589
20
-3.21754
11
3.51223
21
-3.24322
0
LINE
8
BLACK
6
CONTINUOUS
10
3.51223
20
-3.24322
11
3.50383
21
-3.27106
0
LINE
8
BLACK
6
CONTINUOUS
10
3.50383
20
-3.27106
11
3.50098
21
-3.30005
0
LINE
8
BLACK
6
CONTINUOUS
10
3.50098
20
-3.30005
11
3.50098
21
-4.55
0
LINE
8
BLACK
6
CONTINUOUS
10
3.50098
20
-4.55
11
3.50099
21
-4.55099
0
LINE
8
BLACK
6
CONTINUOUS
10
3.50099
20
-4.55099
11
3.50403
21
-4.57996
0
LINE
8
BLACK
6
CONTINUOUS
10
3.50403
20
-4.57996
11
3.51263
21
-4.60774
0
LINE
8
BLACK
6
CONTINUOUS
10
3.51263
20
-4.60774
11
3.52646
21
-4.63333
0
LINE
8
BLACK
6
CONTINUOUS
10
3.52646
20
-4.63333
11
3.545
21
-4.65573
0
LINE
8
BLACK
6
CONTINUOUS
10
3.545
20
-4.65573
11
3.56754
21
-4.67411
0
LINE
8
BLACK
6
CONTINUOUS
10
3.56754
20
-4.67411
11
3.59322
21
-4.68777
0
LINE
8
BLACK
6
CONTINUOUS
10
3.59322
20
-4.68777
11
3.62106
21
-4.69617
0
LINE
8
BLACK
6
CONTINUOUS
10
3.62106
20
-4.69617
11
3.65005
21
-4.69902
0
LINE
8
BLACK
6
CONTINUOUS
10
3.65005
20
-4.69902
11
4.75005
21
-4.69902
0
LINE
8
BLACK
6
CONTINUOUS
10
4.75005
20
-4.69902
11
4.7501
21
-4.69902
0
LINE
8
BLACK
6
CONTINUOUS
10
4.7501
20
-4.69902
11
4.7501
21
-4.69902
0
LINE
8
BLACK
6
CONTINUOUS
10
4.7501
20
-4.69902
11
4.77923
21
-4.70188
0
LINE
8
BLACK
6
CONTINUOUS
10
4.77923
20
-4.70188
11
4.77924
21
-4.70188
0
LINE
8
BLACK
6
CONTINUOUS
10
4.77924
20
-4.70188
11
4.77933
21
-4.7019
0
LINE
8
BLACK
6
CONTINUOUS
10
4.77933
20
-4.7019
11
4.77942
21
-4.70191
0
LINE
8
BLACK
6
CONTINUOUS
10
4.77942
20
-4.70191
11
4.80745
21
-4.71038
0
LINE
8
BLACK
6
CONTINUOUS
10
4.80745
20
-4.71038
11
4.80746
21
-4.71038
0
LINE
8
BLACK
6
CONTINUOUS
10
4.80746
20
-4.71038
11
4.80754
21
-4.71042
0
LINE
8
BLACK
6
CONTINUOUS
10
4.80754
20
-4.71042
11
4.80762
21
-4.71045
0
LINE
8
BLACK
6
CONTINUOUS
10
4.80762
20
-4.71045
11
4.83347
21
-4.72419
0
LINE
8
BLACK
6
CONTINUOUS
10
4.83347
20
-4.72419
11
4.83348
21
-4.7242
0
LINE
8
BLACK
6
CONTINUOUS
10
4.83348
20
-4.7242
11
4.83356
21
-4.72425
0
LINE
8
BLACK
6
CONTINUOUS
10
4.83356
20
-4.72425
11
4.83363
21
-4.7243
0
LINE
8
BLACK
6
CONTINUOUS
10
4.83363
20
-4.7243
11
4.85632
21
-4.7428
0
LINE
8
BLACK
6
CONTINUOUS
10
4.85632
20
-4.7428
11
4.85633
21
-4.74281
0
LINE
8
BLACK
6
CONTINUOUS
10
4.85633
20
-4.74281
11
4.85639
21
-4.74287
0
LINE
8
BLACK
6
CONTINUOUS
10
4.85639
20
-4.74287
11
4.85645
21
-4.74294
0
LINE
8
BLACK
6
CONTINUOUS
10
4.85645
20
-4.74294
11
4.87511
21
-4.76549
0
LINE
8
BLACK
6
CONTINUOUS
10
4.87511
20
-4.76549
11
4.87512
21
-4.7655
0
LINE
8
BLACK
6
CONTINUOUS
10
4.87512
20
-4.7655
11
4.87517
21
-4.76558
0
LINE
8
BLACK
6
CONTINUOUS
10
4.87517
20
-4.76558
11
4.87522
21
-4.76565
0
LINE
8
BLACK
6
CONTINUOUS
10
4.87522
20
-4.76565
11
4.88915
21
-4.7914
0
LINE
8
BLACK
6
CONTINUOUS
10
4.88915
20
-4.7914
11
4.88915
21
-4.79142
0
LINE
8
BLACK
6
CONTINUOUS
10
4.88915
20
-4.79142
11
4.88919
21
-4.7915
0
LINE
8
BLACK
6
CONTINUOUS
10
4.88919
20
-4.7915
11
4.88922
21
-4.79158
0
LINE
8
BLACK
6
CONTINUOUS
10
4.88922
20
-4.79158
11
4.89788
21
-4.81955
0
LINE
8
BLACK
6
CONTINUOUS
10
4.89788
20
-4.81955
11
4.89788
21
-4.81956
0
LINE
8
BLACK
6
CONTINUOUS
10
4.89788
20
-4.81956
11
4.8979
21
-4.81965
0
LINE
8
BLACK
6
CONTINUOUS
10
4.8979
20
-4.81965
11
4.89792
21
-4.81974
0
LINE
8
BLACK
6
CONTINUOUS
10
4.89792
20
-4.81974
11
4.90098
21
-4.84885
0
LINE
8
BLACK
6
CONTINUOUS
10
4.90098
20
-4.84885
11
4.90098
21
-4.84886
0
LINE
8
BLACK
6
CONTINUOUS
10
4.90098
20
-4.84886
11
4.90098
21
-4.84891
0
LINE
8
BLACK
6
CONTINUOUS
10
4.90098
20
-4.84891
11
4.90098
21
-4.84895
0
LINE
8
BLACK
6
CONTINUOUS
10
4.90098
20
-4.84895
11
4.90098
21
-4.84995
0
LINE
8
BLACK
6
CONTINUOUS
10
4.90098
20
-4.84995
11
4.90098
21
-4.84995
0
LINE
8
BLACK
6
CONTINUOUS
10
4.90098
20
-4.84995
11
4.90098
21
-6
0
LINE
8
BLACK
6
CONTINUOUS
10
4.90098
20
-6
11
4.90099
21
-6.00099
0
LINE
8
BLACK
6
CONTINUOUS
10
4.90099
20
-6.00099
11
4.90403
21
-6.02996
0
LINE
8
BLACK
6
CONTINUOUS
10
4.90403
20
-6.02996
11
4.91263
21
-6.05774
0
LINE
8
BLACK
6
CONTINUOUS
10
4.91263
20
-6.05774
11
4.92646
21
-6.08333
0
LINE
8
BLACK
6
CONTINUOUS
10
4.92646
20
-6.08333
11
4.945
21
-6.10573
0
LINE
8
BLACK
6
CONTINUOUS
10
4.945
20
-6.10573
11
4.96754
21
-6.12411
0
LINE
8
BLACK
6
CONTINUOUS
10
4.96754
20
-6.12411
11
4.99322
21
-6.13777
0
LINE
8
BLACK
6
CONTINUOUS
10
4.99322
20
-6.13777
11
5.02106
21
-6.14617
0
LINE
8
BLACK
6
CONTINUOUS
10
5.02106
20
-6.14617
11
5.05005
21
-6.14902
0
LINE
8
BLACK
6
CONTINUOUS
10
5.05005
20
-6.14902
11
6.35
21
-6.14902
0
LINE
8
BLACK
6
CONTINUOUS
10
6.35
20
-6.14902
11
6.35099
21
-6.14901
0
LINE
8
BLACK
6
CONTINUOUS
10
6.35099
20
-6.14901
11
6.37996
21
-6.14597
0
LINE
8
BLACK
6
CONTINUOUS
10
6.37996
20
-6.14597
11
6.40774
21
-6.13737
0
LINE
8
BLACK
6
CONTINUOUS
10
6.40774
20
-6.13737
11
6.43333
21
-6.12354
0
LINE
8
BLACK
6
CONTINUOUS
10
6.43333
20
-6.12354
11
6.45573
21
-6.105
0
LINE
8
BLACK
6
CONTINUOUS
10
6.45573
20
-6.105
11
6.47411
21
-6.08246
0
LINE
8
BLACK
6
CONTINUOUS
10
6.47411
20
-6.08246
11
6.48777
21
-6.05678
0
LINE
8
BLACK
6
CONTINUOUS
10
6.48777
20
-6.05678
11
6.49617
21
-6.02894
0
LINE
8
BLACK
6
CONTINUOUS
10
6.49617
20
-6.02894
11
6.49902
21
-5.99995
0
LINE
8
BLACK
6
CONTINUOUS
10
6.49902
20
-5.99995
11
6.49902
21
-4.14995
0
LINE
8
BLACK
6
CONTINUOUS
10
6.49902
20
-4.14995
11
6.49902
21
-4.1499
0
LINE
8
BLACK
6
CONTINUOUS
10
6.49902
20
-4.1499
11
6.49902
21
-4.1499
0
LINE
8
BLACK
6
CONTINUOUS
10
6.49902
20
-4.1499
11
6.50188
21
-4.12077
0
LINE
8
BLACK
6
CONTINUOUS
10
6.50188
20
-4.12077
11
6.50188
21
-4.12076
0
LINE
8
BLACK
6
CONTINUOUS
10
6.50188
20
-4.12076
11
6.5019
21
-4.12067
0
LINE
8
BLACK
6
CONTINUOUS
10
6.5019
20
-4.12067
11
6.50191
21
-4.12058
0
LINE
8
BLACK
6
CONTINUOUS
10
6.50191
20
-4.12058
11
6.51038
21
-4.09255
0
LINE
8
BLACK
6
CONTINUOUS
10
6.51038
20
-4.09255
11
6.51038
21
-4.09254
0
LINE
8
BLACK
6
CONTINUOUS
10
6.51038
20
-4.09254
11
6.51042
21
-4.09246
0
LINE
8
BLACK
6
CONTINUOUS
10
6.51042
20
-4.09246
11
6.51045
21
-4.09238
0
LINE
8
BLACK
6
CONTINUOUS
10
6.51045
20
-4.09238
11
6.52419
21
-4.06653
0
LINE
8
BLACK
6
CONTINUOUS
10
6.52419
20
-4.06653
11
6.5242
21
-4.06652
0
LINE
8
BLACK
6
CONTINUOUS
10
6.5242
20
-4.06652
11
6.52425
21
-4.06644
0
LINE
8
BLACK
6
CONTINUOUS
10
6.52425
20
-4.06644
11
6.5243
21
-4.06637
0
LINE
8
BLACK
6
CONTINUOUS
10
6.5243
20
-4.06637
11
6.5428
21
-4.04368
0
LINE
8
BLACK
6
CONTINUOUS
10
6.5428
20
-4.04368
11
6.54281
21
-4.04367
0
LINE
8
BLACK
6
CONTINUOUS
10
6.54281
20
-4.04367
11
6.54287
21
-4.04361
0
LINE
8
BLACK
6
CONTINUOUS
10
6.54287
20
-4.04361
11
6.54294
21
-4.04355
0
LINE
8
BLACK
6
CONTINUOUS
10
6.54294
20
-4.04355
11
6.56549
21
-4.02489
0
LINE
8
BLACK
6
CONTINUOUS
10
6.56549
20
-4.02489
11
6.5655
21
-4.02488
0
LINE
8
BLACK
6
CONTINUOUS
10
6.5655
20
-4.02488
11
6.56558
21
-4.02483
0
LINE
8
BLACK
6
CONTINUOUS
10
6.56558
20
-4.02483
11
6.56565
21
-4.02478
0
LINE
8
BLACK
6
CONTINUOUS
10
6.56565
20
-4.02478
11
6.5914
21
-4.01085
0
LINE
8
BLACK
6
CONTINUOUS
10
6.5914
20
-4.01085
11
6.59142
21
-4.01085
0
LINE
8
BLACK
6
CONTINUOUS
10
6.59142
20
-4.01085
11
6.5915
21
-4.01081
0
LINE
8
BLACK
6
CONTINUOUS
10
6.5915
20
-4.01081
11
6.59158
21
-4.01078
0
LINE
8
BLACK
6
CONTINUOUS
10
6.59158
20
-4.01078
11
6.61955
21
-4.00212
0
LINE
8
BLACK
6
CONTINUOUS
10
6.61955
20
-4.00212
11
6.61956
21
-4.00212
0
LINE
8
BLACK
6
CONTINUOUS
10
6.61956
20
-4.00212
11
6.61965
21
-4.0021
0
LINE
8
BLACK
6
CONTINUOUS
10
6.61965
20
-4.0021
11
6.61974
21
-4.00208
0
LINE
8
BLACK
6
CONTINUOUS
10
6.61974
20
-4.00208
11
6.64885
21
-3.99902
0
LINE
8
BLACK
6
CONTINUOUS
10
6.64885
20
-3.99902
11
6.64886
21
-3.99902
0
LINE
8
BLACK
6
CONTINUOUS
10
6.64886
20
-3.99902
11
6.64891
21
-3.99902
0
LINE
8
BLACK
6
CONTINUOUS
10
6.64891
20
-3.99902
11
6.64895
21
-3.99902
0
LINE
8
BLACK
6
CONTINUOUS
10
6.64895
20
-3.99902
11
6.64995
21
-3.99902
0
LINE
8
BLACK
6
CONTINUOUS
10
6.64995
20
-3.99902
11
6.64995
21
-3.99902
0
LINE
8
BLACK
6
CONTINUOUS
10
6.64995
20
-3.99902
11
8.35
21
-3.99902
0
LINE
8
BLACK
6
CONTINUOUS
10
8.35
20
-3.99902
11
8.35099
21
-3.99901
0
LINE
8
BLACK
6
CONTINUOUS
10
8.35099
20
-3.99901
11
8.37996
21
-3.99597
0
LINE
8
BLACK
6
CONTINUOUS
10
8.37996
20
-3.99597
11
8.40774
21
-3.98737
0
LINE
8
BLACK
6
CONTINUOUS
10
8.40774
20
-3.98737
11
8.43333
21
-3.97354
0
LINE
8
BLACK
6
CONTINUOUS
10
8.43333
20
-3.97354
11
8.45573
21
-3.955
0
LINE
8
BLACK
6
CONTINUOUS
10
8.45573
20
-3.955
11
8.47411
21
-3.93246
0
LINE
8
BLACK
6
CONTINUOUS
10
8.47411
20
-3.93246
11
8.48777
21
-3.90678
0
LINE
8
BLACK
6
CONTINUOUS
10
8.48777
20
-3.90678
11
8.49617
21
-3.87894
0
LINE
8
BLACK
6
CONTINUOUS
10
8.49617
20
-3.87894
11
8.49902
21
-3.84995
0
LINE
8
BLACK
6
CONTINUOUS
10
8.49902
20
-3.84995
11
8.49902
21
-2
0
LINE
8
BLACK
6
CONTINUOUS
10
8.49902
20
-2
11
8.49902
21
-2
0
LINE
8
BLACK
6
CONTINUOUS
10
8.49902
20
-2
11
8.49901
21
-1.99901
0
LINE
8
BLACK
6
CONTINUOUS
10
8.49901
20
-1.99901
11
8.49597
21
-1.97004
0
LINE
8
BLACK
6
CONTINUOUS
10
8.49597
20
-1.97004
11
8.48737
21
-1.94226
0
LINE
8
BLACK
6
CONTINUOUS
10
8.48737
20
-1.94226
11
8.47354
21
-1.91667
0
LINE
8
BLACK
6
CONTINUOUS
10
8.47354
20
-1.91667
11
8.455
21
-1.89427
0
LINE
8
BLACK
6
CONTINUOUS
10
8.455
20
-1.89427
11
8.43246
21
-1.87589
0
LINE
8
BLACK
6
CONTINUOUS
10
8.43246
20
-1.87589
11
8.40678
21
-1.86223
0
LINE
8
BLACK
6
CONTINUOUS
10
8.40678
20
-1.86223
11
8.37894
21
-1.85383
0
LINE
8
BLACK
6
CONTINUOUS
10
8.37894
20
-1.85383
11
8.34995
21
-1.85098
0
LINE
8
BLACK
6
CONTINUOUS
10
8.34995
20
-1.85098
11
6.79995
21
-1.85098
0
LINE
8
BLACK
6
CONTINUOUS
10
6.79995
20
-1.85098
11
6.7999
21
-1.85098
0
LINE
8
BLACK
6
CONTINUOUS
10
6.7999
20
-1.85098
11
6.7999
21
-1.85098
0
LINE
8
BLACK
6
CONTINUOUS
10
6.7999
20
-1.85098
11
6.77077
21
-1.84812
0
LINE
8
BLACK
6
CONTINUOUS
10
6.77077
20
-1.84812
11
6.77076
21
-1.84812
0
LINE
8
BLACK
6
CONTINUOUS
10
6.77076
20
-1.84812
11
6.77067
21
-1.8481
0
LINE
8
BLACK
6
CONTINUOUS
10
6.77067
20
-1.8481
11
6.77058
21
-1.84809
0
LINE
8
BLACK
6
CONTINUOUS
10
6.77058
20
-1.84809
11
6.74255
21
-1.83962
0
LINE
8
BLACK
6
CONTINUOUS
10
6.74255
20
-1.83962
11
6.74254
21
-1.83962
0
LINE
8
BLACK
6
CONTINUOUS
10
6.74254
20
-1.83962
11
6.74246
21
-1.83958
0
LINE
8
BLACK
6
CONTINUOUS
10
6.74246
20
-1.83958
11
6.74238
21
-1.83955
0
LINE
8
BLACK
6
CONTINUOUS
10
6.74238
20
-1.83955
11
6.71653
21
-1.82581
0
LINE
8
BLACK
6
CONTINUOUS
10
6.71653
20
-1.82581
11
6.71652
21
-1.8258
0
LINE
8
BLACK
6
CONTINUOUS
10
6.71652
20
-1.8258
11
6.71644
21
-1.82575
0
LINE
8
BLACK
6
CONTINUOUS
10
6.71644
20
-1.82575
11
6.71637
21
-1.8257
0
LINE
8
BLACK
6
CONTINUOUS
10
6.71637
20
-1.8257
11
6.69368
21
-1.8072
0
LINE
8
BLACK
6
CONTINUOUS
10
6.69368
20
-1.8072
11
6.69367
21
-1.80719
0
LINE
8
BLACK
6
CONTINUOUS
10
6.69367
20
-1.80719
11
6.69361
21
-1.80713
0
LINE
8
BLACK
6
CONTINUOUS
10
6.69361
20
-1.80713
11
6.69355
21
-1.80706
0
LINE
8
BLACK
6
CONTINUOUS
10
6.69355
20
-1.80706
11
6.67489
21
-1.78451
0
LINE
8
BLACK
6
CONTINUOUS
10
6.67489
20
-1.78451
11
6.67488
21
-1.7845
0
LINE
8
BLACK
6
CONTINUOUS
10
6.67488
20
-1.7845
11
6.67483
21
-1.78442
0
LINE
8
BLACK
6
CONTINUOUS
10
6.67483
20
-1.78442
11
6.67478
21
-1.78435
0
LINE
8
BLACK
6
CONTINUOUS
10
6.67478
20
-1.78435
11
6.66085
21
-1.7586
0
LINE
8
BLACK
6
CONTINUOUS
10
6.66085
20
-1.7586
11
6.66085
21
-1.75858
0
LINE
8
BLACK
6
CONTINUOUS
10
6.66085
20
-1.75858
11
6.66081
21
-1.7585
0
LINE
8
BLACK
6
CONTINUOUS
10
6.66081
20
-1.7585
11
6.66078
21
-1.75842
0
LINE
8
BLACK
6
CONTINUOUS
10
6.66078
20
-1.75842
11
6.65212
21
-1.73045
0
LINE
8
BLACK
6
CONTINUOUS
10
6.65212
20
-1.73045
11
6.65212
21
-1.73044
0
LINE
8
BLACK
6
CONTINUOUS
10
6.65212
20
-1.73044
11
6.6521
21
-1.73035
0
LINE
8
BLACK
6
CONTINUOUS
10
6.6521
20
-1.73035
11
6.65208
21
-1.73026
0
LINE
8
BLACK
6
CONTINUOUS
10
6.65208
20
-1.73026
11
6.64902
21
-1.70115
0
LINE
8
BLACK
6
CONTINUOUS
10
6.64902
20
-1.70115
11
6.64902
21
-1.70114
0
LINE
8
BLACK
6
CONTINUOUS
10
6.64902
20
-1.70114
11
6.64902
21
-1.70109
0
LINE
8
BLACK
6
CONTINUOUS
10
6.64902
20
-1.70109
11
6.64902
21
-1.70105
0
LINE
8
BLACK
6
CONTINUOUS
10
6.64902
20
-1.70105
11
6.64902
21
-1.70005
0
LINE
8
BLACK
6
CONTINUOUS
10
6.64902
20
-1.70005
11
6.64902
21
-1.70005
0
LINE
8
BLACK
6
CONTINUOUS
10
6.64902
20
-1.70005
11
6.64902
21
-1.1
0
LINE
8
BLACK
6
CONTINUOUS
10
6.64902
20
-1.1
11
6.64902
21
-1.1
0
LINE
8
BLACK
6
CONTINUOUS
10
6.64902
20
-1.1
11
6.64901
21
-1.09901
0
LINE
8
BLACK
6
CONTINUOUS
10
6.64901
20
-1.09901
11
6.64597
21
-1.07004
0
LINE
8
BLACK
6
CONTINUOUS
10
6.64597
20
-1.07004
11
6.63737
21
-1.04226
0
LINE
8
BLACK
6
CONTINUOUS
10
6.63737
20
-1.04226
11
6.62354
21
-1.01667
0
LINE
8
BLACK
6
CONTINUOUS
10
6.62354
20
-1.01667
11
6.605
21
-0.994266
0
LINE
8
BLACK
6
CONTINUOUS
10
6.605
20
-0.994266
11
6.58246
21
-0.975886
0
LINE
8
BLACK
6
CONTINUOUS
10
6.58246
20
-0.975886
11
6.55678
21
-0.962232
0
LINE
8
BLACK
6
CONTINUOUS
10
6.55678
20
-0.962232
11
6.52894
21
-0.953827
0
LINE
8
BLACK
6
CONTINUOUS
10
6.52894
20
-0.953827
11
6.49995
21
-0.950984
0
LINE
8
BLACK
6
CONTINUOUS
10
6.49995
20
-0.950984
11
4.4
21
-0.950984
0
LINE
8
BLACK
6
CONTINUOUS
10
4.4
20
-0.950984
11
4.39901
21
-0.950988
0
LINE
8
BLACK
6
CONTINUOUS
10
4.39901
20
-0.950988
11
4.37004
21
-0.954032
0
LINE
8
BLACK
6
CONTINUOUS
10
4.37004
20
-0.954032
11
4.34226
21
-0.962632
0
LINE
8
BLACK
6
CONTINUOUS
10
4.34226
20
-0.962632
11
4.31667
21
-0.976464
0
LINE
8
BLACK
6
CONTINUOUS
10
4.31667
20
-0.976464
11
4.29427
21
-0.995002
0
LINE
8
BLACK
6
CONTINUOUS
10
4.29427
20
-0.995002
11
4.27589
21
-1.01754
0
LINE
8
BLACK
6
CONTINUOUS
10
4.27589
20
-1.01754
11
4.26223
21
-1.04322
0
LINE
8
BLACK
6
CONTINUOUS
10
4.26223
20
-1.04322
11
4.25383
21
-1.07106
0
LINE
8
BLACK
6
CONTINUOUS
10
4.25383
20
-1.07106
11
4.25098
21
-1.10005
0
LINE
8
BLACK
6
CONTINUOUS
10
4.25098
20
-1.10005
11
4.25098
21
-2.05005
0
LINE
8
BLACK
6
CONTINUOUS
10
4.25098
20
-2.05005
11
4.25098
21
-2.0501
0
LINE
8
BLACK
6
CONTINUOUS
10
4.25098
20
-2.0501
11
4.25098
21
-2.0501
0
LINE
8
BLACK
6
CONTINUOUS
10
4.25098
20
-2.0501
11
4.25003
21
-2.05981
0
LINE
8
BLACK
6
CONTINUOUS
10
4.25003
20
-2.05981
11
4.25003
21
-2.05982
0
LINE
8
BLACK
6
CONTINUOUS
10
4.25003
20
-2.05982
11
4.25001
21
-2.05991
0
LINE
8
BLACK
6
CONTINUOUS
10
4.25001
20
-2.05991
11
4.24999
21
-2.06
0
LINE
8
BLACK
6
CONTINUOUS
10
4.24999
20
-2.06
11
4.24717
21
-2.06934
0
LINE
8
BLACK
6
CONTINUOUS
10
4.24717
20
-2.06934
11
4.24717
21
-2.06935
0
LINE
8
BLACK
6
CONTINUOUS
10
4.24717
20
-2.06935
11
4.24713
21
-2.06943
0
LINE
8
BLACK
6
CONTINUOUS
10
4.24713
20
-2.06943
11
4.2471
21
-2.06952
0
LINE
8
BLACK
6
CONTINUOUS
10
4.2471
20
-2.06952
11
4.24252
21
-2.07813
0
LINE
8
BLACK
6
CONTINUOUS
10
4.24252
20
-2.07813
11
4.24251
21
-2.07814
0
LINE
8
BLACK
6
CONTINUOUS
10
4.24251
20
-2.07814
11
4.24246
21
-2.07822
0
LINE
8
BLACK
6
CONTINUOUS
10
4.24246
20
-2.07822
11
4.24241
21
-2.07829
0
LINE
8
BLACK
6
CONTINUOUS
10
4.24241
20
-2.07829
11
4.23624
21
-2.08585
0
LINE
8
BLACK
6
CONTINUOUS
10
4.23624
20
-2.08585
11
4.23623
21
-2.08586
0
LINE
8
BLACK
6
CONTINUOUS
10
4.23623
20
-2.08586
11
4.23617
21
-2.08593
0
LINE
8
BLACK
6
CONTINUOUS
10
4.23617
20
-2.08593
11
4.23611
21
-2.08599
0
LINE
8
BLACK
6
CONTINUOUS
10
4.23611
20
-2.08599
11
4.22859
21
-2.09221
0
LINE
8
BLACK
6
CONTINUOUS
10
4.22859
20
-2.09221
11
4.22858
21
-2.09222
0
LINE
8
BLACK
6
CONTINUOUS
10
4.22858
20
-2.09222
11
4.2285
21
-2.09227
0
LINE
8
BLACK
6
CONTINUOUS
10
4.2285
20
-2.09227
11
4.22843
21
-2.09232
0
LINE
8
BLACK
6
CONTINUOUS
10
4.22843
20
-2.09232
11
4.21984
21
-2.09696
0
LINE
8
BLACK
6
CONTINUOUS
10
4.21984
20
-2.09696
11
4.21983
21
-2.09697
0
LINE
8
BLACK
6
CONTINUOUS
10
4.21983
20
-2.09697
11
4.21975
21
-2.097
0
LINE
8
BLACK
6
CONTINUOUS
10
4.21975
20
-2.097
11
4.21967
21
-2.09703
0
LINE
8
BLACK
6
CONTINUOUS
10
4.21967
20
-2.09703
11
4.21034
21
-2.09992
0
LINE
8
BLACK
6
CONTINUOUS
10
4.21034
20
-2.09992
11
4.21033
21
-2.09992
0
LINE
8
BLACK
6
CONTINUOUS
10
4.21033
20
-2.09992
11
4.21024
21
-2.09994
0
LINE
8
BLACK
6
CONTINUOUS
10
4.21024
20
-2.09994
11
4.21016
21
-2.09996
0
LINE
8
BLACK
6
CONTINUOUS
10
4.21016
20
-2.09996
11
4.20045
21
-2.10098
0
LINE
8
BLACK
6
CONTINUOUS
10
4.20045
20
-2.10098
11
4.20044
21
-2.10098
0
LINE
8
BLACK
6
CONTINUOUS
10
4.20044
20
-2.10098
11
4.2004
21
-2.10098
0
LINE
8
BLACK
6
CONTINUOUS
10
4.2004
20
-2.10098
11
4.20035
21
-2.10098
0
LINE
8
BLACK
6
CONTINUOUS
10
4.20035
20
-2.10098
11
4.20005
21
-2.10098
0
LINE
8
BLACK
6
CONTINUOUS
10
4.20005
20
-2.10098
11
4.20005
21
-2.10098
0
LINE
8
BLACK
6
CONTINUOUS
10
4.20005
20
-2.10098
11
4.20001
21
-2.10098
0
LINE
8
BLACK
6
CONTINUOUS
10
4.20001
20
-2.10098
11
4.2
21
-2.10098
0
LINE
8
BLACK
6
CONTINUOUS
10
4.2
20
-2.10098
11
4.19999
21
-2.10098
0
LINE
8
BLACK
6
CONTINUOUS
10
4.19999
20
-2.10098
11
4.19999
21
-2.10098
0
LINE
8
BLACK
6
CONTINUOUS
10
4.19999
20
-2.10098
11
4
21
-2.10048
0
LINE
8
BLACK
6
CONTINUOUS
10
4
20
-2.10048
11
4
21
-2.10048
0
LINE
8
BLACK
6
CONTINUOUS
10
4
20
-2.10048
11
3.999
21
-2.10049
0
LINE
8
BLACK
6
CONTINUOUS
10
3.999
20
-2.10049
11
3.96994
21
-2.10354
0
LINE
8
BLACK
6
CONTINUOUS
10
3.96994
20
-2.10354
11
3.94206
21
-2.11217
0
LINE
8
BLACK
6
CONTINUOUS
10
3.94206
20
-2.11217
11
3.91639
21
-2.12605
0
LINE
8
BLACK
6
CONTINUOUS
10
3.91639
20
-2.12605
11
3.89391
21
-2.14465
0
LINE
8
BLACK
6
CONTINUOUS
10
3.89391
20
-2.14465
11
3.87547
21
-2.16726
0
LINE
8
BLACK
6
CONTINUOUS
10
3.87547
20
-2.16726
11
3.86177
21
-2.19303
0
LINE
8
BLACK
6
CONTINUOUS
10
3.86177
20
-2.19303
11
3.85334
21
-2.22096
0
LINE
8
BLACK
6
CONTINUOUS
10
3.85334
20
-2.22096
11
3.85048
21
-2.25005
0
LINE
8
BLACK
6
CONTINUOUS
10
3.85048
20
-2.25005
11
3.85098
21
-3.10005
0
LINE
8
BLACK
6
CONTINUOUS
10
3.85098
20
-3.10005
11
3.85098
21
-3.1001
0
LINE
8
BLACK
6
CONTINUOUS
10
3.85098
20
-3.1001
11
3.85098
21
-3.1001
0
LINE
8
BLACK
6
CONTINUOUS
10
3.85098
20
-3.1001
11
3.85003
21
-3.10981
0
LINE
8
BLACK
6
CONTINUOUS
10
3.85003
20
-3.10981
11
3.85003
21
-3.10982
0
LINE
8
BLACK
6
CONTINUOUS
10
3.85003
20
-3.10982
11
3.85001
21
-3.10991
0
LINE
8
BLACK
6
CONTINUOUS
10
3.85001
20
-3.10991
11
3.84999
21
-3.11
0
LINE
8
BLACK
6
CONTINUOUS
10
3.84999
20
-3.11
11
3.84717
21
-3.11934
0
LINE
8
BLACK
6
CONTINUOUS
10
3.84717
20
-3.11934
11
3.84717
21
-3.11935
0
LINE
8
BLACK
6
CONTINUOUS
10
3.84717
20
-3.11935
11
3.84713
21
-3.11943
0
LINE
8
BLACK
6
CONTINUOUS
10
3.84713
20
-3.11943
11
3.8471
21
-3.11952
0
LINE
8
BLACK
6
CONTINUOUS
10
3.8471
20
-3.11952
11
3.84252
21
-3.12813
0
LINE
8
BLACK
6
CONTINUOUS
10
3.84252
20
-3.12813
11
3.84251
21
-3.12814
0
LINE
8
BLACK
6
CONTINUOUS
10
3.84251
20
-3.12814
11
3.84246
21
-3.12822
0
LINE
8
BLACK
6
CONTINUOUS
10
3.84246
20
-3.12822
11
3.84241
21
-3.12829
0
LINE
8
BLACK
6
CONTINUOUS
10
3.84241
20
-3.12829
11
3.83624
21
-3.13585
0
LINE
8
BLACK
6
CONTINUOUS
10
3.83624
20
-3.13585
11
3.83623
21
-3.13586
0
LINE
8
BLACK
6
CONTINUOUS
10
3.83623
20
-3.13586
11
3.83617
21
-3.13593
0
LINE
8
BLACK
6
CONTINUOUS
10
3.83617
20
-3.13593
11
3.83611
21
-3.13599
0
LINE
8
BLACK
6
CONTINUOUS
10
3.83611
20
-3.13599
11
3.82859
21
-3.14221
0
LINE
8
BLACK
6
CONTINUOUS
10
3.82859
20
-3.14221
11
3.82858
21
-3.14222
0
LINE
8
BLACK
6
CONTINUOUS
10
3.82858
20
-3.14222
11
3.8285
21
-3.14227
0
LINE
8
BLACK
6
CONTINUOUS
10
3.8285
20
-3.14227
11
3.82843
21
-3.14232
0
LINE
8
BLACK
6
CONTINUOUS
10
3.82843
20
-3.14232
11
3.81984
21
-3.14696
0
LINE
8
BLACK
6
CONTINUOUS
10
3.81984
20
-3.14696
11
3.81983
21
-3.14697
0
LINE
8
BLACK
6
CONTINUOUS
10
3.81983
20
-3.14697
11
3.81975
21
-3.147
0
LINE
8
BLACK
6
CONTINUOUS
10
3.81975
20
-3.147
11
3.81967
21
-3.14703
0
LINE
8
BLACK
6
CONTINUOUS
10
3.81967
20
-3.14703
11
3.81034
21
-3.14992
0
LINE
8
BLACK
6
CONTINUOUS
10
3.81034
20
-3.14992
11
3.81033
21
-3.14992
0
LINE
8
BLACK
6
CONTINUOUS
10
3.81033
20
-3.14992
11
3.81024
21
-3.14994
0
LINE
8
BLACK
6
CONTINUOUS
10
3.81024
20
-3.14994
11
3.81016
21
-3.14996
0
LINE
8
BLACK
6
CONTINUOUS
10
3.81016
20
-3.14996
11
3.80045
21
-3.15098
0
LINE
8
BLACK
6
CONTINUOUS
10
3.80045
20
-3.15098
11
3.80044
21
-3.15098
0
LINE
8
BLACK
6
CONTINUOUS
10
3.80044
20
-3.15098
11
3.8004
21
-3.15098
0
LINE
8
BLACK
6
CONTINUOUS
10
3.8004
20
-3.15098
11
3.80035
21
-3.15098
0
LINE
8
BLACK
6
CONTINUOUS
10
3.80035
20
-3.15098
11
3.80005
21
-3.15098
0
LINE
8
BLACK
6
CONTINUOUS
10
3.80005
20
-3.15098
11
3.80005
21
-3.15098
0
LINE
8
BLACK
6
CONTINUOUS
10
3.80005
20
-3.15098
11
3.65
21
-3.15098
0
LINE
8
BLACK
6
CONTINUOUS
10
3.65
20
-3.15098
11
3.64901
21
-3.15099
  0
ENDSEC
  0
EOF
