%TF.GenerationSoftware,KiCad,Pcbnew,5.1.10-88a1d61d58~90~ubuntu20.04.1*%
%TF.CreationDate,2021-08-28T15:33:20+01:00*%
%TF.ProjectId,scrawler,73637261-776c-4657-922e-6b696361645f,rev?*%
%TF.SameCoordinates,Original*%
%TF.FileFunction,Paste,Top*%
%TF.FilePolarity,Positive*%
%FSLAX46Y46*%
G04 Gerber Fmt 4.6, Leading zero omitted, Abs format (unit mm)*
G04 Created by KiCad (PCBNEW 5.1.10-88a1d61d58~90~ubuntu20.04.1) date 2021-08-28 15:33:20*
%MOMM*%
%LPD*%
G01*
G04 APERTURE LIST*
%ADD10R,2.600000X2.600000*%
%ADD11C,0.100000*%
%ADD12R,1.143000X0.635000*%
G04 APERTURE END LIST*
D10*
%TO.C,SW9B1*%
X105920084Y-82150000D03*
X117470084Y-79950000D03*
%TD*%
%TO.C,SW8B1*%
X89422784Y-91675000D03*
X100972784Y-89475000D03*
%TD*%
%TO.C,SW7B1*%
X72925000Y-101200000D03*
X84475000Y-99000000D03*
%TD*%
%TO.C,SW6B1*%
X155413920Y-72625000D03*
X166963920Y-70425000D03*
%TD*%
%TO.C,SW5B1*%
X138916136Y-63100000D03*
X150466136Y-60900000D03*
%TD*%
%TO.C,SW4B1*%
X122418352Y-53575000D03*
X133968352Y-51375000D03*
%TD*%
%TO.C,SW3B1*%
X105920084Y-63100000D03*
X117470084Y-60900000D03*
%TD*%
%TO.C,SW2B1*%
X89422784Y-72625000D03*
X100972784Y-70425000D03*
%TD*%
D11*
%TO.C,SW26B1*%
G36*
X204425516Y-148532334D02*
G01*
X206677182Y-147232334D01*
X207977182Y-149484000D01*
X205725516Y-150784000D01*
X204425516Y-148532334D01*
G37*
G36*
X212105772Y-157434927D02*
G01*
X214357438Y-156134927D01*
X215657438Y-158386593D01*
X213405772Y-159686593D01*
X212105772Y-157434927D01*
G37*
%TD*%
%TO.C,SW25B1*%
G36*
X192965036Y-137233069D02*
G01*
X194636284Y-135241353D01*
X196628000Y-136912601D01*
X194956752Y-138904317D01*
X192965036Y-137233069D01*
G37*
G36*
X203226982Y-142971968D02*
G01*
X204898230Y-140980252D01*
X206889946Y-142651500D01*
X205218698Y-144643216D01*
X203226982Y-142971968D01*
G37*
%TD*%
%TO.C,SW24B1*%
G36*
X178272960Y-130508129D02*
G01*
X179162213Y-128064928D01*
X181605414Y-128954181D01*
X180716161Y-131397382D01*
X178272960Y-130508129D01*
G37*
G36*
X189878854Y-132391138D02*
G01*
X190768107Y-129947937D01*
X193211308Y-130837190D01*
X192322055Y-133280391D01*
X189878854Y-132391138D01*
G37*
%TD*%
D10*
%TO.C,SW22B1*%
X138916136Y-120250000D03*
X150466136Y-118050000D03*
%TD*%
%TO.C,SW21B1*%
X122418352Y-110725000D03*
X133968352Y-108525000D03*
%TD*%
%TO.C,SW20B1*%
X105920084Y-120250000D03*
X117470084Y-118050000D03*
%TD*%
%TO.C,SW1B1*%
X72925000Y-82150000D03*
X84475000Y-79950000D03*
%TD*%
%TO.C,SW19B1*%
X89422784Y-129775000D03*
X100972784Y-127575000D03*
%TD*%
%TO.C,SW18B1*%
X155413920Y-110725000D03*
X166963920Y-108525000D03*
%TD*%
%TO.C,SW17B1*%
X138916136Y-101200000D03*
X150466136Y-99000000D03*
%TD*%
%TO.C,SW16B1*%
X122418352Y-91675000D03*
X133968352Y-89475000D03*
%TD*%
%TO.C,SW15B1*%
X105920084Y-101200000D03*
X117470084Y-99000000D03*
%TD*%
%TO.C,SW14B1*%
X89422784Y-110725000D03*
X100972784Y-108525000D03*
%TD*%
%TO.C,SW13B1*%
X72925000Y-120250000D03*
X84475000Y-118050000D03*
%TD*%
%TO.C,SW12B1*%
X155413920Y-91675000D03*
X166963920Y-89475000D03*
%TD*%
%TO.C,SW11B1*%
X138916136Y-82150000D03*
X150466136Y-79950000D03*
%TD*%
%TO.C,SW10B1*%
X122418352Y-72625000D03*
X133968352Y-70425000D03*
%TD*%
D12*
%TO.C,JP4*%
X179204620Y-84551520D03*
X179204620Y-85552280D03*
%TD*%
%TO.C,JP3*%
X181744620Y-84551520D03*
X181744620Y-85552280D03*
%TD*%
%TO.C,JP2*%
X184284620Y-84551520D03*
X184284620Y-85552280D03*
%TD*%
%TO.C,JP1*%
X186824620Y-84551520D03*
X186824620Y-85552280D03*
%TD*%
M02*
