  0
SECTION
  2
HEADER
  9
$ACADVER
  1
AC1014
  9
$HANDSEED
  5
FFFF
  9
$MEASUREMENT
 70
     1
  0
ENDSEC
  0
SECTION
  2
TABLES
  0
TABLE
  2
VPORT
  5
8
330
0
100
AcDbSymbolTable
 70
     4
  0
VPORT
  5
2E
330
8
100
AcDbSymbolTableRecord
100
AcDbViewportTableRecord
  2
*ACTIVE
 70
     0
 10
0.0
 20
0.0
 11
1.0
 21
1.0
 12
210.0
 22
148.5
 13
0.0
 23
0.0
 14
10.0
 24
10.0
 15
10.0
 25
10.0
 16
0.0
 26
0.0
 36
1.0
 17
0.0
 27
0.0
 37
0.0
 40
341.0
 41
1.24
 42
50.0
 43
0.0
 44
0.0
 50
0.0
 51
0.0
 71
     0
 72
   100
 73
     1
 74
     3
 75
     0
 76
     0
 77
     0
 78
     0
  0
ENDTAB
  0
TABLE
  2
LTYPE
  5
5
330
0
100
AcDbSymbolTable
 70
     1
  0
LTYPE
  5
14
330
5
100
AcDbSymbolTableRecord
100
AcDbLinetypeTableRecord
  2
BYBLOCK
 70
     0
  3

 72
    65
 73
     0
 40
0.0
  0
LTYPE
  5
15
330
5
100
AcDbSymbolTableRecord
100
AcDbLinetypeTableRecord
  2
BYLAYER
 70
     0
  3

 72
    65
 73
     0
 40
0.0
  0
LTYPE
  5
16
330
5
100
AcDbSymbolTableRecord
100
AcDbLinetypeTableRecord
  2
CONTINUOUS
 70
     0
  3
Solid line
 72
    65
 73
     0
 40
0.0
  0
ENDTAB
  0
TABLE
  2
LAYER
  5
2
100
AcDbSymbolTable
 70
1
  0
LAYER
  5
50
100
AcDbSymbolTableRecord
100
AcDbLayerTableRecord
  2
0
 70
0
  6
CONTINUOUS
  0
ENDTAB
  0
TABLE
  2
STYLE
  5
3
330
0
100
AcDbSymbolTable
 70
     1
  0
STYLE
  5
11
330
3
100
AcDbSymbolTableRecord
100
AcDbTextStyleTableRecord
  2
STANDARD
 70
     0
 40
0.0
 41
1.0
 50
0.0
 71
     0
 42
2.5
  3
txt
  4

  0
ENDTAB
  0
TABLE
  2
VIEW
  5
6
330
0
100
AcDbSymbolTable
 70
     0
  0
ENDTAB
  0
TABLE
  2
UCS
  5
7
330
0
100
AcDbSymbolTable
 70
     0
  0
ENDTAB
  0
TABLE
  2
APPID
  5
9
330
0
100
AcDbSymbolTable
 70
     2
  0
APPID
  5
12
330
9
100
AcDbSymbolTableRecord
100
AcDbRegAppTableRecord
  2
ACAD
 70
     0
  0
ENDTAB
  0
TABLE
  2
DIMSTYLE
  5
A
330
0
100
AcDbSymbolTable
 70
     1
  0
DIMSTYLE
105
27
330
A
100
AcDbSymbolTableRecord
100
AcDbDimStyleTableRecord
  2
ISO-25
 70
     0
  3

  4

  5

  6

  7

 40
1.0
 41
2.5
 42
0.625
 43
3.75
 44
1.25
 45
0.0
 46
0.0
 47
0.0
 48
0.0
140
2.5
141
2.5
142
0.0
143
0.03937007874016
144
1.0
145
0.0
146
1.0
147
0.625
 71
     0
 72
     0
 73
     0
 74
     0
 75
     0
 76
     0
 77
     1
 78
     8
170
     0
171
     3
172
     1
173
     0
174
     0
175
     0
176
     0
177
     0
178
     0
270
     2
271
     2
272
     2
273
     2
274
     3
340
11
275
     0
280
     0
281
     0
282
     0
283
     0
284
     8
285
     0
286
     0
287
     3
288
     0
  0
ENDTAB
  0
TABLE
  2
BLOCK_RECORD
  5
1
330
0
100
AcDbSymbolTable
 70
     1
  0
BLOCK_RECORD
  5
1F
330
1
100
AcDbSymbolTableRecord
100
AcDbBlockTableRecord
  2
*MODEL_SPACE
  0
BLOCK_RECORD
  5
1B
330
1
100
AcDbSymbolTableRecord
100
AcDbBlockTableRecord
  2
*PAPER_SPACE
  0
ENDTAB
  0
ENDSEC
  0
SECTION
  2
BLOCKS
  0
BLOCK
  5
20
330
1F
100
AcDbEntity
  8
0
100
AcDbBlockBegin
  2
*MODEL_SPACE
 70
     0
 10
0.0
 20
0.0
 30
0.0
  3
*MODEL_SPACE
  1

  0
ENDBLK
  5
21
330
1F
100
AcDbEntity
  8
0
100
AcDbBlockEnd
  0
BLOCK
  5
1C
330
1B
100
AcDbEntity
 67
     1
  8
0
100
AcDbBlockBegin
  2
*PAPER_SPACE
  1

  0
ENDBLK
  5
1D
330
1B
100
AcDbEntity
 67
     1
  8
0
100
AcDbBlockEnd
  0
ENDSEC
  0
SECTION
  2
ENTITIES
  0
SPLINE
  5
100
100
AcDbEntity
  8
0
 62
7
100
AcDbSpline
 70
8
 71
3
 72
8
 73
4
 74
0
 40
0
 40
0
 40
0
 40
0
 40
1
 40
1
 40
1
 40
1
 10
106.716218
 20
275.339109
 30
0.0
 10
107.681545
 20
274.781806
 30
0.0
 10
108.776567
 20
274.488428
 30
0.0
 10
109.891217
 20
274.488463
 30
0.0
  0
SPLINE
  5
101
100
AcDbEntity
  8
0
 62
7
100
AcDbSpline
 70
8
 71
3
 72
8
 73
4
 74
0
 40
0
 40
0
 40
0
 40
0
 40
1
 40
1
 40
1
 40
1
 10
147.432407
 20
273.599210
 30
0.0
 10
147.432407
 20
273.834988
 30
0.0
 10
147.338744
 20
274.061108
 30
0.0
 10
147.172025
 20
274.227827
 30
0.0
  0
SPLINE
  5
102
100
AcDbEntity
  8
0
 62
7
100
AcDbSpline
 70
8
 71
3
 72
8
 73
4
 74
0
 40
0
 40
0
 40
0
 40
0
 40
1
 40
1
 40
1
 40
1
 10
147.172025
 20
274.227827
 30
0.0
 10
147.005303
 20
274.394547
 30
0.0
 10
146.779182
 20
274.488209
 30
0.0
 10
146.543407
 20
274.488209
 30
0.0
  0
SPLINE
  5
103
100
AcDbEntity
  8
0
 62
7
100
AcDbSpline
 70
8
 71
3
 72
8
 73
4
 74
0
 40
0
 40
0
 40
0
 40
0
 40
1
 40
1
 40
1
 40
1
 10
93.178022
 20
195.557732
 30
0.0
 10
94.027480
 20
195.067208
 30
0.0
 10
94.991105
 20
194.808956
 30
0.0
 10
95.972021
 20
194.808940
 30
0.0
  0
SPLINE
  5
104
100
AcDbEntity
  8
0
 62
7
100
AcDbSpline
 70
8
 71
3
 72
8
 73
4
 74
0
 40
0
 40
0
 40
0
 40
0
 40
1
 40
1
 40
1
 40
1
 10
77.074426
 20
204.854129
 30
0.0
 10
76.224868
 20
205.344355
 30
0.0
 10
75.261277
 20
205.602424
 30
0.0
 10
74.280427
 20
205.602413
 30
0.0
  0
SPLINE
  5
105
100
AcDbEntity
  8
0
 62
7
100
AcDbSpline
 70
8
 71
3
 72
8
 73
4
 74
0
 40
0
 40
0
 40
0
 40
0
 40
1
 40
1
 40
1
 40
1
 10
65.301530
 20
205.603429
 30
0.0
 10
64.320532
 20
205.603432
 30
0.0
 10
63.356819
 20
205.345177
 30
0.0
 10
62.507276
 20
204.854637
 30
0.0
  0
SPLINE
  5
106
100
AcDbEntity
  8
0
 62
7
100
AcDbSpline
 70
8
 71
3
 72
8
 73
4
 74
0
 40
0
 40
0
 40
0
 40
0
 40
1
 40
1
 40
1
 40
1
 10
43.649052
 20
194.853136
 30
0.0
 10
44.534490
 20
194.843770
 30
0.0
 10
45.409377
 20
195.045883
 30
0.0
 10
46.200989
 20
195.442670
 30
0.0
  0
SPLINE
  5
107
100
AcDbEntity
  8
0
 62
7
100
AcDbSpline
 70
8
 71
3
 72
8
 73
4
 74
0
 40
0
 40
0
 40
0
 40
0
 40
1
 40
1
 40
1
 40
1
 10
27.696840
 20
195.468832
 30
0.0
 10
28.476297
 20
195.074095
 30
0.0
 10
29.337730
 20
194.868395
 30
0.0
 10
30.211439
 20
194.868376
 30
0.0
  0
SPLINE
  5
108
100
AcDbEntity
  8
0
 62
7
100
AcDbSpline
 70
8
 71
3
 72
8
 73
4
 74
0
 40
0
 40
0
 40
0
 40
0
 40
1
 40
1
 40
1
 40
1
 10
80.630425
 20
290.415021
 30
0.0
 10
79.776697
 20
290.907353
 30
0.0
 10
78.820170
 20
291.194398
 30
0.0
 10
77.836426
 20
291.253475
 30
0.0
  0
SPLINE
  5
109
100
AcDbEntity
  8
0
 62
7
100
AcDbSpline
 70
8
 71
3
 72
8
 73
4
 74
0
 40
0
 40
0
 40
0
 40
0
 40
1
 40
1
 40
1
 40
1
 10
62.393230
 20
291.252205
 30
0.0
 10
61.277271
 20
291.229903
 30
0.0
 10
60.186894
 20
290.913899
 30
0.0
 10
59.231947
 20
290.336027
 30
0.0
  0
LWPOLYLINE
  5
10a
100
AcDbEntity
  8
0
 62
7
100
AcDbPolyline
 90
2
 70
0
 10
80.630425
 20
290.416545
 30
0.0
 10
106.716218
 20
275.339109
 30
0.0
  0
LWPOLYLINE
  5
10b
100
AcDbEntity
  8
0
 62
7
100
AcDbPolyline
 90
2
 70
0
 10
65.301982
 20
205.603429
 30
0.0
 10
74.279980
 20
205.603429
 30
0.0
  0
SPLINE
  5
10c
100
AcDbEntity
  8
0
 62
7
100
AcDbSpline
 70
8
 71
3
 72
8
 73
4
 74
0
 40
0
 40
0
 40
0
 40
0
 40
1
 40
1
 40
1
 40
1
 10
169.847900
 20
174.132838
 30
0.0
 10
170.764070
 20
174.670289
 30
0.0
 10
171.167919
 20
175.783774
 30
0.0
 10
170.809290
 20
176.783581
 30
0.0
  0
SPLINE
  5
10d
100
AcDbEntity
  8
0
 62
7
100
AcDbSpline
 70
8
 71
3
 72
8
 73
4
 74
0
 40
0
 40
0
 40
0
 40
0
 40
1
 40
1
 40
1
 40
1
 10
151.864705
 20
166.601740
 30
0.0
 10
152.096462
 20
166.056466
 30
0.0
 10
152.537646
 20
165.627219
 30
0.0
 10
153.089070
 20
165.410499
 30
0.0
  0
SPLINE
  5
10e
100
AcDbEntity
  8
0
 62
7
100
AcDbSpline
 70
8
 71
3
 72
8
 73
4
 74
0
 40
0
 40
0
 40
0
 40
0
 40
1
 40
1
 40
1
 40
1
 10
153.089070
 20
165.410499
 30
0.0
 10
153.640493
 20
165.193779
 30
0.0
 10
154.255879
 20
165.207778
 30
0.0
 10
154.796880
 20
165.449342
 30
0.0
  0
SPLINE
  5
10f
100
AcDbEntity
  8
0
 62
7
100
AcDbSpline
 70
8
 71
3
 72
8
 73
4
 74
0
 40
0
 40
0
 40
0
 40
0
 40
1
 40
1
 40
1
 40
1
 10
9.256445
 20
208.029129
 30
0.0
 10
9.256453
 20
206.840160
 30
0.0
 10
9.890871
 20
205.741547
 30
0.0
 10
10.920653
 20
205.147245
 30
0.0
  0
LWPOLYLINE
  5
110
100
AcDbEntity
  8
0
 62
7
100
AcDbPolyline
 90
2
 70
0
 10
62.393230
 20
291.252205
 30
0.0
 10
77.836426
 20
291.252205
 30
0.0
  0
LWPOLYLINE
  5
111
100
AcDbEntity
  8
0
 62
7
100
AcDbPolyline
 90
2
 70
0
 10
30.211439
 20
194.869392
 30
0.0
 10
43.648036
 20
194.854152
 30
0.0
  0
LWPOLYLINE
  5
112
100
AcDbEntity
  8
0
 62
7
100
AcDbPolyline
 90
2
 70
0
 10
77.074426
 20
204.854129
 30
0.0
 10
93.178022
 20
195.557732
 30
0.0
  0
SPLINE
  5
113
100
AcDbEntity
  8
0
 62
7
100
AcDbSpline
 70
8
 71
3
 72
8
 73
4
 74
0
 40
0
 40
0
 40
0
 40
0
 40
1
 40
1
 40
1
 40
1
 10
10.921161
 20
262.474013
 30
0.0
 10
9.891040
 20
261.879489
 30
0.0
 10
9.256424
 20
260.780487
 30
0.0
 10
9.256445
 20
259.591114
 30
0.0
  0
SPLINE
  5
114
100
AcDbEntity
  8
0
 62
7
100
AcDbSpline
 70
8
 71
3
 72
8
 73
4
 74
0
 40
0
 40
0
 40
0
 40
0
 40
1
 40
1
 40
1
 40
1
 10
170.809290
 20
176.783581
 30
0.0
 10
166.128743
 20
188.716482
 30
0.0
 10
157.986622
 20
198.977042
 30
0.0
 10
147.429359
 20
206.246557
 30
0.0
  0
SPLINE
  5
115
100
AcDbEntity
  8
0
 62
7
100
AcDbSpline
 70
8
 71
3
 72
8
 73
4
 74
0
 40
0
 40
0
 40
0
 40
0
 40
1
 40
1
 40
1
 40
1
 10
151.864705
 20
166.601740
 30
0.0
 10
147.372029
 20
180.414418
 30
0.0
 10
136.208258
 20
191.024439
 30
0.0
 10
122.185068
 20
194.809194
 30
0.0
  0
LWPOLYLINE
  5
116
100
AcDbEntity
  8
0
 62
7
100
AcDbPolyline
 90
2
 70
0
 10
46.200735
 20
195.443432
 30
0.0
 10
62.504990
 20
204.856669
 30
0.0
  0
LWPOLYLINE
  5
117
100
AcDbEntity
  8
0
 62
7
100
AcDbPolyline
 90
2
 70
0
 10
10.920145
 20
205.148769
 30
0.0
 10
27.696840
 20
195.468832
 30
0.0
  0
LWPOLYLINE
  5
118
100
AcDbEntity
  8
0
 62
7
100
AcDbPolyline
 90
2
 70
0
 10
95.972021
 20
194.810972
 30
0.0
 10
122.184814
 20
194.808326
 30
0.0
  0
LWPOLYLINE
  5
119
100
AcDbEntity
  8
0
 62
7
100
AcDbPolyline
 90
2
 70
0
 10
10.920145
 20
262.474013
 30
0.0
 10
59.230931
 20
290.337805
 30
0.0
  0
LWPOLYLINE
  5
11a
100
AcDbEntity
  8
0
 62
7
100
AcDbPolyline
 90
2
 70
0
 10
109.888677
 20
274.490749
 30
0.0
 10
146.543407
 20
274.488209
 30
0.0
  0
LWPOLYLINE
  5
11b
100
AcDbEntity
  8
0
 62
7
100
AcDbPolyline
 90
2
 70
0
 10
147.432407
 20
273.599210
 30
0.0
 10
147.427327
 20
206.248589
 30
0.0
  0
LWPOLYLINE
  5
11c
100
AcDbEntity
  8
0
 62
7
100
AcDbPolyline
 90
2
 70
0
 10
154.795864
 20
165.451120
 30
0.0
 10
169.847900
 20
174.132838
 30
0.0
  0
SPLINE
  5
11d
100
AcDbEntity
  8
0
 62
1
100
AcDbSpline
 70
8
 71
3
 72
8
 73
4
 74
0
 40
0
 40
0
 40
0
 40
0
 40
1
 40
1
 40
1
 40
1
 10
22.968535
 20
263.105588
 30
0.0
 10
20.704168
 20
263.105588
 30
0.0
 10
18.868536
 20
261.269956
 30
0.0
 10
18.868536
 20
259.005589
 30
0.0
  0
SPLINE
  5
11e
100
AcDbEntity
  8
0
 62
1
100
AcDbSpline
 70
8
 71
3
 72
8
 73
4
 74
0
 40
0
 40
0
 40
0
 40
0
 40
1
 40
1
 40
1
 40
1
 10
18.868536
 20
259.005589
 30
0.0
 10
18.868536
 20
256.741222
 30
0.0
 10
20.704168
 20
254.905590
 30
0.0
 10
22.968535
 20
254.905590
 30
0.0
  0
SPLINE
  5
11f
100
AcDbEntity
  8
0
 62
1
100
AcDbSpline
 70
8
 71
3
 72
8
 73
4
 74
0
 40
0
 40
0
 40
0
 40
0
 40
1
 40
1
 40
1
 40
1
 10
22.968535
 20
254.905590
 30
0.0
 10
25.232901
 20
254.905590
 30
0.0
 10
27.068533
 20
256.741222
 30
0.0
 10
27.068533
 20
259.005589
 30
0.0
  0
SPLINE
  5
120
100
AcDbEntity
  8
0
 62
1
100
AcDbSpline
 70
8
 71
3
 72
8
 73
4
 74
0
 40
0
 40
0
 40
0
 40
0
 40
1
 40
1
 40
1
 40
1
 10
27.068533
 20
259.005589
 30
0.0
 10
27.068533
 20
260.092976
 30
0.0
 10
26.636571
 20
261.135827
 30
0.0
 10
25.867672
 20
261.904726
 30
0.0
  0
SPLINE
  5
121
100
AcDbEntity
  8
0
 62
1
100
AcDbSpline
 70
8
 71
3
 72
8
 73
4
 74
0
 40
0
 40
0
 40
0
 40
0
 40
1
 40
1
 40
1
 40
1
 10
25.867672
 20
261.904726
 30
0.0
 10
25.098773
 20
262.673625
 30
0.0
 10
24.055922
 20
263.105588
 30
0.0
 10
22.968535
 20
263.105588
 30
0.0
  0
LWPOLYLINE
  5
122
100
AcDbEntity
  8
0
 62
7
100
AcDbPolyline
 90
2
 70
0
 10
9.255997
 20
259.591114
 30
0.0
 10
9.256447
 20
208.029129
 30
0.0
  0
SPLINE
  5
123
100
AcDbEntity
  8
0
 62
1
100
AcDbSpline
 70
8
 71
3
 72
8
 73
4
 74
0
 40
0
 40
0
 40
0
 40
0
 40
1
 40
1
 40
1
 40
1
 10
79.699521
 20
286.454278
 30
0.0
 10
78.041226
 20
286.454278
 30
0.0
 10
76.546218
 20
285.455345
 30
0.0
 10
75.911616
 20
283.923281
 30
0.0
  0
SPLINE
  5
124
100
AcDbEntity
  8
0
 62
1
100
AcDbSpline
 70
8
 71
3
 72
8
 73
4
 74
0
 40
0
 40
0
 40
0
 40
0
 40
1
 40
1
 40
1
 40
1
 10
75.911616
 20
283.923281
 30
0.0
 10
75.277014
 20
282.391216
 30
0.0
 10
75.627792
 20
280.627733
 30
0.0
 10
76.800384
 20
279.455142
 30
0.0
  0
SPLINE
  5
125
100
AcDbEntity
  8
0
 62
1
100
AcDbSpline
 70
8
 71
3
 72
8
 73
4
 74
0
 40
0
 40
0
 40
0
 40
0
 40
1
 40
1
 40
1
 40
1
 10
76.800384
 20
279.455142
 30
0.0
 10
77.972975
 20
278.282550
 30
0.0
 10
79.736458
 20
277.931772
 30
0.0
 10
81.268522
 20
278.566374
 30
0.0
  0
SPLINE
  5
126
100
AcDbEntity
  8
0
 62
1
100
AcDbSpline
 70
8
 71
3
 72
8
 73
4
 74
0
 40
0
 40
0
 40
0
 40
0
 40
1
 40
1
 40
1
 40
1
 10
81.268522
 20
278.566374
 30
0.0
 10
82.800587
 20
279.200976
 30
0.0
 10
83.799520
 20
280.695984
 30
0.0
 10
83.799520
 20
282.354279
 30
0.0
  0
SPLINE
  5
127
100
AcDbEntity
  8
0
 62
1
100
AcDbSpline
 70
8
 71
3
 72
8
 73
4
 74
0
 40
0
 40
0
 40
0
 40
0
 40
1
 40
1
 40
1
 40
1
 10
83.799520
 20
282.354279
 30
0.0
 10
83.799520
 20
283.441666
 30
0.0
 10
83.367557
 20
284.484517
 30
0.0
 10
82.598658
 20
285.253416
 30
0.0
  0
SPLINE
  5
128
100
AcDbEntity
  8
0
 62
1
100
AcDbSpline
 70
8
 71
3
 72
8
 73
4
 74
0
 40
0
 40
0
 40
0
 40
0
 40
1
 40
1
 40
1
 40
1
 10
82.598658
 20
285.253416
 30
0.0
 10
81.829759
 20
286.022315
 30
0.0
 10
80.786908
 20
286.454278
 30
0.0
 10
79.699521
 20
286.454278
 30
0.0
  0
LWPOLYLINE
  5
129
100
AcDbEntity
  8
0
 62
1
100
AcDbPolyline
 90
1
 70
1
 10
22.968535
 20
263.105588
 30
0.0
  0
SPLINE
  5
12a
100
AcDbEntity
  8
0
 62
1
100
AcDbSpline
 70
8
 71
3
 72
8
 73
4
 74
0
 40
0
 40
0
 40
0
 40
0
 40
1
 40
1
 40
1
 40
1
 10
111.204672
 20
246.604522
 30
0.0
 10
109.546377
 20
246.604522
 30
0.0
 10
108.051369
 20
245.605589
 30
0.0
 10
107.416767
 20
244.073525
 30
0.0
  0
SPLINE
  5
12b
100
AcDbEntity
  8
0
 62
1
100
AcDbSpline
 70
8
 71
3
 72
8
 73
4
 74
0
 40
0
 40
0
 40
0
 40
0
 40
1
 40
1
 40
1
 40
1
 10
107.416767
 20
244.073525
 30
0.0
 10
106.782165
 20
242.541460
 30
0.0
 10
107.132943
 20
240.777977
 30
0.0
 10
108.305535
 20
239.605386
 30
0.0
  0
SPLINE
  5
12c
100
AcDbEntity
  8
0
 62
1
100
AcDbSpline
 70
8
 71
3
 72
8
 73
4
 74
0
 40
0
 40
0
 40
0
 40
0
 40
1
 40
1
 40
1
 40
1
 10
108.305535
 20
239.605386
 30
0.0
 10
109.478126
 20
238.432795
 30
0.0
 10
111.241609
 20
238.082016
 30
0.0
 10
112.773674
 20
238.716618
 30
0.0
  0
SPLINE
  5
12d
100
AcDbEntity
  8
0
 62
1
100
AcDbSpline
 70
8
 71
3
 72
8
 73
4
 74
0
 40
0
 40
0
 40
0
 40
0
 40
1
 40
1
 40
1
 40
1
 10
112.773674
 20
238.716618
 30
0.0
 10
114.305738
 20
239.351220
 30
0.0
 10
115.304671
 20
240.846228
 30
0.0
 10
115.304671
 20
242.504523
 30
0.0
  0
SPLINE
  5
12e
100
AcDbEntity
  8
0
 62
1
100
AcDbSpline
 70
8
 71
3
 72
8
 73
4
 74
0
 40
0
 40
0
 40
0
 40
0
 40
1
 40
1
 40
1
 40
1
 10
115.304671
 20
242.504523
 30
0.0
 10
115.304671
 20
243.591910
 30
0.0
 10
114.872708
 20
244.634761
 30
0.0
 10
114.103809
 20
245.403660
 30
0.0
  0
SPLINE
  5
12f
100
AcDbEntity
  8
0
 62
1
100
AcDbSpline
 70
8
 71
3
 72
8
 73
4
 74
0
 40
0
 40
0
 40
0
 40
0
 40
1
 40
1
 40
1
 40
1
 10
114.103809
 20
245.403660
 30
0.0
 10
113.334910
 20
246.172559
 30
0.0
 10
112.292059
 20
246.604522
 30
0.0
 10
111.204672
 20
246.604522
 30
0.0
  0
LWPOLYLINE
  5
130
100
AcDbEntity
  8
0
 62
1
100
AcDbPolyline
 90
1
 70
1
 10
79.699521
 20
286.454278
 30
0.0
  0
SPLINE
  5
131
100
AcDbEntity
  8
0
 62
1
100
AcDbSpline
 70
8
 71
3
 72
8
 73
4
 74
0
 40
0
 40
0
 40
0
 40
0
 40
1
 40
1
 40
1
 40
1
 10
139.565571
 20
215.482040
 30
0.0
 10
137.907276
 20
215.482040
 30
0.0
 10
136.412268
 20
214.483108
 30
0.0
 10
135.777666
 20
212.951043
 30
0.0
  0
SPLINE
  5
132
100
AcDbEntity
  8
0
 62
1
100
AcDbSpline
 70
8
 71
3
 72
8
 73
4
 74
0
 40
0
 40
0
 40
0
 40
0
 40
1
 40
1
 40
1
 40
1
 10
135.777666
 20
212.951043
 30
0.0
 10
135.143064
 20
211.418978
 30
0.0
 10
135.493843
 20
209.655496
 30
0.0
 10
136.666434
 20
208.482904
 30
0.0
  0
SPLINE
  5
133
100
AcDbEntity
  8
0
 62
1
100
AcDbSpline
 70
8
 71
3
 72
8
 73
4
 74
0
 40
0
 40
0
 40
0
 40
0
 40
1
 40
1
 40
1
 40
1
 10
136.666434
 20
208.482904
 30
0.0
 10
137.839025
 20
207.310313
 30
0.0
 10
139.602508
 20
206.959534
 30
0.0
 10
141.134573
 20
207.594136
 30
0.0
  0
SPLINE
  5
134
100
AcDbEntity
  8
0
 62
1
100
AcDbSpline
 70
8
 71
3
 72
8
 73
4
 74
0
 40
0
 40
0
 40
0
 40
0
 40
1
 40
1
 40
1
 40
1
 10
141.134573
 20
207.594136
 30
0.0
 10
142.666637
 20
208.228738
 30
0.0
 10
143.665570
 20
209.723747
 30
0.0
 10
143.665570
 20
211.382041
 30
0.0
  0
SPLINE
  5
135
100
AcDbEntity
  8
0
 62
1
100
AcDbSpline
 70
8
 71
3
 72
8
 73
4
 74
0
 40
0
 40
0
 40
0
 40
0
 40
1
 40
1
 40
1
 40
1
 10
143.665570
 20
211.382041
 30
0.0
 10
143.665570
 20
212.469429
 30
0.0
 10
143.233607
 20
213.512279
 30
0.0
 10
142.464708
 20
214.281178
 30
0.0
  0
SPLINE
  5
136
100
AcDbEntity
  8
0
 62
1
100
AcDbSpline
 70
8
 71
3
 72
8
 73
4
 74
0
 40
0
 40
0
 40
0
 40
0
 40
1
 40
1
 40
1
 40
1
 10
142.464708
 20
214.281178
 30
0.0
 10
141.695809
 20
215.050077
 30
0.0
 10
140.652958
 20
215.482040
 30
0.0
 10
139.565571
 20
215.482040
 30
0.0
  0
LWPOLYLINE
  5
137
100
AcDbEntity
  8
0
 62
1
100
AcDbPolyline
 90
1
 70
1
 10
111.204672
 20
246.604522
 30
0.0
  0
SPLINE
  5
138
100
AcDbEntity
  8
0
 62
1
100
AcDbSpline
 70
8
 71
3
 72
8
 73
4
 74
0
 40
0
 40
0
 40
0
 40
0
 40
1
 40
1
 40
1
 40
1
 10
71.167600
 20
216.204556
 30
0.0
 10
69.509305
 20
216.204556
 30
0.0
 10
68.014297
 20
215.205624
 30
0.0
 10
67.379695
 20
213.673559
 30
0.0
  0
SPLINE
  5
139
100
AcDbEntity
  8
0
 62
1
100
AcDbSpline
 70
8
 71
3
 72
8
 73
4
 74
0
 40
0
 40
0
 40
0
 40
0
 40
1
 40
1
 40
1
 40
1
 10
67.379695
 20
213.673559
 30
0.0
 10
66.745093
 20
212.141494
 30
0.0
 10
67.095871
 20
210.378012
 30
0.0
 10
68.268463
 20
209.205420
 30
0.0
  0
SPLINE
  5
13a
100
AcDbEntity
  8
0
 62
1
100
AcDbSpline
 70
8
 71
3
 72
8
 73
4
 74
0
 40
0
 40
0
 40
0
 40
0
 40
1
 40
1
 40
1
 40
1
 10
68.268463
 20
209.205420
 30
0.0
 10
69.441054
 20
208.032829
 30
0.0
 10
71.204537
 20
207.682050
 30
0.0
 10
72.736601
 20
208.316652
 30
0.0
  0
SPLINE
  5
13b
100
AcDbEntity
  8
0
 62
1
100
AcDbSpline
 70
8
 71
3
 72
8
 73
4
 74
0
 40
0
 40
0
 40
0
 40
0
 40
1
 40
1
 40
1
 40
1
 10
72.736601
 20
208.316652
 30
0.0
 10
74.268666
 20
208.951254
 30
0.0
 10
75.267599
 20
210.446263
 30
0.0
 10
75.267599
 20
212.104557
 30
0.0
  0
SPLINE
  5
13c
100
AcDbEntity
  8
0
 62
1
100
AcDbSpline
 70
8
 71
3
 72
8
 73
4
 74
0
 40
0
 40
0
 40
0
 40
0
 40
1
 40
1
 40
1
 40
1
 10
75.267599
 20
212.104557
 30
0.0
 10
75.267599
 20
213.191945
 30
0.0
 10
74.835636
 20
214.234795
 30
0.0
 10
74.066737
 20
215.003694
 30
0.0
  0
SPLINE
  5
13d
100
AcDbEntity
  8
0
 62
1
100
AcDbSpline
 70
8
 71
3
 72
8
 73
4
 74
0
 40
0
 40
0
 40
0
 40
0
 40
1
 40
1
 40
1
 40
1
 10
74.066737
 20
215.003694
 30
0.0
 10
73.297838
 20
215.772593
 30
0.0
 10
72.254987
 20
216.204556
 30
0.0
 10
71.167600
 20
216.204556
 30
0.0
  0
LWPOLYLINE
  5
13e
100
AcDbEntity
  8
0
 62
1
100
AcDbPolyline
 90
1
 70
1
 10
139.565571
 20
215.482040
 30
0.0
  0
SPLINE
  5
13f
100
AcDbEntity
  8
0
 62
1
100
AcDbSpline
 70
8
 71
3
 72
8
 73
4
 74
0
 40
0
 40
0
 40
0
 40
0
 40
1
 40
1
 40
1
 40
1
 10
25.408398
 20
209.461099
 30
0.0
 10
23.750104
 20
209.461099
 30
0.0
 10
22.255095
 20
208.462166
 30
0.0
 10
21.620493
 20
206.930102
 30
0.0
  0
SPLINE
  5
140
100
AcDbEntity
  8
0
 62
1
100
AcDbSpline
 70
8
 71
3
 72
8
 73
4
 74
0
 40
0
 40
0
 40
0
 40
0
 40
1
 40
1
 40
1
 40
1
 10
21.620493
 20
206.930102
 30
0.0
 10
20.985891
 20
205.398037
 30
0.0
 10
21.336670
 20
203.634555
 30
0.0
 10
22.509261
 20
202.461963
 30
0.0
  0
SPLINE
  5
141
100
AcDbEntity
  8
0
 62
1
100
AcDbSpline
 70
8
 71
3
 72
8
 73
4
 74
0
 40
0
 40
0
 40
0
 40
0
 40
1
 40
1
 40
1
 40
1
 10
22.509261
 20
202.461963
 30
0.0
 10
23.681853
 20
201.289372
 30
0.0
 10
25.445335
 20
200.938593
 30
0.0
 10
26.977400
 20
201.573195
 30
0.0
  0
SPLINE
  5
142
100
AcDbEntity
  8
0
 62
1
100
AcDbSpline
 70
8
 71
3
 72
8
 73
4
 74
0
 40
0
 40
0
 40
0
 40
0
 40
1
 40
1
 40
1
 40
1
 10
26.977400
 20
201.573195
 30
0.0
 10
28.509465
 20
202.207797
 30
0.0
 10
29.508397
 20
203.702805
 30
0.0
 10
29.508397
 20
205.361100
 30
0.0
  0
SPLINE
  5
143
100
AcDbEntity
  8
0
 62
1
100
AcDbSpline
 70
8
 71
3
 72
8
 73
4
 74
0
 40
0
 40
0
 40
0
 40
0
 40
1
 40
1
 40
1
 40
1
 10
29.508397
 20
205.361100
 30
0.0
 10
29.508397
 20
207.625467
 30
0.0
 10
27.672765
 20
209.461099
 30
0.0
 10
25.408398
 20
209.461099
 30
0.0
  0
LWPOLYLINE
  5
144
100
AcDbEntity
  8
0
 62
1
100
AcDbPolyline
 90
1
 70
1
 10
71.167600
 20
216.204556
 30
0.0
  0
LWPOLYLINE
  5
145
100
AcDbEntity
  8
0
 62
1
100
AcDbPolyline
 90
1
 70
1
 10
25.408398
 20
209.461099
 30
0.0
  0
ENDSEC
  0
SECTION
  2
OBJECTS
  0
DICTIONARY
  5
C
330
0
100
AcDbDictionary
  3
ACAD_GROUP
350
D
  3
ACAD_MLINESTYLE
350
17
  0
DICTIONARY
  5
D
330
C
100
AcDbDictionary
  0
DICTIONARY
  5
1A
330
C
100
AcDbDictionary
  0
DICTIONARY
  5
17
330
C
100
AcDbDictionary
  3
STANDARD
350
18
  0
DICTIONARY
  5
19
330
C
100
AcDbDictionary
  0
ENDSEC
  0
EOF
