%TF.GenerationSoftware,KiCad,Pcbnew,5.1.10-88a1d61d58~88~ubuntu20.04.1*%
%TF.CreationDate,2021-05-20T13:35:29+01:00*%
%TF.ProjectId,scrawler,73637261-776c-4657-922e-6b696361645f,rev?*%
%TF.SameCoordinates,Original*%
%TF.FileFunction,Paste,Bot*%
%TF.FilePolarity,Positive*%
%FSLAX46Y46*%
G04 Gerber Fmt 4.6, Leading zero omitted, Abs format (unit mm)*
G04 Created by KiCad (PCBNEW 5.1.10-88a1d61d58~88~ubuntu20.04.1) date 2021-05-20 13:35:29*
%MOMM*%
%LPD*%
G01*
G04 APERTURE LIST*
%ADD10R,2.600000X2.600000*%
G04 APERTURE END LIST*
D10*
%TO.C,SW23*%
X158921500Y-132183200D03*
X156721500Y-143733200D03*
%TD*%
%TO.C,SW22*%
X139871500Y-141708200D03*
X137671500Y-153258200D03*
%TD*%
%TO.C,SW21*%
X139871500Y-122658200D03*
X137671500Y-134208200D03*
%TD*%
%TO.C,SW20*%
X151166500Y-111360000D03*
X139616500Y-109160000D03*
%TD*%
%TO.C,SW19*%
X132116500Y-111360000D03*
X120566500Y-109160000D03*
%TD*%
%TO.C,SW18*%
X113066500Y-111360000D03*
X101516500Y-109160000D03*
%TD*%
%TO.C,SW17*%
X198791500Y-94850000D03*
X187241500Y-92650000D03*
%TD*%
%TO.C,SW16*%
X179741500Y-94850000D03*
X168191500Y-92650000D03*
%TD*%
%TO.C,SW15*%
X160691500Y-94850000D03*
X149141500Y-92650000D03*
%TD*%
%TO.C,SW14*%
X141641500Y-94850000D03*
X130091500Y-92650000D03*
%TD*%
%TO.C,SW13*%
X122591500Y-94850000D03*
X111041500Y-92650000D03*
%TD*%
%TO.C,SW12*%
X103541500Y-94850000D03*
X91991500Y-92650000D03*
%TD*%
%TO.C,SW11*%
X208316500Y-78340000D03*
X196766500Y-76140000D03*
%TD*%
%TO.C,SW10*%
X189266500Y-78340000D03*
X177716500Y-76140000D03*
%TD*%
%TO.C,SW9*%
X170216500Y-78340000D03*
X158666500Y-76140000D03*
%TD*%
%TO.C,SW8*%
X151166500Y-78340000D03*
X139616500Y-76140000D03*
%TD*%
%TO.C,SW7*%
X132116500Y-78340000D03*
X120566500Y-76140000D03*
%TD*%
%TO.C,SW6*%
X113066500Y-78340000D03*
X101516500Y-76140000D03*
%TD*%
%TO.C,SW5*%
X198791500Y-61830000D03*
X187241500Y-59630000D03*
%TD*%
%TO.C,SW4*%
X179741500Y-61830000D03*
X168191500Y-59630000D03*
%TD*%
%TO.C,SW3*%
X160691500Y-61830000D03*
X149141500Y-59630000D03*
%TD*%
%TO.C,SW2*%
X141641500Y-61830000D03*
X130091500Y-59630000D03*
%TD*%
%TO.C,SW1*%
X122591500Y-61830000D03*
X111041500Y-59630000D03*
%TD*%
M02*
