M48
; DRILL file {KiCad 5.1.10-88a1d61d58~88~ubuntu20.04.1} date Thu May 20 13:35:47 2021
; FORMAT={-:-/ absolute / inch / decimal}
; #@! TF.CreationDate,2021-05-20T13:35:47+01:00
; #@! TF.GenerationSoftware,Kicad,Pcbnew,5.1.10-88a1d61d58~88~ubuntu20.04.1
; #@! TF.FileFunction,NonPlated,1,2,NPTH
FMAT,2
INCH
T1C0.0390
T2C0.0591
T3C0.0670
T4C0.1181
T5C0.1350
%
G90
G05
T1
X3.742Y-3.3346
X4.117Y-2.6846
X4.117Y-3.9846
X4.153Y-3.3346
X4.492Y-2.0346
X4.492Y-3.3346
X4.528Y-2.6846
X4.528Y-3.9846
X4.867Y-2.6846
X4.867Y-3.9846
X4.903Y-2.0346
X4.903Y-3.3346
X5.1071Y-4.7525
X5.1071Y-5.1635
X5.1071Y-5.5025
X5.1071Y-5.9135
X5.242Y-2.0346
X5.242Y-3.3346
X5.278Y-2.6846
X5.278Y-3.9846
X5.617Y-2.6846
X5.617Y-3.9846
X5.653Y-2.0346
X5.653Y-3.3346
X5.8571Y-5.1275
X5.8571Y-5.5385
X5.992Y-2.0346
X5.992Y-3.3346
X6.028Y-2.6846
X6.028Y-3.9846
X6.367Y-2.6846
X6.403Y-2.0346
X6.403Y-3.3346
X6.742Y-2.0346
X6.742Y-3.3346
X6.778Y-2.6846
X7.117Y-2.6846
X7.153Y-2.0346
X7.153Y-3.3346
X7.492Y-2.0346
X7.492Y-3.3346
X7.528Y-2.6846
X7.867Y-2.6846
X7.903Y-2.0346
X7.903Y-3.3346
X8.278Y-2.6846
T2
X5.8814Y-1.04
X5.8814Y-1.3156
X6.0626Y-1.04
X6.0626Y-1.3156
T3
X3.731Y-3.5
X4.106Y-2.85
X4.106Y-4.15
X4.164Y-3.5
X4.481Y-2.2
X4.481Y-3.5
X4.539Y-2.85
X4.539Y-4.15
X4.856Y-2.85
X4.856Y-4.15
X4.914Y-2.2
X4.914Y-3.5
X5.231Y-2.2
X5.231Y-3.5
X5.2725Y-4.7415
X5.2725Y-5.1745
X5.2725Y-5.4915
X5.2725Y-5.9245
X5.289Y-2.85
X5.289Y-4.15
X5.606Y-2.85
X5.606Y-4.15
X5.664Y-2.2
X5.664Y-3.5
X5.981Y-2.2
X5.981Y-3.5
X6.0225Y-5.1165
X6.0225Y-5.5495
X6.039Y-2.85
X6.039Y-4.15
X6.356Y-2.85
X6.414Y-2.2
X6.414Y-3.5
X6.731Y-2.2
X6.731Y-3.5
X6.789Y-2.85
X7.106Y-2.85
X7.164Y-2.2
X7.164Y-3.5
X7.481Y-2.2
X7.481Y-3.5
X7.539Y-2.85
X7.856Y-2.85
X7.914Y-2.2
X7.914Y-3.5
X8.289Y-2.85
T4
X3.7506Y-3.6476
X3.9475Y-3.7343
X4.1256Y-2.9976
X4.1256Y-4.2976
X4.1444Y-3.6476
X4.3225Y-3.0843
X4.3225Y-4.3843
X4.5006Y-2.3476
X4.5006Y-3.6476
X4.5194Y-2.9976
X4.5194Y-4.2976
X4.6975Y-2.4343
X4.6975Y-3.7343
X4.8756Y-2.9976
X4.8756Y-4.2976
X4.8944Y-2.3476
X4.8944Y-3.6476
X5.0725Y-3.0843
X5.0725Y-4.3843
X5.2506Y-2.3476
X5.2506Y-3.6476
X5.2694Y-2.9976
X5.2694Y-4.2976
X5.4201Y-4.7611
X5.4201Y-5.1549
X5.4201Y-5.5111
X5.4201Y-5.9049
X5.4475Y-2.4343
X5.4475Y-3.7343
X5.5068Y-4.958
X5.5068Y-5.708
X5.6256Y-2.9976
X5.6256Y-4.2976
X5.6444Y-2.3476
X5.6444Y-3.6476
X5.8225Y-3.0843
X5.8225Y-4.3843
X6.0006Y-2.3476
X6.0006Y-3.6476
X6.0194Y-2.9976
X6.0194Y-4.2976
X6.1701Y-5.1361
X6.1701Y-5.5299
X6.1975Y-2.4343
X6.1975Y-3.7343
X6.2568Y-5.333
X6.3756Y-2.9976
X6.3944Y-2.3476
X6.3944Y-3.6476
X6.5725Y-3.0843
X6.7506Y-2.3476
X6.7506Y-3.6476
X6.7694Y-2.9976
X6.9475Y-2.4343
X6.9475Y-3.7343
X7.1256Y-2.9976
X7.1444Y-2.3476
X7.1444Y-3.6476
X7.3225Y-3.0843
X7.5006Y-2.3476
X7.5006Y-3.6476
X7.5194Y-2.9976
X7.6975Y-2.4343
X7.6975Y-3.7343
X7.8756Y-2.9976
X7.8944Y-2.3476
X7.8944Y-3.6476
X8.0725Y-3.0843
X8.2694Y-2.9976
T5
X3.9475Y-3.5
X4.3225Y-2.85
X4.3225Y-4.15
X4.6975Y-2.2
X4.6975Y-3.5
X5.0725Y-2.85
X5.0725Y-4.15
X5.2725Y-4.958
X5.2725Y-5.708
X5.4475Y-2.2
X5.4475Y-3.5
X5.8225Y-2.85
X5.8225Y-4.15
X6.0225Y-5.333
X6.1975Y-2.2
X6.1975Y-3.5
X6.5725Y-2.85
X6.9475Y-2.2
X6.9475Y-3.5
X7.3225Y-2.85
X7.6975Y-2.2
X7.6975Y-3.5
X8.0725Y-2.85
T0
M30
