M48
; DRILL file {KiCad 5.1.10-88a1d61d58~88~ubuntu20.04.1} date Thu May 20 13:35:47 2021
; FORMAT={-:-/ absolute / inch / decimal}
; #@! TF.CreationDate,2021-05-20T13:35:47+01:00
; #@! TF.GenerationSoftware,Kicad,Pcbnew,5.1.10-88a1d61d58~88~ubuntu20.04.1
; #@! TF.FileFunction,Plated,1,2,PTH
FMAT,2
INCH
T1C0.0157
T2C0.0354
T3C0.0390
T4C0.0430
T5C0.2559
%
G90
G05
T1
X4.2733Y-3.6476
X4.6483Y-2.9976
X4.6483Y-4.2976
X5.0233Y-2.3476
X5.0233Y-3.6476
X5.3983Y-2.9976
X5.3983Y-4.2976
X5.4201Y-4.6322
X5.4201Y-5.3822
X5.7733Y-2.3476
X5.7733Y-3.6476
X6.1483Y-2.9976
X6.1483Y-4.2976
X6.1701Y-5.0072
X6.5233Y-2.3476
X6.5233Y-3.6476
X6.8983Y-2.9976
X7.2733Y-2.3476
X7.2733Y-3.6476
X7.6483Y-2.9976
X8.0233Y-2.3476
X8.0233Y-3.6476
X8.3983Y-2.9976
T3
X3.9475Y-3.8825
X3.9475Y-4.1825
X4.3225Y-3.2375
X4.3225Y-3.5375
X4.325Y-4.51
X4.625Y-4.51
X4.6975Y-2.5825
X4.6975Y-2.8825
X4.6975Y-3.8825
X4.6975Y-4.1825
X4.77Y-4.51
X5.07Y-4.51
X5.0725Y-3.2375
X5.0725Y-3.5375
X5.4475Y-2.5825
X5.4475Y-2.8825
X5.4475Y-3.88
X5.4475Y-4.18
X5.52Y-4.5125
X5.6425Y-5.41
X5.6425Y-5.71
X5.645Y-4.96
X5.645Y-5.26
X5.82Y-4.5125
X5.8225Y-3.2437
X5.8225Y-3.5437
X6.1975Y-2.5825
X6.1975Y-2.8825
X6.1975Y-3.8525
X6.1975Y-4.1525
X6.3345Y-1.102
X6.3345Y-1.502
X6.395Y-5.0375
X6.395Y-5.3375
X6.5125Y-1.1025
X6.5125Y-1.5025
X6.5725Y-3.2375
X6.5725Y-3.5375
X6.6475Y-3.8675
X6.9475Y-2.5825
X6.9475Y-2.8825
X6.9475Y-3.8675
X7.3225Y-3.2375
X7.3225Y-3.5375
X7.3975Y-3.8775
X7.6975Y-2.5825
X7.6975Y-2.8825
X7.6975Y-3.8775
X8.0725Y-3.2425
X8.0725Y-3.5425
T4
X4.5545Y-1.0345
X4.5545Y-1.6345
X4.6545Y-1.0345
X4.6545Y-1.6345
X4.7545Y-1.0345
X4.7545Y-1.6345
X4.8545Y-1.0345
X4.8545Y-1.6345
X4.9545Y-1.0345
X4.9545Y-1.6345
X5.0545Y-1.0345
X5.0545Y-1.6345
X5.1545Y-1.0345
X5.1545Y-1.6345
X5.2545Y-1.0345
X5.2545Y-1.6345
X5.3545Y-1.0345
X5.3545Y-1.6345
X5.4545Y-1.0345
X5.4545Y-1.6345
X5.5545Y-1.0345
X5.5545Y-1.6345
X5.6545Y-1.0345
X5.6545Y-1.6345
T5
X3.7045Y-4.49
X4.0465Y-2.2915
X5.891Y-1.7095
X6.272Y-5.9445
X6.328Y-4.4975
X8.2965Y-2.046
T2
G00X5.7909Y-1.4101
M15
G01X5.7909Y-1.4337
M16
G05
G00X5.972Y-1.0912
M15
G01X5.972Y-1.1148
M16
G05
G00X5.972Y-1.2093
M15
G01X5.972Y-1.2329
M16
G05
G00X5.972Y-1.3668
M15
G01X5.972Y-1.3904
M16
G05
G00X6.1531Y-1.4101
M15
G01X6.1531Y-1.4337
M16
G05
T0
M30
