M48
; DRILL file {KiCad 5.1.10-88a1d61d58~90~ubuntu20.04.1} date Sat Aug 28 15:33:35 2021
; FORMAT={-:-/ absolute / inch / decimal}
; #@! TF.CreationDate,2021-08-28T15:33:35+01:00
; #@! TF.GenerationSoftware,Kicad,Pcbnew,5.1.10-88a1d61d58~90~ubuntu20.04.1
; #@! TF.FileFunction,Plated,1,2,PTH
FMAT,2
INCH
T1C0.0157
T2C0.0320
T3C0.0394
T4C0.0430
T5C0.0433
T6C0.0590
T7C0.0591
T8C0.0866
T9C0.1614
%
G90
G05
T1
X3.1Y-4.17
X3.1056Y-3.416
X3.1289Y-3.2343
X3.1289Y-3.9843
X3.1289Y-4.7343
X3.1555Y-2.6595
X3.2339Y-4.17
X3.2394Y-3.416
X3.2894Y-2.6595
X3.3258Y-3.1476
X3.3258Y-3.8976
X3.3258Y-4.6476
X3.7496Y-3.7935
X3.7501Y-2.29
X3.7501Y-4.5525
X3.7516Y-3.0395
X3.7785Y-2.8593
X3.7785Y-3.6093
X3.7785Y-4.3593
X3.7785Y-5.1093
X3.8835Y-3.7935
X3.8839Y-2.29
X3.8839Y-4.5525
X3.8854Y-3.0395
X3.9753Y-2.7726
X3.9753Y-3.5226
X3.9753Y-4.2726
X3.9753Y-5.0226
X4.3981Y-2.668
X4.3981Y-3.427
X4.3996Y-4.173
X4.4006Y-1.9165
X4.428Y-2.4843
X4.428Y-3.2343
X4.428Y-3.9843
X4.428Y-4.7343
X4.5319Y-2.668
X4.532Y-3.427
X4.5334Y-4.173
X4.5344Y-1.9165
X4.6248Y-2.3976
X4.6248Y-3.1476
X4.6248Y-3.8976
X4.6248Y-4.6476
X5.0481Y-2.287
X5.0481Y-3.045
X5.0486Y-3.804
X5.0775Y-2.1093
X5.0775Y-2.8593
X5.0775Y-3.6093
X5.0775Y-4.3593
X5.1819Y-2.287
X5.1819Y-3.045
X5.1824Y-3.804
X5.2743Y-2.0226
X5.2743Y-2.7726
X5.2743Y-3.5226
X5.2743Y-4.2726
X5.3476Y-1.9155
X5.4814Y-1.9155
X5.6976Y-4.174
X5.6981Y-2.664
X5.6986Y-3.412
X5.727Y-2.4843
X5.727Y-3.2343
X5.727Y-3.9843
X5.727Y-4.7343
X5.8315Y-4.174
X5.8319Y-2.664
X5.8325Y-3.412
X5.9239Y-2.3976
X5.9239Y-3.1476
X5.9239Y-3.8976
X5.9239Y-4.6476
X5.9936Y-2.288
X6.1274Y-2.288
X6.2721Y-5.0665
X6.3476Y-3.0425
X6.3486Y-3.789
X6.3496Y-2.2915
X6.3765Y-4.508
X6.3765Y-2.8593
X6.3765Y-3.6093
X6.3765Y-4.3593
X6.4059Y-5.0665
X6.4814Y-3.0425
X6.4825Y-3.789
X6.4834Y-2.2915
X6.5734Y-2.7726
X6.5734Y-3.5226
X6.5734Y-4.2726
X6.724Y-3.7275
X6.724Y-4.7615
X6.7825Y-4.7475
X6.831Y-4.7485
X6.8505Y-3.55
X6.8995Y-3.9985
X6.9526Y-4.8244
X6.9935Y-3.326
X6.9935Y-3.4175
X6.9984Y-4.6986
X7.0553Y-3.3682
X7.056Y-3.205
X7.0717Y-4.636
X7.1553Y-3.3682
X7.2015Y-3.2215
X7.2015Y-3.277
X7.202Y-3.161
X7.2553Y-3.3682
X7.3265Y-5.1957
X7.3553Y-3.3682
X7.499Y-3.6955
X7.501Y-3.644
X7.5835Y-3.554
X7.6335Y-3.5565
X7.6725Y-5.0498
X7.7525Y-3.3695
X7.7529Y-3.2375
X7.7585Y-4.9472
X7.8627Y-3.3695
X7.8631Y-3.2375
X7.8667Y-5.5623
X8.2471Y-6.0898
X8.2835Y-5.511
X8.3995Y-5.444
T2
X7.0553Y-3.5454
X7.1553Y-3.5454
X7.2553Y-3.5454
X7.3553Y-3.5454
T3
X6.1429Y-4.8706
X6.1429Y-5.0674
X6.7138Y-4.8706
X6.7138Y-4.969
X6.7138Y-5.0674
T4
X6.901Y-2.2985
X6.901Y-2.3985
X6.901Y-2.4985
X6.901Y-2.5985
X6.901Y-2.6985
X6.901Y-2.7985
X6.901Y-2.8985
X6.901Y-2.9985
X6.901Y-3.0985
X6.901Y-3.1985
X6.901Y-3.2985
X6.901Y-3.3985
X7.501Y-2.2985
X7.501Y-2.3985
X7.501Y-2.4985
X7.501Y-2.5985
X7.501Y-2.6985
X7.501Y-2.7985
X7.501Y-2.8985
X7.501Y-2.9985
X7.501Y-3.0985
X7.501Y-3.1985
X7.501Y-3.2985
X7.501Y-3.3985
T5
X7.7203Y-2.8235
X7.7203Y-3.0794
X7.8975Y-2.8235
X7.8975Y-3.0794
T6
X2.85Y-2.9
X2.85Y-3.65
X2.85Y-4.4
X2.9Y-2.8
X2.9Y-3.55
X2.9Y-4.3
X3.1Y-2.8
X3.1Y-3.55
X3.1Y-4.3
X3.15Y-2.9
X3.15Y-3.65
X3.15Y-4.4
X3.4995Y-2.525
X3.4995Y-3.275
X3.4995Y-4.025
X3.4995Y-4.775
X3.5495Y-2.425
X3.5495Y-3.175
X3.5495Y-3.925
X3.5495Y-4.675
X3.7495Y-2.425
X3.7495Y-3.175
X3.7495Y-3.925
X3.7495Y-4.675
X3.7995Y-2.525
X3.7995Y-3.275
X3.7995Y-4.025
X3.7995Y-4.775
X4.149Y-2.15
X4.149Y-2.9
X4.149Y-3.65
X4.149Y-4.4
X4.199Y-2.05
X4.199Y-2.8
X4.199Y-3.55
X4.199Y-4.3
X4.399Y-2.05
X4.399Y-2.8
X4.399Y-3.55
X4.399Y-4.3
X4.449Y-2.15
X4.449Y-2.9
X4.449Y-3.65
X4.449Y-4.4
X4.7986Y-1.775
X4.7986Y-2.525
X4.7986Y-3.275
X4.7986Y-4.025
X4.8486Y-1.675
X4.8486Y-2.425
X4.8486Y-3.175
X4.8486Y-3.925
X5.0486Y-1.675
X5.0486Y-2.425
X5.0486Y-3.175
X5.0486Y-3.925
X5.0986Y-1.775
X5.0986Y-2.525
X5.0986Y-3.275
X5.0986Y-4.025
X5.4481Y-2.15
X5.4481Y-2.9
X5.4481Y-3.65
X5.4481Y-4.4
X5.4981Y-2.05
X5.4981Y-2.8
X5.4981Y-3.55
X5.4981Y-4.3
X5.6981Y-2.05
X5.6981Y-2.8
X5.6981Y-3.55
X5.6981Y-4.3
X5.7481Y-2.15
X5.7481Y-2.9
X5.7481Y-3.65
X5.7481Y-4.4
X6.0976Y-2.525
X6.0976Y-3.275
X6.0976Y-4.025
X6.1476Y-2.425
X6.1476Y-3.175
X6.1476Y-3.925
X6.3476Y-2.425
X6.3476Y-3.175
X6.3476Y-3.925
X6.3976Y-2.525
X6.3976Y-3.275
X6.3976Y-4.025
X7.1787Y-4.7862
X7.2599Y-4.7094
X7.4479Y-4.7778
X7.4607Y-4.8888
X7.8679Y-5.127
X7.9705Y-5.0825
X8.0977Y-5.3198
X8.1237Y-5.2111
X8.3971Y-5.6811
X8.5087Y-5.6744
X8.5471Y-5.9409
X8.6087Y-5.8476
T8
X7.05Y-3.85
X7.8Y-3.85
T9
X3.1205Y-4.984
X3.1695Y-2.4765
X4.947Y-4.632
X5.3935Y-1.6775
X6.6955Y-3.1955
X7.836Y-4.6565
T3
G00X7.6914Y-2.2721
M15
G01X7.6914Y-2.2918
M16
G05
G00X7.6914Y-2.3902
M15
G01X7.6914Y-2.4099
M16
G05
G00X7.6914Y-2.5477
M15
G01X7.6914Y-2.5674
M16
G05
G00X7.7603Y-2.6067
M15
G01X7.7603Y-2.6264
M16
G05
G00X7.8568Y-2.6067
M15
G01X7.8568Y-2.6264
M16
G05
G00X7.9257Y-2.2721
M15
G01X7.9257Y-2.2918
M16
G05
G00X7.9257Y-2.3902
M15
G01X7.9257Y-2.4099
M16
G05
G00X7.9257Y-2.5477
M15
G01X7.9257Y-2.5674
M16
G05
T7
G00X6.4441Y-4.7485
M15
G01X6.3929Y-4.7485
M16
G05
G00X6.4441Y-5.1895
M15
G01X6.3929Y-5.1895
M16
G05
T0
M30
