%TF.GenerationSoftware,KiCad,Pcbnew,5.1.10-88a1d61d58~90~ubuntu20.04.1*%
%TF.CreationDate,2021-08-28T15:33:20+01:00*%
%TF.ProjectId,scrawler,73637261-776c-4657-922e-6b696361645f,rev?*%
%TF.SameCoordinates,Original*%
%TF.FileFunction,Legend,Bot*%
%TF.FilePolarity,Positive*%
%FSLAX46Y46*%
G04 Gerber Fmt 4.6, Leading zero omitted, Abs format (unit mm)*
G04 Created by KiCad (PCBNEW 5.1.10-88a1d61d58~90~ubuntu20.04.1) date 2021-08-28 15:33:20*
%MOMM*%
%LPD*%
G01*
G04 APERTURE LIST*
%ADD10C,0.150000*%
%ADD11C,0.381000*%
%ADD12C,0.120000*%
G04 APERTURE END LIST*
D10*
%TO.C,J2*%
X194462200Y-66660800D02*
X194462200Y-54660800D01*
X200462200Y-66660800D02*
X194462200Y-66660800D01*
X200462200Y-54660800D02*
X200462200Y-66660800D01*
X194462200Y-54660800D02*
X200462200Y-54660800D01*
D11*
%TO.C,U1*%
X176555400Y-59651900D02*
X174015400Y-59651900D01*
X176555400Y-57111900D02*
X176555400Y-59651900D01*
D10*
G36*
X188950035Y-63400930D02*
G01*
X188950035Y-63500930D01*
X189050035Y-63500930D01*
X189050035Y-63400930D01*
X188950035Y-63400930D01*
G37*
X188950035Y-63400930D02*
X188950035Y-63500930D01*
X189050035Y-63500930D01*
X189050035Y-63400930D01*
X188950035Y-63400930D01*
G36*
X189150035Y-63000930D02*
G01*
X189150035Y-63800930D01*
X189250035Y-63800930D01*
X189250035Y-63000930D01*
X189150035Y-63000930D01*
G37*
X189150035Y-63000930D02*
X189150035Y-63800930D01*
X189250035Y-63800930D01*
X189250035Y-63000930D01*
X189150035Y-63000930D01*
G36*
X188750035Y-63600930D02*
G01*
X188750035Y-63800930D01*
X188850035Y-63800930D01*
X188850035Y-63600930D01*
X188750035Y-63600930D01*
G37*
X188750035Y-63600930D02*
X188750035Y-63800930D01*
X188850035Y-63800930D01*
X188850035Y-63600930D01*
X188750035Y-63600930D01*
G36*
X188750035Y-63000930D02*
G01*
X188750035Y-63300930D01*
X188850035Y-63300930D01*
X188850035Y-63000930D01*
X188750035Y-63000930D01*
G37*
X188750035Y-63000930D02*
X188750035Y-63300930D01*
X188850035Y-63300930D01*
X188850035Y-63000930D01*
X188750035Y-63000930D01*
G36*
X188750035Y-63000930D02*
G01*
X188750035Y-63100930D01*
X189250035Y-63100930D01*
X189250035Y-63000930D01*
X188750035Y-63000930D01*
G37*
X188750035Y-63000930D02*
X188750035Y-63100930D01*
X189250035Y-63100930D01*
X189250035Y-63000930D01*
X188750035Y-63000930D01*
D11*
X191795400Y-87591900D02*
X191795400Y-54571900D01*
X174015400Y-87591900D02*
X191795400Y-87591900D01*
X174015400Y-54571900D02*
X174015400Y-87591900D01*
X191795400Y-54571900D02*
X174015400Y-54571900D01*
X176555400Y-57111900D02*
X174015400Y-57111900D01*
D10*
%TO.C,SW9B1*%
X102195084Y-69200000D02*
X103195084Y-69200000D01*
X102195084Y-83200000D02*
X102195084Y-82200000D01*
X102195084Y-70200000D02*
X102195084Y-69200000D01*
X115195084Y-69200000D02*
X116195084Y-69200000D01*
X116195084Y-69200000D02*
X116195084Y-70200000D01*
X116195084Y-82200000D02*
X116195084Y-83200000D01*
X116195084Y-83200000D02*
X115195084Y-83200000D01*
X103195084Y-83200000D02*
X102195084Y-83200000D01*
%TO.C,SW9*%
X102195084Y-70200000D02*
X102195084Y-69200000D01*
X102195084Y-83200000D02*
X102195084Y-82200000D01*
X103195084Y-83200000D02*
X102195084Y-83200000D01*
X116195084Y-82200000D02*
X116195084Y-83200000D01*
X116195084Y-83200000D02*
X115195084Y-83200000D01*
X116195084Y-69200000D02*
X116195084Y-70200000D01*
X115195084Y-69200000D02*
X116195084Y-69200000D01*
X102195084Y-69200000D02*
X103195084Y-69200000D01*
%TO.C,SW8B1*%
X85697784Y-78725000D02*
X86697784Y-78725000D01*
X85697784Y-92725000D02*
X85697784Y-91725000D01*
X85697784Y-79725000D02*
X85697784Y-78725000D01*
X98697784Y-78725000D02*
X99697784Y-78725000D01*
X99697784Y-78725000D02*
X99697784Y-79725000D01*
X99697784Y-91725000D02*
X99697784Y-92725000D01*
X99697784Y-92725000D02*
X98697784Y-92725000D01*
X86697784Y-92725000D02*
X85697784Y-92725000D01*
%TO.C,SW8*%
X85697784Y-79725000D02*
X85697784Y-78725000D01*
X85697784Y-92725000D02*
X85697784Y-91725000D01*
X86697784Y-92725000D02*
X85697784Y-92725000D01*
X99697784Y-91725000D02*
X99697784Y-92725000D01*
X99697784Y-92725000D02*
X98697784Y-92725000D01*
X99697784Y-78725000D02*
X99697784Y-79725000D01*
X98697784Y-78725000D02*
X99697784Y-78725000D01*
X85697784Y-78725000D02*
X86697784Y-78725000D01*
%TO.C,SW7B1*%
X69200000Y-88250000D02*
X70200000Y-88250000D01*
X69200000Y-102250000D02*
X69200000Y-101250000D01*
X69200000Y-89250000D02*
X69200000Y-88250000D01*
X82200000Y-88250000D02*
X83200000Y-88250000D01*
X83200000Y-88250000D02*
X83200000Y-89250000D01*
X83200000Y-101250000D02*
X83200000Y-102250000D01*
X83200000Y-102250000D02*
X82200000Y-102250000D01*
X70200000Y-102250000D02*
X69200000Y-102250000D01*
%TO.C,SW7*%
X69200000Y-89250000D02*
X69200000Y-88250000D01*
X69200000Y-102250000D02*
X69200000Y-101250000D01*
X70200000Y-102250000D02*
X69200000Y-102250000D01*
X83200000Y-101250000D02*
X83200000Y-102250000D01*
X83200000Y-102250000D02*
X82200000Y-102250000D01*
X83200000Y-88250000D02*
X83200000Y-89250000D01*
X82200000Y-88250000D02*
X83200000Y-88250000D01*
X69200000Y-88250000D02*
X70200000Y-88250000D01*
%TO.C,SW6B1*%
X151688920Y-59675000D02*
X152688920Y-59675000D01*
X151688920Y-73675000D02*
X151688920Y-72675000D01*
X151688920Y-60675000D02*
X151688920Y-59675000D01*
X164688920Y-59675000D02*
X165688920Y-59675000D01*
X165688920Y-59675000D02*
X165688920Y-60675000D01*
X165688920Y-72675000D02*
X165688920Y-73675000D01*
X165688920Y-73675000D02*
X164688920Y-73675000D01*
X152688920Y-73675000D02*
X151688920Y-73675000D01*
%TO.C,SW6*%
X151688920Y-60675000D02*
X151688920Y-59675000D01*
X151688920Y-73675000D02*
X151688920Y-72675000D01*
X152688920Y-73675000D02*
X151688920Y-73675000D01*
X165688920Y-72675000D02*
X165688920Y-73675000D01*
X165688920Y-73675000D02*
X164688920Y-73675000D01*
X165688920Y-59675000D02*
X165688920Y-60675000D01*
X164688920Y-59675000D02*
X165688920Y-59675000D01*
X151688920Y-59675000D02*
X152688920Y-59675000D01*
%TO.C,SW5B1*%
X135191136Y-50150000D02*
X136191136Y-50150000D01*
X135191136Y-64150000D02*
X135191136Y-63150000D01*
X135191136Y-51150000D02*
X135191136Y-50150000D01*
X148191136Y-50150000D02*
X149191136Y-50150000D01*
X149191136Y-50150000D02*
X149191136Y-51150000D01*
X149191136Y-63150000D02*
X149191136Y-64150000D01*
X149191136Y-64150000D02*
X148191136Y-64150000D01*
X136191136Y-64150000D02*
X135191136Y-64150000D01*
%TO.C,SW5*%
X135191136Y-51150000D02*
X135191136Y-50150000D01*
X135191136Y-64150000D02*
X135191136Y-63150000D01*
X136191136Y-64150000D02*
X135191136Y-64150000D01*
X149191136Y-63150000D02*
X149191136Y-64150000D01*
X149191136Y-64150000D02*
X148191136Y-64150000D01*
X149191136Y-50150000D02*
X149191136Y-51150000D01*
X148191136Y-50150000D02*
X149191136Y-50150000D01*
X135191136Y-50150000D02*
X136191136Y-50150000D01*
%TO.C,SW4B1*%
X118693352Y-40625000D02*
X119693352Y-40625000D01*
X118693352Y-54625000D02*
X118693352Y-53625000D01*
X118693352Y-41625000D02*
X118693352Y-40625000D01*
X131693352Y-40625000D02*
X132693352Y-40625000D01*
X132693352Y-40625000D02*
X132693352Y-41625000D01*
X132693352Y-53625000D02*
X132693352Y-54625000D01*
X132693352Y-54625000D02*
X131693352Y-54625000D01*
X119693352Y-54625000D02*
X118693352Y-54625000D01*
%TO.C,SW4*%
X118693352Y-41625000D02*
X118693352Y-40625000D01*
X118693352Y-54625000D02*
X118693352Y-53625000D01*
X119693352Y-54625000D02*
X118693352Y-54625000D01*
X132693352Y-53625000D02*
X132693352Y-54625000D01*
X132693352Y-54625000D02*
X131693352Y-54625000D01*
X132693352Y-40625000D02*
X132693352Y-41625000D01*
X131693352Y-40625000D02*
X132693352Y-40625000D01*
X118693352Y-40625000D02*
X119693352Y-40625000D01*
%TO.C,SW3B1*%
X102195084Y-50150000D02*
X103195084Y-50150000D01*
X102195084Y-64150000D02*
X102195084Y-63150000D01*
X102195084Y-51150000D02*
X102195084Y-50150000D01*
X115195084Y-50150000D02*
X116195084Y-50150000D01*
X116195084Y-50150000D02*
X116195084Y-51150000D01*
X116195084Y-63150000D02*
X116195084Y-64150000D01*
X116195084Y-64150000D02*
X115195084Y-64150000D01*
X103195084Y-64150000D02*
X102195084Y-64150000D01*
%TO.C,SW3*%
X102195084Y-51150000D02*
X102195084Y-50150000D01*
X102195084Y-64150000D02*
X102195084Y-63150000D01*
X103195084Y-64150000D02*
X102195084Y-64150000D01*
X116195084Y-63150000D02*
X116195084Y-64150000D01*
X116195084Y-64150000D02*
X115195084Y-64150000D01*
X116195084Y-50150000D02*
X116195084Y-51150000D01*
X115195084Y-50150000D02*
X116195084Y-50150000D01*
X102195084Y-50150000D02*
X103195084Y-50150000D01*
%TO.C,SW2B1*%
X85697784Y-59675000D02*
X86697784Y-59675000D01*
X85697784Y-73675000D02*
X85697784Y-72675000D01*
X85697784Y-60675000D02*
X85697784Y-59675000D01*
X98697784Y-59675000D02*
X99697784Y-59675000D01*
X99697784Y-59675000D02*
X99697784Y-60675000D01*
X99697784Y-72675000D02*
X99697784Y-73675000D01*
X99697784Y-73675000D02*
X98697784Y-73675000D01*
X86697784Y-73675000D02*
X85697784Y-73675000D01*
%TO.C,SW2*%
X85697784Y-60675000D02*
X85697784Y-59675000D01*
X85697784Y-73675000D02*
X85697784Y-72675000D01*
X86697784Y-73675000D02*
X85697784Y-73675000D01*
X99697784Y-72675000D02*
X99697784Y-73675000D01*
X99697784Y-73675000D02*
X98697784Y-73675000D01*
X99697784Y-59675000D02*
X99697784Y-60675000D01*
X98697784Y-59675000D02*
X99697784Y-59675000D01*
X85697784Y-59675000D02*
X86697784Y-59675000D01*
%TO.C,SW26B1*%
X215553878Y-139307222D02*
X216053878Y-140173248D01*
X203429522Y-146307222D02*
X204295548Y-145807222D01*
X214687852Y-139807222D02*
X215553878Y-139307222D01*
X222053878Y-150565552D02*
X222553878Y-151431578D01*
X222553878Y-151431578D02*
X221687852Y-151931578D01*
X211295548Y-157931578D02*
X210429522Y-158431578D01*
X210429522Y-158431578D02*
X209929522Y-157565552D01*
X203929522Y-147173248D02*
X203429522Y-146307222D01*
%TO.C,SW26*%
X214687852Y-139807222D02*
X215553878Y-139307222D01*
X203429522Y-146307222D02*
X204295548Y-145807222D01*
X203929522Y-147173248D02*
X203429522Y-146307222D01*
X211295548Y-157931578D02*
X210429522Y-158431578D01*
X210429522Y-158431578D02*
X209929522Y-157565552D01*
X222553878Y-151431578D02*
X221687852Y-151931578D01*
X222053878Y-150565552D02*
X222553878Y-151431578D01*
X215553878Y-139307222D02*
X216053878Y-140173248D01*
%TO.C,SW25B1*%
X200267102Y-124758176D02*
X201033147Y-125400963D01*
X191268076Y-135482798D02*
X191910863Y-134716753D01*
X199624315Y-125524220D02*
X200267102Y-124758176D01*
X210225680Y-133114415D02*
X210991724Y-133757202D01*
X210991724Y-133757202D02*
X210348937Y-134523247D01*
X202635485Y-143715780D02*
X201992698Y-144481824D01*
X201992698Y-144481824D02*
X201226653Y-143839037D01*
X192034120Y-136125585D02*
X191268076Y-135482798D01*
%TO.C,SW25*%
X199624315Y-125524220D02*
X200267102Y-124758176D01*
X191268076Y-135482798D02*
X191910863Y-134716753D01*
X192034120Y-136125585D02*
X191268076Y-135482798D01*
X202635485Y-143715780D02*
X201992698Y-144481824D01*
X201992698Y-144481824D02*
X201226653Y-143839037D01*
X210991724Y-133757202D02*
X210348937Y-134523247D01*
X210225680Y-133114415D02*
X210991724Y-133757202D01*
X200267102Y-124758176D02*
X201033147Y-125400963D01*
%TO.C,SW24B1*%
X180867993Y-116288111D02*
X181807685Y-116630131D01*
X176079711Y-129443807D02*
X176421731Y-128504115D01*
X180525973Y-117227803D02*
X180867993Y-116288111D01*
X193083997Y-120734373D02*
X194023689Y-121076393D01*
X194023689Y-121076393D02*
X193681669Y-122016085D01*
X189577427Y-133292397D02*
X189235407Y-134232089D01*
X189235407Y-134232089D02*
X188295715Y-133890069D01*
X177019403Y-129785827D02*
X176079711Y-129443807D01*
%TO.C,SW24*%
X180525973Y-117227803D02*
X180867993Y-116288111D01*
X176079711Y-129443807D02*
X176421731Y-128504115D01*
X177019403Y-129785827D02*
X176079711Y-129443807D01*
X189577427Y-133292397D02*
X189235407Y-134232089D01*
X189235407Y-134232089D02*
X188295715Y-133890069D01*
X194023689Y-121076393D02*
X193681669Y-122016085D01*
X193083997Y-120734373D02*
X194023689Y-121076393D01*
X180867993Y-116288111D02*
X181807685Y-116630131D01*
%TO.C,SW22B1*%
X135191136Y-107300000D02*
X136191136Y-107300000D01*
X135191136Y-121300000D02*
X135191136Y-120300000D01*
X135191136Y-108300000D02*
X135191136Y-107300000D01*
X148191136Y-107300000D02*
X149191136Y-107300000D01*
X149191136Y-107300000D02*
X149191136Y-108300000D01*
X149191136Y-120300000D02*
X149191136Y-121300000D01*
X149191136Y-121300000D02*
X148191136Y-121300000D01*
X136191136Y-121300000D02*
X135191136Y-121300000D01*
%TO.C,SW22*%
X135191136Y-108300000D02*
X135191136Y-107300000D01*
X135191136Y-121300000D02*
X135191136Y-120300000D01*
X136191136Y-121300000D02*
X135191136Y-121300000D01*
X149191136Y-120300000D02*
X149191136Y-121300000D01*
X149191136Y-121300000D02*
X148191136Y-121300000D01*
X149191136Y-107300000D02*
X149191136Y-108300000D01*
X148191136Y-107300000D02*
X149191136Y-107300000D01*
X135191136Y-107300000D02*
X136191136Y-107300000D01*
%TO.C,SW21B1*%
X118693352Y-97775000D02*
X119693352Y-97775000D01*
X118693352Y-111775000D02*
X118693352Y-110775000D01*
X118693352Y-98775000D02*
X118693352Y-97775000D01*
X131693352Y-97775000D02*
X132693352Y-97775000D01*
X132693352Y-97775000D02*
X132693352Y-98775000D01*
X132693352Y-110775000D02*
X132693352Y-111775000D01*
X132693352Y-111775000D02*
X131693352Y-111775000D01*
X119693352Y-111775000D02*
X118693352Y-111775000D01*
%TO.C,SW21*%
X118693352Y-98775000D02*
X118693352Y-97775000D01*
X118693352Y-111775000D02*
X118693352Y-110775000D01*
X119693352Y-111775000D02*
X118693352Y-111775000D01*
X132693352Y-110775000D02*
X132693352Y-111775000D01*
X132693352Y-111775000D02*
X131693352Y-111775000D01*
X132693352Y-97775000D02*
X132693352Y-98775000D01*
X131693352Y-97775000D02*
X132693352Y-97775000D01*
X118693352Y-97775000D02*
X119693352Y-97775000D01*
%TO.C,SW20B1*%
X102195084Y-107300000D02*
X103195084Y-107300000D01*
X102195084Y-121300000D02*
X102195084Y-120300000D01*
X102195084Y-108300000D02*
X102195084Y-107300000D01*
X115195084Y-107300000D02*
X116195084Y-107300000D01*
X116195084Y-107300000D02*
X116195084Y-108300000D01*
X116195084Y-120300000D02*
X116195084Y-121300000D01*
X116195084Y-121300000D02*
X115195084Y-121300000D01*
X103195084Y-121300000D02*
X102195084Y-121300000D01*
%TO.C,SW20*%
X102195084Y-108300000D02*
X102195084Y-107300000D01*
X102195084Y-121300000D02*
X102195084Y-120300000D01*
X103195084Y-121300000D02*
X102195084Y-121300000D01*
X116195084Y-120300000D02*
X116195084Y-121300000D01*
X116195084Y-121300000D02*
X115195084Y-121300000D01*
X116195084Y-107300000D02*
X116195084Y-108300000D01*
X115195084Y-107300000D02*
X116195084Y-107300000D01*
X102195084Y-107300000D02*
X103195084Y-107300000D01*
%TO.C,SW1B1*%
X69200000Y-69200000D02*
X70200000Y-69200000D01*
X69200000Y-83200000D02*
X69200000Y-82200000D01*
X69200000Y-70200000D02*
X69200000Y-69200000D01*
X82200000Y-69200000D02*
X83200000Y-69200000D01*
X83200000Y-69200000D02*
X83200000Y-70200000D01*
X83200000Y-82200000D02*
X83200000Y-83200000D01*
X83200000Y-83200000D02*
X82200000Y-83200000D01*
X70200000Y-83200000D02*
X69200000Y-83200000D01*
%TO.C,SW1*%
X69200000Y-70200000D02*
X69200000Y-69200000D01*
X69200000Y-83200000D02*
X69200000Y-82200000D01*
X70200000Y-83200000D02*
X69200000Y-83200000D01*
X83200000Y-82200000D02*
X83200000Y-83200000D01*
X83200000Y-83200000D02*
X82200000Y-83200000D01*
X83200000Y-69200000D02*
X83200000Y-70200000D01*
X82200000Y-69200000D02*
X83200000Y-69200000D01*
X69200000Y-69200000D02*
X70200000Y-69200000D01*
%TO.C,SW19B1*%
X85697784Y-116825000D02*
X86697784Y-116825000D01*
X85697784Y-130825000D02*
X85697784Y-129825000D01*
X85697784Y-117825000D02*
X85697784Y-116825000D01*
X98697784Y-116825000D02*
X99697784Y-116825000D01*
X99697784Y-116825000D02*
X99697784Y-117825000D01*
X99697784Y-129825000D02*
X99697784Y-130825000D01*
X99697784Y-130825000D02*
X98697784Y-130825000D01*
X86697784Y-130825000D02*
X85697784Y-130825000D01*
%TO.C,SW19*%
X85697784Y-117825000D02*
X85697784Y-116825000D01*
X85697784Y-130825000D02*
X85697784Y-129825000D01*
X86697784Y-130825000D02*
X85697784Y-130825000D01*
X99697784Y-129825000D02*
X99697784Y-130825000D01*
X99697784Y-130825000D02*
X98697784Y-130825000D01*
X99697784Y-116825000D02*
X99697784Y-117825000D01*
X98697784Y-116825000D02*
X99697784Y-116825000D01*
X85697784Y-116825000D02*
X86697784Y-116825000D01*
%TO.C,SW18B1*%
X151688920Y-97775000D02*
X152688920Y-97775000D01*
X151688920Y-111775000D02*
X151688920Y-110775000D01*
X151688920Y-98775000D02*
X151688920Y-97775000D01*
X164688920Y-97775000D02*
X165688920Y-97775000D01*
X165688920Y-97775000D02*
X165688920Y-98775000D01*
X165688920Y-110775000D02*
X165688920Y-111775000D01*
X165688920Y-111775000D02*
X164688920Y-111775000D01*
X152688920Y-111775000D02*
X151688920Y-111775000D01*
%TO.C,SW18*%
X151688920Y-98775000D02*
X151688920Y-97775000D01*
X151688920Y-111775000D02*
X151688920Y-110775000D01*
X152688920Y-111775000D02*
X151688920Y-111775000D01*
X165688920Y-110775000D02*
X165688920Y-111775000D01*
X165688920Y-111775000D02*
X164688920Y-111775000D01*
X165688920Y-97775000D02*
X165688920Y-98775000D01*
X164688920Y-97775000D02*
X165688920Y-97775000D01*
X151688920Y-97775000D02*
X152688920Y-97775000D01*
%TO.C,SW17B1*%
X135191136Y-88250000D02*
X136191136Y-88250000D01*
X135191136Y-102250000D02*
X135191136Y-101250000D01*
X135191136Y-89250000D02*
X135191136Y-88250000D01*
X148191136Y-88250000D02*
X149191136Y-88250000D01*
X149191136Y-88250000D02*
X149191136Y-89250000D01*
X149191136Y-101250000D02*
X149191136Y-102250000D01*
X149191136Y-102250000D02*
X148191136Y-102250000D01*
X136191136Y-102250000D02*
X135191136Y-102250000D01*
%TO.C,SW17*%
X135191136Y-89250000D02*
X135191136Y-88250000D01*
X135191136Y-102250000D02*
X135191136Y-101250000D01*
X136191136Y-102250000D02*
X135191136Y-102250000D01*
X149191136Y-101250000D02*
X149191136Y-102250000D01*
X149191136Y-102250000D02*
X148191136Y-102250000D01*
X149191136Y-88250000D02*
X149191136Y-89250000D01*
X148191136Y-88250000D02*
X149191136Y-88250000D01*
X135191136Y-88250000D02*
X136191136Y-88250000D01*
%TO.C,SW16B1*%
X118693352Y-78725000D02*
X119693352Y-78725000D01*
X118693352Y-92725000D02*
X118693352Y-91725000D01*
X118693352Y-79725000D02*
X118693352Y-78725000D01*
X131693352Y-78725000D02*
X132693352Y-78725000D01*
X132693352Y-78725000D02*
X132693352Y-79725000D01*
X132693352Y-91725000D02*
X132693352Y-92725000D01*
X132693352Y-92725000D02*
X131693352Y-92725000D01*
X119693352Y-92725000D02*
X118693352Y-92725000D01*
%TO.C,SW16*%
X118693352Y-79725000D02*
X118693352Y-78725000D01*
X118693352Y-92725000D02*
X118693352Y-91725000D01*
X119693352Y-92725000D02*
X118693352Y-92725000D01*
X132693352Y-91725000D02*
X132693352Y-92725000D01*
X132693352Y-92725000D02*
X131693352Y-92725000D01*
X132693352Y-78725000D02*
X132693352Y-79725000D01*
X131693352Y-78725000D02*
X132693352Y-78725000D01*
X118693352Y-78725000D02*
X119693352Y-78725000D01*
%TO.C,SW15B1*%
X102195084Y-88250000D02*
X103195084Y-88250000D01*
X102195084Y-102250000D02*
X102195084Y-101250000D01*
X102195084Y-89250000D02*
X102195084Y-88250000D01*
X115195084Y-88250000D02*
X116195084Y-88250000D01*
X116195084Y-88250000D02*
X116195084Y-89250000D01*
X116195084Y-101250000D02*
X116195084Y-102250000D01*
X116195084Y-102250000D02*
X115195084Y-102250000D01*
X103195084Y-102250000D02*
X102195084Y-102250000D01*
%TO.C,SW15*%
X102195084Y-89250000D02*
X102195084Y-88250000D01*
X102195084Y-102250000D02*
X102195084Y-101250000D01*
X103195084Y-102250000D02*
X102195084Y-102250000D01*
X116195084Y-101250000D02*
X116195084Y-102250000D01*
X116195084Y-102250000D02*
X115195084Y-102250000D01*
X116195084Y-88250000D02*
X116195084Y-89250000D01*
X115195084Y-88250000D02*
X116195084Y-88250000D01*
X102195084Y-88250000D02*
X103195084Y-88250000D01*
%TO.C,SW14B1*%
X85697784Y-97775000D02*
X86697784Y-97775000D01*
X85697784Y-111775000D02*
X85697784Y-110775000D01*
X85697784Y-98775000D02*
X85697784Y-97775000D01*
X98697784Y-97775000D02*
X99697784Y-97775000D01*
X99697784Y-97775000D02*
X99697784Y-98775000D01*
X99697784Y-110775000D02*
X99697784Y-111775000D01*
X99697784Y-111775000D02*
X98697784Y-111775000D01*
X86697784Y-111775000D02*
X85697784Y-111775000D01*
%TO.C,SW14*%
X85697784Y-98775000D02*
X85697784Y-97775000D01*
X85697784Y-111775000D02*
X85697784Y-110775000D01*
X86697784Y-111775000D02*
X85697784Y-111775000D01*
X99697784Y-110775000D02*
X99697784Y-111775000D01*
X99697784Y-111775000D02*
X98697784Y-111775000D01*
X99697784Y-97775000D02*
X99697784Y-98775000D01*
X98697784Y-97775000D02*
X99697784Y-97775000D01*
X85697784Y-97775000D02*
X86697784Y-97775000D01*
%TO.C,SW13B1*%
X69200000Y-107300000D02*
X70200000Y-107300000D01*
X69200000Y-121300000D02*
X69200000Y-120300000D01*
X69200000Y-108300000D02*
X69200000Y-107300000D01*
X82200000Y-107300000D02*
X83200000Y-107300000D01*
X83200000Y-107300000D02*
X83200000Y-108300000D01*
X83200000Y-120300000D02*
X83200000Y-121300000D01*
X83200000Y-121300000D02*
X82200000Y-121300000D01*
X70200000Y-121300000D02*
X69200000Y-121300000D01*
%TO.C,SW13*%
X69200000Y-108300000D02*
X69200000Y-107300000D01*
X69200000Y-121300000D02*
X69200000Y-120300000D01*
X70200000Y-121300000D02*
X69200000Y-121300000D01*
X83200000Y-120300000D02*
X83200000Y-121300000D01*
X83200000Y-121300000D02*
X82200000Y-121300000D01*
X83200000Y-107300000D02*
X83200000Y-108300000D01*
X82200000Y-107300000D02*
X83200000Y-107300000D01*
X69200000Y-107300000D02*
X70200000Y-107300000D01*
%TO.C,SW12B1*%
X151688920Y-78725000D02*
X152688920Y-78725000D01*
X151688920Y-92725000D02*
X151688920Y-91725000D01*
X151688920Y-79725000D02*
X151688920Y-78725000D01*
X164688920Y-78725000D02*
X165688920Y-78725000D01*
X165688920Y-78725000D02*
X165688920Y-79725000D01*
X165688920Y-91725000D02*
X165688920Y-92725000D01*
X165688920Y-92725000D02*
X164688920Y-92725000D01*
X152688920Y-92725000D02*
X151688920Y-92725000D01*
%TO.C,SW12*%
X151688920Y-79725000D02*
X151688920Y-78725000D01*
X151688920Y-92725000D02*
X151688920Y-91725000D01*
X152688920Y-92725000D02*
X151688920Y-92725000D01*
X165688920Y-91725000D02*
X165688920Y-92725000D01*
X165688920Y-92725000D02*
X164688920Y-92725000D01*
X165688920Y-78725000D02*
X165688920Y-79725000D01*
X164688920Y-78725000D02*
X165688920Y-78725000D01*
X151688920Y-78725000D02*
X152688920Y-78725000D01*
%TO.C,SW11B1*%
X135191136Y-69200000D02*
X136191136Y-69200000D01*
X135191136Y-83200000D02*
X135191136Y-82200000D01*
X135191136Y-70200000D02*
X135191136Y-69200000D01*
X148191136Y-69200000D02*
X149191136Y-69200000D01*
X149191136Y-69200000D02*
X149191136Y-70200000D01*
X149191136Y-82200000D02*
X149191136Y-83200000D01*
X149191136Y-83200000D02*
X148191136Y-83200000D01*
X136191136Y-83200000D02*
X135191136Y-83200000D01*
%TO.C,SW11*%
X135191136Y-70200000D02*
X135191136Y-69200000D01*
X135191136Y-83200000D02*
X135191136Y-82200000D01*
X136191136Y-83200000D02*
X135191136Y-83200000D01*
X149191136Y-82200000D02*
X149191136Y-83200000D01*
X149191136Y-83200000D02*
X148191136Y-83200000D01*
X149191136Y-69200000D02*
X149191136Y-70200000D01*
X148191136Y-69200000D02*
X149191136Y-69200000D01*
X135191136Y-69200000D02*
X136191136Y-69200000D01*
%TO.C,SW10B1*%
X118693352Y-59675000D02*
X119693352Y-59675000D01*
X118693352Y-73675000D02*
X118693352Y-72675000D01*
X118693352Y-60675000D02*
X118693352Y-59675000D01*
X131693352Y-59675000D02*
X132693352Y-59675000D01*
X132693352Y-59675000D02*
X132693352Y-60675000D01*
X132693352Y-72675000D02*
X132693352Y-73675000D01*
X132693352Y-73675000D02*
X131693352Y-73675000D01*
X119693352Y-73675000D02*
X118693352Y-73675000D01*
%TO.C,SW10*%
X118693352Y-60675000D02*
X118693352Y-59675000D01*
X118693352Y-73675000D02*
X118693352Y-72675000D01*
X119693352Y-73675000D02*
X118693352Y-73675000D01*
X132693352Y-72675000D02*
X132693352Y-73675000D01*
X132693352Y-73675000D02*
X131693352Y-73675000D01*
X132693352Y-59675000D02*
X132693352Y-60675000D01*
X131693352Y-59675000D02*
X132693352Y-59675000D01*
X118693352Y-59675000D02*
X119693352Y-59675000D01*
D12*
%TO.C,ROT_ENC*%
X165029900Y-132112600D02*
X169129900Y-132112600D01*
X169129900Y-132112600D02*
X169129900Y-120312600D01*
X165029900Y-120312600D02*
X169129900Y-120312600D01*
X156929900Y-120312600D02*
X161029900Y-120312600D01*
X156929900Y-122712600D02*
X156929900Y-120312600D01*
X156929900Y-127512600D02*
X156929900Y-124912600D01*
X156929900Y-132112600D02*
X156929900Y-129712600D01*
X161029900Y-132112600D02*
X156929900Y-132112600D01*
X166029900Y-126212600D02*
G75*
G03*
X166029900Y-126212600I-3000000J0D01*
G01*
X163029900Y-126712600D02*
X163029900Y-125712600D01*
X163529900Y-126212600D02*
X162529900Y-126212600D01*
D10*
%TO.C,JP8*%
X180093620Y-86194900D02*
X180093620Y-83908900D01*
X180093620Y-83908900D02*
X178315620Y-83908900D01*
X178315620Y-83908900D02*
X178315620Y-86194900D01*
X178315620Y-86194900D02*
X180093620Y-86194900D01*
%TO.C,JP7*%
X182633620Y-86194900D02*
X182633620Y-83908900D01*
X182633620Y-83908900D02*
X180855620Y-83908900D01*
X180855620Y-83908900D02*
X180855620Y-86194900D01*
X180855620Y-86194900D02*
X182633620Y-86194900D01*
%TO.C,JP6*%
X185173620Y-86194900D02*
X185173620Y-83908900D01*
X185173620Y-83908900D02*
X183395620Y-83908900D01*
X183395620Y-83908900D02*
X183395620Y-86194900D01*
X183395620Y-86194900D02*
X185173620Y-86194900D01*
%TO.C,JP5*%
X187713620Y-86194900D02*
X187713620Y-83908900D01*
X187713620Y-83908900D02*
X185935620Y-83908900D01*
X185935620Y-83908900D02*
X185935620Y-86194900D01*
X185935620Y-86194900D02*
X187713620Y-86194900D01*
%TO.C,OLED*%
X177934620Y-88781890D02*
X188094620Y-88781890D01*
X188094620Y-88781890D02*
X188094620Y-91321890D01*
X188094620Y-91321890D02*
X177934620Y-91321890D01*
X177934620Y-91321890D02*
X177934620Y-88781890D01*
%TO.C,D26*%
X212307113Y-138878500D02*
X211877690Y-139934718D01*
X211877690Y-139934718D02*
X211177690Y-138722282D01*
X211177690Y-138722282D02*
X212307113Y-138878500D01*
X212657113Y-139484718D02*
X211957113Y-138272282D01*
%TO.C,D25*%
X196295094Y-126578878D02*
X196252816Y-127718269D01*
X196252816Y-127718269D02*
X195180354Y-126818366D01*
X195180354Y-126818366D02*
X196295094Y-126578878D01*
X196831325Y-127028829D02*
X195758863Y-126128926D01*
%TO.C,D24*%
X177348710Y-120472254D02*
X177698677Y-121557391D01*
X177698677Y-121557391D02*
X176383107Y-121078563D01*
X176383107Y-121078563D02*
X177348710Y-120472254D01*
X178006495Y-120711668D02*
X176690925Y-120232840D01*
%TO.C,D23*%
X161510600Y-128689100D02*
X160610600Y-129389100D01*
X160610600Y-129389100D02*
X160610600Y-127989100D01*
X160610600Y-127989100D02*
X161510600Y-128689100D01*
X161510600Y-129389100D02*
X161510600Y-127989100D01*
%TO.C,D22*%
X146920100Y-106019600D02*
X146020100Y-106719600D01*
X146020100Y-106719600D02*
X146020100Y-105319600D01*
X146020100Y-105319600D02*
X146920100Y-106019600D01*
X146920100Y-106719600D02*
X146920100Y-105319600D01*
%TO.C,D21*%
X130433700Y-96621600D02*
X129533700Y-97321600D01*
X129533700Y-97321600D02*
X129533700Y-95921600D01*
X129533700Y-95921600D02*
X130433700Y-96621600D01*
X130433700Y-97321600D02*
X130433700Y-95921600D01*
%TO.C,D20*%
X113949100Y-105994200D02*
X113049100Y-106694200D01*
X113049100Y-106694200D02*
X113049100Y-105294200D01*
X113049100Y-105294200D02*
X113949100Y-105994200D01*
X113949100Y-106694200D02*
X113949100Y-105294200D01*
%TO.C,D19*%
X97451800Y-115633500D02*
X96551800Y-116333500D01*
X96551800Y-116333500D02*
X96551800Y-114933500D01*
X96551800Y-114933500D02*
X97451800Y-115633500D01*
X97451800Y-116333500D02*
X97451800Y-114933500D01*
%TO.C,D18*%
X163455500Y-96240600D02*
X162555500Y-96940600D01*
X162555500Y-96940600D02*
X162555500Y-95540600D01*
X162555500Y-95540600D02*
X163455500Y-96240600D01*
X163455500Y-96940600D02*
X163455500Y-95540600D01*
%TO.C,D17*%
X146945500Y-86664800D02*
X146045500Y-87364800D01*
X146045500Y-87364800D02*
X146045500Y-85964800D01*
X146045500Y-85964800D02*
X146945500Y-86664800D01*
X146945500Y-87364800D02*
X146945500Y-85964800D01*
%TO.C,D16*%
X130421000Y-77343000D02*
X129521000Y-78043000D01*
X129521000Y-78043000D02*
X129521000Y-76643000D01*
X129521000Y-76643000D02*
X130421000Y-77343000D01*
X130421000Y-78043000D02*
X130421000Y-76643000D01*
%TO.C,D15*%
X113912800Y-87045800D02*
X113012800Y-87745800D01*
X113012800Y-87745800D02*
X113012800Y-86345800D01*
X113012800Y-86345800D02*
X113912800Y-87045800D01*
X113912800Y-87745800D02*
X113912800Y-86345800D01*
%TO.C,D14*%
X97440900Y-96354900D02*
X96540900Y-97054900D01*
X96540900Y-97054900D02*
X96540900Y-95654900D01*
X96540900Y-95654900D02*
X97440900Y-96354900D01*
X97440900Y-97054900D02*
X97440900Y-95654900D01*
%TO.C,D13*%
X80940000Y-105918000D02*
X80040000Y-106618000D01*
X80040000Y-106618000D02*
X80040000Y-105218000D01*
X80040000Y-105218000D02*
X80940000Y-105918000D01*
X80940000Y-106618000D02*
X80940000Y-105218000D01*
%TO.C,D12*%
X163428300Y-77279500D02*
X162528300Y-77979500D01*
X162528300Y-77979500D02*
X162528300Y-76579500D01*
X162528300Y-76579500D02*
X163428300Y-77279500D01*
X163428300Y-77979500D02*
X163428300Y-76579500D01*
%TO.C,D11*%
X146931000Y-67665600D02*
X146031000Y-68365600D01*
X146031000Y-68365600D02*
X146031000Y-66965600D01*
X146031000Y-66965600D02*
X146931000Y-67665600D01*
X146931000Y-68365600D02*
X146931000Y-66965600D01*
%TO.C,D10*%
X130421000Y-58089800D02*
X129521000Y-58789800D01*
X129521000Y-58789800D02*
X129521000Y-57389800D01*
X129521000Y-57389800D02*
X130421000Y-58089800D01*
X130421000Y-58789800D02*
X130421000Y-57389800D01*
%TO.C,D9*%
X113911000Y-67767200D02*
X113011000Y-68467200D01*
X113011000Y-68467200D02*
X113011000Y-67067200D01*
X113011000Y-67067200D02*
X113911000Y-67767200D01*
X113911000Y-68467200D02*
X113911000Y-67067200D01*
%TO.C,D8*%
X97489900Y-77203300D02*
X96589900Y-77903300D01*
X96589900Y-77903300D02*
X96589900Y-76503300D01*
X96589900Y-76503300D02*
X97489900Y-77203300D01*
X97489900Y-77903300D02*
X97489900Y-76503300D01*
%TO.C,D7*%
X81081500Y-86766400D02*
X80181500Y-87466400D01*
X80181500Y-87466400D02*
X80181500Y-86066400D01*
X80181500Y-86066400D02*
X81081500Y-86766400D01*
X81081500Y-87466400D02*
X81081500Y-86066400D01*
%TO.C,D6*%
X163479100Y-58204100D02*
X162579100Y-58904100D01*
X162579100Y-58904100D02*
X162579100Y-57504100D01*
X162579100Y-57504100D02*
X163479100Y-58204100D01*
X163479100Y-58904100D02*
X163479100Y-57504100D01*
%TO.C,D5*%
X154436700Y-58115200D02*
X153536700Y-58815200D01*
X153536700Y-58815200D02*
X153536700Y-57415200D01*
X153536700Y-57415200D02*
X154436700Y-58115200D01*
X154436700Y-58815200D02*
X154436700Y-57415200D01*
%TO.C,D4*%
X138028300Y-48653700D02*
X137128300Y-49353700D01*
X137128300Y-49353700D02*
X137128300Y-47953700D01*
X137128300Y-47953700D02*
X138028300Y-48653700D01*
X138028300Y-49353700D02*
X138028300Y-47953700D01*
%TO.C,D3*%
X113974500Y-48679100D02*
X113074500Y-49379100D01*
X113074500Y-49379100D02*
X113074500Y-47979100D01*
X113074500Y-47979100D02*
X113974500Y-48679100D01*
X113974500Y-49379100D02*
X113974500Y-47979100D01*
%TO.C,D2*%
X97451800Y-58166000D02*
X96551800Y-58866000D01*
X96551800Y-58866000D02*
X96551800Y-57466000D01*
X96551800Y-57466000D02*
X97451800Y-58166000D01*
X97451800Y-58866000D02*
X97451800Y-57466000D01*
%TO.C,D1*%
X82349700Y-67551300D02*
X81449700Y-68251300D01*
X81449700Y-68251300D02*
X81449700Y-66851300D01*
X81449700Y-66851300D02*
X82349700Y-67551300D01*
X82349700Y-68251300D02*
X82349700Y-66851300D01*
%TO.C,J2*%
X200148604Y-60526680D02*
X199577176Y-60526680D01*
X199862890Y-61526680D02*
X199862890Y-60526680D01*
X198672414Y-61526680D02*
X199005747Y-61050490D01*
X199243842Y-61526680D02*
X199243842Y-60526680D01*
X198862890Y-60526680D01*
X198767652Y-60574300D01*
X198720033Y-60621919D01*
X198672414Y-60717157D01*
X198672414Y-60860014D01*
X198720033Y-60955252D01*
X198767652Y-61002871D01*
X198862890Y-61050490D01*
X199243842Y-61050490D01*
X197672414Y-61526680D02*
X198005747Y-61050490D01*
X198243842Y-61526680D02*
X198243842Y-60526680D01*
X197862890Y-60526680D01*
X197767652Y-60574300D01*
X197720033Y-60621919D01*
X197672414Y-60717157D01*
X197672414Y-60860014D01*
X197720033Y-60955252D01*
X197767652Y-61002871D01*
X197862890Y-61050490D01*
X198243842Y-61050490D01*
X197291461Y-61479061D02*
X197148604Y-61526680D01*
X196910509Y-61526680D01*
X196815271Y-61479061D01*
X196767652Y-61431442D01*
X196720033Y-61336204D01*
X196720033Y-61240966D01*
X196767652Y-61145728D01*
X196815271Y-61098109D01*
X196910509Y-61050490D01*
X197100985Y-61002871D01*
X197196223Y-60955252D01*
X197243842Y-60907633D01*
X197291461Y-60812395D01*
X197291461Y-60717157D01*
X197243842Y-60621919D01*
X197196223Y-60574300D01*
X197100985Y-60526680D01*
X196862890Y-60526680D01*
X196720033Y-60574300D01*
%TO.C,U1*%
X188478733Y-63765709D02*
X188364447Y-63803804D01*
X188173971Y-63803804D01*
X188097780Y-63765709D01*
X188059685Y-63727614D01*
X188021590Y-63651423D01*
X188021590Y-63575233D01*
X188059685Y-63499042D01*
X188097780Y-63460947D01*
X188173971Y-63422852D01*
X188326352Y-63384757D01*
X188402542Y-63346661D01*
X188440638Y-63308566D01*
X188478733Y-63232376D01*
X188478733Y-63156185D01*
X188440638Y-63079995D01*
X188402542Y-63041900D01*
X188326352Y-63003804D01*
X188135876Y-63003804D01*
X188021590Y-63041900D01*
X187793019Y-63003804D02*
X187335876Y-63003804D01*
X187564447Y-63803804D02*
X187564447Y-63003804D01*
X181524004Y-57943804D02*
X181066861Y-57943804D01*
X181295432Y-58743804D02*
X181295432Y-57943804D01*
X180876385Y-57943804D02*
X180343051Y-58743804D01*
X180343051Y-57943804D02*
X180876385Y-58743804D01*
X179885908Y-57943804D02*
X179809718Y-57943804D01*
X179733528Y-57981900D01*
X179695432Y-58019995D01*
X179657337Y-58096185D01*
X179619242Y-58248566D01*
X179619242Y-58439042D01*
X179657337Y-58591423D01*
X179695432Y-58667614D01*
X179733528Y-58705709D01*
X179809718Y-58743804D01*
X179885908Y-58743804D01*
X179962099Y-58705709D01*
X180000194Y-58667614D01*
X180038289Y-58591423D01*
X180076385Y-58439042D01*
X180076385Y-58248566D01*
X180038289Y-58096185D01*
X180000194Y-58019995D01*
X179962099Y-57981900D01*
X179885908Y-57943804D01*
X178704956Y-57905709D02*
X179390670Y-58934280D01*
X178438289Y-58743804D02*
X178438289Y-57943804D01*
X178247813Y-57943804D01*
X178133528Y-57981900D01*
X178057337Y-58058090D01*
X178019242Y-58134280D01*
X177981147Y-58286661D01*
X177981147Y-58400947D01*
X178019242Y-58553328D01*
X178057337Y-58629519D01*
X178133528Y-58705709D01*
X178247813Y-58743804D01*
X178438289Y-58743804D01*
X177714480Y-57943804D02*
X177219242Y-57943804D01*
X177485908Y-58248566D01*
X177371623Y-58248566D01*
X177295432Y-58286661D01*
X177257337Y-58324757D01*
X177219242Y-58400947D01*
X177219242Y-58591423D01*
X177257337Y-58667614D01*
X177295432Y-58705709D01*
X177371623Y-58743804D01*
X177600194Y-58743804D01*
X177676385Y-58705709D01*
X177714480Y-58667614D01*
X188690209Y-83724757D02*
X188575923Y-83762852D01*
X188537828Y-83800947D01*
X188499733Y-83877138D01*
X188499733Y-83991423D01*
X188537828Y-84067614D01*
X188575923Y-84105709D01*
X188652114Y-84143804D01*
X188956876Y-84143804D01*
X188956876Y-83343804D01*
X188690209Y-83343804D01*
X188614019Y-83381900D01*
X188575923Y-83419995D01*
X188537828Y-83496185D01*
X188537828Y-83572376D01*
X188575923Y-83648566D01*
X188614019Y-83686661D01*
X188690209Y-83724757D01*
X188956876Y-83724757D01*
X188194971Y-83419995D02*
X188156876Y-83381900D01*
X188080685Y-83343804D01*
X187890209Y-83343804D01*
X187814019Y-83381900D01*
X187775923Y-83419995D01*
X187737828Y-83496185D01*
X187737828Y-83572376D01*
X187775923Y-83686661D01*
X188233066Y-84143804D01*
X187737828Y-84143804D01*
X188633066Y-76104757D02*
X188899733Y-76104757D01*
X188899733Y-76523804D02*
X188899733Y-75723804D01*
X188518780Y-75723804D01*
X188290209Y-75723804D02*
X187756876Y-75723804D01*
X188099733Y-76523804D01*
X188633066Y-73564757D02*
X188899733Y-73564757D01*
X188899733Y-73983804D02*
X188899733Y-73183804D01*
X188518780Y-73183804D01*
X187871161Y-73183804D02*
X188023542Y-73183804D01*
X188099733Y-73221900D01*
X188137828Y-73259995D01*
X188214019Y-73374280D01*
X188252114Y-73526661D01*
X188252114Y-73831423D01*
X188214019Y-73907614D01*
X188175923Y-73945709D01*
X188099733Y-73983804D01*
X187947352Y-73983804D01*
X187871161Y-73945709D01*
X187833066Y-73907614D01*
X187794971Y-73831423D01*
X187794971Y-73640947D01*
X187833066Y-73564757D01*
X187871161Y-73526661D01*
X187947352Y-73488566D01*
X188099733Y-73488566D01*
X188175923Y-73526661D01*
X188214019Y-73564757D01*
X188252114Y-73640947D01*
X188633066Y-71024757D02*
X188899733Y-71024757D01*
X188899733Y-71443804D02*
X188899733Y-70643804D01*
X188518780Y-70643804D01*
X187833066Y-70643804D02*
X188214019Y-70643804D01*
X188252114Y-71024757D01*
X188214019Y-70986661D01*
X188137828Y-70948566D01*
X187947352Y-70948566D01*
X187871161Y-70986661D01*
X187833066Y-71024757D01*
X187794971Y-71100947D01*
X187794971Y-71291423D01*
X187833066Y-71367614D01*
X187871161Y-71405709D01*
X187947352Y-71443804D01*
X188137828Y-71443804D01*
X188214019Y-71405709D01*
X188252114Y-71367614D01*
X188918780Y-58743804D02*
X189185447Y-58362852D01*
X189375923Y-58743804D02*
X189375923Y-57943804D01*
X189071161Y-57943804D01*
X188994971Y-57981900D01*
X188956876Y-58019995D01*
X188918780Y-58096185D01*
X188918780Y-58210471D01*
X188956876Y-58286661D01*
X188994971Y-58324757D01*
X189071161Y-58362852D01*
X189375923Y-58362852D01*
X188614019Y-58515233D02*
X188233066Y-58515233D01*
X188690209Y-58743804D02*
X188423542Y-57943804D01*
X188156876Y-58743804D01*
X187966400Y-57943804D02*
X187775923Y-58743804D01*
X187623542Y-58172376D01*
X187471161Y-58743804D01*
X187280685Y-57943804D01*
X188975923Y-60521900D02*
X189052114Y-60483804D01*
X189166400Y-60483804D01*
X189280685Y-60521900D01*
X189356876Y-60598090D01*
X189394971Y-60674280D01*
X189433066Y-60826661D01*
X189433066Y-60940947D01*
X189394971Y-61093328D01*
X189356876Y-61169519D01*
X189280685Y-61245709D01*
X189166400Y-61283804D01*
X189090209Y-61283804D01*
X188975923Y-61245709D01*
X188937828Y-61207614D01*
X188937828Y-60940947D01*
X189090209Y-60940947D01*
X188594971Y-61283804D02*
X188594971Y-60483804D01*
X188137828Y-61283804D01*
X188137828Y-60483804D01*
X187756876Y-61283804D02*
X187756876Y-60483804D01*
X187566400Y-60483804D01*
X187452114Y-60521900D01*
X187375923Y-60598090D01*
X187337828Y-60674280D01*
X187299733Y-60826661D01*
X187299733Y-60940947D01*
X187337828Y-61093328D01*
X187375923Y-61169519D01*
X187452114Y-61245709D01*
X187566400Y-61283804D01*
X187756876Y-61283804D01*
X189433066Y-65563804D02*
X189166400Y-66363804D01*
X188899733Y-65563804D01*
X188175923Y-66287614D02*
X188214019Y-66325709D01*
X188328304Y-66363804D01*
X188404495Y-66363804D01*
X188518780Y-66325709D01*
X188594971Y-66249519D01*
X188633066Y-66173328D01*
X188671161Y-66020947D01*
X188671161Y-65906661D01*
X188633066Y-65754280D01*
X188594971Y-65678090D01*
X188518780Y-65601900D01*
X188404495Y-65563804D01*
X188328304Y-65563804D01*
X188214019Y-65601900D01*
X188175923Y-65639995D01*
X187375923Y-66287614D02*
X187414019Y-66325709D01*
X187528304Y-66363804D01*
X187604495Y-66363804D01*
X187718780Y-66325709D01*
X187794971Y-66249519D01*
X187833066Y-66173328D01*
X187871161Y-66020947D01*
X187871161Y-65906661D01*
X187833066Y-65754280D01*
X187794971Y-65678090D01*
X187718780Y-65601900D01*
X187604495Y-65563804D01*
X187528304Y-65563804D01*
X187414019Y-65601900D01*
X187375923Y-65639995D01*
X188633066Y-68484757D02*
X188899733Y-68484757D01*
X188899733Y-68903804D02*
X188899733Y-68103804D01*
X188518780Y-68103804D01*
X187871161Y-68370471D02*
X187871161Y-68903804D01*
X188061638Y-68065709D02*
X188252114Y-68637138D01*
X187756876Y-68637138D01*
X188690209Y-78644757D02*
X188575923Y-78682852D01*
X188537828Y-78720947D01*
X188499733Y-78797138D01*
X188499733Y-78911423D01*
X188537828Y-78987614D01*
X188575923Y-79025709D01*
X188652114Y-79063804D01*
X188956876Y-79063804D01*
X188956876Y-78263804D01*
X188690209Y-78263804D01*
X188614019Y-78301900D01*
X188575923Y-78339995D01*
X188537828Y-78416185D01*
X188537828Y-78492376D01*
X188575923Y-78568566D01*
X188614019Y-78606661D01*
X188690209Y-78644757D01*
X188956876Y-78644757D01*
X187737828Y-79063804D02*
X188194971Y-79063804D01*
X187966400Y-79063804D02*
X187966400Y-78263804D01*
X188042590Y-78378090D01*
X188118780Y-78454280D01*
X188194971Y-78492376D01*
X188690209Y-81184757D02*
X188575923Y-81222852D01*
X188537828Y-81260947D01*
X188499733Y-81337138D01*
X188499733Y-81451423D01*
X188537828Y-81527614D01*
X188575923Y-81565709D01*
X188652114Y-81603804D01*
X188956876Y-81603804D01*
X188956876Y-80803804D01*
X188690209Y-80803804D01*
X188614019Y-80841900D01*
X188575923Y-80879995D01*
X188537828Y-80956185D01*
X188537828Y-81032376D01*
X188575923Y-81108566D01*
X188614019Y-81146661D01*
X188690209Y-81184757D01*
X188956876Y-81184757D01*
X188233066Y-80803804D02*
X187737828Y-80803804D01*
X188004495Y-81108566D01*
X187890209Y-81108566D01*
X187814019Y-81146661D01*
X187775923Y-81184757D01*
X187737828Y-81260947D01*
X187737828Y-81451423D01*
X187775923Y-81527614D01*
X187814019Y-81565709D01*
X187890209Y-81603804D01*
X188118780Y-81603804D01*
X188194971Y-81565709D01*
X188233066Y-81527614D01*
X188690209Y-86264757D02*
X188575923Y-86302852D01*
X188537828Y-86340947D01*
X188499733Y-86417138D01*
X188499733Y-86531423D01*
X188537828Y-86607614D01*
X188575923Y-86645709D01*
X188652114Y-86683804D01*
X188956876Y-86683804D01*
X188956876Y-85883804D01*
X188690209Y-85883804D01*
X188614019Y-85921900D01*
X188575923Y-85959995D01*
X188537828Y-86036185D01*
X188537828Y-86112376D01*
X188575923Y-86188566D01*
X188614019Y-86226661D01*
X188690209Y-86264757D01*
X188956876Y-86264757D01*
X187814019Y-85883804D02*
X187966400Y-85883804D01*
X188042590Y-85921900D01*
X188080685Y-85959995D01*
X188156876Y-86074280D01*
X188194971Y-86226661D01*
X188194971Y-86531423D01*
X188156876Y-86607614D01*
X188118780Y-86645709D01*
X188042590Y-86683804D01*
X187890209Y-86683804D01*
X187814019Y-86645709D01*
X187775923Y-86607614D01*
X187737828Y-86531423D01*
X187737828Y-86340947D01*
X187775923Y-86264757D01*
X187814019Y-86226661D01*
X187890209Y-86188566D01*
X188042590Y-86188566D01*
X188118780Y-86226661D01*
X188156876Y-86264757D01*
X188194971Y-86340947D01*
X177768209Y-86264757D02*
X177653923Y-86302852D01*
X177615828Y-86340947D01*
X177577733Y-86417138D01*
X177577733Y-86531423D01*
X177615828Y-86607614D01*
X177653923Y-86645709D01*
X177730114Y-86683804D01*
X178034876Y-86683804D01*
X178034876Y-85883804D01*
X177768209Y-85883804D01*
X177692019Y-85921900D01*
X177653923Y-85959995D01*
X177615828Y-86036185D01*
X177615828Y-86112376D01*
X177653923Y-86188566D01*
X177692019Y-86226661D01*
X177768209Y-86264757D01*
X178034876Y-86264757D01*
X176853923Y-85883804D02*
X177234876Y-85883804D01*
X177272971Y-86264757D01*
X177234876Y-86226661D01*
X177158685Y-86188566D01*
X176968209Y-86188566D01*
X176892019Y-86226661D01*
X176853923Y-86264757D01*
X176815828Y-86340947D01*
X176815828Y-86531423D01*
X176853923Y-86607614D01*
X176892019Y-86645709D01*
X176968209Y-86683804D01*
X177158685Y-86683804D01*
X177234876Y-86645709D01*
X177272971Y-86607614D01*
X177768209Y-83724757D02*
X177653923Y-83762852D01*
X177615828Y-83800947D01*
X177577733Y-83877138D01*
X177577733Y-83991423D01*
X177615828Y-84067614D01*
X177653923Y-84105709D01*
X177730114Y-84143804D01*
X178034876Y-84143804D01*
X178034876Y-83343804D01*
X177768209Y-83343804D01*
X177692019Y-83381900D01*
X177653923Y-83419995D01*
X177615828Y-83496185D01*
X177615828Y-83572376D01*
X177653923Y-83648566D01*
X177692019Y-83686661D01*
X177768209Y-83724757D01*
X178034876Y-83724757D01*
X176892019Y-83610471D02*
X176892019Y-84143804D01*
X177082495Y-83305709D02*
X177272971Y-83877138D01*
X176777733Y-83877138D01*
X177996780Y-81184757D02*
X177730114Y-81184757D01*
X177615828Y-81603804D02*
X177996780Y-81603804D01*
X177996780Y-80803804D01*
X177615828Y-80803804D01*
X176930114Y-80803804D02*
X177082495Y-80803804D01*
X177158685Y-80841900D01*
X177196780Y-80879995D01*
X177272971Y-80994280D01*
X177311066Y-81146661D01*
X177311066Y-81451423D01*
X177272971Y-81527614D01*
X177234876Y-81565709D01*
X177158685Y-81603804D01*
X177006304Y-81603804D01*
X176930114Y-81565709D01*
X176892019Y-81527614D01*
X176853923Y-81451423D01*
X176853923Y-81260947D01*
X176892019Y-81184757D01*
X176930114Y-81146661D01*
X177006304Y-81108566D01*
X177158685Y-81108566D01*
X177234876Y-81146661D01*
X177272971Y-81184757D01*
X177311066Y-81260947D01*
X178034876Y-79063804D02*
X178034876Y-78263804D01*
X177844400Y-78263804D01*
X177730114Y-78301900D01*
X177653923Y-78378090D01*
X177615828Y-78454280D01*
X177577733Y-78606661D01*
X177577733Y-78720947D01*
X177615828Y-78873328D01*
X177653923Y-78949519D01*
X177730114Y-79025709D01*
X177844400Y-79063804D01*
X178034876Y-79063804D01*
X177311066Y-78263804D02*
X176777733Y-78263804D01*
X177120590Y-79063804D01*
X177577733Y-76447614D02*
X177615828Y-76485709D01*
X177730114Y-76523804D01*
X177806304Y-76523804D01*
X177920590Y-76485709D01*
X177996780Y-76409519D01*
X178034876Y-76333328D01*
X178072971Y-76180947D01*
X178072971Y-76066661D01*
X178034876Y-75914280D01*
X177996780Y-75838090D01*
X177920590Y-75761900D01*
X177806304Y-75723804D01*
X177730114Y-75723804D01*
X177615828Y-75761900D01*
X177577733Y-75799995D01*
X176892019Y-75723804D02*
X177044400Y-75723804D01*
X177120590Y-75761900D01*
X177158685Y-75799995D01*
X177234876Y-75914280D01*
X177272971Y-76066661D01*
X177272971Y-76371423D01*
X177234876Y-76447614D01*
X177196780Y-76485709D01*
X177120590Y-76523804D01*
X176968209Y-76523804D01*
X176892019Y-76485709D01*
X176853923Y-76447614D01*
X176815828Y-76371423D01*
X176815828Y-76180947D01*
X176853923Y-76104757D01*
X176892019Y-76066661D01*
X176968209Y-76028566D01*
X177120590Y-76028566D01*
X177196780Y-76066661D01*
X177234876Y-76104757D01*
X177272971Y-76180947D01*
X178034876Y-73983804D02*
X178034876Y-73183804D01*
X177844400Y-73183804D01*
X177730114Y-73221900D01*
X177653923Y-73298090D01*
X177615828Y-73374280D01*
X177577733Y-73526661D01*
X177577733Y-73640947D01*
X177615828Y-73793328D01*
X177653923Y-73869519D01*
X177730114Y-73945709D01*
X177844400Y-73983804D01*
X178034876Y-73983804D01*
X176892019Y-73450471D02*
X176892019Y-73983804D01*
X177082495Y-73145709D02*
X177272971Y-73717138D01*
X176777733Y-73717138D01*
X178053923Y-63061900D02*
X178130114Y-63023804D01*
X178244400Y-63023804D01*
X178358685Y-63061900D01*
X178434876Y-63138090D01*
X178472971Y-63214280D01*
X178511066Y-63366661D01*
X178511066Y-63480947D01*
X178472971Y-63633328D01*
X178434876Y-63709519D01*
X178358685Y-63785709D01*
X178244400Y-63823804D01*
X178168209Y-63823804D01*
X178053923Y-63785709D01*
X178015828Y-63747614D01*
X178015828Y-63480947D01*
X178168209Y-63480947D01*
X177672971Y-63823804D02*
X177672971Y-63023804D01*
X177215828Y-63823804D01*
X177215828Y-63023804D01*
X176834876Y-63823804D02*
X176834876Y-63023804D01*
X176644400Y-63023804D01*
X176530114Y-63061900D01*
X176453923Y-63138090D01*
X176415828Y-63214280D01*
X176377733Y-63366661D01*
X176377733Y-63480947D01*
X176415828Y-63633328D01*
X176453923Y-63709519D01*
X176530114Y-63785709D01*
X176644400Y-63823804D01*
X176834876Y-63823804D01*
X178053923Y-65601900D02*
X178130114Y-65563804D01*
X178244400Y-65563804D01*
X178358685Y-65601900D01*
X178434876Y-65678090D01*
X178472971Y-65754280D01*
X178511066Y-65906661D01*
X178511066Y-66020947D01*
X178472971Y-66173328D01*
X178434876Y-66249519D01*
X178358685Y-66325709D01*
X178244400Y-66363804D01*
X178168209Y-66363804D01*
X178053923Y-66325709D01*
X178015828Y-66287614D01*
X178015828Y-66020947D01*
X178168209Y-66020947D01*
X177672971Y-66363804D02*
X177672971Y-65563804D01*
X177215828Y-66363804D01*
X177215828Y-65563804D01*
X176834876Y-66363804D02*
X176834876Y-65563804D01*
X176644400Y-65563804D01*
X176530114Y-65601900D01*
X176453923Y-65678090D01*
X176415828Y-65754280D01*
X176377733Y-65906661D01*
X176377733Y-66020947D01*
X176415828Y-66173328D01*
X176453923Y-66249519D01*
X176530114Y-66325709D01*
X176644400Y-66363804D01*
X176834876Y-66363804D01*
X178034876Y-68903804D02*
X178034876Y-68103804D01*
X177844400Y-68103804D01*
X177730114Y-68141900D01*
X177653923Y-68218090D01*
X177615828Y-68294280D01*
X177577733Y-68446661D01*
X177577733Y-68560947D01*
X177615828Y-68713328D01*
X177653923Y-68789519D01*
X177730114Y-68865709D01*
X177844400Y-68903804D01*
X178034876Y-68903804D01*
X176815828Y-68903804D02*
X177272971Y-68903804D01*
X177044400Y-68903804D02*
X177044400Y-68103804D01*
X177120590Y-68218090D01*
X177196780Y-68294280D01*
X177272971Y-68332376D01*
X178034876Y-71443804D02*
X178034876Y-70643804D01*
X177844400Y-70643804D01*
X177730114Y-70681900D01*
X177653923Y-70758090D01*
X177615828Y-70834280D01*
X177577733Y-70986661D01*
X177577733Y-71100947D01*
X177615828Y-71253328D01*
X177653923Y-71329519D01*
X177730114Y-71405709D01*
X177844400Y-71443804D01*
X178034876Y-71443804D01*
X177082495Y-70643804D02*
X177006304Y-70643804D01*
X176930114Y-70681900D01*
X176892019Y-70719995D01*
X176853923Y-70796185D01*
X176815828Y-70948566D01*
X176815828Y-71139042D01*
X176853923Y-71291423D01*
X176892019Y-71367614D01*
X176930114Y-71405709D01*
X177006304Y-71443804D01*
X177082495Y-71443804D01*
X177158685Y-71405709D01*
X177196780Y-71367614D01*
X177234876Y-71291423D01*
X177272971Y-71139042D01*
X177272971Y-70948566D01*
X177234876Y-70796185D01*
X177196780Y-70719995D01*
X177158685Y-70681900D01*
X177082495Y-70643804D01*
X178034876Y-61283804D02*
X178034876Y-60483804D01*
X177844400Y-60483804D01*
X177730114Y-60521900D01*
X177653923Y-60598090D01*
X177615828Y-60674280D01*
X177577733Y-60826661D01*
X177577733Y-60940947D01*
X177615828Y-61093328D01*
X177653923Y-61169519D01*
X177730114Y-61245709D01*
X177844400Y-61283804D01*
X178034876Y-61283804D01*
X177272971Y-60559995D02*
X177234876Y-60521900D01*
X177158685Y-60483804D01*
X176968209Y-60483804D01*
X176892019Y-60521900D01*
X176853923Y-60559995D01*
X176815828Y-60636185D01*
X176815828Y-60712376D01*
X176853923Y-60826661D01*
X177311066Y-61283804D01*
X176815828Y-61283804D01*
%TO.C,JP8*%
X178798220Y-81930723D02*
X178759515Y-81853314D01*
X178759515Y-81737200D01*
X178798220Y-81621085D01*
X178875629Y-81543676D01*
X178953039Y-81504971D01*
X179107858Y-81466266D01*
X179223972Y-81466266D01*
X179378791Y-81504971D01*
X179456200Y-81543676D01*
X179533610Y-81621085D01*
X179572315Y-81737200D01*
X179572315Y-81814609D01*
X179533610Y-81930723D01*
X179494905Y-81969428D01*
X179223972Y-81969428D01*
X179223972Y-81814609D01*
X179572315Y-82317771D02*
X178759515Y-82317771D01*
X179572315Y-82782228D01*
X178759515Y-82782228D01*
X179572315Y-83169276D02*
X178759515Y-83169276D01*
X178759515Y-83362800D01*
X178798220Y-83478914D01*
X178875629Y-83556323D01*
X178953039Y-83595028D01*
X179107858Y-83633733D01*
X179223972Y-83633733D01*
X179378791Y-83595028D01*
X179456200Y-83556323D01*
X179533610Y-83478914D01*
X179572315Y-83362800D01*
X179572315Y-83169276D01*
%TO.C,JP7*%
X181299515Y-81466266D02*
X182112315Y-81737200D01*
X181299515Y-82008133D01*
X182034905Y-82743523D02*
X182073610Y-82704819D01*
X182112315Y-82588704D01*
X182112315Y-82511295D01*
X182073610Y-82395180D01*
X181996200Y-82317771D01*
X181918791Y-82279066D01*
X181763972Y-82240361D01*
X181647858Y-82240361D01*
X181493039Y-82279066D01*
X181415629Y-82317771D01*
X181338220Y-82395180D01*
X181299515Y-82511295D01*
X181299515Y-82588704D01*
X181338220Y-82704819D01*
X181376924Y-82743523D01*
X182034905Y-83556323D02*
X182073610Y-83517619D01*
X182112315Y-83401504D01*
X182112315Y-83324095D01*
X182073610Y-83207980D01*
X181996200Y-83130571D01*
X181918791Y-83091866D01*
X181763972Y-83053161D01*
X181647858Y-83053161D01*
X181493039Y-83091866D01*
X181415629Y-83130571D01*
X181338220Y-83207980D01*
X181299515Y-83324095D01*
X181299515Y-83401504D01*
X181338220Y-83517619D01*
X181376924Y-83556323D01*
%TO.C,JP6*%
X184613610Y-81582380D02*
X184652315Y-81698495D01*
X184652315Y-81892019D01*
X184613610Y-81969428D01*
X184574905Y-82008133D01*
X184497496Y-82046838D01*
X184420086Y-82046838D01*
X184342677Y-82008133D01*
X184303972Y-81969428D01*
X184265267Y-81892019D01*
X184226562Y-81737200D01*
X184187858Y-81659790D01*
X184149153Y-81621085D01*
X184071743Y-81582380D01*
X183994334Y-81582380D01*
X183916924Y-81621085D01*
X183878220Y-81659790D01*
X183839515Y-81737200D01*
X183839515Y-81930723D01*
X183878220Y-82046838D01*
X184574905Y-82859638D02*
X184613610Y-82820933D01*
X184652315Y-82704819D01*
X184652315Y-82627409D01*
X184613610Y-82511295D01*
X184536200Y-82433885D01*
X184458791Y-82395180D01*
X184303972Y-82356476D01*
X184187858Y-82356476D01*
X184033039Y-82395180D01*
X183955629Y-82433885D01*
X183878220Y-82511295D01*
X183839515Y-82627409D01*
X183839515Y-82704819D01*
X183878220Y-82820933D01*
X183916924Y-82859638D01*
X184652315Y-83595028D02*
X184652315Y-83207980D01*
X183839515Y-83207980D01*
%TO.C,JP5*%
X187153610Y-81563028D02*
X187192315Y-81679142D01*
X187192315Y-81872666D01*
X187153610Y-81950076D01*
X187114905Y-81988780D01*
X187037496Y-82027485D01*
X186960086Y-82027485D01*
X186882677Y-81988780D01*
X186843972Y-81950076D01*
X186805267Y-81872666D01*
X186766562Y-81717847D01*
X186727858Y-81640438D01*
X186689153Y-81601733D01*
X186611743Y-81563028D01*
X186534334Y-81563028D01*
X186456924Y-81601733D01*
X186418220Y-81640438D01*
X186379515Y-81717847D01*
X186379515Y-81911371D01*
X186418220Y-82027485D01*
X187192315Y-82375828D02*
X186379515Y-82375828D01*
X186379515Y-82569352D01*
X186418220Y-82685466D01*
X186495629Y-82762876D01*
X186573039Y-82801580D01*
X186727858Y-82840285D01*
X186843972Y-82840285D01*
X186998791Y-82801580D01*
X187076200Y-82762876D01*
X187153610Y-82685466D01*
X187192315Y-82569352D01*
X187192315Y-82375828D01*
X186960086Y-83149923D02*
X186960086Y-83536971D01*
X187192315Y-83072514D02*
X186379515Y-83343447D01*
X187192315Y-83614380D01*
%TD*%
M02*
