%TF.GenerationSoftware,KiCad,Pcbnew,5.1.10-88a1d61d58~90~ubuntu20.04.1*%
%TF.CreationDate,2021-09-20T07:10:37+01:00*%
%TF.ProjectId,scrawler,73637261-776c-4657-922e-6b696361645f,rev?*%
%TF.SameCoordinates,Original*%
%TF.FileFunction,Profile,NP*%
%FSLAX46Y46*%
G04 Gerber Fmt 4.6, Leading zero omitted, Abs format (unit mm)*
G04 Created by KiCad (PCBNEW 5.1.10-88a1d61d58~90~ubuntu20.04.1) date 2021-09-20 07:10:37*
%MOMM*%
%LPD*%
G01*
G04 APERTURE LIST*
%TA.AperFunction,Profile*%
%ADD10C,0.050000*%
%TD*%
G04 APERTURE END LIST*
D10*
X165658799Y-54355860D02*
G75*
G02*
X162483800Y-53505100I0J6349859D01*
G01*
X136398000Y-38429188D02*
X162483800Y-53505100D01*
X202311000Y-54356000D02*
G75*
G02*
X203200000Y-55245000I0J-889000D01*
G01*
X151739600Y-134035237D02*
G75*
G02*
X148945600Y-133286500I0J5587437D01*
G01*
X130048000Y-123241782D02*
G75*
G02*
X132842000Y-123990100I1J-5590147D01*
G01*
X118274819Y-123989613D02*
G75*
G02*
X121069100Y-123240800I2794281J-4839187D01*
G01*
X101968638Y-133401473D02*
G75*
G02*
X99416568Y-133991061I-2493206J4973816D01*
G01*
X85979000Y-133975793D02*
G75*
G02*
X83464400Y-133375400I0J5566093D01*
G01*
X133604076Y-37590734D02*
G75*
G02*
X136398000Y-38429188I-381067J-6344038D01*
G01*
X114999584Y-38508192D02*
G75*
G02*
X118160800Y-37592000I3288216J-5433808D01*
G01*
X121069100Y-123240800D02*
X130048000Y-123241782D01*
X118160800Y-37592000D02*
X133604076Y-37592000D01*
X85979000Y-133975793D02*
X99416568Y-133991061D01*
X226576834Y-152060687D02*
G75*
G02*
X225615500Y-154711400I-2078934J-745713D01*
G01*
X210564542Y-163394934D02*
G75*
G02*
X207632300Y-162242500I-900242J2016034D01*
G01*
X66688257Y-123697035D02*
G75*
G02*
X65024000Y-120815100I1663143J2881935D01*
G01*
X132842000Y-123990100D02*
X148945600Y-133286500D01*
X101968638Y-133401474D02*
X118274819Y-123989613D01*
X66688257Y-123697035D02*
X83464400Y-133375400D01*
X65024000Y-69253100D02*
G75*
G02*
X66688815Y-66370200I3328515J0D01*
G01*
X203196861Y-122597659D02*
G75*
G02*
X226576834Y-152060687I-36445861J-52929041D01*
G01*
X177952606Y-134035036D02*
G75*
G02*
X207632300Y-162242500I-11201606J-41504364D01*
G01*
X151739600Y-134035237D02*
X177952400Y-134035800D01*
X66688815Y-66370200D02*
X114999584Y-38508192D01*
X165658799Y-54355860D02*
X202311000Y-54356000D01*
X203200000Y-55245000D02*
X203196861Y-122597659D01*
X210564542Y-163394934D02*
X225615500Y-154711400D01*
X65024000Y-69253100D02*
X65024000Y-120815100D01*
M02*
