%TF.GenerationSoftware,KiCad,Pcbnew,5.1.10-88a1d61d58~90~ubuntu20.04.1*%
%TF.CreationDate,2021-08-28T15:33:20+01:00*%
%TF.ProjectId,scrawler,73637261-776c-4657-922e-6b696361645f,rev?*%
%TF.SameCoordinates,Original*%
%TF.FileFunction,Paste,Bot*%
%TF.FilePolarity,Positive*%
%FSLAX46Y46*%
G04 Gerber Fmt 4.6, Leading zero omitted, Abs format (unit mm)*
G04 Created by KiCad (PCBNEW 5.1.10-88a1d61d58~90~ubuntu20.04.1) date 2021-08-28 15:33:20*
%MOMM*%
%LPD*%
G01*
G04 APERTURE LIST*
%ADD10R,2.600000X2.600000*%
%ADD11C,0.100000*%
%ADD12R,1.143000X0.635000*%
G04 APERTURE END LIST*
D10*
%TO.C,SW9B1*%
X112470084Y-82150000D03*
X100920084Y-79950000D03*
%TD*%
%TO.C,SW8B1*%
X95972784Y-91675000D03*
X84422784Y-89475000D03*
%TD*%
%TO.C,SW7B1*%
X79475000Y-101200000D03*
X67925000Y-99000000D03*
%TD*%
%TO.C,SW6B1*%
X161963920Y-72625000D03*
X150413920Y-70425000D03*
%TD*%
%TO.C,SW5B1*%
X145466136Y-63100000D03*
X133916136Y-60900000D03*
%TD*%
%TO.C,SW4B1*%
X128968352Y-53575000D03*
X117418352Y-51375000D03*
%TD*%
%TO.C,SW3B1*%
X112470084Y-63100000D03*
X100920084Y-60900000D03*
%TD*%
%TO.C,SW2B1*%
X95972784Y-72625000D03*
X84422784Y-70425000D03*
%TD*%
D11*
%TO.C,SW26B1*%
G36*
X207700516Y-154204800D02*
G01*
X209952182Y-152904800D01*
X211252182Y-155156466D01*
X209000516Y-156456466D01*
X207700516Y-154204800D01*
G37*
G36*
X203830772Y-143102207D02*
G01*
X206082438Y-141802207D01*
X207382438Y-144053873D01*
X205130772Y-145353873D01*
X203830772Y-143102207D01*
G37*
%TD*%
%TO.C,SW25B1*%
G36*
X197982627Y-141443328D02*
G01*
X199653875Y-139451612D01*
X201645591Y-141122860D01*
X199974343Y-143114576D01*
X197982627Y-141443328D01*
G37*
G36*
X190548947Y-132333833D02*
G01*
X192220195Y-130342117D01*
X194211911Y-132013365D01*
X192540663Y-134005081D01*
X190548947Y-132333833D01*
G37*
%TD*%
%TO.C,SW24B1*%
G36*
X184427946Y-132748361D02*
G01*
X185317199Y-130305160D01*
X187760400Y-131194413D01*
X186871147Y-133637614D01*
X184427946Y-132748361D01*
G37*
G36*
X174326941Y-126730705D02*
G01*
X175216194Y-124287504D01*
X177659395Y-125176757D01*
X176770142Y-127619958D01*
X174326941Y-126730705D01*
G37*
%TD*%
D10*
%TO.C,SW22B1*%
X145466136Y-120250000D03*
X133916136Y-118050000D03*
%TD*%
%TO.C,SW21B1*%
X128968352Y-110725000D03*
X117418352Y-108525000D03*
%TD*%
%TO.C,SW20B1*%
X112470084Y-120250000D03*
X100920084Y-118050000D03*
%TD*%
%TO.C,SW1B1*%
X79475000Y-82150000D03*
X67925000Y-79950000D03*
%TD*%
%TO.C,SW19B1*%
X95972784Y-129775000D03*
X84422784Y-127575000D03*
%TD*%
%TO.C,SW18B1*%
X161963920Y-110725000D03*
X150413920Y-108525000D03*
%TD*%
%TO.C,SW17B1*%
X145466136Y-101200000D03*
X133916136Y-99000000D03*
%TD*%
%TO.C,SW16B1*%
X128968352Y-91675000D03*
X117418352Y-89475000D03*
%TD*%
%TO.C,SW15B1*%
X112470084Y-101200000D03*
X100920084Y-99000000D03*
%TD*%
%TO.C,SW14B1*%
X95972784Y-110725000D03*
X84422784Y-108525000D03*
%TD*%
%TO.C,SW13B1*%
X79475000Y-120250000D03*
X67925000Y-118050000D03*
%TD*%
%TO.C,SW12B1*%
X161963920Y-91675000D03*
X150413920Y-89475000D03*
%TD*%
%TO.C,SW11B1*%
X145466136Y-82150000D03*
X133916136Y-79950000D03*
%TD*%
%TO.C,SW10B1*%
X128968352Y-72625000D03*
X117418352Y-70425000D03*
%TD*%
%TO.C,R2*%
G36*
G01*
X200338500Y-84960300D02*
X200338500Y-86210300D01*
G75*
G02*
X200088500Y-86460300I-250000J0D01*
G01*
X199338500Y-86460300D01*
G75*
G02*
X199088500Y-86210300I0J250000D01*
G01*
X199088500Y-84960300D01*
G75*
G02*
X199338500Y-84710300I250000J0D01*
G01*
X200088500Y-84710300D01*
G75*
G02*
X200338500Y-84960300I0J-250000D01*
G01*
G37*
G36*
G01*
X197538500Y-84960300D02*
X197538500Y-86210300D01*
G75*
G02*
X197288500Y-86460300I-250000J0D01*
G01*
X196538500Y-86460300D01*
G75*
G02*
X196288500Y-86210300I0J250000D01*
G01*
X196288500Y-84960300D01*
G75*
G02*
X196538500Y-84710300I250000J0D01*
G01*
X197288500Y-84710300D01*
G75*
G02*
X197538500Y-84960300I0J-250000D01*
G01*
G37*
%TD*%
%TO.C,R1*%
G36*
G01*
X200348200Y-81607500D02*
X200348200Y-82857500D01*
G75*
G02*
X200098200Y-83107500I-250000J0D01*
G01*
X199348200Y-83107500D01*
G75*
G02*
X199098200Y-82857500I0J250000D01*
G01*
X199098200Y-81607500D01*
G75*
G02*
X199348200Y-81357500I250000J0D01*
G01*
X200098200Y-81357500D01*
G75*
G02*
X200348200Y-81607500I0J-250000D01*
G01*
G37*
G36*
G01*
X197548200Y-81607500D02*
X197548200Y-82857500D01*
G75*
G02*
X197298200Y-83107500I-250000J0D01*
G01*
X196548200Y-83107500D01*
G75*
G02*
X196298200Y-82857500I0J250000D01*
G01*
X196298200Y-81607500D01*
G75*
G02*
X196548200Y-81357500I250000J0D01*
G01*
X197298200Y-81357500D01*
G75*
G02*
X197548200Y-81607500I0J-250000D01*
G01*
G37*
%TD*%
D12*
%TO.C,JP8*%
X179204620Y-84551520D03*
X179204620Y-85552280D03*
%TD*%
%TO.C,JP7*%
X181744620Y-84551520D03*
X181744620Y-85552280D03*
%TD*%
%TO.C,JP6*%
X184284620Y-84551520D03*
X184284620Y-85552280D03*
%TD*%
%TO.C,JP5*%
X186824620Y-84551520D03*
X186824620Y-85552280D03*
%TD*%
M02*
