M48
; DRILL file {KiCad 5.1.10-88a1d61d58~90~ubuntu20.04.1} date Sat Aug 28 15:33:35 2021
; FORMAT={-:-/ absolute / inch / decimal}
; #@! TF.CreationDate,2021-08-28T15:33:35+01:00
; #@! TF.GenerationSoftware,Kicad,Pcbnew,5.1.10-88a1d61d58~90~ubuntu20.04.1
; #@! TF.FileFunction,NonPlated,1,2,NPTH
FMAT,2
INCH
T1C0.0390
T2C0.0472
T3C0.0670
T4C0.1181
T5C0.1350
T6C0.1570
%
G90
G05
T1
X2.7945Y-2.8346
X2.7945Y-3.5846
X2.7945Y-4.3346
X3.2055Y-2.8346
X3.2055Y-3.5846
X3.2055Y-4.3346
X3.444Y-2.4596
X3.444Y-3.2096
X3.444Y-3.9596
X3.444Y-4.7096
X3.855Y-2.4596
X3.855Y-3.2096
X3.855Y-3.9596
X3.855Y-4.7096
X4.0935Y-2.0846
X4.0935Y-2.8346
X4.0935Y-3.5846
X4.0935Y-4.3346
X4.5045Y-2.0846
X4.5045Y-2.8346
X4.5045Y-3.5846
X4.5045Y-4.3346
X4.743Y-1.7096
X4.743Y-2.4596
X4.743Y-3.2096
X4.743Y-3.9596
X5.1541Y-1.7096
X5.1541Y-2.4596
X5.1541Y-3.2096
X5.1541Y-3.9596
X5.3926Y-2.0846
X5.3926Y-2.8346
X5.3926Y-3.5846
X5.3926Y-4.3346
X5.8036Y-2.0846
X5.8036Y-2.8346
X5.8036Y-3.5846
X5.8036Y-4.3346
X6.0421Y-2.4596
X6.0421Y-3.2096
X6.0421Y-3.9596
X6.4531Y-2.4596
X6.4531Y-3.2096
X6.4531Y-3.9596
X7.1489Y-4.7058
X7.5352Y-4.8464
X7.8674Y-5.0412
X8.1822Y-5.3054
X8.4259Y-5.6003
X8.6315Y-5.9563
T2
X7.7741Y-2.2111
X7.7741Y-2.4866
X7.843Y-2.2111
X7.843Y-2.4866
T3
X2.7835Y-3.0
X2.7835Y-3.75
X2.7835Y-4.5
X2.8Y-3.0
X2.8Y-3.75
X2.8Y-4.5
X3.2Y-3.0
X3.2Y-3.75
X3.2Y-4.5
X3.2165Y-3.0
X3.2165Y-3.75
X3.2165Y-4.5
X3.433Y-2.625
X3.433Y-3.375
X3.433Y-4.125
X3.433Y-4.875
X3.4495Y-2.625
X3.4495Y-3.375
X3.4495Y-4.125
X3.4495Y-4.875
X3.8495Y-2.625
X3.8495Y-3.375
X3.8495Y-4.125
X3.8495Y-4.875
X3.8661Y-2.625
X3.8661Y-3.375
X3.8661Y-4.125
X3.8661Y-4.875
X4.0825Y-2.25
X4.0825Y-3.0
X4.0825Y-3.75
X4.0825Y-4.5
X4.099Y-2.25
X4.099Y-3.0
X4.099Y-3.75
X4.099Y-4.5
X4.499Y-2.25
X4.499Y-3.0
X4.499Y-3.75
X4.499Y-4.5
X4.5156Y-2.25
X4.5156Y-3.0
X4.5156Y-3.75
X4.5156Y-4.5
X4.732Y-1.875
X4.732Y-2.625
X4.732Y-3.375
X4.732Y-4.125
X4.7486Y-1.875
X4.7486Y-2.625
X4.7486Y-3.375
X4.7486Y-4.125
X5.1486Y-1.875
X5.1486Y-2.625
X5.1486Y-3.375
X5.1486Y-4.125
X5.1651Y-1.875
X5.1651Y-2.625
X5.1651Y-3.375
X5.1651Y-4.125
X5.3815Y-2.25
X5.3815Y-3.0
X5.3815Y-3.75
X5.3815Y-4.5
X5.3981Y-2.25
X5.3981Y-3.0
X5.3981Y-3.75
X5.3981Y-4.5
X5.7981Y-2.25
X5.7981Y-3.0
X5.7981Y-3.75
X5.7981Y-4.5
X5.8146Y-2.25
X5.8146Y-3.0
X5.8146Y-3.75
X5.8146Y-4.5
X6.0311Y-2.625
X6.0311Y-3.375
X6.0311Y-4.125
X6.0476Y-2.625
X6.0476Y-3.375
X6.0476Y-4.125
X6.4476Y-2.625
X6.4476Y-3.375
X6.4476Y-4.125
X6.4641Y-2.625
X6.4641Y-3.375
X6.4641Y-4.125
X7.082Y-4.8574
X7.0976Y-4.8631
X7.4734Y-4.9999
X7.489Y-5.0056
X7.7526Y-5.1608
X7.7653Y-5.1714
X8.0717Y-5.4286
X8.0844Y-5.4392
X8.2772Y-5.6735
X8.2855Y-5.6878
X8.4855Y-6.0342
X8.4938Y-6.0485
T4
X2.8031Y-3.1476
X2.8031Y-3.8976
X2.8031Y-4.6476
X3.0Y-3.2343
X3.0Y-3.9843
X3.0Y-4.7343
X3.1969Y-3.1476
X3.1969Y-3.8976
X3.1969Y-4.6476
X3.4527Y-2.7726
X3.4527Y-3.5226
X3.4527Y-4.2726
X3.4527Y-5.0226
X3.6495Y-2.8593
X3.6495Y-3.6093
X3.6495Y-4.3593
X3.6495Y-5.1093
X3.8464Y-2.7726
X3.8464Y-3.5226
X3.8464Y-4.2726
X3.8464Y-5.0226
X4.1022Y-2.3976
X4.1022Y-3.1476
X4.1022Y-3.8976
X4.1022Y-4.6476
X4.299Y-2.4843
X4.299Y-3.2343
X4.299Y-3.9843
X4.299Y-4.7343
X4.4959Y-2.3976
X4.4959Y-3.1476
X4.4959Y-3.8976
X4.4959Y-4.6476
X4.7517Y-2.0226
X4.7517Y-2.7726
X4.7517Y-3.5226
X4.7517Y-4.2726
X4.9486Y-2.1093
X4.9486Y-2.8593
X4.9486Y-3.6093
X4.9486Y-4.3593
X5.1454Y-2.0226
X5.1454Y-2.7726
X5.1454Y-3.5226
X5.1454Y-4.2726
X5.4012Y-2.3976
X5.4012Y-3.1476
X5.4012Y-3.8976
X5.4012Y-4.6476
X5.5981Y-2.4843
X5.5981Y-3.2343
X5.5981Y-3.9843
X5.5981Y-4.7343
X5.7949Y-2.3976
X5.7949Y-3.1476
X5.7949Y-3.8976
X5.7949Y-4.6476
X6.0507Y-2.7726
X6.0507Y-3.5226
X6.0507Y-4.2726
X6.2476Y-2.8593
X6.2476Y-3.6093
X6.2476Y-4.3593
X6.4444Y-2.7726
X6.4444Y-3.5226
X6.4444Y-4.2726
X7.05Y-5.0029
X7.2054Y-5.1516
X7.42Y-5.1376
X7.6728Y-5.2866
X7.7679Y-5.4794
X7.9744Y-5.5396
X8.1592Y-5.7643
X8.1826Y-5.9781
X8.3561Y-6.1053
T5
X3.0Y-3.0
X3.0Y-3.75
X3.0Y-4.5
X3.6495Y-2.625
X3.6495Y-3.375
X3.6495Y-4.125
X3.6495Y-4.875
X4.299Y-2.25
X4.299Y-3.0
X4.299Y-3.75
X4.299Y-4.5
X4.9486Y-1.875
X4.9486Y-2.625
X4.9486Y-3.375
X4.9486Y-4.125
X5.5981Y-2.25
X5.5981Y-3.0
X5.5981Y-3.75
X5.5981Y-4.5
X6.2476Y-2.625
X6.2476Y-3.375
X6.2476Y-4.125
X7.2855Y-4.9315
X7.9185Y-5.3
X8.3855Y-5.861
T6
X3.0Y-3.0
X3.0Y-3.75
X3.0Y-4.5
X3.6495Y-2.625
X3.6495Y-3.375
X3.6495Y-4.125
X3.6495Y-4.875
X4.299Y-2.25
X4.299Y-3.0
X4.299Y-3.75
X4.299Y-4.5
X4.9486Y-1.875
X4.9486Y-2.625
X4.9486Y-3.375
X4.9486Y-4.125
X5.5981Y-2.25
X5.5981Y-3.0
X5.5981Y-3.75
X5.5981Y-4.5
X6.2476Y-2.625
X6.2476Y-3.375
X6.2476Y-4.125
X7.2855Y-4.9315
X7.9185Y-5.3
X8.3855Y-5.861
T0
M30
