999
"DXF R12 Output" (www.mydxf.blogspot.com)
 0 
SECTION
 2 
HEADER
 9 
$ACADVER
 1 
AC1009
 9 
$EXTMIN
 10 
 0 
 20 
 0 
 9 
$EXTMAX
 10 
 8.5 
 20 
 11 
 0 
ENDSEC
 0 
SECTION
 2 
ENTITIES
0
LINE
8
Layer 1
10
14.111000
20
69.708900
11
29.164800
21
69.708900
0
LINE
8
Layer 1
10
29.164900
20
69.708900
11
29.680202
21
69.686493
0
LINE
8
Layer 1
10
29.680202
20
69.686493
11
30.061011
21
69.529648
0
LINE
8
Layer 1
10
30.061011
20
69.529648
11
30.217796
21
69.148802
0
LINE
8
Layer 1
10
30.217796
20
69.148802
11
30.240194
21
68.633634
0
LINE
8
Layer 1
10
30.240200
20
68.633600
11
30.240100
21
64.332600
0
LINE
8
Layer 1
10
31.315400
20
63.257300
11
42.426400
21
63.257300
0
LINE
8
Layer 1
10
43.501700
20
62.182000
11
43.501700
21
48.920400
0
LINE
8
Layer 1
10
42.426400
20
47.845200
11
30.240100
21
47.845200
0
LINE
8
Layer 1
10
29.164800
20
46.769900
11
29.164800
21
33.508300
0
LINE
8
Layer 1
10
28.089600
20
32.433000
11
18.770600
21
32.433000
0
LINE
8
Layer 1
10
17.695300
20
33.508300
11
17.695300
21
41.752000
0
LINE
8
Layer 1
10
7.659510
20
43.902500
11
7.659510
21
52.863100
0
LINE
8
Layer 1
10
8.734770
20
53.938300
11
9.810040
21
53.938300
0
LINE
8
Layer 1
10
10.168500
20
54.296800
11
10.168500
21
60.389900
0
LINE
8
Layer 1
10
11.243700
20
61.465200
11
12.677400
21
61.465200
0
LINE
8
Layer 1
10
13.035800
20
61.823600
11
13.035800
21
68.633600
0
LINE
8
Layer 1
10
30.240100
20
64.332600
11
30.262507
21
63.817311
0
LINE
8
Layer 1
10
30.262507
20
63.817311
11
30.419353
21
63.436512
0
LINE
8
Layer 1
10
30.419353
20
63.436512
11
30.800194
21
63.279702
0
LINE
8
Layer 1
10
30.800194
20
63.279702
11
31.315400
21
63.257300
0
LINE
8
Layer 1
10
42.426400
20
63.257300
11
42.941756
21
63.234894
0
LINE
8
Layer 1
10
42.941756
20
63.234894
11
43.322604
21
63.078049
0
LINE
8
Layer 1
10
43.322604
20
63.078049
11
43.479404
21
62.697204
0
LINE
8
Layer 1
10
43.479404
20
62.697204
11
43.501804
21
62.182037
0
LINE
8
Layer 1
10
43.501700
20
48.920400
11
43.479303
21
48.405111
0
LINE
8
Layer 1
10
43.479303
20
48.405111
11
43.322523
21
48.024311
0
LINE
8
Layer 1
10
43.322523
20
48.024311
11
42.941690
21
47.867589
0
LINE
8
Layer 1
10
42.941690
20
47.867589
11
42.426400
21
47.845200
0
LINE
8
Layer 1
10
30.240100
20
47.845200
11
29.724933
21
47.822794
0
LINE
8
Layer 1
10
29.724933
20
47.822794
11
29.344085
21
47.665950
0
LINE
8
Layer 1
10
29.344085
20
47.665950
11
29.187211
21
47.285069
0
LINE
8
Layer 1
10
29.187211
20
47.285069
11
29.164800
21
46.769900
0
LINE
8
Layer 1
10
29.164800
20
33.508300
11
29.142403
21
32.993037
0
LINE
8
Layer 1
10
29.142403
20
32.993037
11
28.985623
21
32.612208
0
LINE
8
Layer 1
10
28.985623
20
32.612208
11
28.604878
21
32.455401
0
LINE
8
Layer 1
10
28.604878
20
32.455401
11
28.089600
21
32.433000
0
LINE
8
Layer 1
10
18.770600
20
32.433000
11
18.255433
21
32.455397
0
LINE
8
Layer 1
10
18.255433
20
32.455397
11
17.874587
21
32.612177
0
LINE
8
Layer 1
10
17.874587
20
32.612177
11
17.717711
21
32.993010
0
LINE
8
Layer 1
10
17.717711
20
32.993010
11
17.695300
21
33.508300
0
LINE
8
Layer 1
10
17.695300
20
41.752000
11
17.672903
21
42.267169
0
LINE
8
Layer 1
10
17.672903
20
42.267169
11
17.516123
21
42.648015
0
LINE
8
Layer 1
10
17.516123
20
42.648015
11
17.135378
21
42.804889
0
LINE
8
Layer 1
10
17.135378
20
42.804889
11
16.620100
21
42.827300
0
LINE
8
Layer 1
10
8.734770
20
42.827300
11
8.219603
21
42.849697
0
LINE
8
Layer 1
10
8.219603
20
42.849697
11
7.838756
21
43.006477
0
LINE
8
Layer 1
10
7.838756
20
43.006477
11
7.681916
21
43.387222
0
LINE
8
Layer 1
10
7.681916
20
43.387222
11
7.659510
21
43.902500
0
LINE
8
Layer 1
10
16.620100
20
42.827300
11
8.734770
21
42.827300
0
LINE
8
Layer 1
10
7.659510
20
52.863100
11
7.681916
21
53.378269
0
LINE
8
Layer 1
10
7.681916
20
53.378269
11
7.838762
21
53.759115
0
LINE
8
Layer 1
10
7.838762
20
53.759115
11
8.219603
21
53.915902
0
LINE
8
Layer 1
10
8.219603
20
53.915902
11
8.734770
21
53.938300
0
LINE
8
Layer 1
10
9.810040
20
53.938300
11
10.108761
21
53.998001
0
LINE
8
Layer 1
10
10.108761
20
53.998001
11
10.168500
21
54.296800
0
LINE
8
Layer 1
10
10.168500
20
60.389900
11
10.190907
21
60.905068
0
LINE
8
Layer 1
10
10.190907
20
60.905068
11
10.347752
21
61.285914
0
LINE
8
Layer 1
10
10.347752
20
61.285914
11
10.728582
21
61.442789
0
LINE
8
Layer 1
10
10.728582
20
61.442789
11
11.243700
21
61.465200
0
LINE
8
Layer 1
10
12.677400
20
61.465200
11
12.976121
21
61.524901
0
LINE
8
Layer 1
10
12.976121
20
61.524901
11
13.035800
21
61.823600
0
LINE
8
Layer 1
10
13.035800
20
68.633600
11
13.058207
21
69.148768
0
LINE
8
Layer 1
10
13.058207
20
69.148768
11
13.215052
21
69.529614
0
LINE
8
Layer 1
10
13.215052
20
69.529614
11
13.595932
21
69.686489
0
LINE
8
Layer 1
10
13.595932
20
69.686489
11
14.111100
21
69.708900
 0 
ENDSEC
 0 
EOF