<?xml version="1.0"?>
<!DOCTYPE svg PUBLIC "-//W3C//DTD SVG 1.1//EN" "http://www.w3.org/Graphics/SVG/1.1/DTD/svg11.dtd">
<svg width="129.54mm" height="134.62mm" viewBox="0 0 129.54 134.62" xmlns="http://www.w3.org/2000/svg" version="1.1">
<g id="Sketch002" transform="translate(61.787309,56.126574) scale(1,-1)">
<path id="Sketch002_w0000"  d="M -37.65730884557722 54.85657421289355 L 15.682691154422784 54.85657421289355 A 3.81 3.81 0 0 0 19.4927 51.0466L 19.492691154422786 35.80657421289355 A 3.81 3.81 0 0 1 23.3027 31.9966L 62.67269115442278 31.99657421289355 A 3.81 3.81 0 0 0 66.4827 28.1866L 66.48269115442278 -18.80342578710645 A 3.81 3.81 0 0 0 62.6727 -22.6134L 19.492691154422786 -22.613425787106447 A 3.81 3.81 0 0 1 15.6827 -26.4234L 15.682691154422788 -73.41342578710645 A 3.81 3.81 0 0 0 11.8727 -77.2234L -21.147308845577214 -77.22342578710645 A 3.81 3.81 0 0 0 -24.9573 -73.4134L -24.957308845577217 -44.20342578710645 A 3.81 3.81 0 0 1 -28.7673 -40.3934L -56.70730884557722 -40.393425787106445 A 3.81 3.81 0 0 0 -60.5173 -36.5834L -60.51730884557721 -4.833425787106449 A 3.81 3.81 0 0 0 -56.7073 -1.02343L -52.897308845577214 -1.023425787106451 A 1.27 1.27 0 0 1 -51.6273 0.246574L -51.62730884557722 21.836574212893552 A 3.81 3.81 0 0 0 -47.8173 25.6466L -42.73730884557722 25.64657421289355 A 1.27 1.27 0 0 1 -41.4673 26.9166L -41.467308845577215 51.04657421289355 A 3.81 3.81 0 0 0 -37.6573 54.8566" stroke="#000000" stroke-width="0.35 px" style="stroke-width:0.35;stroke-miterlimit:4;stroke-dasharray:none;fill:none;fill-rule: evenodd "/>
<title>b'Sketch002'</title>
</g>
</svg>