  0
SECTION
  2
HEADER
  9
$ACADVER
  1
AC1014
  9
$HANDSEED
  5
FFFF
  9
$MEASUREMENT
 70
     1
  0
ENDSEC
  0
SECTION
  2
TABLES
  0
TABLE
  2
VPORT
  5
8
330
0
100
AcDbSymbolTable
 70
     4
  0
VPORT
  5
2E
330
8
100
AcDbSymbolTableRecord
100
AcDbViewportTableRecord
  2
*ACTIVE
 70
     0
 10
0.0
 20
0.0
 11
1.0
 21
1.0
 12
210.0
 22
148.5
 13
0.0
 23
0.0
 14
10.0
 24
10.0
 15
10.0
 25
10.0
 16
0.0
 26
0.0
 36
1.0
 17
0.0
 27
0.0
 37
0.0
 40
341.0
 41
1.24
 42
50.0
 43
0.0
 44
0.0
 50
0.0
 51
0.0
 71
     0
 72
   100
 73
     1
 74
     3
 75
     0
 76
     0
 77
     0
 78
     0
  0
ENDTAB
  0
TABLE
  2
LTYPE
  5
5
330
0
100
AcDbSymbolTable
 70
     1
  0
LTYPE
  5
14
330
5
100
AcDbSymbolTableRecord
100
AcDbLinetypeTableRecord
  2
BYBLOCK
 70
     0
  3

 72
    65
 73
     0
 40
0.0
  0
LTYPE
  5
15
330
5
100
AcDbSymbolTableRecord
100
AcDbLinetypeTableRecord
  2
BYLAYER
 70
     0
  3

 72
    65
 73
     0
 40
0.0
  0
LTYPE
  5
16
330
5
100
AcDbSymbolTableRecord
100
AcDbLinetypeTableRecord
  2
CONTINUOUS
 70
     0
  3
Solid line
 72
    65
 73
     0
 40
0.0
  0
ENDTAB
  0
TABLE
  2
LAYER
  5
2
100
AcDbSymbolTable
 70
2
  0
LAYER
  5
50
100
AcDbSymbolTableRecord
100
AcDbLayerTableRecord
  2
0
 70
0
  6
CONTINUOUS
  0
LAYER
  5
51
100
AcDbSymbolTableRecord
100
AcDbLayerTableRecord
  2
Layer_1
 70
0
  6
CONTINUOUS
  0
ENDTAB
  0
TABLE
  2
STYLE
  5
3
330
0
100
AcDbSymbolTable
 70
     1
  0
STYLE
  5
11
330
3
100
AcDbSymbolTableRecord
100
AcDbTextStyleTableRecord
  2
STANDARD
 70
     0
 40
0.0
 41
1.0
 50
0.0
 71
     0
 42
2.5
  3
txt
  4

  0
ENDTAB
  0
TABLE
  2
VIEW
  5
6
330
0
100
AcDbSymbolTable
 70
     0
  0
ENDTAB
  0
TABLE
  2
UCS
  5
7
330
0
100
AcDbSymbolTable
 70
     0
  0
ENDTAB
  0
TABLE
  2
APPID
  5
9
330
0
100
AcDbSymbolTable
 70
     2
  0
APPID
  5
12
330
9
100
AcDbSymbolTableRecord
100
AcDbRegAppTableRecord
  2
ACAD
 70
     0
  0
ENDTAB
  0
TABLE
  2
DIMSTYLE
  5
A
330
0
100
AcDbSymbolTable
 70
     1
  0
DIMSTYLE
105
27
330
A
100
AcDbSymbolTableRecord
100
AcDbDimStyleTableRecord
  2
ISO-25
 70
     0
  3

  4

  5

  6

  7

 40
1.0
 41
2.5
 42
0.625
 43
3.75
 44
1.25
 45
0.0
 46
0.0
 47
0.0
 48
0.0
140
2.5
141
2.5
142
0.0
143
0.03937007874016
144
1.0
145
0.0
146
1.0
147
0.625
 71
     0
 72
     0
 73
     0
 74
     0
 75
     0
 76
     0
 77
     1
 78
     8
170
     0
171
     3
172
     1
173
     0
174
     0
175
     0
176
     0
177
     0
178
     0
270
     2
271
     2
272
     2
273
     2
274
     3
340
11
275
     0
280
     0
281
     0
282
     0
283
     0
284
     8
285
     0
286
     0
287
     3
288
     0
  0
ENDTAB
  0
TABLE
  2
BLOCK_RECORD
  5
1
330
0
100
AcDbSymbolTable
 70
     1
  0
BLOCK_RECORD
  5
1F
330
1
100
AcDbSymbolTableRecord
100
AcDbBlockTableRecord
  2
*MODEL_SPACE
  0
BLOCK_RECORD
  5
1B
330
1
100
AcDbSymbolTableRecord
100
AcDbBlockTableRecord
  2
*PAPER_SPACE
  0
ENDTAB
  0
ENDSEC
  0
SECTION
  2
BLOCKS
  0
BLOCK
  5
20
330
1F
100
AcDbEntity
  8
0
100
AcDbBlockBegin
  2
*MODEL_SPACE
 70
     0
 10
0.0
 20
0.0
 30
0.0
  3
*MODEL_SPACE
  1

  0
ENDBLK
  5
21
330
1F
100
AcDbEntity
  8
0
100
AcDbBlockEnd
  0
BLOCK
  5
1C
330
1B
100
AcDbEntity
 67
     1
  8
0
100
AcDbBlockBegin
  2
*PAPER_SPACE
  1

  0
ENDBLK
  5
1D
330
1B
100
AcDbEntity
 67
     1
  8
0
100
AcDbBlockEnd
  0
ENDSEC
  0
SECTION
  2
ENTITIES
  0
SPLINE
  5
100
100
AcDbEntity
  8
Layer_1
 62
1
100
AcDbSpline
 70
8
 71
3
 72
8
 73
4
 74
0
 40
0
 40
0
 40
0
 40
0
 40
1
 40
1
 40
1
 40
1
 10
103.340140
 20
247.000000
 30
0.0
 10
104.610440
 20
247.000000
 30
0.0
 10
105.880440
 20
247.000000
 30
0.0
 10
106.515340
 20
246.364855
 30
0.0
  0
SPLINE
  5
101
100
AcDbEntity
  8
Layer_1
 62
1
100
AcDbSpline
 70
8
 71
3
 72
8
 73
4
 74
0
 40
0
 40
0
 40
0
 40
0
 40
1
 40
1
 40
1
 40
1
 10
106.515340
 20
246.364855
 30
0.0
 10
107.150240
 20
245.729709
 30
0.0
 10
107.150240
 20
244.459734
 30
0.0
 10
107.150240
 20
243.190000
 30
0.0
  0
LWPOLYLINE
  5
102
100
AcDbEntity
  8
Layer_1
 62
1
100
AcDbPolyline
 90
2
 70
0
 10
49.999555
 20
247.000000
 30
0.0
 10
103.340000
 20
247.000000
 30
0.0
  0
LWPOLYLINE
  5
103
100
AcDbEntity
  8
Layer_1
 62
1
100
AcDbPolyline
 90
2
 70
0
 10
107.150240
 20
243.190000
 30
0.0
 10
107.150000
 20
227.950000
 30
0.0
  0
LWPOLYLINE
  5
104
100
AcDbEntity
  8
Layer_1
 62
1
100
AcDbPolyline
 90
2
 70
0
 10
110.960000
 20
224.140000
 30
0.0
 10
150.330000
 20
224.140000
 30
0.0
  0
LWPOLYLINE
  5
105
100
AcDbEntity
  8
Layer_1
 62
1
100
AcDbPolyline
 90
2
 70
0
 10
154.140000
 20
220.330000
 30
0.0
 10
154.140000
 20
173.340000
 30
0.0
  0
LWPOLYLINE
  5
106
100
AcDbEntity
  8
Layer_1
 62
1
100
AcDbPolyline
 90
2
 70
0
 10
150.330000
 20
169.530000
 30
0.0
 10
107.150000
 20
169.530000
 30
0.0
  0
LWPOLYLINE
  5
107
100
AcDbEntity
  8
Layer_1
 62
1
100
AcDbPolyline
 90
2
 70
0
 10
103.340000
 20
165.720000
 30
0.0
 10
103.340000
 20
118.730000
 30
0.0
  0
LWPOLYLINE
  5
108
100
AcDbEntity
  8
Layer_1
 62
1
100
AcDbPolyline
 90
2
 70
0
 10
99.530000
 20
114.920000
 30
0.0
 10
66.510000
 20
114.920000
 30
0.0
  0
LWPOLYLINE
  5
109
100
AcDbEntity
  8
Layer_1
 62
1
100
AcDbPolyline
 90
2
 70
0
 10
62.700000
 20
118.730000
 30
0.0
 10
62.700000
 20
147.940000
 30
0.0
  0
LWPOLYLINE
  5
10a
100
AcDbEntity
  8
Layer_1
 62
1
100
AcDbPolyline
 90
2
 70
0
 10
27.140000
 20
155.560000
 30
0.0
 10
27.140000
 20
187.310000
 30
0.0
  0
LWPOLYLINE
  5
10b
100
AcDbEntity
  8
Layer_1
 62
1
100
AcDbPolyline
 90
2
 70
0
 10
30.950000
 20
191.120000
 30
0.0
 10
34.760000
 20
191.120000
 30
0.0
  0
LWPOLYLINE
  5
10c
100
AcDbEntity
  8
Layer_1
 62
1
100
AcDbPolyline
 90
2
 70
0
 10
36.030000
 20
192.390000
 30
0.0
 10
36.030000
 20
213.980000
 30
0.0
  0
LWPOLYLINE
  5
10d
100
AcDbEntity
  8
Layer_1
 62
1
100
AcDbPolyline
 90
2
 70
0
 10
39.840000
 20
217.790000
 30
0.0
 10
44.920000
 20
217.790000
 30
0.0
  0
SPLINE
  5
10e
100
AcDbEntity
  8
Layer_1
 62
1
100
AcDbSpline
 70
8
 71
3
 72
8
 73
4
 74
0
 40
0
 40
0
 40
0
 40
0
 40
1
 40
1
 40
1
 40
1
 10
107.150000
 20
227.950000
 30
0.0
 10
107.150000
 20
226.679736
 30
0.0
 10
107.150000
 20
225.409763
 30
0.0
 10
107.785150
 20
224.774881
 30
0.0
  0
SPLINE
  5
10f
100
AcDbEntity
  8
Layer_1
 62
1
100
AcDbSpline
 70
8
 71
3
 72
8
 73
4
 74
0
 40
0
 40
0
 40
0
 40
0
 40
1
 40
1
 40
1
 40
1
 10
107.785150
 20
224.774881
 30
0.0
 10
108.420290
 20
224.140000
 30
0.0
 10
109.690270
 20
224.140000
 30
0.0
 10
110.960000
 20
224.140000
 30
0.0
  0
SPLINE
  5
110
100
AcDbEntity
  8
Layer_1
 62
1
100
AcDbSpline
 70
8
 71
3
 72
8
 73
4
 74
0
 40
0
 40
0
 40
0
 40
0
 40
1
 40
1
 40
1
 40
1
 10
150.330000
 20
224.139991
 30
0.0
 10
151.600430
 20
224.139991
 30
0.0
 10
152.870570
 20
224.139991
 30
0.0
 10
153.505530
 20
223.504848
 30
0.0
  0
SPLINE
  5
111
100
AcDbEntity
  8
Layer_1
 62
1
100
AcDbSpline
 70
8
 71
3
 72
8
 73
4
 74
0
 40
0
 40
0
 40
0
 40
0
 40
1
 40
1
 40
1
 40
1
 10
153.505530
 20
223.504848
 30
0.0
 10
154.140490
 20
222.869705
 30
0.0
 10
154.140490
 20
221.599733
 30
0.0
 10
154.140490
 20
220.330000
 30
0.0
  0
SPLINE
  5
112
100
AcDbEntity
  8
Layer_1
 62
1
100
AcDbSpline
 70
8
 71
3
 72
8
 73
4
 74
0
 40
0
 40
0
 40
0
 40
0
 40
1
 40
1
 40
1
 40
1
 10
154.140000
 20
173.340000
 30
0.0
 10
154.140000
 20
172.069740
 30
0.0
 10
154.140000
 20
170.799760
 30
0.0
 10
153.505120
 20
170.164880
 30
0.0
  0
SPLINE
  5
113
100
AcDbEntity
  8
Layer_1
 62
1
100
AcDbSpline
 70
8
 71
3
 72
8
 73
4
 74
0
 40
0
 40
0
 40
0
 40
0
 40
1
 40
1
 40
1
 40
1
 10
153.505120
 20
170.164880
 30
0.0
 10
152.870240
 20
169.530000
 30
0.0
 10
151.600270
 20
169.530000
 30
0.0
 10
150.330000
 20
169.530000
 30
0.0
  0
SPLINE
  5
114
100
AcDbEntity
  8
Layer_1
 62
1
100
AcDbSpline
 70
8
 71
3
 72
8
 73
4
 74
0
 40
0
 40
0
 40
0
 40
0
 40
1
 40
1
 40
1
 40
1
 10
107.150000
 20
169.530000
 30
0.0
 10
105.880270
 20
169.530000
 30
0.0
 10
104.610290
 20
169.530000
 30
0.0
 10
103.975140
 20
168.894860
 30
0.0
  0
SPLINE
  5
115
100
AcDbEntity
  8
Layer_1
 62
1
100
AcDbSpline
 70
8
 71
3
 72
8
 73
4
 74
0
 40
0
 40
0
 40
0
 40
0
 40
1
 40
1
 40
1
 40
1
 10
103.975140
 20
168.894860
 30
0.0
 10
103.340000
 20
168.259710
 30
0.0
 10
103.340000
 20
166.989730
 30
0.0
 10
103.340000
 20
165.720000
 30
0.0
  0
SPLINE
  5
116
100
AcDbEntity
  8
Layer_1
 62
1
100
AcDbSpline
 70
8
 71
3
 72
8
 73
4
 74
0
 40
0
 40
0
 40
0
 40
0
 40
1
 40
1
 40
1
 40
1
 10
103.340000
 20
118.730000
 30
0.0
 10
103.340000
 20
117.460000
 30
0.0
 10
103.340000
 20
116.189750
 30
0.0
 10
102.705120
 20
115.554870
 30
0.0
  0
SPLINE
  5
117
100
AcDbEntity
  8
Layer_1
 62
1
100
AcDbSpline
 70
8
 71
3
 72
8
 73
4
 74
0
 40
0
 40
0
 40
0
 40
0
 40
1
 40
1
 40
1
 40
1
 10
102.705120
 20
115.554870
 30
0.0
 10
102.070240
 20
114.920000
 30
0.0
 10
100.800260
 20
114.920000
 30
0.0
 10
99.530000
 20
114.920000
 30
0.0
  0
SPLINE
  5
118
100
AcDbEntity
  8
Layer_1
 62
1
100
AcDbSpline
 70
8
 71
3
 72
8
 73
4
 74
0
 40
0
 40
0
 40
0
 40
0
 40
1
 40
1
 40
1
 40
1
 10
66.510000
 20
114.920000
 30
0.0
 10
65.240264
 20
114.920000
 30
0.0
 10
63.970295
 20
114.920000
 30
0.0
 10
63.335148
 20
115.554880
 30
0.0
  0
SPLINE
  5
119
100
AcDbEntity
  8
Layer_1
 62
1
100
AcDbSpline
 70
8
 71
3
 72
8
 73
4
 74
0
 40
0
 40
0
 40
0
 40
0
 40
1
 40
1
 40
1
 40
1
 10
63.335148
 20
115.554880
 30
0.0
 10
62.700000
 20
116.189770
 30
0.0
 10
62.700000
 20
117.459730
 30
0.0
 10
62.700000
 20
118.730000
 30
0.0
  0
SPLINE
  5
11a
100
AcDbEntity
  8
Layer_1
 62
1
100
AcDbSpline
 70
8
 71
3
 72
8
 73
4
 74
0
 40
0
 40
0
 40
0
 40
0
 40
1
 40
1
 40
1
 40
1
 10
62.700000
 20
147.940000
 30
0.0
 10
62.700000
 20
149.209740
 30
0.0
 10
62.700000
 20
150.479710
 30
0.0
 10
62.065119
 20
151.114860
 30
0.0
  0
SPLINE
  5
11b
100
AcDbEntity
  8
Layer_1
 62
1
100
AcDbSpline
 70
8
 71
3
 72
8
 73
4
 74
0
 40
0
 40
0
 40
0
 40
0
 40
1
 40
1
 40
1
 40
1
 10
62.065119
 20
151.114860
 30
0.0
 10
61.430239
 20
151.750000
 30
0.0
 10
60.160265
 20
151.750000
 30
0.0
 10
58.890000
 20
151.750000
 30
0.0
  0
SPLINE
  5
11c
100
AcDbEntity
  8
Layer_1
 62
1
100
AcDbSpline
 70
8
 71
3
 72
8
 73
4
 74
0
 40
0
 40
0
 40
0
 40
0
 40
1
 40
1
 40
1
 40
1
 10
30.950000
 20
151.750000
 30
0.0
 10
29.680265
 20
151.750000
 30
0.0
 10
28.410292
 20
151.750000
 30
0.0
 10
27.775146
 20
152.384880
 30
0.0
  0
SPLINE
  5
11d
100
AcDbEntity
  8
Layer_1
 62
1
100
AcDbSpline
 70
8
 71
3
 72
8
 73
4
 74
0
 40
0
 40
0
 40
0
 40
0
 40
1
 40
1
 40
1
 40
1
 10
27.775146
 20
152.384880
 30
0.0
 10
27.140000
 20
153.019760
 30
0.0
 10
27.140000
 20
154.289730
 30
0.0
 10
27.140000
 20
155.560000
 30
0.0
  0
LWPOLYLINE
  5
11e
100
AcDbEntity
  8
Layer_1
 62
1
100
AcDbPolyline
 90
2
 70
0
 10
46.190000
 20
219.060000
 30
0.0
 10
46.190000
 20
243.190000
 30
0.0
  0
SPLINE
  5
11f
100
AcDbEntity
  8
Layer_1
 62
1
100
AcDbSpline
 70
8
 71
3
 72
8
 73
4
 74
0
 40
0
 40
0
 40
0
 40
0
 40
1
 40
1
 40
1
 40
1
 10
27.140000
 20
187.310000
 30
0.0
 10
27.140000
 20
188.579740
 30
0.0
 10
27.140000
 20
189.849710
 30
0.0
 10
27.775144
 20
190.484860
 30
0.0
  0
SPLINE
  5
120
100
AcDbEntity
  8
Layer_1
 62
1
100
AcDbSpline
 70
8
 71
3
 72
8
 73
4
 74
0
 40
0
 40
0
 40
0
 40
0
 40
1
 40
1
 40
1
 40
1
 10
27.775144
 20
190.484860
 30
0.0
 10
28.410287
 20
191.120000
 30
0.0
 10
29.680263
 20
191.120000
 30
0.0
 10
30.950000
 20
191.120000
 30
0.0
  0
SPLINE
  5
121
100
AcDbEntity
  8
Layer_1
 62
1
100
AcDbSpline
 70
8
 71
3
 72
8
 73
4
 74
0
 40
0
 40
0
 40
0
 40
0
 40
1
 40
1
 40
1
 40
1
 10
34.760000
 20
191.120000
 30
0.0
 10
35.183599
 20
191.120000
 30
0.0
 10
35.606923
 20
191.120000
 30
0.0
 10
35.818461
 20
191.331540
 30
0.0
  0
SPLINE
  5
122
100
AcDbEntity
  8
Layer_1
 62
1
100
AcDbSpline
 70
8
 71
3
 72
8
 73
4
 74
0
 40
0
 40
0
 40
0
 40
0
 40
1
 40
1
 40
1
 40
1
 10
35.818461
 20
191.331540
 30
0.0
 10
36.030000
 20
191.543080
 30
0.0
 10
36.030000
 20
191.966670
 30
0.0
 10
36.030000
 20
192.390000
 30
0.0
  0
SPLINE
  5
123
100
AcDbEntity
  8
Layer_1
 62
1
100
AcDbSpline
 70
8
 71
3
 72
8
 73
4
 74
0
 40
0
 40
0
 40
0
 40
0
 40
1
 40
1
 40
1
 40
1
 10
36.030000
 20
213.980000
 30
0.0
 10
36.030000
 20
215.249737
 30
0.0
 10
36.030000
 20
216.519710
 30
0.0
 10
36.665145
 20
217.154855
 30
0.0
  0
SPLINE
  5
124
100
AcDbEntity
  8
Layer_1
 62
1
100
AcDbSpline
 70
8
 71
3
 72
8
 73
4
 74
0
 40
0
 40
0
 40
0
 40
0
 40
1
 40
1
 40
1
 40
1
 10
36.665145
 20
217.154855
 30
0.0
 10
37.300290
 20
217.790000
 30
0.0
 10
38.570264
 20
217.790000
 30
0.0
 10
39.840000
 20
217.790000
 30
0.0
  0
SPLINE
  5
125
100
AcDbEntity
  8
Layer_1
 62
1
100
AcDbSpline
 70
8
 71
3
 72
8
 73
4
 74
0
 40
0
 40
0
 40
0
 40
0
 40
1
 40
1
 40
1
 40
1
 10
44.920000
 20
217.790000
 30
0.0
 10
45.343598
 20
217.790000
 30
0.0
 10
45.766923
 20
217.790000
 30
0.0
 10
45.978462
 20
218.001539
 30
0.0
  0
SPLINE
  5
126
100
AcDbEntity
  8
Layer_1
 62
1
100
AcDbSpline
 70
8
 71
3
 72
8
 73
4
 74
0
 40
0
 40
0
 40
0
 40
0
 40
1
 40
1
 40
1
 40
1
 10
45.978462
 20
218.001539
 30
0.0
 10
46.190000
 20
218.213077
 30
0.0
 10
46.190000
 20
218.636402
 30
0.0
 10
46.190000
 20
219.060000
 30
0.0
  0
SPLINE
  5
127
100
AcDbEntity
  8
Layer_1
 62
1
100
AcDbSpline
 70
8
 71
3
 72
8
 73
4
 74
0
 40
0
 40
0
 40
0
 40
0
 40
1
 40
1
 40
1
 40
1
 10
46.190000
 20
243.190000
 30
0.0
 10
46.190000
 20
244.459736
 30
0.0
 10
46.190000
 20
245.729709
 30
0.0
 10
46.825145
 20
246.364855
 30
0.0
  0
SPLINE
  5
128
100
AcDbEntity
  8
Layer_1
 62
1
100
AcDbSpline
 70
8
 71
3
 72
8
 73
4
 74
0
 40
0
 40
0
 40
0
 40
0
 40
1
 40
1
 40
1
 40
1
 10
46.825145
 20
246.364855
 30
0.0
 10
47.460291
 20
247.000000
 30
0.0
 10
48.730265
 20
247.000000
 30
0.0
 10
50.000000
 20
247.000000
 30
0.0
  0
SPLINE
  5
129
100
AcDbEntity
  8
Layer_1
 62
1
100
AcDbSpline
 70
8
 71
3
 72
8
 73
4
 74
0
 40
0
 40
0
 40
0
 40
0
 40
1
 40
1
 40
1
 40
1
 10
332.182673
 20
46.417311
 30
0.0
 10
327.596645
 20
46.417311
 30
0.0
 10
323.462186
 20
43.654755
 30
0.0
 10
321.707189
 20
39.417817
 30
0.0
  0
SPLINE
  5
12a
100
AcDbEntity
  8
Layer_1
 62
1
100
AcDbSpline
 70
8
 71
3
 72
8
 73
4
 74
0
 40
0
 40
0
 40
0
 40
0
 40
1
 40
1
 40
1
 40
1
 10
321.707189
 20
39.417817
 30
0.0
 10
319.952192
 20
35.180879
 30
0.0
 10
320.922273
 20
30.303952
 30
0.0
 10
324.165085
 20
27.061140
 30
0.0
  0
SPLINE
  5
12b
100
AcDbEntity
  8
Layer_1
 62
1
100
AcDbSpline
 70
8
 71
3
 72
8
 73
4
 74
0
 40
0
 40
0
 40
0
 40
0
 40
1
 40
1
 40
1
 40
1
 10
324.165085
 20
27.061140
 30
0.0
 10
327.407897
 20
23.818328
 30
0.0
 10
332.284823
 20
22.848247
 30
0.0
 10
336.521761
 20
24.603244
 30
0.0
  0
SPLINE
  5
12c
100
AcDbEntity
  8
Layer_1
 62
1
100
AcDbSpline
 70
8
 71
3
 72
8
 73
4
 74
0
 40
0
 40
0
 40
0
 40
0
 40
1
 40
1
 40
1
 40
1
 10
336.521761
 20
24.603244
 30
0.0
 10
340.758699
 20
26.358242
 30
0.0
 10
343.521256
 20
30.492700
 30
0.0
 10
343.521256
 20
35.078729
 30
0.0
  0
SPLINE
  5
12d
100
AcDbEntity
  8
Layer_1
 62
1
100
AcDbSpline
 70
8
 71
3
 72
8
 73
4
 74
0
 40
0
 40
0
 40
0
 40
0
 40
1
 40
1
 40
1
 40
1
 10
343.521256
 20
35.078729
 30
0.0
 10
343.521256
 20
38.085908
 30
0.0
 10
342.326659
 20
40.969921
 30
0.0
 10
340.200262
 20
43.096318
 30
0.0
  0
SPLINE
  5
12e
100
AcDbEntity
  8
Layer_1
 62
1
100
AcDbSpline
 70
8
 71
3
 72
8
 73
4
 74
0
 40
0
 40
0
 40
0
 40
0
 40
1
 40
1
 40
1
 40
1
 10
340.200262
 20
43.096318
 30
0.0
 10
338.073865
 20
45.222714
 30
0.0
 10
335.189852
 20
46.417311
 30
0.0
 10
332.182673
 20
46.417311
 30
0.0
  0
LWPOLYLINE
  5
12f
100
AcDbEntity
  8
Layer_1
 62
1
100
AcDbPolyline
 90
2
 70
0
 10
58.890000
 20
151.750000
 30
0.0
 10
30.950000
 20
151.750000
 30
0.0
  0
SPLINE
  5
130
100
AcDbEntity
  8
Layer_1
 62
1
100
AcDbSpline
 70
8
 71
3
 72
8
 73
4
 74
0
 40
0
 40
0
 40
0
 40
0
 40
1
 40
1
 40
1
 40
1
 10
563.074016
 20
14.102370
 30
0.0
 10
558.487987
 20
14.102370
 30
0.0
 10
554.353528
 20
11.339813
 30
0.0
 10
552.598531
 20
7.102875
 30
0.0
  0
SPLINE
  5
131
100
AcDbEntity
  8
Layer_1
 62
1
100
AcDbSpline
 70
8
 71
3
 72
8
 73
4
 74
0
 40
0
 40
0
 40
0
 40
0
 40
1
 40
1
 40
1
 40
1
 10
552.598531
 20
7.102875
 30
0.0
 10
550.843534
 20
2.865937
 30
0.0
 10
551.813615
 20
-2.010990
 30
0.0
 10
555.056427
 20
-5.253802
 30
0.0
  0
SPLINE
  5
132
100
AcDbEntity
  8
Layer_1
 62
1
100
AcDbSpline
 70
8
 71
3
 72
8
 73
4
 74
0
 40
0
 40
0
 40
0
 40
0
 40
1
 40
1
 40
1
 40
1
 10
555.056427
 20
-5.253802
 30
0.0
 10
558.299239
 20
-8.496614
 30
0.0
 10
563.176166
 20
-9.466695
 30
0.0
 10
567.413103
 20
-7.711697
 30
0.0
  0
SPLINE
  5
133
100
AcDbEntity
  8
Layer_1
 62
1
100
AcDbSpline
 70
8
 71
3
 72
8
 73
4
 74
0
 40
0
 40
0
 40
0
 40
0
 40
1
 40
1
 40
1
 40
1
 10
567.413103
 20
-7.711697
 30
0.0
 10
571.650041
 20
-5.956700
 30
0.0
 10
574.412598
 20
-1.822242
 30
0.0
 10
574.412598
 20
2.763787
 30
0.0
  0
SPLINE
  5
134
100
AcDbEntity
  8
Layer_1
 62
1
100
AcDbSpline
 70
8
 71
3
 72
8
 73
4
 74
0
 40
0
 40
0
 40
0
 40
0
 40
1
 40
1
 40
1
 40
1
 10
574.412598
 20
2.763787
 30
0.0
 10
574.412598
 20
5.770966
 30
0.0
 10
573.218001
 20
8.654979
 30
0.0
 10
571.091604
 20
10.781376
 30
0.0
  0
SPLINE
  5
135
100
AcDbEntity
  8
Layer_1
 62
1
100
AcDbSpline
 70
8
 71
3
 72
8
 73
4
 74
0
 40
0
 40
0
 40
0
 40
0
 40
1
 40
1
 40
1
 40
1
 10
571.091604
 20
10.781376
 30
0.0
 10
568.965208
 20
12.907773
 30
0.0
 10
566.081195
 20
14.102370
 30
0.0
 10
563.074016
 20
14.102370
 30
0.0
  0
LWPOLYLINE
  5
136
100
AcDbEntity
  8
Layer_1
 62
1
100
AcDbPolyline
 90
1
 70
1
 10
332.182673
 20
46.417311
 30
0.0
  0
SPLINE
  5
137
100
AcDbEntity
  8
Layer_1
 62
1
100
AcDbSpline
 70
8
 71
3
 72
8
 73
4
 74
0
 40
0
 40
0
 40
0
 40
0
 40
1
 40
1
 40
1
 40
1
 10
374.097649
 20
-221.248819
 30
0.0
 10
369.511621
 20
-221.248819
 30
0.0
 10
365.377162
 20
-224.011376
 30
0.0
 10
363.622165
 20
-228.248314
 30
0.0
  0
SPLINE
  5
138
100
AcDbEntity
  8
Layer_1
 62
1
100
AcDbSpline
 70
8
 71
3
 72
8
 73
4
 74
0
 40
0
 40
0
 40
0
 40
0
 40
1
 40
1
 40
1
 40
1
 10
363.622165
 20
-228.248314
 30
0.0
 10
361.867168
 20
-232.485252
 30
0.0
 10
362.837249
 20
-237.362178
 30
0.0
 10
366.080060
 20
-240.604990
 30
0.0
  0
SPLINE
  5
139
100
AcDbEntity
  8
Layer_1
 62
1
100
AcDbSpline
 70
8
 71
3
 72
8
 73
4
 74
0
 40
0
 40
0
 40
0
 40
0
 40
1
 40
1
 40
1
 40
1
 10
366.080060
 20
-240.604990
 30
0.0
 10
369.322872
 20
-243.847802
 30
0.0
 10
374.199799
 20
-244.817883
 30
0.0
 10
378.436737
 20
-243.062886
 30
0.0
  0
SPLINE
  5
13a
100
AcDbEntity
  8
Layer_1
 62
1
100
AcDbSpline
 70
8
 71
3
 72
8
 73
4
 74
0
 40
0
 40
0
 40
0
 40
0
 40
1
 40
1
 40
1
 40
1
 10
378.436737
 20
-243.062886
 30
0.0
 10
382.673675
 20
-241.307889
 30
0.0
 10
385.436232
 20
-237.173430
 30
0.0
 10
385.436232
 20
-232.587402
 30
0.0
  0
SPLINE
  5
13b
100
AcDbEntity
  8
Layer_1
 62
1
100
AcDbSpline
 70
8
 71
3
 72
8
 73
4
 74
0
 40
0
 40
0
 40
0
 40
0
 40
1
 40
1
 40
1
 40
1
 10
385.436232
 20
-232.587402
 30
0.0
 10
385.436232
 20
-229.580222
 30
0.0
 10
384.241635
 20
-226.696210
 30
0.0
 10
382.115238
 20
-224.569813
 30
0.0
  0
SPLINE
  5
13c
100
AcDbEntity
  8
Layer_1
 62
1
100
AcDbSpline
 70
8
 71
3
 72
8
 73
4
 74
0
 40
0
 40
0
 40
0
 40
0
 40
1
 40
1
 40
1
 40
1
 10
382.115238
 20
-224.569813
 30
0.0
 10
379.988841
 20
-222.443416
 30
0.0
 10
377.104828
 20
-221.248819
 30
0.0
 10
374.097649
 20
-221.248819
 30
0.0
  0
LWPOLYLINE
  5
13d
100
AcDbEntity
  8
Layer_1
 62
1
100
AcDbPolyline
 90
1
 70
1
 10
563.074016
 20
14.102370
 30
0.0
  0
SPLINE
  5
13e
100
AcDbEntity
  8
Layer_1
 62
1
100
AcDbSpline
 70
8
 71
3
 72
8
 73
4
 74
0
 40
0
 40
0
 40
0
 40
0
 40
1
 40
1
 40
1
 40
1
 10
368.730701
 20
-360.184252
 30
0.0
 10
364.144672
 20
-360.184252
 30
0.0
 10
360.010214
 20
-362.946809
 30
0.0
 10
358.255217
 20
-367.183747
 30
0.0
  0
SPLINE
  5
13f
100
AcDbEntity
  8
Layer_1
 62
1
100
AcDbSpline
 70
8
 71
3
 72
8
 73
4
 74
0
 40
0
 40
0
 40
0
 40
0
 40
1
 40
1
 40
1
 40
1
 10
358.255217
 20
-367.183747
 30
0.0
 10
356.500219
 20
-371.420685
 30
0.0
 10
357.470300
 20
-376.297611
 30
0.0
 10
360.713112
 20
-379.540423
 30
0.0
  0
SPLINE
  5
140
100
AcDbEntity
  8
Layer_1
 62
1
100
AcDbSpline
 70
8
 71
3
 72
8
 73
4
 74
0
 40
0
 40
0
 40
0
 40
0
 40
1
 40
1
 40
1
 40
1
 10
360.713112
 20
-379.540423
 30
0.0
 10
363.955924
 20
-382.783235
 30
0.0
 10
368.832851
 20
-383.753316
 30
0.0
 10
373.069789
 20
-381.998319
 30
0.0
  0
SPLINE
  5
141
100
AcDbEntity
  8
Layer_1
 62
1
100
AcDbSpline
 70
8
 71
3
 72
8
 73
4
 74
0
 40
0
 40
0
 40
0
 40
0
 40
1
 40
1
 40
1
 40
1
 10
373.069789
 20
-381.998319
 30
0.0
 10
377.306727
 20
-380.243322
 30
0.0
 10
380.069284
 20
-376.108863
 30
0.0
 10
380.069284
 20
-371.522835
 30
0.0
  0
SPLINE
  5
142
100
AcDbEntity
  8
Layer_1
 62
1
100
AcDbSpline
 70
8
 71
3
 72
8
 73
4
 74
0
 40
0
 40
0
 40
0
 40
0
 40
1
 40
1
 40
1
 40
1
 10
380.069284
 20
-371.522835
 30
0.0
 10
380.069284
 20
-368.515656
 30
0.0
 10
378.874687
 20
-365.631643
 30
0.0
 10
376.748290
 20
-363.505246
 30
0.0
  0
SPLINE
  5
143
100
AcDbEntity
  8
Layer_1
 62
1
100
AcDbSpline
 70
8
 71
3
 72
8
 73
4
 74
0
 40
0
 40
0
 40
0
 40
0
 40
1
 40
1
 40
1
 40
1
 10
376.748290
 20
-363.505246
 30
0.0
 10
374.621893
 20
-361.378849
 30
0.0
 10
371.737880
 20
-360.184252
 30
0.0
 10
368.730701
 20
-360.184252
 30
0.0
  0
LWPOLYLINE
  5
144
100
AcDbEntity
  8
Layer_1
 62
1
100
AcDbPolyline
 90
1
 70
1
 10
374.097649
 20
-221.248819
 30
0.0
  0
SPLINE
  5
145
100
AcDbEntity
  8
Layer_1
 62
1
100
AcDbSpline
 70
8
 71
3
 72
8
 73
4
 74
0
 40
0
 40
0
 40
0
 40
0
 40
1
 40
1
 40
1
 40
1
 10
122.229921
 20
-220.530671
 30
0.0
 10
117.643893
 20
-220.530671
 30
0.0
 10
113.509434
 20
-223.293228
 30
0.0
 10
111.754437
 20
-227.530166
 30
0.0
  0
SPLINE
  5
146
100
AcDbEntity
  8
Layer_1
 62
1
100
AcDbSpline
 70
8
 71
3
 72
8
 73
4
 74
0
 40
0
 40
0
 40
0
 40
0
 40
1
 40
1
 40
1
 40
1
 10
111.754437
 20
-227.530166
 30
0.0
 10
109.999440
 20
-231.767104
 30
0.0
 10
110.969521
 20
-236.644030
 30
0.0
 10
114.212333
 20
-239.886842
 30
0.0
  0
SPLINE
  5
147
100
AcDbEntity
  8
Layer_1
 62
1
100
AcDbSpline
 70
8
 71
3
 72
8
 73
4
 74
0
 40
0
 40
0
 40
0
 40
0
 40
1
 40
1
 40
1
 40
1
 10
114.212333
 20
-239.886842
 30
0.0
 10
117.455144
 20
-243.129654
 30
0.0
 10
122.332071
 20
-244.099735
 30
0.0
 10
126.569009
 20
-242.344738
 30
0.0
  0
SPLINE
  5
148
100
AcDbEntity
  8
Layer_1
 62
1
100
AcDbSpline
 70
8
 71
3
 72
8
 73
4
 74
0
 40
0
 40
0
 40
0
 40
0
 40
1
 40
1
 40
1
 40
1
 10
126.569009
 20
-242.344738
 30
0.0
 10
130.805947
 20
-240.589741
 30
0.0
 10
133.568504
 20
-236.455282
 30
0.0
 10
133.568504
 20
-231.869254
 30
0.0
  0
SPLINE
  5
149
100
AcDbEntity
  8
Layer_1
 62
1
100
AcDbSpline
 70
8
 71
3
 72
8
 73
4
 74
0
 40
0
 40
0
 40
0
 40
0
 40
1
 40
1
 40
1
 40
1
 10
133.568504
 20
-231.869254
 30
0.0
 10
133.568504
 20
-228.862074
 30
0.0
 10
132.373907
 20
-225.978062
 30
0.0
 10
130.247510
 20
-223.851665
 30
0.0
  0
SPLINE
  5
14a
100
AcDbEntity
  8
Layer_1
 62
1
100
AcDbSpline
 70
8
 71
3
 72
8
 73
4
 74
0
 40
0
 40
0
 40
0
 40
0
 40
1
 40
1
 40
1
 40
1
 10
130.247510
 20
-223.851665
 30
0.0
 10
128.121113
 20
-221.725268
 30
0.0
 10
125.237100
 20
-220.530671
 30
0.0
 10
122.229921
 20
-220.530671
 30
0.0
  0
LWPOLYLINE
  5
14b
100
AcDbEntity
  8
Layer_1
 62
1
100
AcDbPolyline
 90
1
 70
1
 10
368.730701
 20
-360.184252
 30
0.0
  0
SPLINE
  5
14c
100
AcDbEntity
  8
Layer_1
 62
1
100
AcDbSpline
 70
8
 71
3
 72
8
 73
4
 74
0
 40
0
 40
0
 40
0
 40
0
 40
1
 40
1
 40
1
 40
1
 10
155.074012
 20
-9.444102
 30
0.0
 10
150.487983
 20
-9.444102
 30
0.0
 10
146.353525
 20
-12.206659
 30
0.0
 10
144.598528
 20
-16.443597
 30
0.0
  0
SPLINE
  5
14d
100
AcDbEntity
  8
Layer_1
 62
1
100
AcDbSpline
 70
8
 71
3
 72
8
 73
4
 74
0
 40
0
 40
0
 40
0
 40
0
 40
1
 40
1
 40
1
 40
1
 10
144.598528
 20
-16.443597
 30
0.0
 10
142.843530
 20
-20.680535
 30
0.0
 10
143.813611
 20
-25.557462
 30
0.0
 10
147.056423
 20
-28.800273
 30
0.0
  0
SPLINE
  5
14e
100
AcDbEntity
  8
Layer_1
 62
1
100
AcDbSpline
 70
8
 71
3
 72
8
 73
4
 74
0
 40
0
 40
0
 40
0
 40
0
 40
1
 40
1
 40
1
 40
1
 10
147.056423
 20
-28.800273
 30
0.0
 10
150.299235
 20
-32.043085
 30
0.0
 10
155.176162
 20
-33.013166
 30
0.0
 10
159.413100
 20
-31.258169
 30
0.0
  0
SPLINE
  5
14f
100
AcDbEntity
  8
Layer_1
 62
1
100
AcDbSpline
 70
8
 71
3
 72
8
 73
4
 74
0
 40
0
 40
0
 40
0
 40
0
 40
1
 40
1
 40
1
 40
1
 10
159.413100
 20
-31.258169
 30
0.0
 10
163.650038
 20
-29.503172
 30
0.0
 10
166.412595
 20
-25.368713
 30
0.0
 10
166.412595
 20
-20.782685
 30
0.0
  0
SPLINE
  5
150
100
AcDbEntity
  8
Layer_1
 62
1
100
AcDbSpline
 70
8
 71
3
 72
8
 73
4
 74
0
 40
0
 40
0
 40
0
 40
0
 40
1
 40
1
 40
1
 40
1
 10
166.412595
 20
-20.782685
 30
0.0
 10
166.412595
 20
-17.775506
 30
0.0
 10
165.217997
 20
-14.891493
 30
0.0
 10
163.091601
 20
-12.765096
 30
0.0
  0
SPLINE
  5
151
100
AcDbEntity
  8
Layer_1
 62
1
100
AcDbSpline
 70
8
 71
3
 72
8
 73
4
 74
0
 40
0
 40
0
 40
0
 40
0
 40
1
 40
1
 40
1
 40
1
 10
163.091601
 20
-12.765096
 30
0.0
 10
160.965204
 20
-10.638699
 30
0.0
 10
158.081191
 20
-9.444102
 30
0.0
 10
155.074012
 20
-9.444102
 30
0.0
  0
LWPOLYLINE
  5
152
100
AcDbEntity
  8
Layer_1
 62
1
100
AcDbPolyline
 90
1
 70
1
 10
122.229921
 20
-220.530671
 30
0.0
  0
LWPOLYLINE
  5
153
100
AcDbEntity
  8
Layer_1
 62
1
100
AcDbPolyline
 90
1
 70
1
 10
155.074012
 20
-9.444102
 30
0.0
  0
ENDSEC
  0
SECTION
  2
OBJECTS
  0
DICTIONARY
  5
C
330
0
100
AcDbDictionary
  3
ACAD_GROUP
350
D
  3
ACAD_MLINESTYLE
350
17
  0
DICTIONARY
  5
D
330
C
100
AcDbDictionary
  0
DICTIONARY
  5
1A
330
C
100
AcDbDictionary
  0
DICTIONARY
  5
17
330
C
100
AcDbDictionary
  3
STANDARD
350
18
  0
DICTIONARY
  5
19
330
C
100
AcDbDictionary
  0
ENDSEC
  0
EOF
