  0
SECTION
  2
HEADER
  9
$ACADVER
  1
AC1009
  9
$INSBASE
 10
0.0
 20
0.0
 30
0.0
  9
$EXTMIN
 10
0.0
 20
0.0
 30
0.0
  9
$EXTMAX
 10
0.0
 20
0.0
 30
0.0
  0
ENDSEC
  0
SECTION
  2
TABLES
  0
TABLE
  2
VPORT
 70
0
  0
ENDTAB
  0
TABLE
  2
LTYPE
 70
1
  0
LTYPE
  2
CONTINUOUS
 70
0
  3
Solid line
 72
65
 73
0
 40
0.0
  0
ENDTAB
  0
TABLE
  2
LAYER
 70
1
  0
LAYER
  2
0
 70
64
 62
7
  6
continuous
  0
ENDTAB
  0
TABLE
  2
STYLE
 70
1
  0
STYLE
  2
STANDARD
 70
0
 40
0
 41
1.0
 50
0.0
 71
0
 42
1
 3
ARIAL.TTF
 4

  0
ENDTAB
  0
TABLE
  2
VIEW
 70
0
  0
ENDTAB
  0
ENDSEC
  0
SECTION
  2
BLOCKS
  0
BLOCK
  8
0
  2
POCKET
 70
0
 10
0.0
 20
0.0
 30
0.0
  3
POCKET
  0
LINE
  8
0
 62
0
 10
-37.65730884557722
 20
54.85657421289355
 30
0.0
 11
15.682691154422784
 21
54.85657421289355
 31
0.0
  0
ARC
  8
0
 62
0
 10
-37.65730884557722
 20
51.04657421289355
 30
0.0
 40
3.8099999999999965
 50
90.0
 51
-180.0
  0
ARC
  8
0
 62
0
 10
15.682691154422784
 20
51.04657421289355
 30
0.0
 40
3.8100000000000027
 50
-0.0
 51
90.00000000000003
  0
LINE
  8
0
 62
0
 10
-41.467308845577215
 20
26.916574212893554
 30
0.0
 11
-41.467308845577215
 21
51.04657421289355
 31
0.0
  0
LINE
  8
0
 62
0
 10
19.492691154422786
 20
51.04657421289355
 30
0.0
 11
19.492691154422786
 21
35.80657421289355
 31
0.0
  0
ARC
  8
0
 62
0
 10
-42.73730884557722
 20
26.916574212893554
 30
0.0
 40
1.2700000000000025
 50
-90.0
 51
-0.0
  0
ARC
  8
0
 62
0
 10
23.302691154422792
 20
35.80657421289355
 30
0.0
 40
3.810000000000001
 50
-180.0
 51
-90.0
  0
LINE
  8
0
 62
0
 10
-47.817308845577216
 20
25.64657421289355
 30
0.0
 11
-42.73730884557722
 21
25.64657421289355
 31
0.0
  0
LINE
  8
0
 62
0
 10
23.302691154422792
 20
31.99657421289355
 30
0.0
 11
62.67269115442278
 21
31.99657421289355
 31
0.0
  0
ARC
  8
0
 62
0
 10
-47.817308845577216
 20
21.836574212893552
 30
0.0
 40
3.8099999999999996
 50
90.0
 51
-180.0
  0
ARC
  8
0
 62
0
 10
62.67269115442278
 20
28.186574212893554
 30
0.0
 40
3.8099999999999974
 50
-0.0
 51
90.0
  0
LINE
  8
0
 62
0
 10
-51.62730884557721
 20
0.24657421289355108
 30
0.0
 11
-51.62730884557721
 21
21.836574212893552
 31
0.0
  0
LINE
  8
0
 62
0
 10
66.48269115442278
 20
28.186574212893554
 30
0.0
 11
66.48269115442278
 21
-18.80342578710645
 31
0.0
  0
ARC
  8
0
 62
0
 10
-52.897308845577214
 20
0.24657421289355108
 30
0.0
 40
1.270000000000002
 50
-90.0
 51
-0.0
  0
ARC
  8
0
 62
0
 10
62.672691154422786
 20
-18.80342578710645
 30
0.0
 40
3.809999999999995
 50
-90.0
 51
-0.0
  0
LINE
  8
0
 62
0
 10
-56.70730884557722
 20
-1.0234257871064507
 30
0.0
 11
-52.897308845577214
 21
-1.0234257871064507
 31
0.0
  0
LINE
  8
0
 62
0
 10
62.672691154422786
 20
-22.613425787106447
 30
0.0
 11
19.492691154422786
 21
-22.613425787106447
 31
0.0
  0
ARC
  8
0
 62
0
 10
-56.70730884557722
 20
-4.833425787106447
 30
0.0
 40
3.8099999999999974
 50
90.0
 51
-180.0
  0
ARC
  8
0
 62
0
 10
19.492691154422786
 20
-26.423425787106446
 30
0.0
 40
3.8099999999999996
 50
89.99999999999994
 51
-180.0
  0
LINE
  8
0
 62
0
 10
-60.51730884557721
 20
-36.58342578710645
 30
0.0
 11
-60.51730884557721
 21
-4.833425787106449
 31
0.0
  0
LINE
  8
0
 62
0
 10
15.682691154422788
 20
-26.423425787106446
 30
0.0
 11
15.682691154422788
 21
-73.41342578710645
 31
0.0
  0
ARC
  8
0
 62
0
 10
-56.70730884557722
 20
-36.58342578710645
 30
0.0
 40
3.8099999999999974
 50
-180.0
 51
-90.0
  0
ARC
  8
0
 62
0
 10
11.872691154422787
 20
-73.41342578710645
 30
0.0
 40
3.809999999999999
 50
-90.0
 51
-0.0
  0
LINE
  8
0
 62
0
 10
-28.767308845577215
 20
-40.393425787106445
 30
0.0
 11
-56.70730884557722
 21
-40.393425787106445
 31
0.0
  0
LINE
  8
0
 62
0
 10
11.872691154422787
 20
-77.22342578710645
 30
0.0
 11
-21.147308845577214
 21
-77.22342578710645
 31
0.0
  0
ARC
  8
0
 62
0
 10
-28.767308845577215
 20
-44.20342578710645
 30
0.0
 40
3.81
 50
-0.0
 51
89.99999999999994
  0
ARC
  8
0
 62
0
 10
-21.147308845577214
 20
-73.41342578710645
 30
0.0
 40
3.81
 50
-180.0
 51
-90.0
  0
LINE
  8
0
 62
0
 10
-24.957308845577213
 20
-73.41342578710645
 30
0.0
 11
-24.957308845577213
 21
-44.20342578710645
 31
0.0
  0
CIRCLE
  8
0
 62
0
 10
11.312691154422787
 20
-35.25342578710645
 30
0.0
 40
3.0
  0
CIRCLE
  8
0
 62
0
 10
-55.32730884557722
 20
-35.063425787106446
 30
0.0
 40
3.0
  0
CIRCLE
  8
0
 62
0
 10
-46.637308845577216
 20
20.786574212893534
 30
0.0
 40
3.0
  0
CIRCLE
  8
0
 62
0
 10
9.892691154422785
 20
-72.01342578710646
 30
0.0
 40
3.0
  0
CIRCLE
  8
0
 62
0
 10
0.22283418226631324
 20
35.50007308158732
 30
0.0
 40
3.0
  0
CIRCLE
  8
0
 62
0
 10
61.31269115442278
 20
27.016574212893552
 30
0.0
 40
3.0
  0
ENDBLK
  0
ENDSEC
  0
SECTION
  2
ENTITIES
  0
INSERT
  2
POCKET
  8
0
 62
0
 10
0.0
 20
0.0
 30
0.0
  0
ENDSEC
  0
EOF
