999
"DXF R12 Output" (www.mydxf.blogspot.com)
 0 
SECTION
 2 
HEADER
 9 
$ACADVER
 1 
AC1009
 9 
$EXTMIN
 10 
 0 
 20 
 0 
 9 
$EXTMAX
 10 
 8.5 
 20 
 11 
 0 
ENDSEC
 0 
SECTION
 2 
ENTITIES
0
LINE
8
Layer 1
10
42.426400
20
47.845200
11
30.240100
21
47.845200
0
LINE
8
Layer 1
10
30.240100
20
47.845200
11
29.724933
21
47.822794
0
LINE
8
Layer 1
10
29.724933
20
47.822794
11
29.344085
21
47.665950
0
LINE
8
Layer 1
10
29.344085
20
47.665950
11
29.187211
21
47.285106
0
LINE
8
Layer 1
10
29.187211
20
47.285106
11
29.164800
21
46.769900
0
LINE
8
Layer 1
10
29.164800
20
46.769900
11
29.164800
21
33.508300
0
LINE
8
Layer 1
10
29.164800
20
33.508300
11
29.142403
21
32.993039
0
LINE
8
Layer 1
10
29.142403
20
32.993039
11
28.985623
21
32.612211
0
LINE
8
Layer 1
10
28.985623
20
32.612211
11
28.433089
21
32.455431
0
LINE
8
Layer 1
10
28.433089
20
32.455431
11
26.715633
21
32.433034
0
LINE
8
Layer 1
10
26.715633
20
32.433034
11
20.144623
21
32.433034
0
LINE
8
Layer 1
10
20.144623
20
32.433034
11
18.427153
21
32.455431
0
LINE
8
Layer 1
10
18.427153
20
32.455431
11
17.874553
21
32.612211
0
LINE
8
Layer 1
10
17.874553
20
32.612211
11
17.717707
21
33.142351
0
LINE
8
Layer 1
10
17.717707
20
33.142351
11
17.695300
21
34.703000
0
LINE
8
Layer 1
10
17.695300
20
34.703000
11
17.695300
21
40.557180
0
LINE
8
Layer 1
10
17.695300
20
40.557180
11
17.672903
21
42.117833
0
LINE
8
Layer 1
10
17.672903
20
42.117833
11
17.516123
21
42.648030
0
LINE
8
Layer 1
10
17.516123
20
42.648030
11
16.993503
21
42.804891
0
LINE
8
Layer 1
10
16.993503
20
42.804891
11
15.485100
21
42.827300
0
LINE
8
Layer 1
10
15.485100
20
42.827300
11
8.734770
21
42.827300
0
LINE
8
Layer 1
10
8.734770
20
42.827300
11
8.219602
21
42.849697
0
LINE
8
Layer 1
10
8.219602
20
42.849697
11
7.838756
21
43.006477
0
LINE
8
Layer 1
10
7.838756
20
43.006477
11
7.681914
21
43.551497
0
LINE
8
Layer 1
10
7.681914
20
43.551497
11
7.659500
21
45.216700
0
LINE
8
Layer 1
10
7.659500
20
45.216700
11
7.659497
21
51.548770
0
LINE
8
Layer 1
10
7.659497
20
51.548770
11
7.681905
21
53.213968
0
LINE
8
Layer 1
10
7.681905
20
53.213968
11
7.838752
21
53.759100
0
LINE
8
Layer 1
10
7.838752
20
53.759100
11
8.219606
21
53.915944
0
LINE
8
Layer 1
10
8.219606
20
53.915944
11
8.734842
21
53.938350
0
LINE
8
Layer 1
10
8.734842
20
53.938350
11
9.690632
21
53.938350
0
LINE
8
Layer 1
10
9.690632
20
53.938350
11
10.108755
21
53.998051
0
LINE
8
Layer 1
10
10.108755
20
53.998051
11
10.168500
21
55.252500
0
LINE
8
Layer 1
10
10.168500
20
55.252500
11
10.168500
21
59.553530
0
LINE
8
Layer 1
10
10.168500
20
59.553530
11
10.190907
21
60.800556
0
LINE
8
Layer 1
10
10.190907
20
60.800556
11
10.347752
21
61.285950
0
LINE
8
Layer 1
10
10.347752
20
61.285950
11
10.736057
21
61.442794
0
LINE
8
Layer 1
10
10.736057
20
61.442794
11
11.303500
21
61.465200
0
LINE
8
Layer 1
10
11.303500
20
61.465200
11
12.498240
21
61.465200
0
LINE
8
Layer 1
10
12.498240
20
61.465200
11
12.976096
21
61.524901
0
LINE
8
Layer 1
10
12.976096
20
61.524901
11
13.035800
21
62.898800
0
LINE
8
Layer 1
10
13.035800
20
62.898800
11
13.035800
21
67.677720
0
LINE
8
Layer 1
10
13.035800
20
67.677720
11
13.058207
21
69.029291
0
LINE
8
Layer 1
10
13.058207
20
69.029291
11
13.215053
21
69.529620
0
LINE
8
Layer 1
10
13.215053
20
69.529620
11
13.595932
21
69.686490
0
LINE
8
Layer 1
10
13.595932
20
69.686490
11
14.111100
21
69.708900
0
LINE
8
Layer 1
10
29.164800
20
69.708900
11
29.680088
21
69.686493
0
LINE
8
Layer 1
10
29.680088
20
69.686493
11
30.060889
21
69.529647
0
LINE
8
Layer 1
10
30.060889
20
69.529647
11
30.217669
21
69.081589
0
LINE
8
Layer 1
10
30.217669
20
69.081589
11
30.240066
21
68.095917
0
LINE
8
Layer 1
10
30.240066
20
68.095917
11
30.240066
21
64.332567
0
LINE
8
Layer 1
10
31.315400
20
63.257300
11
42.426500
21
63.257300
0
LINE
8
Layer 1
10
43.501700
20
62.182000
11
43.501700
21
48.920400
0
LINE
8
Layer 1
10
30.240100
20
64.332600
11
30.262506
21
63.817337
0
LINE
8
Layer 1
10
30.262506
20
63.817337
11
30.419350
21
63.436510
0
LINE
8
Layer 1
10
30.419350
20
63.436510
11
30.800194
21
63.279701
0
LINE
8
Layer 1
10
30.800194
20
63.279701
11
31.315400
21
63.257300
0
LINE
8
Layer 1
10
42.426400
20
63.257300
11
42.941690
21
63.234894
0
LINE
8
Layer 1
10
42.941690
20
63.234894
11
43.322492
21
63.078049
0
LINE
8
Layer 1
10
43.322492
20
63.078049
11
43.479299
21
62.697206
0
LINE
8
Layer 1
10
43.479299
20
62.697206
11
43.501700
21
62.182000
0
LINE
8
Layer 1
10
43.501700
20
48.920400
11
43.479303
21
48.405111
0
LINE
8
Layer 1
10
43.479303
20
48.405111
11
43.322523
21
48.024311
0
LINE
8
Layer 1
10
43.322523
20
48.024311
11
42.941690
21
47.867589
0
LINE
8
Layer 1
10
42.941690
20
47.867589
11
42.426400
21
47.845200
0
LINE
8
Layer 1
10
14.111100
20
69.708900
11
29.164800
21
69.708900
 0 
ENDSEC
 0 
EOF