%TF.GenerationSoftware,KiCad,Pcbnew,5.1.10-88a1d61d58~88~ubuntu20.04.1*%
%TF.CreationDate,2021-05-20T13:35:29+01:00*%
%TF.ProjectId,scrawler,73637261-776c-4657-922e-6b696361645f,rev?*%
%TF.SameCoordinates,Original*%
%TF.FileFunction,Soldermask,Top*%
%TF.FilePolarity,Negative*%
%FSLAX46Y46*%
G04 Gerber Fmt 4.6, Leading zero omitted, Abs format (unit mm)*
G04 Created by KiCad (PCBNEW 5.1.10-88a1d61d58~88~ubuntu20.04.1) date 2021-05-20 13:35:29*
%MOMM*%
%LPD*%
G01*
G04 APERTURE LIST*
%ADD10C,6.500000*%
%ADD11C,1.651000*%
%ADD12C,1.752600*%
%ADD13R,1.752600X1.752600*%
%ADD14O,1.600000X2.200000*%
%ADD15C,1.500000*%
%ADD16C,1.701800*%
%ADD17R,2.600000X2.600000*%
%ADD18C,3.000000*%
%ADD19C,3.429000*%
%ADD20C,0.990600*%
%ADD21R,1.651000X1.651000*%
G04 APERTURE END LIST*
D10*
%TO.C,H5*%
X149631400Y-43421300D03*
%TD*%
D11*
%TO.C,R2*%
X160896300Y-38150800D03*
X160896300Y-27990800D03*
%TD*%
%TO.C,R1*%
X165417500Y-38163500D03*
X165417500Y-28003500D03*
%TD*%
D12*
%TO.C,U2*%
X115684300Y-26276300D03*
X143624300Y-41516300D03*
X118224300Y-26276300D03*
X120764300Y-26276300D03*
X123304300Y-26276300D03*
X125844300Y-26276300D03*
X128384300Y-26276300D03*
X130924300Y-26276300D03*
X133464300Y-26276300D03*
X136004300Y-26276300D03*
X138544300Y-26276300D03*
X141084300Y-26276300D03*
X143624300Y-26276300D03*
X141084300Y-41516300D03*
X138544300Y-41516300D03*
X136004300Y-41516300D03*
X133464300Y-41516300D03*
X130924300Y-41516300D03*
X128384300Y-41516300D03*
X125844300Y-41516300D03*
X123304300Y-41516300D03*
X120764300Y-41516300D03*
X118224300Y-41516300D03*
D13*
X115684300Y-41516300D03*
%TD*%
D10*
%TO.C,H6*%
X210731100Y-51968400D03*
%TD*%
%TO.C,H4*%
X94094300Y-114046000D03*
%TD*%
%TO.C,H3*%
X102781100Y-58204100D03*
%TD*%
%TO.C,H2*%
X159308800Y-150990300D03*
%TD*%
%TO.C,H1*%
X160731200Y-114236500D03*
%TD*%
D14*
%TO.C,U1*%
X151688800Y-31015800D03*
D15*
X149388800Y-26415800D03*
X149388800Y-33415800D03*
D14*
X151688800Y-28015800D03*
X151688800Y-35015800D03*
X147088800Y-36115800D03*
X156288800Y-36115800D03*
D15*
X153988800Y-26415800D03*
X153988800Y-33415800D03*
%TD*%
D16*
%TO.C,SW23*%
X152971500Y-140958200D03*
X152971500Y-129958200D03*
D17*
X158921500Y-138733200D03*
D18*
X156721500Y-130458200D03*
D19*
X152971500Y-135458200D03*
D18*
X158921500Y-135458200D03*
D17*
X156721500Y-127183200D03*
D18*
X156721500Y-140458200D03*
D20*
X148771500Y-140678200D03*
X148771500Y-130238200D03*
%TD*%
D16*
%TO.C,SW22*%
X133921500Y-150483200D03*
X133921500Y-139483200D03*
D17*
X139871500Y-148258200D03*
D18*
X137671500Y-139983200D03*
D19*
X133921500Y-144983200D03*
D18*
X139871500Y-144983200D03*
D17*
X137671500Y-136708200D03*
D18*
X137671500Y-149983200D03*
D20*
X129721500Y-150203200D03*
X129721500Y-139763200D03*
%TD*%
D16*
%TO.C,SW21*%
X133921500Y-131433200D03*
X133921500Y-120433200D03*
D17*
X139871500Y-129208200D03*
D18*
X137671500Y-120933200D03*
D19*
X133921500Y-125933200D03*
D18*
X139871500Y-125933200D03*
D17*
X137671500Y-117658200D03*
D18*
X137671500Y-130933200D03*
D20*
X129721500Y-131153200D03*
X129721500Y-120713200D03*
%TD*%
D16*
%TO.C,SW20*%
X142391500Y-105410000D03*
X153391500Y-105410000D03*
D17*
X144616500Y-111360000D03*
D18*
X152891500Y-109160000D03*
D19*
X147891500Y-105410000D03*
D18*
X147891500Y-111360000D03*
D17*
X156166500Y-109160000D03*
D18*
X142891500Y-109160000D03*
D20*
X142671500Y-101210000D03*
X153111500Y-101210000D03*
%TD*%
D16*
%TO.C,SW19*%
X123341500Y-105410000D03*
X134341500Y-105410000D03*
D17*
X125566500Y-111360000D03*
D18*
X133841500Y-109160000D03*
D19*
X128841500Y-105410000D03*
D18*
X128841500Y-111360000D03*
D17*
X137116500Y-109160000D03*
D18*
X123841500Y-109160000D03*
D20*
X123621500Y-101210000D03*
X134061500Y-101210000D03*
%TD*%
D16*
%TO.C,SW18*%
X104291500Y-105410000D03*
X115291500Y-105410000D03*
D17*
X106516500Y-111360000D03*
D18*
X114791500Y-109160000D03*
D19*
X109791500Y-105410000D03*
D18*
X109791500Y-111360000D03*
D17*
X118066500Y-109160000D03*
D18*
X104791500Y-109160000D03*
D20*
X104571500Y-101210000D03*
X115011500Y-101210000D03*
%TD*%
D16*
%TO.C,SW17*%
X190016500Y-88900000D03*
X201016500Y-88900000D03*
D17*
X192241500Y-94850000D03*
D18*
X200516500Y-92650000D03*
D19*
X195516500Y-88900000D03*
D18*
X195516500Y-94850000D03*
D17*
X203791500Y-92650000D03*
D18*
X190516500Y-92650000D03*
D20*
X190296500Y-84700000D03*
X200736500Y-84700000D03*
%TD*%
D16*
%TO.C,SW16*%
X170966500Y-88900000D03*
X181966500Y-88900000D03*
D17*
X173191500Y-94850000D03*
D18*
X181466500Y-92650000D03*
D19*
X176466500Y-88900000D03*
D18*
X176466500Y-94850000D03*
D17*
X184741500Y-92650000D03*
D18*
X171466500Y-92650000D03*
D20*
X171246500Y-84700000D03*
X181686500Y-84700000D03*
%TD*%
D16*
%TO.C,SW15*%
X151916500Y-88900000D03*
X162916500Y-88900000D03*
D17*
X154141500Y-94850000D03*
D18*
X162416500Y-92650000D03*
D19*
X157416500Y-88900000D03*
D18*
X157416500Y-94850000D03*
D17*
X165691500Y-92650000D03*
D18*
X152416500Y-92650000D03*
D20*
X152196500Y-84700000D03*
X162636500Y-84700000D03*
%TD*%
D16*
%TO.C,SW14*%
X132866500Y-88900000D03*
X143866500Y-88900000D03*
D17*
X135091500Y-94850000D03*
D18*
X143366500Y-92650000D03*
D19*
X138366500Y-88900000D03*
D18*
X138366500Y-94850000D03*
D17*
X146641500Y-92650000D03*
D18*
X133366500Y-92650000D03*
D20*
X133146500Y-84700000D03*
X143586500Y-84700000D03*
%TD*%
D16*
%TO.C,SW13*%
X113816500Y-88900000D03*
X124816500Y-88900000D03*
D17*
X116041500Y-94850000D03*
D18*
X124316500Y-92650000D03*
D19*
X119316500Y-88900000D03*
D18*
X119316500Y-94850000D03*
D17*
X127591500Y-92650000D03*
D18*
X114316500Y-92650000D03*
D20*
X114096500Y-84700000D03*
X124536500Y-84700000D03*
%TD*%
D16*
%TO.C,SW12*%
X94766500Y-88900000D03*
X105766500Y-88900000D03*
D17*
X96991500Y-94850000D03*
D18*
X105266500Y-92650000D03*
D19*
X100266500Y-88900000D03*
D18*
X100266500Y-94850000D03*
D17*
X108541500Y-92650000D03*
D18*
X95266500Y-92650000D03*
D20*
X95046500Y-84700000D03*
X105486500Y-84700000D03*
%TD*%
D16*
%TO.C,SW11*%
X199541500Y-72390000D03*
X210541500Y-72390000D03*
D17*
X201766500Y-78340000D03*
D18*
X210041500Y-76140000D03*
D19*
X205041500Y-72390000D03*
D18*
X205041500Y-78340000D03*
D17*
X213316500Y-76140000D03*
D18*
X200041500Y-76140000D03*
D20*
X199821500Y-68190000D03*
X210261500Y-68190000D03*
%TD*%
D16*
%TO.C,SW10*%
X180491500Y-72390000D03*
X191491500Y-72390000D03*
D17*
X182716500Y-78340000D03*
D18*
X190991500Y-76140000D03*
D19*
X185991500Y-72390000D03*
D18*
X185991500Y-78340000D03*
D17*
X194266500Y-76140000D03*
D18*
X180991500Y-76140000D03*
D20*
X180771500Y-68190000D03*
X191211500Y-68190000D03*
%TD*%
D16*
%TO.C,SW9*%
X161441500Y-72390000D03*
X172441500Y-72390000D03*
D17*
X163666500Y-78340000D03*
D18*
X171941500Y-76140000D03*
D19*
X166941500Y-72390000D03*
D18*
X166941500Y-78340000D03*
D17*
X175216500Y-76140000D03*
D18*
X161941500Y-76140000D03*
D20*
X161721500Y-68190000D03*
X172161500Y-68190000D03*
%TD*%
D16*
%TO.C,SW8*%
X142391500Y-72390000D03*
X153391500Y-72390000D03*
D17*
X144616500Y-78340000D03*
D18*
X152891500Y-76140000D03*
D19*
X147891500Y-72390000D03*
D18*
X147891500Y-78340000D03*
D17*
X156166500Y-76140000D03*
D18*
X142891500Y-76140000D03*
D20*
X142671500Y-68190000D03*
X153111500Y-68190000D03*
%TD*%
D16*
%TO.C,SW7*%
X123341500Y-72390000D03*
X134341500Y-72390000D03*
D17*
X125566500Y-78340000D03*
D18*
X133841500Y-76140000D03*
D19*
X128841500Y-72390000D03*
D18*
X128841500Y-78340000D03*
D17*
X137116500Y-76140000D03*
D18*
X123841500Y-76140000D03*
D20*
X123621500Y-68190000D03*
X134061500Y-68190000D03*
%TD*%
D16*
%TO.C,SW6*%
X104291500Y-72390000D03*
X115291500Y-72390000D03*
D17*
X106516500Y-78340000D03*
D18*
X114791500Y-76140000D03*
D19*
X109791500Y-72390000D03*
D18*
X109791500Y-78340000D03*
D17*
X118066500Y-76140000D03*
D18*
X104791500Y-76140000D03*
D20*
X104571500Y-68190000D03*
X115011500Y-68190000D03*
%TD*%
D16*
%TO.C,SW5*%
X190016500Y-55880000D03*
X201016500Y-55880000D03*
D17*
X192241500Y-61830000D03*
D18*
X200516500Y-59630000D03*
D19*
X195516500Y-55880000D03*
D18*
X195516500Y-61830000D03*
D17*
X203791500Y-59630000D03*
D18*
X190516500Y-59630000D03*
D20*
X190296500Y-51680000D03*
X200736500Y-51680000D03*
%TD*%
D16*
%TO.C,SW4*%
X170966500Y-55880000D03*
X181966500Y-55880000D03*
D17*
X173191500Y-61830000D03*
D18*
X181466500Y-59630000D03*
D19*
X176466500Y-55880000D03*
D18*
X176466500Y-61830000D03*
D17*
X184741500Y-59630000D03*
D18*
X171466500Y-59630000D03*
D20*
X171246500Y-51680000D03*
X181686500Y-51680000D03*
%TD*%
D16*
%TO.C,SW3*%
X151916500Y-55880000D03*
X162916500Y-55880000D03*
D17*
X154141500Y-61830000D03*
D18*
X162416500Y-59630000D03*
D19*
X157416500Y-55880000D03*
D18*
X157416500Y-61830000D03*
D17*
X165691500Y-59630000D03*
D18*
X152416500Y-59630000D03*
D20*
X152196500Y-51680000D03*
X162636500Y-51680000D03*
%TD*%
D16*
%TO.C,SW2*%
X132866500Y-55880000D03*
X143866500Y-55880000D03*
D17*
X135091500Y-61830000D03*
D18*
X143366500Y-59630000D03*
D19*
X138366500Y-55880000D03*
D18*
X138366500Y-61830000D03*
D17*
X146641500Y-59630000D03*
D18*
X133366500Y-59630000D03*
D20*
X133146500Y-51680000D03*
X143586500Y-51680000D03*
%TD*%
D16*
%TO.C,SW1*%
X113816500Y-55880000D03*
X124816500Y-55880000D03*
D17*
X116041500Y-61830000D03*
D18*
X124316500Y-59630000D03*
D19*
X119316500Y-55880000D03*
D18*
X119316500Y-61830000D03*
D17*
X127591500Y-59630000D03*
D18*
X114316500Y-59630000D03*
D20*
X114096500Y-51680000D03*
X124536500Y-51680000D03*
%TD*%
D21*
%TO.C,D23*%
X162433000Y-135572500D03*
D11*
X162433000Y-127952500D03*
%TD*%
D21*
%TO.C,D22*%
X143319500Y-145034000D03*
D11*
X143319500Y-137414000D03*
%TD*%
D21*
%TO.C,D21*%
X143383000Y-125984000D03*
D11*
X143383000Y-133604000D03*
%TD*%
D21*
%TO.C,D20*%
X147828000Y-114617500D03*
D11*
X140208000Y-114617500D03*
%TD*%
D21*
%TO.C,D19*%
X128778000Y-114554000D03*
D11*
X121158000Y-114554000D03*
%TD*%
D21*
%TO.C,D18*%
X109855000Y-114554000D03*
D11*
X117475000Y-114554000D03*
%TD*%
D21*
%TO.C,D17*%
X195516500Y-98488500D03*
D11*
X187896500Y-98488500D03*
%TD*%
D21*
%TO.C,D16*%
X176466500Y-98234500D03*
D11*
X168846500Y-98234500D03*
%TD*%
D21*
%TO.C,D15*%
X157416500Y-97853500D03*
D11*
X157416500Y-105473500D03*
%TD*%
D21*
%TO.C,D14*%
X138366500Y-98552000D03*
D11*
X138366500Y-106172000D03*
%TD*%
D21*
%TO.C,D13*%
X119316500Y-98615500D03*
D11*
X119316500Y-106235500D03*
%TD*%
D21*
%TO.C,D12*%
X100266500Y-98615500D03*
D11*
X100266500Y-106235500D03*
%TD*%
D21*
%TO.C,D11*%
X205041500Y-82359500D03*
D11*
X205041500Y-89979500D03*
%TD*%
D21*
%TO.C,D10*%
X185991500Y-82232500D03*
D11*
X185991500Y-89852500D03*
%TD*%
D21*
%TO.C,D9*%
X166941500Y-82232500D03*
D11*
X166941500Y-89852500D03*
%TD*%
D21*
%TO.C,D8*%
X147891500Y-82391250D03*
D11*
X147891500Y-90011250D03*
%TD*%
D21*
%TO.C,D7*%
X128841500Y-82232500D03*
D11*
X128841500Y-89852500D03*
%TD*%
D21*
%TO.C,D6*%
X109791500Y-82232500D03*
D11*
X109791500Y-89852500D03*
%TD*%
D21*
%TO.C,D5*%
X195516500Y-65595500D03*
D11*
X195516500Y-73215500D03*
%TD*%
D21*
%TO.C,D4*%
X176466500Y-65595500D03*
D11*
X176466500Y-73215500D03*
%TD*%
D21*
%TO.C,D3*%
X157416500Y-65595500D03*
D11*
X157416500Y-73215500D03*
%TD*%
D21*
%TO.C,D2*%
X138366500Y-65595500D03*
D11*
X138366500Y-73215500D03*
%TD*%
D21*
%TO.C,D1*%
X119316500Y-65595500D03*
D11*
X119316500Y-73215500D03*
%TD*%
M02*
