%TF.GenerationSoftware,KiCad,Pcbnew,5.1.10-88a1d61d58~88~ubuntu20.04.1*%
%TF.CreationDate,2021-05-20T13:35:29+01:00*%
%TF.ProjectId,scrawler,73637261-776c-4657-922e-6b696361645f,rev?*%
%TF.SameCoordinates,Original*%
%TF.FileFunction,Legend,Bot*%
%TF.FilePolarity,Positive*%
%FSLAX46Y46*%
G04 Gerber Fmt 4.6, Leading zero omitted, Abs format (unit mm)*
G04 Created by KiCad (PCBNEW 5.1.10-88a1d61d58~88~ubuntu20.04.1) date 2021-05-20 13:35:29*
%MOMM*%
%LPD*%
G01*
G04 APERTURE LIST*
%ADD10C,0.150000*%
%ADD11C,0.381000*%
G04 APERTURE END LIST*
D10*
X131739566Y-45769161D02*
X131644328Y-45816780D01*
X131453852Y-45816780D01*
X131358614Y-45769161D01*
X131310995Y-45673923D01*
X131310995Y-45626304D01*
X131358614Y-45531066D01*
X131453852Y-45483447D01*
X131596709Y-45483447D01*
X131691947Y-45435828D01*
X131739566Y-45340590D01*
X131739566Y-45292971D01*
X131691947Y-45197733D01*
X131596709Y-45150114D01*
X131453852Y-45150114D01*
X131358614Y-45197733D01*
X130453852Y-45769161D02*
X130549090Y-45816780D01*
X130739566Y-45816780D01*
X130834804Y-45769161D01*
X130882423Y-45721542D01*
X130930042Y-45626304D01*
X130930042Y-45340590D01*
X130882423Y-45245352D01*
X130834804Y-45197733D01*
X130739566Y-45150114D01*
X130549090Y-45150114D01*
X130453852Y-45197733D01*
X130025280Y-45816780D02*
X130025280Y-45150114D01*
X130025280Y-45340590D02*
X129977661Y-45245352D01*
X129930042Y-45197733D01*
X129834804Y-45150114D01*
X129739566Y-45150114D01*
X128977661Y-45816780D02*
X128977661Y-45292971D01*
X129025280Y-45197733D01*
X129120519Y-45150114D01*
X129310995Y-45150114D01*
X129406233Y-45197733D01*
X128977661Y-45769161D02*
X129072900Y-45816780D01*
X129310995Y-45816780D01*
X129406233Y-45769161D01*
X129453852Y-45673923D01*
X129453852Y-45578685D01*
X129406233Y-45483447D01*
X129310995Y-45435828D01*
X129072900Y-45435828D01*
X128977661Y-45388209D01*
X128596709Y-45150114D02*
X128406233Y-45816780D01*
X128215757Y-45340590D01*
X128025280Y-45816780D01*
X127834804Y-45150114D01*
X127310995Y-45816780D02*
X127406233Y-45769161D01*
X127453852Y-45673923D01*
X127453852Y-44816780D01*
X126549090Y-45769161D02*
X126644328Y-45816780D01*
X126834804Y-45816780D01*
X126930042Y-45769161D01*
X126977661Y-45673923D01*
X126977661Y-45292971D01*
X126930042Y-45197733D01*
X126834804Y-45150114D01*
X126644328Y-45150114D01*
X126549090Y-45197733D01*
X126501471Y-45292971D01*
X126501471Y-45388209D01*
X126977661Y-45483447D01*
X126072900Y-45816780D02*
X126072900Y-45150114D01*
X126072900Y-45340590D02*
X126025280Y-45245352D01*
X125977661Y-45197733D01*
X125882423Y-45150114D01*
X125787185Y-45150114D01*
X124691947Y-45816780D02*
X124691947Y-44816780D01*
X124691947Y-45197733D02*
X124596709Y-45150114D01*
X124406233Y-45150114D01*
X124310995Y-45197733D01*
X124263376Y-45245352D01*
X124215757Y-45340590D01*
X124215757Y-45626304D01*
X124263376Y-45721542D01*
X124310995Y-45769161D01*
X124406233Y-45816780D01*
X124596709Y-45816780D01*
X124691947Y-45769161D01*
X123882423Y-45150114D02*
X123644328Y-45816780D01*
X123406233Y-45150114D02*
X123644328Y-45816780D01*
X123739566Y-46054876D01*
X123787185Y-46102495D01*
X123882423Y-46150114D01*
X122120519Y-45816780D02*
X122215757Y-45769161D01*
X122263376Y-45673923D01*
X122263376Y-44816780D01*
X121358614Y-45769161D02*
X121453852Y-45816780D01*
X121644328Y-45816780D01*
X121739566Y-45769161D01*
X121787185Y-45673923D01*
X121787185Y-45292971D01*
X121739566Y-45197733D01*
X121644328Y-45150114D01*
X121453852Y-45150114D01*
X121358614Y-45197733D01*
X121310995Y-45292971D01*
X121310995Y-45388209D01*
X121787185Y-45483447D01*
X120453852Y-45150114D02*
X120453852Y-45816780D01*
X120882423Y-45150114D02*
X120882423Y-45673923D01*
X120834804Y-45769161D01*
X120739566Y-45816780D01*
X120596709Y-45816780D01*
X120501471Y-45769161D01*
X120453852Y-45721542D01*
%TO.C,R2*%
X160896300Y-36070800D02*
X160896300Y-37270800D01*
X160096300Y-30270800D02*
X160896300Y-30070800D01*
X159896300Y-30470800D02*
X160096300Y-30270800D01*
X159896300Y-30870800D02*
X159896300Y-30470800D01*
X160096300Y-31070800D02*
X159896300Y-30870800D01*
X160096300Y-35070800D02*
X160096300Y-31070800D01*
X159896300Y-35270800D02*
X160096300Y-35070800D01*
X159896300Y-35670800D02*
X159896300Y-35270800D01*
X160096300Y-35870800D02*
X159896300Y-35670800D01*
X160896300Y-36070800D02*
X160096300Y-35870800D01*
X161696300Y-35870800D02*
X160896300Y-36070800D01*
X161896300Y-35670800D02*
X161696300Y-35870800D01*
X161896300Y-35270800D02*
X161896300Y-35670800D01*
X161696300Y-35070800D02*
X161896300Y-35270800D01*
X161696300Y-31070800D02*
X161696300Y-35070800D01*
X161896300Y-30870800D02*
X161696300Y-31070800D01*
X161896300Y-30470800D02*
X161896300Y-30870800D01*
X161696300Y-30270800D02*
X161896300Y-30470800D01*
X160896300Y-30070800D02*
X161696300Y-30270800D01*
X160896300Y-28870800D02*
X160896300Y-30070800D01*
%TO.C,R1*%
X165417500Y-36083500D02*
X165417500Y-37283500D01*
X164617500Y-30283500D02*
X165417500Y-30083500D01*
X164417500Y-30483500D02*
X164617500Y-30283500D01*
X164417500Y-30883500D02*
X164417500Y-30483500D01*
X164617500Y-31083500D02*
X164417500Y-30883500D01*
X164617500Y-35083500D02*
X164617500Y-31083500D01*
X164417500Y-35283500D02*
X164617500Y-35083500D01*
X164417500Y-35683500D02*
X164417500Y-35283500D01*
X164617500Y-35883500D02*
X164417500Y-35683500D01*
X165417500Y-36083500D02*
X164617500Y-35883500D01*
X166217500Y-35883500D02*
X165417500Y-36083500D01*
X166417500Y-35683500D02*
X166217500Y-35883500D01*
X166417500Y-35283500D02*
X166417500Y-35683500D01*
X166217500Y-35083500D02*
X166417500Y-35283500D01*
X166217500Y-31083500D02*
X166217500Y-35083500D01*
X166417500Y-30883500D02*
X166217500Y-31083500D01*
X166417500Y-30483500D02*
X166417500Y-30883500D01*
X166217500Y-30283500D02*
X166417500Y-30483500D01*
X165417500Y-30083500D02*
X166217500Y-30283500D01*
X165417500Y-28883500D02*
X165417500Y-30083500D01*
D11*
%TO.C,U2*%
X116954300Y-40246300D02*
X116954300Y-42786300D01*
X114414300Y-40246300D02*
X116954300Y-40246300D01*
D10*
G36*
X120703330Y-27851665D02*
G01*
X120803330Y-27851665D01*
X120803330Y-27751665D01*
X120703330Y-27751665D01*
X120703330Y-27851665D01*
G37*
X120703330Y-27851665D02*
X120803330Y-27851665D01*
X120803330Y-27751665D01*
X120703330Y-27751665D01*
X120703330Y-27851665D01*
G36*
X120303330Y-27651665D02*
G01*
X121103330Y-27651665D01*
X121103330Y-27551665D01*
X120303330Y-27551665D01*
X120303330Y-27651665D01*
G37*
X120303330Y-27651665D02*
X121103330Y-27651665D01*
X121103330Y-27551665D01*
X120303330Y-27551665D01*
X120303330Y-27651665D01*
G36*
X120903330Y-28051665D02*
G01*
X121103330Y-28051665D01*
X121103330Y-27951665D01*
X120903330Y-27951665D01*
X120903330Y-28051665D01*
G37*
X120903330Y-28051665D02*
X121103330Y-28051665D01*
X121103330Y-27951665D01*
X120903330Y-27951665D01*
X120903330Y-28051665D01*
G36*
X120303330Y-28051665D02*
G01*
X120603330Y-28051665D01*
X120603330Y-27951665D01*
X120303330Y-27951665D01*
X120303330Y-28051665D01*
G37*
X120303330Y-28051665D02*
X120603330Y-28051665D01*
X120603330Y-27951665D01*
X120303330Y-27951665D01*
X120303330Y-28051665D01*
G36*
X120303330Y-28051665D02*
G01*
X120403330Y-28051665D01*
X120403330Y-27551665D01*
X120303330Y-27551665D01*
X120303330Y-28051665D01*
G37*
X120303330Y-28051665D02*
X120403330Y-28051665D01*
X120403330Y-27551665D01*
X120303330Y-27551665D01*
X120303330Y-28051665D01*
D11*
X144894300Y-25006300D02*
X111874300Y-25006300D01*
X144894300Y-42786300D02*
X144894300Y-25006300D01*
X111874300Y-42786300D02*
X144894300Y-42786300D01*
X111874300Y-25006300D02*
X111874300Y-42786300D01*
X114414300Y-40246300D02*
X114414300Y-42786300D01*
D10*
%TO.C,U1*%
X156788800Y-24815800D02*
X156788800Y-22815800D01*
X151188800Y-22815800D02*
X156788800Y-22815800D01*
X151188800Y-24815800D02*
X151188800Y-22815800D01*
X150938800Y-36915800D02*
X157038800Y-36915800D01*
X157038800Y-24815800D02*
X157038800Y-36915800D01*
X150938800Y-24815800D02*
X157038800Y-24815800D01*
X150938800Y-24815800D02*
X150938800Y-36915800D01*
%TO.C,SW23*%
X156671500Y-136458200D02*
G75*
G02*
X155171500Y-137958200I-1500000J0D01*
G01*
X159171500Y-137958200D02*
G75*
G02*
X159671500Y-137458200I500000J0D01*
G01*
X145971500Y-142458200D02*
X145971500Y-141458200D01*
X159971500Y-142458200D02*
X158971500Y-142458200D01*
X146971500Y-142458200D02*
X145971500Y-142458200D01*
X145971500Y-129458200D02*
X145971500Y-128458200D01*
X145971500Y-128458200D02*
X146971500Y-128458200D01*
X158971500Y-128458200D02*
X159971500Y-128458200D01*
X159971500Y-128458200D02*
X159971500Y-129458200D01*
X159971500Y-141458200D02*
X159971500Y-142458200D01*
X154471500Y-142458200D02*
X154971500Y-142458200D01*
X161171500Y-133958200D02*
X161171500Y-136958200D01*
X160671500Y-133458200D02*
X161171500Y-133958200D01*
X156671500Y-133958200D02*
X156671500Y-136458200D01*
X158571500Y-142458200D02*
X159171500Y-142458200D01*
X157171500Y-133458200D02*
X156671500Y-133958200D01*
X159171500Y-142458200D02*
X159171500Y-137958200D01*
X159671500Y-137458200D02*
X160671500Y-137458200D01*
X161171500Y-136958200D02*
X160671500Y-137458200D01*
X154471500Y-137958200D02*
X154471500Y-142458200D01*
X155171500Y-137958200D02*
X154471500Y-137958200D01*
%TO.C,SW22*%
X137621500Y-145983200D02*
G75*
G02*
X136121500Y-147483200I-1500000J0D01*
G01*
X140121500Y-147483200D02*
G75*
G02*
X140621500Y-146983200I500000J0D01*
G01*
X126921500Y-151983200D02*
X126921500Y-150983200D01*
X140921500Y-151983200D02*
X139921500Y-151983200D01*
X127921500Y-151983200D02*
X126921500Y-151983200D01*
X126921500Y-138983200D02*
X126921500Y-137983200D01*
X126921500Y-137983200D02*
X127921500Y-137983200D01*
X139921500Y-137983200D02*
X140921500Y-137983200D01*
X140921500Y-137983200D02*
X140921500Y-138983200D01*
X140921500Y-150983200D02*
X140921500Y-151983200D01*
X135421500Y-151983200D02*
X135921500Y-151983200D01*
X142121500Y-143483200D02*
X142121500Y-146483200D01*
X141621500Y-142983200D02*
X142121500Y-143483200D01*
X137621500Y-143483200D02*
X137621500Y-145983200D01*
X139521500Y-151983200D02*
X140121500Y-151983200D01*
X138121500Y-142983200D02*
X137621500Y-143483200D01*
X140121500Y-151983200D02*
X140121500Y-147483200D01*
X140621500Y-146983200D02*
X141621500Y-146983200D01*
X142121500Y-146483200D02*
X141621500Y-146983200D01*
X135421500Y-147483200D02*
X135421500Y-151983200D01*
X136121500Y-147483200D02*
X135421500Y-147483200D01*
%TO.C,SW21*%
X137621500Y-126933200D02*
G75*
G02*
X136121500Y-128433200I-1500000J0D01*
G01*
X140121500Y-128433200D02*
G75*
G02*
X140621500Y-127933200I500000J0D01*
G01*
X126921500Y-132933200D02*
X126921500Y-131933200D01*
X140921500Y-132933200D02*
X139921500Y-132933200D01*
X127921500Y-132933200D02*
X126921500Y-132933200D01*
X126921500Y-119933200D02*
X126921500Y-118933200D01*
X126921500Y-118933200D02*
X127921500Y-118933200D01*
X139921500Y-118933200D02*
X140921500Y-118933200D01*
X140921500Y-118933200D02*
X140921500Y-119933200D01*
X140921500Y-131933200D02*
X140921500Y-132933200D01*
X135421500Y-132933200D02*
X135921500Y-132933200D01*
X142121500Y-124433200D02*
X142121500Y-127433200D01*
X141621500Y-123933200D02*
X142121500Y-124433200D01*
X137621500Y-124433200D02*
X137621500Y-126933200D01*
X139521500Y-132933200D02*
X140121500Y-132933200D01*
X138121500Y-123933200D02*
X137621500Y-124433200D01*
X140121500Y-132933200D02*
X140121500Y-128433200D01*
X140621500Y-127933200D02*
X141621500Y-127933200D01*
X142121500Y-127433200D02*
X141621500Y-127933200D01*
X135421500Y-128433200D02*
X135421500Y-132933200D01*
X136121500Y-128433200D02*
X135421500Y-128433200D01*
%TO.C,SW20*%
X146891500Y-109110000D02*
G75*
G02*
X145391500Y-107610000I0J1500000D01*
G01*
X145391500Y-111610000D02*
G75*
G02*
X145891500Y-112110000I0J-500000D01*
G01*
X140891500Y-98410000D02*
X141891500Y-98410000D01*
X140891500Y-112410000D02*
X140891500Y-111410000D01*
X140891500Y-99410000D02*
X140891500Y-98410000D01*
X153891500Y-98410000D02*
X154891500Y-98410000D01*
X154891500Y-98410000D02*
X154891500Y-99410000D01*
X154891500Y-111410000D02*
X154891500Y-112410000D01*
X154891500Y-112410000D02*
X153891500Y-112410000D01*
X141891500Y-112410000D02*
X140891500Y-112410000D01*
X140891500Y-106910000D02*
X140891500Y-107410000D01*
X149391500Y-113610000D02*
X146391500Y-113610000D01*
X149891500Y-113110000D02*
X149391500Y-113610000D01*
X149391500Y-109110000D02*
X146891500Y-109110000D01*
X140891500Y-111010000D02*
X140891500Y-111610000D01*
X149891500Y-109610000D02*
X149391500Y-109110000D01*
X140891500Y-111610000D02*
X145391500Y-111610000D01*
X145891500Y-112110000D02*
X145891500Y-113110000D01*
X146391500Y-113610000D02*
X145891500Y-113110000D01*
X145391500Y-106910000D02*
X140891500Y-106910000D01*
X145391500Y-107610000D02*
X145391500Y-106910000D01*
%TO.C,SW19*%
X127841500Y-109110000D02*
G75*
G02*
X126341500Y-107610000I0J1500000D01*
G01*
X126341500Y-111610000D02*
G75*
G02*
X126841500Y-112110000I0J-500000D01*
G01*
X121841500Y-98410000D02*
X122841500Y-98410000D01*
X121841500Y-112410000D02*
X121841500Y-111410000D01*
X121841500Y-99410000D02*
X121841500Y-98410000D01*
X134841500Y-98410000D02*
X135841500Y-98410000D01*
X135841500Y-98410000D02*
X135841500Y-99410000D01*
X135841500Y-111410000D02*
X135841500Y-112410000D01*
X135841500Y-112410000D02*
X134841500Y-112410000D01*
X122841500Y-112410000D02*
X121841500Y-112410000D01*
X121841500Y-106910000D02*
X121841500Y-107410000D01*
X130341500Y-113610000D02*
X127341500Y-113610000D01*
X130841500Y-113110000D02*
X130341500Y-113610000D01*
X130341500Y-109110000D02*
X127841500Y-109110000D01*
X121841500Y-111010000D02*
X121841500Y-111610000D01*
X130841500Y-109610000D02*
X130341500Y-109110000D01*
X121841500Y-111610000D02*
X126341500Y-111610000D01*
X126841500Y-112110000D02*
X126841500Y-113110000D01*
X127341500Y-113610000D02*
X126841500Y-113110000D01*
X126341500Y-106910000D02*
X121841500Y-106910000D01*
X126341500Y-107610000D02*
X126341500Y-106910000D01*
%TO.C,SW18*%
X108791500Y-109110000D02*
G75*
G02*
X107291500Y-107610000I0J1500000D01*
G01*
X107291500Y-111610000D02*
G75*
G02*
X107791500Y-112110000I0J-500000D01*
G01*
X102791500Y-98410000D02*
X103791500Y-98410000D01*
X102791500Y-112410000D02*
X102791500Y-111410000D01*
X102791500Y-99410000D02*
X102791500Y-98410000D01*
X115791500Y-98410000D02*
X116791500Y-98410000D01*
X116791500Y-98410000D02*
X116791500Y-99410000D01*
X116791500Y-111410000D02*
X116791500Y-112410000D01*
X116791500Y-112410000D02*
X115791500Y-112410000D01*
X103791500Y-112410000D02*
X102791500Y-112410000D01*
X102791500Y-106910000D02*
X102791500Y-107410000D01*
X111291500Y-113610000D02*
X108291500Y-113610000D01*
X111791500Y-113110000D02*
X111291500Y-113610000D01*
X111291500Y-109110000D02*
X108791500Y-109110000D01*
X102791500Y-111010000D02*
X102791500Y-111610000D01*
X111791500Y-109610000D02*
X111291500Y-109110000D01*
X102791500Y-111610000D02*
X107291500Y-111610000D01*
X107791500Y-112110000D02*
X107791500Y-113110000D01*
X108291500Y-113610000D02*
X107791500Y-113110000D01*
X107291500Y-106910000D02*
X102791500Y-106910000D01*
X107291500Y-107610000D02*
X107291500Y-106910000D01*
%TO.C,SW17*%
X194516500Y-92600000D02*
G75*
G02*
X193016500Y-91100000I0J1500000D01*
G01*
X193016500Y-95100000D02*
G75*
G02*
X193516500Y-95600000I0J-500000D01*
G01*
X188516500Y-81900000D02*
X189516500Y-81900000D01*
X188516500Y-95900000D02*
X188516500Y-94900000D01*
X188516500Y-82900000D02*
X188516500Y-81900000D01*
X201516500Y-81900000D02*
X202516500Y-81900000D01*
X202516500Y-81900000D02*
X202516500Y-82900000D01*
X202516500Y-94900000D02*
X202516500Y-95900000D01*
X202516500Y-95900000D02*
X201516500Y-95900000D01*
X189516500Y-95900000D02*
X188516500Y-95900000D01*
X188516500Y-90400000D02*
X188516500Y-90900000D01*
X197016500Y-97100000D02*
X194016500Y-97100000D01*
X197516500Y-96600000D02*
X197016500Y-97100000D01*
X197016500Y-92600000D02*
X194516500Y-92600000D01*
X188516500Y-94500000D02*
X188516500Y-95100000D01*
X197516500Y-93100000D02*
X197016500Y-92600000D01*
X188516500Y-95100000D02*
X193016500Y-95100000D01*
X193516500Y-95600000D02*
X193516500Y-96600000D01*
X194016500Y-97100000D02*
X193516500Y-96600000D01*
X193016500Y-90400000D02*
X188516500Y-90400000D01*
X193016500Y-91100000D02*
X193016500Y-90400000D01*
%TO.C,SW16*%
X175466500Y-92600000D02*
G75*
G02*
X173966500Y-91100000I0J1500000D01*
G01*
X173966500Y-95100000D02*
G75*
G02*
X174466500Y-95600000I0J-500000D01*
G01*
X169466500Y-81900000D02*
X170466500Y-81900000D01*
X169466500Y-95900000D02*
X169466500Y-94900000D01*
X169466500Y-82900000D02*
X169466500Y-81900000D01*
X182466500Y-81900000D02*
X183466500Y-81900000D01*
X183466500Y-81900000D02*
X183466500Y-82900000D01*
X183466500Y-94900000D02*
X183466500Y-95900000D01*
X183466500Y-95900000D02*
X182466500Y-95900000D01*
X170466500Y-95900000D02*
X169466500Y-95900000D01*
X169466500Y-90400000D02*
X169466500Y-90900000D01*
X177966500Y-97100000D02*
X174966500Y-97100000D01*
X178466500Y-96600000D02*
X177966500Y-97100000D01*
X177966500Y-92600000D02*
X175466500Y-92600000D01*
X169466500Y-94500000D02*
X169466500Y-95100000D01*
X178466500Y-93100000D02*
X177966500Y-92600000D01*
X169466500Y-95100000D02*
X173966500Y-95100000D01*
X174466500Y-95600000D02*
X174466500Y-96600000D01*
X174966500Y-97100000D02*
X174466500Y-96600000D01*
X173966500Y-90400000D02*
X169466500Y-90400000D01*
X173966500Y-91100000D02*
X173966500Y-90400000D01*
%TO.C,SW15*%
X156416500Y-92600000D02*
G75*
G02*
X154916500Y-91100000I0J1500000D01*
G01*
X154916500Y-95100000D02*
G75*
G02*
X155416500Y-95600000I0J-500000D01*
G01*
X150416500Y-81900000D02*
X151416500Y-81900000D01*
X150416500Y-95900000D02*
X150416500Y-94900000D01*
X150416500Y-82900000D02*
X150416500Y-81900000D01*
X163416500Y-81900000D02*
X164416500Y-81900000D01*
X164416500Y-81900000D02*
X164416500Y-82900000D01*
X164416500Y-94900000D02*
X164416500Y-95900000D01*
X164416500Y-95900000D02*
X163416500Y-95900000D01*
X151416500Y-95900000D02*
X150416500Y-95900000D01*
X150416500Y-90400000D02*
X150416500Y-90900000D01*
X158916500Y-97100000D02*
X155916500Y-97100000D01*
X159416500Y-96600000D02*
X158916500Y-97100000D01*
X158916500Y-92600000D02*
X156416500Y-92600000D01*
X150416500Y-94500000D02*
X150416500Y-95100000D01*
X159416500Y-93100000D02*
X158916500Y-92600000D01*
X150416500Y-95100000D02*
X154916500Y-95100000D01*
X155416500Y-95600000D02*
X155416500Y-96600000D01*
X155916500Y-97100000D02*
X155416500Y-96600000D01*
X154916500Y-90400000D02*
X150416500Y-90400000D01*
X154916500Y-91100000D02*
X154916500Y-90400000D01*
%TO.C,SW14*%
X137366500Y-92600000D02*
G75*
G02*
X135866500Y-91100000I0J1500000D01*
G01*
X135866500Y-95100000D02*
G75*
G02*
X136366500Y-95600000I0J-500000D01*
G01*
X131366500Y-81900000D02*
X132366500Y-81900000D01*
X131366500Y-95900000D02*
X131366500Y-94900000D01*
X131366500Y-82900000D02*
X131366500Y-81900000D01*
X144366500Y-81900000D02*
X145366500Y-81900000D01*
X145366500Y-81900000D02*
X145366500Y-82900000D01*
X145366500Y-94900000D02*
X145366500Y-95900000D01*
X145366500Y-95900000D02*
X144366500Y-95900000D01*
X132366500Y-95900000D02*
X131366500Y-95900000D01*
X131366500Y-90400000D02*
X131366500Y-90900000D01*
X139866500Y-97100000D02*
X136866500Y-97100000D01*
X140366500Y-96600000D02*
X139866500Y-97100000D01*
X139866500Y-92600000D02*
X137366500Y-92600000D01*
X131366500Y-94500000D02*
X131366500Y-95100000D01*
X140366500Y-93100000D02*
X139866500Y-92600000D01*
X131366500Y-95100000D02*
X135866500Y-95100000D01*
X136366500Y-95600000D02*
X136366500Y-96600000D01*
X136866500Y-97100000D02*
X136366500Y-96600000D01*
X135866500Y-90400000D02*
X131366500Y-90400000D01*
X135866500Y-91100000D02*
X135866500Y-90400000D01*
%TO.C,SW13*%
X118316500Y-92600000D02*
G75*
G02*
X116816500Y-91100000I0J1500000D01*
G01*
X116816500Y-95100000D02*
G75*
G02*
X117316500Y-95600000I0J-500000D01*
G01*
X112316500Y-81900000D02*
X113316500Y-81900000D01*
X112316500Y-95900000D02*
X112316500Y-94900000D01*
X112316500Y-82900000D02*
X112316500Y-81900000D01*
X125316500Y-81900000D02*
X126316500Y-81900000D01*
X126316500Y-81900000D02*
X126316500Y-82900000D01*
X126316500Y-94900000D02*
X126316500Y-95900000D01*
X126316500Y-95900000D02*
X125316500Y-95900000D01*
X113316500Y-95900000D02*
X112316500Y-95900000D01*
X112316500Y-90400000D02*
X112316500Y-90900000D01*
X120816500Y-97100000D02*
X117816500Y-97100000D01*
X121316500Y-96600000D02*
X120816500Y-97100000D01*
X120816500Y-92600000D02*
X118316500Y-92600000D01*
X112316500Y-94500000D02*
X112316500Y-95100000D01*
X121316500Y-93100000D02*
X120816500Y-92600000D01*
X112316500Y-95100000D02*
X116816500Y-95100000D01*
X117316500Y-95600000D02*
X117316500Y-96600000D01*
X117816500Y-97100000D02*
X117316500Y-96600000D01*
X116816500Y-90400000D02*
X112316500Y-90400000D01*
X116816500Y-91100000D02*
X116816500Y-90400000D01*
%TO.C,SW12*%
X99266500Y-92600000D02*
G75*
G02*
X97766500Y-91100000I0J1500000D01*
G01*
X97766500Y-95100000D02*
G75*
G02*
X98266500Y-95600000I0J-500000D01*
G01*
X93266500Y-81900000D02*
X94266500Y-81900000D01*
X93266500Y-95900000D02*
X93266500Y-94900000D01*
X93266500Y-82900000D02*
X93266500Y-81900000D01*
X106266500Y-81900000D02*
X107266500Y-81900000D01*
X107266500Y-81900000D02*
X107266500Y-82900000D01*
X107266500Y-94900000D02*
X107266500Y-95900000D01*
X107266500Y-95900000D02*
X106266500Y-95900000D01*
X94266500Y-95900000D02*
X93266500Y-95900000D01*
X93266500Y-90400000D02*
X93266500Y-90900000D01*
X101766500Y-97100000D02*
X98766500Y-97100000D01*
X102266500Y-96600000D02*
X101766500Y-97100000D01*
X101766500Y-92600000D02*
X99266500Y-92600000D01*
X93266500Y-94500000D02*
X93266500Y-95100000D01*
X102266500Y-93100000D02*
X101766500Y-92600000D01*
X93266500Y-95100000D02*
X97766500Y-95100000D01*
X98266500Y-95600000D02*
X98266500Y-96600000D01*
X98766500Y-97100000D02*
X98266500Y-96600000D01*
X97766500Y-90400000D02*
X93266500Y-90400000D01*
X97766500Y-91100000D02*
X97766500Y-90400000D01*
%TO.C,SW11*%
X204041500Y-76090000D02*
G75*
G02*
X202541500Y-74590000I0J1500000D01*
G01*
X202541500Y-78590000D02*
G75*
G02*
X203041500Y-79090000I0J-500000D01*
G01*
X198041500Y-65390000D02*
X199041500Y-65390000D01*
X198041500Y-79390000D02*
X198041500Y-78390000D01*
X198041500Y-66390000D02*
X198041500Y-65390000D01*
X211041500Y-65390000D02*
X212041500Y-65390000D01*
X212041500Y-65390000D02*
X212041500Y-66390000D01*
X212041500Y-78390000D02*
X212041500Y-79390000D01*
X212041500Y-79390000D02*
X211041500Y-79390000D01*
X199041500Y-79390000D02*
X198041500Y-79390000D01*
X198041500Y-73890000D02*
X198041500Y-74390000D01*
X206541500Y-80590000D02*
X203541500Y-80590000D01*
X207041500Y-80090000D02*
X206541500Y-80590000D01*
X206541500Y-76090000D02*
X204041500Y-76090000D01*
X198041500Y-77990000D02*
X198041500Y-78590000D01*
X207041500Y-76590000D02*
X206541500Y-76090000D01*
X198041500Y-78590000D02*
X202541500Y-78590000D01*
X203041500Y-79090000D02*
X203041500Y-80090000D01*
X203541500Y-80590000D02*
X203041500Y-80090000D01*
X202541500Y-73890000D02*
X198041500Y-73890000D01*
X202541500Y-74590000D02*
X202541500Y-73890000D01*
%TO.C,SW10*%
X184991500Y-76090000D02*
G75*
G02*
X183491500Y-74590000I0J1500000D01*
G01*
X183491500Y-78590000D02*
G75*
G02*
X183991500Y-79090000I0J-500000D01*
G01*
X178991500Y-65390000D02*
X179991500Y-65390000D01*
X178991500Y-79390000D02*
X178991500Y-78390000D01*
X178991500Y-66390000D02*
X178991500Y-65390000D01*
X191991500Y-65390000D02*
X192991500Y-65390000D01*
X192991500Y-65390000D02*
X192991500Y-66390000D01*
X192991500Y-78390000D02*
X192991500Y-79390000D01*
X192991500Y-79390000D02*
X191991500Y-79390000D01*
X179991500Y-79390000D02*
X178991500Y-79390000D01*
X178991500Y-73890000D02*
X178991500Y-74390000D01*
X187491500Y-80590000D02*
X184491500Y-80590000D01*
X187991500Y-80090000D02*
X187491500Y-80590000D01*
X187491500Y-76090000D02*
X184991500Y-76090000D01*
X178991500Y-77990000D02*
X178991500Y-78590000D01*
X187991500Y-76590000D02*
X187491500Y-76090000D01*
X178991500Y-78590000D02*
X183491500Y-78590000D01*
X183991500Y-79090000D02*
X183991500Y-80090000D01*
X184491500Y-80590000D02*
X183991500Y-80090000D01*
X183491500Y-73890000D02*
X178991500Y-73890000D01*
X183491500Y-74590000D02*
X183491500Y-73890000D01*
%TO.C,SW9*%
X165941500Y-76090000D02*
G75*
G02*
X164441500Y-74590000I0J1500000D01*
G01*
X164441500Y-78590000D02*
G75*
G02*
X164941500Y-79090000I0J-500000D01*
G01*
X159941500Y-65390000D02*
X160941500Y-65390000D01*
X159941500Y-79390000D02*
X159941500Y-78390000D01*
X159941500Y-66390000D02*
X159941500Y-65390000D01*
X172941500Y-65390000D02*
X173941500Y-65390000D01*
X173941500Y-65390000D02*
X173941500Y-66390000D01*
X173941500Y-78390000D02*
X173941500Y-79390000D01*
X173941500Y-79390000D02*
X172941500Y-79390000D01*
X160941500Y-79390000D02*
X159941500Y-79390000D01*
X159941500Y-73890000D02*
X159941500Y-74390000D01*
X168441500Y-80590000D02*
X165441500Y-80590000D01*
X168941500Y-80090000D02*
X168441500Y-80590000D01*
X168441500Y-76090000D02*
X165941500Y-76090000D01*
X159941500Y-77990000D02*
X159941500Y-78590000D01*
X168941500Y-76590000D02*
X168441500Y-76090000D01*
X159941500Y-78590000D02*
X164441500Y-78590000D01*
X164941500Y-79090000D02*
X164941500Y-80090000D01*
X165441500Y-80590000D02*
X164941500Y-80090000D01*
X164441500Y-73890000D02*
X159941500Y-73890000D01*
X164441500Y-74590000D02*
X164441500Y-73890000D01*
%TO.C,SW8*%
X146891500Y-76090000D02*
G75*
G02*
X145391500Y-74590000I0J1500000D01*
G01*
X145391500Y-78590000D02*
G75*
G02*
X145891500Y-79090000I0J-500000D01*
G01*
X140891500Y-65390000D02*
X141891500Y-65390000D01*
X140891500Y-79390000D02*
X140891500Y-78390000D01*
X140891500Y-66390000D02*
X140891500Y-65390000D01*
X153891500Y-65390000D02*
X154891500Y-65390000D01*
X154891500Y-65390000D02*
X154891500Y-66390000D01*
X154891500Y-78390000D02*
X154891500Y-79390000D01*
X154891500Y-79390000D02*
X153891500Y-79390000D01*
X141891500Y-79390000D02*
X140891500Y-79390000D01*
X140891500Y-73890000D02*
X140891500Y-74390000D01*
X149391500Y-80590000D02*
X146391500Y-80590000D01*
X149891500Y-80090000D02*
X149391500Y-80590000D01*
X149391500Y-76090000D02*
X146891500Y-76090000D01*
X140891500Y-77990000D02*
X140891500Y-78590000D01*
X149891500Y-76590000D02*
X149391500Y-76090000D01*
X140891500Y-78590000D02*
X145391500Y-78590000D01*
X145891500Y-79090000D02*
X145891500Y-80090000D01*
X146391500Y-80590000D02*
X145891500Y-80090000D01*
X145391500Y-73890000D02*
X140891500Y-73890000D01*
X145391500Y-74590000D02*
X145391500Y-73890000D01*
%TO.C,SW7*%
X127841500Y-76090000D02*
G75*
G02*
X126341500Y-74590000I0J1500000D01*
G01*
X126341500Y-78590000D02*
G75*
G02*
X126841500Y-79090000I0J-500000D01*
G01*
X121841500Y-65390000D02*
X122841500Y-65390000D01*
X121841500Y-79390000D02*
X121841500Y-78390000D01*
X121841500Y-66390000D02*
X121841500Y-65390000D01*
X134841500Y-65390000D02*
X135841500Y-65390000D01*
X135841500Y-65390000D02*
X135841500Y-66390000D01*
X135841500Y-78390000D02*
X135841500Y-79390000D01*
X135841500Y-79390000D02*
X134841500Y-79390000D01*
X122841500Y-79390000D02*
X121841500Y-79390000D01*
X121841500Y-73890000D02*
X121841500Y-74390000D01*
X130341500Y-80590000D02*
X127341500Y-80590000D01*
X130841500Y-80090000D02*
X130341500Y-80590000D01*
X130341500Y-76090000D02*
X127841500Y-76090000D01*
X121841500Y-77990000D02*
X121841500Y-78590000D01*
X130841500Y-76590000D02*
X130341500Y-76090000D01*
X121841500Y-78590000D02*
X126341500Y-78590000D01*
X126841500Y-79090000D02*
X126841500Y-80090000D01*
X127341500Y-80590000D02*
X126841500Y-80090000D01*
X126341500Y-73890000D02*
X121841500Y-73890000D01*
X126341500Y-74590000D02*
X126341500Y-73890000D01*
%TO.C,SW6*%
X108791500Y-76090000D02*
G75*
G02*
X107291500Y-74590000I0J1500000D01*
G01*
X107291500Y-78590000D02*
G75*
G02*
X107791500Y-79090000I0J-500000D01*
G01*
X102791500Y-65390000D02*
X103791500Y-65390000D01*
X102791500Y-79390000D02*
X102791500Y-78390000D01*
X102791500Y-66390000D02*
X102791500Y-65390000D01*
X115791500Y-65390000D02*
X116791500Y-65390000D01*
X116791500Y-65390000D02*
X116791500Y-66390000D01*
X116791500Y-78390000D02*
X116791500Y-79390000D01*
X116791500Y-79390000D02*
X115791500Y-79390000D01*
X103791500Y-79390000D02*
X102791500Y-79390000D01*
X102791500Y-73890000D02*
X102791500Y-74390000D01*
X111291500Y-80590000D02*
X108291500Y-80590000D01*
X111791500Y-80090000D02*
X111291500Y-80590000D01*
X111291500Y-76090000D02*
X108791500Y-76090000D01*
X102791500Y-77990000D02*
X102791500Y-78590000D01*
X111791500Y-76590000D02*
X111291500Y-76090000D01*
X102791500Y-78590000D02*
X107291500Y-78590000D01*
X107791500Y-79090000D02*
X107791500Y-80090000D01*
X108291500Y-80590000D02*
X107791500Y-80090000D01*
X107291500Y-73890000D02*
X102791500Y-73890000D01*
X107291500Y-74590000D02*
X107291500Y-73890000D01*
%TO.C,SW5*%
X194516500Y-59580000D02*
G75*
G02*
X193016500Y-58080000I0J1500000D01*
G01*
X193016500Y-62080000D02*
G75*
G02*
X193516500Y-62580000I0J-500000D01*
G01*
X188516500Y-48880000D02*
X189516500Y-48880000D01*
X188516500Y-62880000D02*
X188516500Y-61880000D01*
X188516500Y-49880000D02*
X188516500Y-48880000D01*
X201516500Y-48880000D02*
X202516500Y-48880000D01*
X202516500Y-48880000D02*
X202516500Y-49880000D01*
X202516500Y-61880000D02*
X202516500Y-62880000D01*
X202516500Y-62880000D02*
X201516500Y-62880000D01*
X189516500Y-62880000D02*
X188516500Y-62880000D01*
X188516500Y-57380000D02*
X188516500Y-57880000D01*
X197016500Y-64080000D02*
X194016500Y-64080000D01*
X197516500Y-63580000D02*
X197016500Y-64080000D01*
X197016500Y-59580000D02*
X194516500Y-59580000D01*
X188516500Y-61480000D02*
X188516500Y-62080000D01*
X197516500Y-60080000D02*
X197016500Y-59580000D01*
X188516500Y-62080000D02*
X193016500Y-62080000D01*
X193516500Y-62580000D02*
X193516500Y-63580000D01*
X194016500Y-64080000D02*
X193516500Y-63580000D01*
X193016500Y-57380000D02*
X188516500Y-57380000D01*
X193016500Y-58080000D02*
X193016500Y-57380000D01*
%TO.C,SW4*%
X175466500Y-59580000D02*
G75*
G02*
X173966500Y-58080000I0J1500000D01*
G01*
X173966500Y-62080000D02*
G75*
G02*
X174466500Y-62580000I0J-500000D01*
G01*
X169466500Y-48880000D02*
X170466500Y-48880000D01*
X169466500Y-62880000D02*
X169466500Y-61880000D01*
X169466500Y-49880000D02*
X169466500Y-48880000D01*
X182466500Y-48880000D02*
X183466500Y-48880000D01*
X183466500Y-48880000D02*
X183466500Y-49880000D01*
X183466500Y-61880000D02*
X183466500Y-62880000D01*
X183466500Y-62880000D02*
X182466500Y-62880000D01*
X170466500Y-62880000D02*
X169466500Y-62880000D01*
X169466500Y-57380000D02*
X169466500Y-57880000D01*
X177966500Y-64080000D02*
X174966500Y-64080000D01*
X178466500Y-63580000D02*
X177966500Y-64080000D01*
X177966500Y-59580000D02*
X175466500Y-59580000D01*
X169466500Y-61480000D02*
X169466500Y-62080000D01*
X178466500Y-60080000D02*
X177966500Y-59580000D01*
X169466500Y-62080000D02*
X173966500Y-62080000D01*
X174466500Y-62580000D02*
X174466500Y-63580000D01*
X174966500Y-64080000D02*
X174466500Y-63580000D01*
X173966500Y-57380000D02*
X169466500Y-57380000D01*
X173966500Y-58080000D02*
X173966500Y-57380000D01*
%TO.C,SW3*%
X156416500Y-59580000D02*
G75*
G02*
X154916500Y-58080000I0J1500000D01*
G01*
X154916500Y-62080000D02*
G75*
G02*
X155416500Y-62580000I0J-500000D01*
G01*
X150416500Y-48880000D02*
X151416500Y-48880000D01*
X150416500Y-62880000D02*
X150416500Y-61880000D01*
X150416500Y-49880000D02*
X150416500Y-48880000D01*
X163416500Y-48880000D02*
X164416500Y-48880000D01*
X164416500Y-48880000D02*
X164416500Y-49880000D01*
X164416500Y-61880000D02*
X164416500Y-62880000D01*
X164416500Y-62880000D02*
X163416500Y-62880000D01*
X151416500Y-62880000D02*
X150416500Y-62880000D01*
X150416500Y-57380000D02*
X150416500Y-57880000D01*
X158916500Y-64080000D02*
X155916500Y-64080000D01*
X159416500Y-63580000D02*
X158916500Y-64080000D01*
X158916500Y-59580000D02*
X156416500Y-59580000D01*
X150416500Y-61480000D02*
X150416500Y-62080000D01*
X159416500Y-60080000D02*
X158916500Y-59580000D01*
X150416500Y-62080000D02*
X154916500Y-62080000D01*
X155416500Y-62580000D02*
X155416500Y-63580000D01*
X155916500Y-64080000D02*
X155416500Y-63580000D01*
X154916500Y-57380000D02*
X150416500Y-57380000D01*
X154916500Y-58080000D02*
X154916500Y-57380000D01*
%TO.C,SW2*%
X137366500Y-59580000D02*
G75*
G02*
X135866500Y-58080000I0J1500000D01*
G01*
X135866500Y-62080000D02*
G75*
G02*
X136366500Y-62580000I0J-500000D01*
G01*
X131366500Y-48880000D02*
X132366500Y-48880000D01*
X131366500Y-62880000D02*
X131366500Y-61880000D01*
X131366500Y-49880000D02*
X131366500Y-48880000D01*
X144366500Y-48880000D02*
X145366500Y-48880000D01*
X145366500Y-48880000D02*
X145366500Y-49880000D01*
X145366500Y-61880000D02*
X145366500Y-62880000D01*
X145366500Y-62880000D02*
X144366500Y-62880000D01*
X132366500Y-62880000D02*
X131366500Y-62880000D01*
X131366500Y-57380000D02*
X131366500Y-57880000D01*
X139866500Y-64080000D02*
X136866500Y-64080000D01*
X140366500Y-63580000D02*
X139866500Y-64080000D01*
X139866500Y-59580000D02*
X137366500Y-59580000D01*
X131366500Y-61480000D02*
X131366500Y-62080000D01*
X140366500Y-60080000D02*
X139866500Y-59580000D01*
X131366500Y-62080000D02*
X135866500Y-62080000D01*
X136366500Y-62580000D02*
X136366500Y-63580000D01*
X136866500Y-64080000D02*
X136366500Y-63580000D01*
X135866500Y-57380000D02*
X131366500Y-57380000D01*
X135866500Y-58080000D02*
X135866500Y-57380000D01*
%TO.C,SW1*%
X118316500Y-59580000D02*
G75*
G02*
X116816500Y-58080000I0J1500000D01*
G01*
X116816500Y-62080000D02*
G75*
G02*
X117316500Y-62580000I0J-500000D01*
G01*
X112316500Y-48880000D02*
X113316500Y-48880000D01*
X112316500Y-62880000D02*
X112316500Y-61880000D01*
X112316500Y-49880000D02*
X112316500Y-48880000D01*
X125316500Y-48880000D02*
X126316500Y-48880000D01*
X126316500Y-48880000D02*
X126316500Y-49880000D01*
X126316500Y-61880000D02*
X126316500Y-62880000D01*
X126316500Y-62880000D02*
X125316500Y-62880000D01*
X113316500Y-62880000D02*
X112316500Y-62880000D01*
X112316500Y-57380000D02*
X112316500Y-57880000D01*
X120816500Y-64080000D02*
X117816500Y-64080000D01*
X121316500Y-63580000D02*
X120816500Y-64080000D01*
X120816500Y-59580000D02*
X118316500Y-59580000D01*
X112316500Y-61480000D02*
X112316500Y-62080000D01*
X121316500Y-60080000D02*
X120816500Y-59580000D01*
X112316500Y-62080000D02*
X116816500Y-62080000D01*
X117316500Y-62580000D02*
X117316500Y-63580000D01*
X117816500Y-64080000D02*
X117316500Y-63580000D01*
X116816500Y-57380000D02*
X112316500Y-57380000D01*
X116816500Y-58080000D02*
X116816500Y-57380000D01*
%TO.C,U2*%
X120420490Y-29389633D02*
X120382395Y-29275347D01*
X120382395Y-29084871D01*
X120420490Y-29008680D01*
X120458585Y-28970585D01*
X120534776Y-28932490D01*
X120610966Y-28932490D01*
X120687157Y-28970585D01*
X120725252Y-29008680D01*
X120763347Y-29084871D01*
X120801442Y-29237252D01*
X120839538Y-29313442D01*
X120877633Y-29351538D01*
X120953823Y-29389633D01*
X121030014Y-29389633D01*
X121106204Y-29351538D01*
X121144300Y-29313442D01*
X121182395Y-29237252D01*
X121182395Y-29046776D01*
X121144300Y-28932490D01*
X121182395Y-28703919D02*
X121182395Y-28246776D01*
X120382395Y-28475347D02*
X121182395Y-28475347D01*
X116122395Y-39658648D02*
X116122395Y-39201505D01*
X115322395Y-39430076D02*
X116122395Y-39430076D01*
X116122395Y-39011029D02*
X115322395Y-38477695D01*
X116122395Y-38477695D02*
X115322395Y-39011029D01*
X116122395Y-38020552D02*
X116122395Y-37944362D01*
X116084300Y-37868172D01*
X116046204Y-37830076D01*
X115970014Y-37791981D01*
X115817633Y-37753886D01*
X115627157Y-37753886D01*
X115474776Y-37791981D01*
X115398585Y-37830076D01*
X115360490Y-37868172D01*
X115322395Y-37944362D01*
X115322395Y-38020552D01*
X115360490Y-38096743D01*
X115398585Y-38134838D01*
X115474776Y-38172933D01*
X115627157Y-38211029D01*
X115817633Y-38211029D01*
X115970014Y-38172933D01*
X116046204Y-38134838D01*
X116084300Y-38096743D01*
X116122395Y-38020552D01*
X116160490Y-36839600D02*
X115131919Y-37525314D01*
X115322395Y-36572933D02*
X116122395Y-36572933D01*
X116122395Y-36382457D01*
X116084300Y-36268172D01*
X116008109Y-36191981D01*
X115931919Y-36153886D01*
X115779538Y-36115791D01*
X115665252Y-36115791D01*
X115512871Y-36153886D01*
X115436680Y-36191981D01*
X115360490Y-36268172D01*
X115322395Y-36382457D01*
X115322395Y-36572933D01*
X116122395Y-35849124D02*
X116122395Y-35353886D01*
X115817633Y-35620552D01*
X115817633Y-35506267D01*
X115779538Y-35430076D01*
X115741442Y-35391981D01*
X115665252Y-35353886D01*
X115474776Y-35353886D01*
X115398585Y-35391981D01*
X115360490Y-35430076D01*
X115322395Y-35506267D01*
X115322395Y-35734838D01*
X115360490Y-35811029D01*
X115398585Y-35849124D01*
X141141442Y-28759109D02*
X141103347Y-28644823D01*
X141065252Y-28606728D01*
X140989061Y-28568633D01*
X140874776Y-28568633D01*
X140798585Y-28606728D01*
X140760490Y-28644823D01*
X140722395Y-28721014D01*
X140722395Y-29025776D01*
X141522395Y-29025776D01*
X141522395Y-28759109D01*
X141484300Y-28682919D01*
X141446204Y-28644823D01*
X141370014Y-28606728D01*
X141293823Y-28606728D01*
X141217633Y-28644823D01*
X141179538Y-28682919D01*
X141141442Y-28759109D01*
X141141442Y-29025776D01*
X141446204Y-28263871D02*
X141484300Y-28225776D01*
X141522395Y-28149585D01*
X141522395Y-27959109D01*
X141484300Y-27882919D01*
X141446204Y-27844823D01*
X141370014Y-27806728D01*
X141293823Y-27806728D01*
X141179538Y-27844823D01*
X140722395Y-28301966D01*
X140722395Y-27806728D01*
X133521442Y-28701966D02*
X133521442Y-28968633D01*
X133102395Y-28968633D02*
X133902395Y-28968633D01*
X133902395Y-28587680D01*
X133902395Y-28359109D02*
X133902395Y-27825776D01*
X133102395Y-28168633D01*
X130981442Y-28701966D02*
X130981442Y-28968633D01*
X130562395Y-28968633D02*
X131362395Y-28968633D01*
X131362395Y-28587680D01*
X131362395Y-27940061D02*
X131362395Y-28092442D01*
X131324300Y-28168633D01*
X131286204Y-28206728D01*
X131171919Y-28282919D01*
X131019538Y-28321014D01*
X130714776Y-28321014D01*
X130638585Y-28282919D01*
X130600490Y-28244823D01*
X130562395Y-28168633D01*
X130562395Y-28016252D01*
X130600490Y-27940061D01*
X130638585Y-27901966D01*
X130714776Y-27863871D01*
X130905252Y-27863871D01*
X130981442Y-27901966D01*
X131019538Y-27940061D01*
X131057633Y-28016252D01*
X131057633Y-28168633D01*
X131019538Y-28244823D01*
X130981442Y-28282919D01*
X130905252Y-28321014D01*
X128441442Y-28701966D02*
X128441442Y-28968633D01*
X128022395Y-28968633D02*
X128822395Y-28968633D01*
X128822395Y-28587680D01*
X128822395Y-27901966D02*
X128822395Y-28282919D01*
X128441442Y-28321014D01*
X128479538Y-28282919D01*
X128517633Y-28206728D01*
X128517633Y-28016252D01*
X128479538Y-27940061D01*
X128441442Y-27901966D01*
X128365252Y-27863871D01*
X128174776Y-27863871D01*
X128098585Y-27901966D01*
X128060490Y-27940061D01*
X128022395Y-28016252D01*
X128022395Y-28206728D01*
X128060490Y-28282919D01*
X128098585Y-28321014D01*
X115322395Y-28987680D02*
X115703347Y-29254347D01*
X115322395Y-29444823D02*
X116122395Y-29444823D01*
X116122395Y-29140061D01*
X116084300Y-29063871D01*
X116046204Y-29025776D01*
X115970014Y-28987680D01*
X115855728Y-28987680D01*
X115779538Y-29025776D01*
X115741442Y-29063871D01*
X115703347Y-29140061D01*
X115703347Y-29444823D01*
X115550966Y-28682919D02*
X115550966Y-28301966D01*
X115322395Y-28759109D02*
X116122395Y-28492442D01*
X115322395Y-28225776D01*
X116122395Y-28035300D02*
X115322395Y-27844823D01*
X115893823Y-27692442D01*
X115322395Y-27540061D01*
X116122395Y-27349585D01*
X118624300Y-29044823D02*
X118662395Y-29121014D01*
X118662395Y-29235300D01*
X118624300Y-29349585D01*
X118548109Y-29425776D01*
X118471919Y-29463871D01*
X118319538Y-29501966D01*
X118205252Y-29501966D01*
X118052871Y-29463871D01*
X117976680Y-29425776D01*
X117900490Y-29349585D01*
X117862395Y-29235300D01*
X117862395Y-29159109D01*
X117900490Y-29044823D01*
X117938585Y-29006728D01*
X118205252Y-29006728D01*
X118205252Y-29159109D01*
X117862395Y-28663871D02*
X118662395Y-28663871D01*
X117862395Y-28206728D01*
X118662395Y-28206728D01*
X117862395Y-27825776D02*
X118662395Y-27825776D01*
X118662395Y-27635300D01*
X118624300Y-27521014D01*
X118548109Y-27444823D01*
X118471919Y-27406728D01*
X118319538Y-27368633D01*
X118205252Y-27368633D01*
X118052871Y-27406728D01*
X117976680Y-27444823D01*
X117900490Y-27521014D01*
X117862395Y-27635300D01*
X117862395Y-27825776D01*
X123742395Y-29501966D02*
X122942395Y-29235300D01*
X123742395Y-28968633D01*
X123018585Y-28244823D02*
X122980490Y-28282919D01*
X122942395Y-28397204D01*
X122942395Y-28473395D01*
X122980490Y-28587680D01*
X123056680Y-28663871D01*
X123132871Y-28701966D01*
X123285252Y-28740061D01*
X123399538Y-28740061D01*
X123551919Y-28701966D01*
X123628109Y-28663871D01*
X123704300Y-28587680D01*
X123742395Y-28473395D01*
X123742395Y-28397204D01*
X123704300Y-28282919D01*
X123666204Y-28244823D01*
X123018585Y-27444823D02*
X122980490Y-27482919D01*
X122942395Y-27597204D01*
X122942395Y-27673395D01*
X122980490Y-27787680D01*
X123056680Y-27863871D01*
X123132871Y-27901966D01*
X123285252Y-27940061D01*
X123399538Y-27940061D01*
X123551919Y-27901966D01*
X123628109Y-27863871D01*
X123704300Y-27787680D01*
X123742395Y-27673395D01*
X123742395Y-27597204D01*
X123704300Y-27482919D01*
X123666204Y-27444823D01*
X125901442Y-28701966D02*
X125901442Y-28968633D01*
X125482395Y-28968633D02*
X126282395Y-28968633D01*
X126282395Y-28587680D01*
X126015728Y-27940061D02*
X125482395Y-27940061D01*
X126320490Y-28130538D02*
X125749061Y-28321014D01*
X125749061Y-27825776D01*
X136061442Y-28759109D02*
X136023347Y-28644823D01*
X135985252Y-28606728D01*
X135909061Y-28568633D01*
X135794776Y-28568633D01*
X135718585Y-28606728D01*
X135680490Y-28644823D01*
X135642395Y-28721014D01*
X135642395Y-29025776D01*
X136442395Y-29025776D01*
X136442395Y-28759109D01*
X136404300Y-28682919D01*
X136366204Y-28644823D01*
X136290014Y-28606728D01*
X136213823Y-28606728D01*
X136137633Y-28644823D01*
X136099538Y-28682919D01*
X136061442Y-28759109D01*
X136061442Y-29025776D01*
X135642395Y-27806728D02*
X135642395Y-28263871D01*
X135642395Y-28035300D02*
X136442395Y-28035300D01*
X136328109Y-28111490D01*
X136251919Y-28187680D01*
X136213823Y-28263871D01*
X138601442Y-28759109D02*
X138563347Y-28644823D01*
X138525252Y-28606728D01*
X138449061Y-28568633D01*
X138334776Y-28568633D01*
X138258585Y-28606728D01*
X138220490Y-28644823D01*
X138182395Y-28721014D01*
X138182395Y-29025776D01*
X138982395Y-29025776D01*
X138982395Y-28759109D01*
X138944300Y-28682919D01*
X138906204Y-28644823D01*
X138830014Y-28606728D01*
X138753823Y-28606728D01*
X138677633Y-28644823D01*
X138639538Y-28682919D01*
X138601442Y-28759109D01*
X138601442Y-29025776D01*
X138982395Y-28301966D02*
X138982395Y-27806728D01*
X138677633Y-28073395D01*
X138677633Y-27959109D01*
X138639538Y-27882919D01*
X138601442Y-27844823D01*
X138525252Y-27806728D01*
X138334776Y-27806728D01*
X138258585Y-27844823D01*
X138220490Y-27882919D01*
X138182395Y-27959109D01*
X138182395Y-28187680D01*
X138220490Y-28263871D01*
X138258585Y-28301966D01*
X143681442Y-28759109D02*
X143643347Y-28644823D01*
X143605252Y-28606728D01*
X143529061Y-28568633D01*
X143414776Y-28568633D01*
X143338585Y-28606728D01*
X143300490Y-28644823D01*
X143262395Y-28721014D01*
X143262395Y-29025776D01*
X144062395Y-29025776D01*
X144062395Y-28759109D01*
X144024300Y-28682919D01*
X143986204Y-28644823D01*
X143910014Y-28606728D01*
X143833823Y-28606728D01*
X143757633Y-28644823D01*
X143719538Y-28682919D01*
X143681442Y-28759109D01*
X143681442Y-29025776D01*
X144062395Y-27882919D02*
X144062395Y-28035300D01*
X144024300Y-28111490D01*
X143986204Y-28149585D01*
X143871919Y-28225776D01*
X143719538Y-28263871D01*
X143414776Y-28263871D01*
X143338585Y-28225776D01*
X143300490Y-28187680D01*
X143262395Y-28111490D01*
X143262395Y-27959109D01*
X143300490Y-27882919D01*
X143338585Y-27844823D01*
X143414776Y-27806728D01*
X143605252Y-27806728D01*
X143681442Y-27844823D01*
X143719538Y-27882919D01*
X143757633Y-27959109D01*
X143757633Y-28111490D01*
X143719538Y-28187680D01*
X143681442Y-28225776D01*
X143605252Y-28263871D01*
X143681442Y-39681109D02*
X143643347Y-39566823D01*
X143605252Y-39528728D01*
X143529061Y-39490633D01*
X143414776Y-39490633D01*
X143338585Y-39528728D01*
X143300490Y-39566823D01*
X143262395Y-39643014D01*
X143262395Y-39947776D01*
X144062395Y-39947776D01*
X144062395Y-39681109D01*
X144024300Y-39604919D01*
X143986204Y-39566823D01*
X143910014Y-39528728D01*
X143833823Y-39528728D01*
X143757633Y-39566823D01*
X143719538Y-39604919D01*
X143681442Y-39681109D01*
X143681442Y-39947776D01*
X144062395Y-38766823D02*
X144062395Y-39147776D01*
X143681442Y-39185871D01*
X143719538Y-39147776D01*
X143757633Y-39071585D01*
X143757633Y-38881109D01*
X143719538Y-38804919D01*
X143681442Y-38766823D01*
X143605252Y-38728728D01*
X143414776Y-38728728D01*
X143338585Y-38766823D01*
X143300490Y-38804919D01*
X143262395Y-38881109D01*
X143262395Y-39071585D01*
X143300490Y-39147776D01*
X143338585Y-39185871D01*
X141141442Y-39681109D02*
X141103347Y-39566823D01*
X141065252Y-39528728D01*
X140989061Y-39490633D01*
X140874776Y-39490633D01*
X140798585Y-39528728D01*
X140760490Y-39566823D01*
X140722395Y-39643014D01*
X140722395Y-39947776D01*
X141522395Y-39947776D01*
X141522395Y-39681109D01*
X141484300Y-39604919D01*
X141446204Y-39566823D01*
X141370014Y-39528728D01*
X141293823Y-39528728D01*
X141217633Y-39566823D01*
X141179538Y-39604919D01*
X141141442Y-39681109D01*
X141141442Y-39947776D01*
X141255728Y-38804919D02*
X140722395Y-38804919D01*
X141560490Y-38995395D02*
X140989061Y-39185871D01*
X140989061Y-38690633D01*
X138601442Y-39909680D02*
X138601442Y-39643014D01*
X138182395Y-39528728D02*
X138182395Y-39909680D01*
X138982395Y-39909680D01*
X138982395Y-39528728D01*
X138982395Y-38843014D02*
X138982395Y-38995395D01*
X138944300Y-39071585D01*
X138906204Y-39109680D01*
X138791919Y-39185871D01*
X138639538Y-39223966D01*
X138334776Y-39223966D01*
X138258585Y-39185871D01*
X138220490Y-39147776D01*
X138182395Y-39071585D01*
X138182395Y-38919204D01*
X138220490Y-38843014D01*
X138258585Y-38804919D01*
X138334776Y-38766823D01*
X138525252Y-38766823D01*
X138601442Y-38804919D01*
X138639538Y-38843014D01*
X138677633Y-38919204D01*
X138677633Y-39071585D01*
X138639538Y-39147776D01*
X138601442Y-39185871D01*
X138525252Y-39223966D01*
X135642395Y-39947776D02*
X136442395Y-39947776D01*
X136442395Y-39757300D01*
X136404300Y-39643014D01*
X136328109Y-39566823D01*
X136251919Y-39528728D01*
X136099538Y-39490633D01*
X135985252Y-39490633D01*
X135832871Y-39528728D01*
X135756680Y-39566823D01*
X135680490Y-39643014D01*
X135642395Y-39757300D01*
X135642395Y-39947776D01*
X136442395Y-39223966D02*
X136442395Y-38690633D01*
X135642395Y-39033490D01*
X133178585Y-39490633D02*
X133140490Y-39528728D01*
X133102395Y-39643014D01*
X133102395Y-39719204D01*
X133140490Y-39833490D01*
X133216680Y-39909680D01*
X133292871Y-39947776D01*
X133445252Y-39985871D01*
X133559538Y-39985871D01*
X133711919Y-39947776D01*
X133788109Y-39909680D01*
X133864300Y-39833490D01*
X133902395Y-39719204D01*
X133902395Y-39643014D01*
X133864300Y-39528728D01*
X133826204Y-39490633D01*
X133902395Y-38804919D02*
X133902395Y-38957300D01*
X133864300Y-39033490D01*
X133826204Y-39071585D01*
X133711919Y-39147776D01*
X133559538Y-39185871D01*
X133254776Y-39185871D01*
X133178585Y-39147776D01*
X133140490Y-39109680D01*
X133102395Y-39033490D01*
X133102395Y-38881109D01*
X133140490Y-38804919D01*
X133178585Y-38766823D01*
X133254776Y-38728728D01*
X133445252Y-38728728D01*
X133521442Y-38766823D01*
X133559538Y-38804919D01*
X133597633Y-38881109D01*
X133597633Y-39033490D01*
X133559538Y-39109680D01*
X133521442Y-39147776D01*
X133445252Y-39185871D01*
X130562395Y-39947776D02*
X131362395Y-39947776D01*
X131362395Y-39757300D01*
X131324300Y-39643014D01*
X131248109Y-39566823D01*
X131171919Y-39528728D01*
X131019538Y-39490633D01*
X130905252Y-39490633D01*
X130752871Y-39528728D01*
X130676680Y-39566823D01*
X130600490Y-39643014D01*
X130562395Y-39757300D01*
X130562395Y-39947776D01*
X131095728Y-38804919D02*
X130562395Y-38804919D01*
X131400490Y-38995395D02*
X130829061Y-39185871D01*
X130829061Y-38690633D01*
X121164300Y-39966823D02*
X121202395Y-40043014D01*
X121202395Y-40157300D01*
X121164300Y-40271585D01*
X121088109Y-40347776D01*
X121011919Y-40385871D01*
X120859538Y-40423966D01*
X120745252Y-40423966D01*
X120592871Y-40385871D01*
X120516680Y-40347776D01*
X120440490Y-40271585D01*
X120402395Y-40157300D01*
X120402395Y-40081109D01*
X120440490Y-39966823D01*
X120478585Y-39928728D01*
X120745252Y-39928728D01*
X120745252Y-40081109D01*
X120402395Y-39585871D02*
X121202395Y-39585871D01*
X120402395Y-39128728D01*
X121202395Y-39128728D01*
X120402395Y-38747776D02*
X121202395Y-38747776D01*
X121202395Y-38557300D01*
X121164300Y-38443014D01*
X121088109Y-38366823D01*
X121011919Y-38328728D01*
X120859538Y-38290633D01*
X120745252Y-38290633D01*
X120592871Y-38328728D01*
X120516680Y-38366823D01*
X120440490Y-38443014D01*
X120402395Y-38557300D01*
X120402395Y-38747776D01*
X123704300Y-39966823D02*
X123742395Y-40043014D01*
X123742395Y-40157300D01*
X123704300Y-40271585D01*
X123628109Y-40347776D01*
X123551919Y-40385871D01*
X123399538Y-40423966D01*
X123285252Y-40423966D01*
X123132871Y-40385871D01*
X123056680Y-40347776D01*
X122980490Y-40271585D01*
X122942395Y-40157300D01*
X122942395Y-40081109D01*
X122980490Y-39966823D01*
X123018585Y-39928728D01*
X123285252Y-39928728D01*
X123285252Y-40081109D01*
X122942395Y-39585871D02*
X123742395Y-39585871D01*
X122942395Y-39128728D01*
X123742395Y-39128728D01*
X122942395Y-38747776D02*
X123742395Y-38747776D01*
X123742395Y-38557300D01*
X123704300Y-38443014D01*
X123628109Y-38366823D01*
X123551919Y-38328728D01*
X123399538Y-38290633D01*
X123285252Y-38290633D01*
X123132871Y-38328728D01*
X123056680Y-38366823D01*
X122980490Y-38443014D01*
X122942395Y-38557300D01*
X122942395Y-38747776D01*
X125482395Y-39947776D02*
X126282395Y-39947776D01*
X126282395Y-39757300D01*
X126244300Y-39643014D01*
X126168109Y-39566823D01*
X126091919Y-39528728D01*
X125939538Y-39490633D01*
X125825252Y-39490633D01*
X125672871Y-39528728D01*
X125596680Y-39566823D01*
X125520490Y-39643014D01*
X125482395Y-39757300D01*
X125482395Y-39947776D01*
X125482395Y-38728728D02*
X125482395Y-39185871D01*
X125482395Y-38957300D02*
X126282395Y-38957300D01*
X126168109Y-39033490D01*
X126091919Y-39109680D01*
X126053823Y-39185871D01*
X128022395Y-39947776D02*
X128822395Y-39947776D01*
X128822395Y-39757300D01*
X128784300Y-39643014D01*
X128708109Y-39566823D01*
X128631919Y-39528728D01*
X128479538Y-39490633D01*
X128365252Y-39490633D01*
X128212871Y-39528728D01*
X128136680Y-39566823D01*
X128060490Y-39643014D01*
X128022395Y-39757300D01*
X128022395Y-39947776D01*
X128822395Y-38995395D02*
X128822395Y-38919204D01*
X128784300Y-38843014D01*
X128746204Y-38804919D01*
X128670014Y-38766823D01*
X128517633Y-38728728D01*
X128327157Y-38728728D01*
X128174776Y-38766823D01*
X128098585Y-38804919D01*
X128060490Y-38843014D01*
X128022395Y-38919204D01*
X128022395Y-38995395D01*
X128060490Y-39071585D01*
X128098585Y-39109680D01*
X128174776Y-39147776D01*
X128327157Y-39185871D01*
X128517633Y-39185871D01*
X128670014Y-39147776D01*
X128746204Y-39109680D01*
X128784300Y-39071585D01*
X128822395Y-38995395D01*
X117862395Y-39947776D02*
X118662395Y-39947776D01*
X118662395Y-39757300D01*
X118624300Y-39643014D01*
X118548109Y-39566823D01*
X118471919Y-39528728D01*
X118319538Y-39490633D01*
X118205252Y-39490633D01*
X118052871Y-39528728D01*
X117976680Y-39566823D01*
X117900490Y-39643014D01*
X117862395Y-39757300D01*
X117862395Y-39947776D01*
X118586204Y-39185871D02*
X118624300Y-39147776D01*
X118662395Y-39071585D01*
X118662395Y-38881109D01*
X118624300Y-38804919D01*
X118586204Y-38766823D01*
X118510014Y-38728728D01*
X118433823Y-38728728D01*
X118319538Y-38766823D01*
X117862395Y-39223966D01*
X117862395Y-38728728D01*
%TO.C,U1*%
X156141180Y-26946752D02*
X155141180Y-26946752D01*
X155141180Y-27327704D01*
X155188800Y-27422942D01*
X155236419Y-27470561D01*
X155331657Y-27518180D01*
X155474514Y-27518180D01*
X155569752Y-27470561D01*
X155617371Y-27422942D01*
X155664990Y-27327704D01*
X155664990Y-26946752D01*
X155141180Y-28232466D02*
X155855466Y-28232466D01*
X155998323Y-28184847D01*
X156093561Y-28089609D01*
X156141180Y-27946752D01*
X156141180Y-27851514D01*
X155760228Y-28708657D02*
X155760228Y-29470561D01*
X155141180Y-29851514D02*
X155141180Y-30470561D01*
X155522133Y-30137228D01*
X155522133Y-30280085D01*
X155569752Y-30375323D01*
X155617371Y-30422942D01*
X155712609Y-30470561D01*
X155950704Y-30470561D01*
X156045942Y-30422942D01*
X156093561Y-30375323D01*
X156141180Y-30280085D01*
X156141180Y-29994371D01*
X156093561Y-29899133D01*
X156045942Y-29851514D01*
X155236419Y-30851514D02*
X155188800Y-30899133D01*
X155141180Y-30994371D01*
X155141180Y-31232466D01*
X155188800Y-31327704D01*
X155236419Y-31375323D01*
X155331657Y-31422942D01*
X155426895Y-31422942D01*
X155569752Y-31375323D01*
X156141180Y-30803895D01*
X156141180Y-31422942D01*
X155141180Y-32041990D02*
X155141180Y-32137228D01*
X155188800Y-32232466D01*
X155236419Y-32280085D01*
X155331657Y-32327704D01*
X155522133Y-32375323D01*
X155760228Y-32375323D01*
X155950704Y-32327704D01*
X156045942Y-32280085D01*
X156093561Y-32232466D01*
X156141180Y-32137228D01*
X156141180Y-32041990D01*
X156093561Y-31946752D01*
X156045942Y-31899133D01*
X155950704Y-31851514D01*
X155760228Y-31803895D01*
X155522133Y-31803895D01*
X155331657Y-31851514D01*
X155236419Y-31899133D01*
X155188800Y-31946752D01*
X155141180Y-32041990D01*
X155855466Y-32756276D02*
X155855466Y-33232466D01*
X156141180Y-32661038D02*
X155141180Y-32994371D01*
X156141180Y-33327704D01*
%TO.C,SW23*%
X151471261Y-138093676D02*
X151518880Y-138236533D01*
X151518880Y-138474628D01*
X151471261Y-138569866D01*
X151423642Y-138617485D01*
X151328404Y-138665104D01*
X151233166Y-138665104D01*
X151137928Y-138617485D01*
X151090309Y-138569866D01*
X151042690Y-138474628D01*
X150995071Y-138284152D01*
X150947452Y-138188914D01*
X150899833Y-138141295D01*
X150804595Y-138093676D01*
X150709357Y-138093676D01*
X150614119Y-138141295D01*
X150566500Y-138188914D01*
X150518880Y-138284152D01*
X150518880Y-138522247D01*
X150566500Y-138665104D01*
X150518880Y-138998438D02*
X151518880Y-139236533D01*
X150804595Y-139427009D01*
X151518880Y-139617485D01*
X150518880Y-139855580D01*
X150614119Y-140188914D02*
X150566500Y-140236533D01*
X150518880Y-140331771D01*
X150518880Y-140569866D01*
X150566500Y-140665104D01*
X150614119Y-140712723D01*
X150709357Y-140760342D01*
X150804595Y-140760342D01*
X150947452Y-140712723D01*
X151518880Y-140141295D01*
X151518880Y-140760342D01*
X150518880Y-141093676D02*
X150518880Y-141712723D01*
X150899833Y-141379390D01*
X150899833Y-141522247D01*
X150947452Y-141617485D01*
X150995071Y-141665104D01*
X151090309Y-141712723D01*
X151328404Y-141712723D01*
X151423642Y-141665104D01*
X151471261Y-141617485D01*
X151518880Y-141522247D01*
X151518880Y-141236533D01*
X151471261Y-141141295D01*
X151423642Y-141093676D01*
%TO.C,SW22*%
X132421261Y-147618676D02*
X132468880Y-147761533D01*
X132468880Y-147999628D01*
X132421261Y-148094866D01*
X132373642Y-148142485D01*
X132278404Y-148190104D01*
X132183166Y-148190104D01*
X132087928Y-148142485D01*
X132040309Y-148094866D01*
X131992690Y-147999628D01*
X131945071Y-147809152D01*
X131897452Y-147713914D01*
X131849833Y-147666295D01*
X131754595Y-147618676D01*
X131659357Y-147618676D01*
X131564119Y-147666295D01*
X131516500Y-147713914D01*
X131468880Y-147809152D01*
X131468880Y-148047247D01*
X131516500Y-148190104D01*
X131468880Y-148523438D02*
X132468880Y-148761533D01*
X131754595Y-148952009D01*
X132468880Y-149142485D01*
X131468880Y-149380580D01*
X131564119Y-149713914D02*
X131516500Y-149761533D01*
X131468880Y-149856771D01*
X131468880Y-150094866D01*
X131516500Y-150190104D01*
X131564119Y-150237723D01*
X131659357Y-150285342D01*
X131754595Y-150285342D01*
X131897452Y-150237723D01*
X132468880Y-149666295D01*
X132468880Y-150285342D01*
X131564119Y-150666295D02*
X131516500Y-150713914D01*
X131468880Y-150809152D01*
X131468880Y-151047247D01*
X131516500Y-151142485D01*
X131564119Y-151190104D01*
X131659357Y-151237723D01*
X131754595Y-151237723D01*
X131897452Y-151190104D01*
X132468880Y-150618676D01*
X132468880Y-151237723D01*
%TO.C,SW21*%
X132421261Y-128568676D02*
X132468880Y-128711533D01*
X132468880Y-128949628D01*
X132421261Y-129044866D01*
X132373642Y-129092485D01*
X132278404Y-129140104D01*
X132183166Y-129140104D01*
X132087928Y-129092485D01*
X132040309Y-129044866D01*
X131992690Y-128949628D01*
X131945071Y-128759152D01*
X131897452Y-128663914D01*
X131849833Y-128616295D01*
X131754595Y-128568676D01*
X131659357Y-128568676D01*
X131564119Y-128616295D01*
X131516500Y-128663914D01*
X131468880Y-128759152D01*
X131468880Y-128997247D01*
X131516500Y-129140104D01*
X131468880Y-129473438D02*
X132468880Y-129711533D01*
X131754595Y-129902009D01*
X132468880Y-130092485D01*
X131468880Y-130330580D01*
X131564119Y-130663914D02*
X131516500Y-130711533D01*
X131468880Y-130806771D01*
X131468880Y-131044866D01*
X131516500Y-131140104D01*
X131564119Y-131187723D01*
X131659357Y-131235342D01*
X131754595Y-131235342D01*
X131897452Y-131187723D01*
X132468880Y-130616295D01*
X132468880Y-131235342D01*
X132468880Y-132187723D02*
X132468880Y-131616295D01*
X132468880Y-131902009D02*
X131468880Y-131902009D01*
X131611738Y-131806771D01*
X131706976Y-131711533D01*
X131754595Y-131616295D01*
%TO.C,SW20*%
X145256023Y-103909761D02*
X145113166Y-103957380D01*
X144875071Y-103957380D01*
X144779833Y-103909761D01*
X144732214Y-103862142D01*
X144684595Y-103766904D01*
X144684595Y-103671666D01*
X144732214Y-103576428D01*
X144779833Y-103528809D01*
X144875071Y-103481190D01*
X145065547Y-103433571D01*
X145160785Y-103385952D01*
X145208404Y-103338333D01*
X145256023Y-103243095D01*
X145256023Y-103147857D01*
X145208404Y-103052619D01*
X145160785Y-103005000D01*
X145065547Y-102957380D01*
X144827452Y-102957380D01*
X144684595Y-103005000D01*
X144351261Y-102957380D02*
X144113166Y-103957380D01*
X143922690Y-103243095D01*
X143732214Y-103957380D01*
X143494119Y-102957380D01*
X143160785Y-103052619D02*
X143113166Y-103005000D01*
X143017928Y-102957380D01*
X142779833Y-102957380D01*
X142684595Y-103005000D01*
X142636976Y-103052619D01*
X142589357Y-103147857D01*
X142589357Y-103243095D01*
X142636976Y-103385952D01*
X143208404Y-103957380D01*
X142589357Y-103957380D01*
X141970309Y-102957380D02*
X141875071Y-102957380D01*
X141779833Y-103005000D01*
X141732214Y-103052619D01*
X141684595Y-103147857D01*
X141636976Y-103338333D01*
X141636976Y-103576428D01*
X141684595Y-103766904D01*
X141732214Y-103862142D01*
X141779833Y-103909761D01*
X141875071Y-103957380D01*
X141970309Y-103957380D01*
X142065547Y-103909761D01*
X142113166Y-103862142D01*
X142160785Y-103766904D01*
X142208404Y-103576428D01*
X142208404Y-103338333D01*
X142160785Y-103147857D01*
X142113166Y-103052619D01*
X142065547Y-103005000D01*
X141970309Y-102957380D01*
%TO.C,SW19*%
X126206023Y-103909761D02*
X126063166Y-103957380D01*
X125825071Y-103957380D01*
X125729833Y-103909761D01*
X125682214Y-103862142D01*
X125634595Y-103766904D01*
X125634595Y-103671666D01*
X125682214Y-103576428D01*
X125729833Y-103528809D01*
X125825071Y-103481190D01*
X126015547Y-103433571D01*
X126110785Y-103385952D01*
X126158404Y-103338333D01*
X126206023Y-103243095D01*
X126206023Y-103147857D01*
X126158404Y-103052619D01*
X126110785Y-103005000D01*
X126015547Y-102957380D01*
X125777452Y-102957380D01*
X125634595Y-103005000D01*
X125301261Y-102957380D02*
X125063166Y-103957380D01*
X124872690Y-103243095D01*
X124682214Y-103957380D01*
X124444119Y-102957380D01*
X123539357Y-103957380D02*
X124110785Y-103957380D01*
X123825071Y-103957380D02*
X123825071Y-102957380D01*
X123920309Y-103100238D01*
X124015547Y-103195476D01*
X124110785Y-103243095D01*
X123063166Y-103957380D02*
X122872690Y-103957380D01*
X122777452Y-103909761D01*
X122729833Y-103862142D01*
X122634595Y-103719285D01*
X122586976Y-103528809D01*
X122586976Y-103147857D01*
X122634595Y-103052619D01*
X122682214Y-103005000D01*
X122777452Y-102957380D01*
X122967928Y-102957380D01*
X123063166Y-103005000D01*
X123110785Y-103052619D01*
X123158404Y-103147857D01*
X123158404Y-103385952D01*
X123110785Y-103481190D01*
X123063166Y-103528809D01*
X122967928Y-103576428D01*
X122777452Y-103576428D01*
X122682214Y-103528809D01*
X122634595Y-103481190D01*
X122586976Y-103385952D01*
%TO.C,SW18*%
X107156023Y-103909761D02*
X107013166Y-103957380D01*
X106775071Y-103957380D01*
X106679833Y-103909761D01*
X106632214Y-103862142D01*
X106584595Y-103766904D01*
X106584595Y-103671666D01*
X106632214Y-103576428D01*
X106679833Y-103528809D01*
X106775071Y-103481190D01*
X106965547Y-103433571D01*
X107060785Y-103385952D01*
X107108404Y-103338333D01*
X107156023Y-103243095D01*
X107156023Y-103147857D01*
X107108404Y-103052619D01*
X107060785Y-103005000D01*
X106965547Y-102957380D01*
X106727452Y-102957380D01*
X106584595Y-103005000D01*
X106251261Y-102957380D02*
X106013166Y-103957380D01*
X105822690Y-103243095D01*
X105632214Y-103957380D01*
X105394119Y-102957380D01*
X104489357Y-103957380D02*
X105060785Y-103957380D01*
X104775071Y-103957380D02*
X104775071Y-102957380D01*
X104870309Y-103100238D01*
X104965547Y-103195476D01*
X105060785Y-103243095D01*
X103917928Y-103385952D02*
X104013166Y-103338333D01*
X104060785Y-103290714D01*
X104108404Y-103195476D01*
X104108404Y-103147857D01*
X104060785Y-103052619D01*
X104013166Y-103005000D01*
X103917928Y-102957380D01*
X103727452Y-102957380D01*
X103632214Y-103005000D01*
X103584595Y-103052619D01*
X103536976Y-103147857D01*
X103536976Y-103195476D01*
X103584595Y-103290714D01*
X103632214Y-103338333D01*
X103727452Y-103385952D01*
X103917928Y-103385952D01*
X104013166Y-103433571D01*
X104060785Y-103481190D01*
X104108404Y-103576428D01*
X104108404Y-103766904D01*
X104060785Y-103862142D01*
X104013166Y-103909761D01*
X103917928Y-103957380D01*
X103727452Y-103957380D01*
X103632214Y-103909761D01*
X103584595Y-103862142D01*
X103536976Y-103766904D01*
X103536976Y-103576428D01*
X103584595Y-103481190D01*
X103632214Y-103433571D01*
X103727452Y-103385952D01*
%TO.C,SW17*%
X192881023Y-87399761D02*
X192738166Y-87447380D01*
X192500071Y-87447380D01*
X192404833Y-87399761D01*
X192357214Y-87352142D01*
X192309595Y-87256904D01*
X192309595Y-87161666D01*
X192357214Y-87066428D01*
X192404833Y-87018809D01*
X192500071Y-86971190D01*
X192690547Y-86923571D01*
X192785785Y-86875952D01*
X192833404Y-86828333D01*
X192881023Y-86733095D01*
X192881023Y-86637857D01*
X192833404Y-86542619D01*
X192785785Y-86495000D01*
X192690547Y-86447380D01*
X192452452Y-86447380D01*
X192309595Y-86495000D01*
X191976261Y-86447380D02*
X191738166Y-87447380D01*
X191547690Y-86733095D01*
X191357214Y-87447380D01*
X191119119Y-86447380D01*
X190214357Y-87447380D02*
X190785785Y-87447380D01*
X190500071Y-87447380D02*
X190500071Y-86447380D01*
X190595309Y-86590238D01*
X190690547Y-86685476D01*
X190785785Y-86733095D01*
X189881023Y-86447380D02*
X189214357Y-86447380D01*
X189642928Y-87447380D01*
%TO.C,SW16*%
X173831023Y-87399761D02*
X173688166Y-87447380D01*
X173450071Y-87447380D01*
X173354833Y-87399761D01*
X173307214Y-87352142D01*
X173259595Y-87256904D01*
X173259595Y-87161666D01*
X173307214Y-87066428D01*
X173354833Y-87018809D01*
X173450071Y-86971190D01*
X173640547Y-86923571D01*
X173735785Y-86875952D01*
X173783404Y-86828333D01*
X173831023Y-86733095D01*
X173831023Y-86637857D01*
X173783404Y-86542619D01*
X173735785Y-86495000D01*
X173640547Y-86447380D01*
X173402452Y-86447380D01*
X173259595Y-86495000D01*
X172926261Y-86447380D02*
X172688166Y-87447380D01*
X172497690Y-86733095D01*
X172307214Y-87447380D01*
X172069119Y-86447380D01*
X171164357Y-87447380D02*
X171735785Y-87447380D01*
X171450071Y-87447380D02*
X171450071Y-86447380D01*
X171545309Y-86590238D01*
X171640547Y-86685476D01*
X171735785Y-86733095D01*
X170307214Y-86447380D02*
X170497690Y-86447380D01*
X170592928Y-86495000D01*
X170640547Y-86542619D01*
X170735785Y-86685476D01*
X170783404Y-86875952D01*
X170783404Y-87256904D01*
X170735785Y-87352142D01*
X170688166Y-87399761D01*
X170592928Y-87447380D01*
X170402452Y-87447380D01*
X170307214Y-87399761D01*
X170259595Y-87352142D01*
X170211976Y-87256904D01*
X170211976Y-87018809D01*
X170259595Y-86923571D01*
X170307214Y-86875952D01*
X170402452Y-86828333D01*
X170592928Y-86828333D01*
X170688166Y-86875952D01*
X170735785Y-86923571D01*
X170783404Y-87018809D01*
%TO.C,SW15*%
X154781023Y-87399761D02*
X154638166Y-87447380D01*
X154400071Y-87447380D01*
X154304833Y-87399761D01*
X154257214Y-87352142D01*
X154209595Y-87256904D01*
X154209595Y-87161666D01*
X154257214Y-87066428D01*
X154304833Y-87018809D01*
X154400071Y-86971190D01*
X154590547Y-86923571D01*
X154685785Y-86875952D01*
X154733404Y-86828333D01*
X154781023Y-86733095D01*
X154781023Y-86637857D01*
X154733404Y-86542619D01*
X154685785Y-86495000D01*
X154590547Y-86447380D01*
X154352452Y-86447380D01*
X154209595Y-86495000D01*
X153876261Y-86447380D02*
X153638166Y-87447380D01*
X153447690Y-86733095D01*
X153257214Y-87447380D01*
X153019119Y-86447380D01*
X152114357Y-87447380D02*
X152685785Y-87447380D01*
X152400071Y-87447380D02*
X152400071Y-86447380D01*
X152495309Y-86590238D01*
X152590547Y-86685476D01*
X152685785Y-86733095D01*
X151209595Y-86447380D02*
X151685785Y-86447380D01*
X151733404Y-86923571D01*
X151685785Y-86875952D01*
X151590547Y-86828333D01*
X151352452Y-86828333D01*
X151257214Y-86875952D01*
X151209595Y-86923571D01*
X151161976Y-87018809D01*
X151161976Y-87256904D01*
X151209595Y-87352142D01*
X151257214Y-87399761D01*
X151352452Y-87447380D01*
X151590547Y-87447380D01*
X151685785Y-87399761D01*
X151733404Y-87352142D01*
%TO.C,SW14*%
X135731023Y-87399761D02*
X135588166Y-87447380D01*
X135350071Y-87447380D01*
X135254833Y-87399761D01*
X135207214Y-87352142D01*
X135159595Y-87256904D01*
X135159595Y-87161666D01*
X135207214Y-87066428D01*
X135254833Y-87018809D01*
X135350071Y-86971190D01*
X135540547Y-86923571D01*
X135635785Y-86875952D01*
X135683404Y-86828333D01*
X135731023Y-86733095D01*
X135731023Y-86637857D01*
X135683404Y-86542619D01*
X135635785Y-86495000D01*
X135540547Y-86447380D01*
X135302452Y-86447380D01*
X135159595Y-86495000D01*
X134826261Y-86447380D02*
X134588166Y-87447380D01*
X134397690Y-86733095D01*
X134207214Y-87447380D01*
X133969119Y-86447380D01*
X133064357Y-87447380D02*
X133635785Y-87447380D01*
X133350071Y-87447380D02*
X133350071Y-86447380D01*
X133445309Y-86590238D01*
X133540547Y-86685476D01*
X133635785Y-86733095D01*
X132207214Y-86780714D02*
X132207214Y-87447380D01*
X132445309Y-86399761D02*
X132683404Y-87114047D01*
X132064357Y-87114047D01*
%TO.C,SW13*%
X116681023Y-87399761D02*
X116538166Y-87447380D01*
X116300071Y-87447380D01*
X116204833Y-87399761D01*
X116157214Y-87352142D01*
X116109595Y-87256904D01*
X116109595Y-87161666D01*
X116157214Y-87066428D01*
X116204833Y-87018809D01*
X116300071Y-86971190D01*
X116490547Y-86923571D01*
X116585785Y-86875952D01*
X116633404Y-86828333D01*
X116681023Y-86733095D01*
X116681023Y-86637857D01*
X116633404Y-86542619D01*
X116585785Y-86495000D01*
X116490547Y-86447380D01*
X116252452Y-86447380D01*
X116109595Y-86495000D01*
X115776261Y-86447380D02*
X115538166Y-87447380D01*
X115347690Y-86733095D01*
X115157214Y-87447380D01*
X114919119Y-86447380D01*
X114014357Y-87447380D02*
X114585785Y-87447380D01*
X114300071Y-87447380D02*
X114300071Y-86447380D01*
X114395309Y-86590238D01*
X114490547Y-86685476D01*
X114585785Y-86733095D01*
X113681023Y-86447380D02*
X113061976Y-86447380D01*
X113395309Y-86828333D01*
X113252452Y-86828333D01*
X113157214Y-86875952D01*
X113109595Y-86923571D01*
X113061976Y-87018809D01*
X113061976Y-87256904D01*
X113109595Y-87352142D01*
X113157214Y-87399761D01*
X113252452Y-87447380D01*
X113538166Y-87447380D01*
X113633404Y-87399761D01*
X113681023Y-87352142D01*
%TO.C,SW12*%
X97631023Y-87399761D02*
X97488166Y-87447380D01*
X97250071Y-87447380D01*
X97154833Y-87399761D01*
X97107214Y-87352142D01*
X97059595Y-87256904D01*
X97059595Y-87161666D01*
X97107214Y-87066428D01*
X97154833Y-87018809D01*
X97250071Y-86971190D01*
X97440547Y-86923571D01*
X97535785Y-86875952D01*
X97583404Y-86828333D01*
X97631023Y-86733095D01*
X97631023Y-86637857D01*
X97583404Y-86542619D01*
X97535785Y-86495000D01*
X97440547Y-86447380D01*
X97202452Y-86447380D01*
X97059595Y-86495000D01*
X96726261Y-86447380D02*
X96488166Y-87447380D01*
X96297690Y-86733095D01*
X96107214Y-87447380D01*
X95869119Y-86447380D01*
X94964357Y-87447380D02*
X95535785Y-87447380D01*
X95250071Y-87447380D02*
X95250071Y-86447380D01*
X95345309Y-86590238D01*
X95440547Y-86685476D01*
X95535785Y-86733095D01*
X94583404Y-86542619D02*
X94535785Y-86495000D01*
X94440547Y-86447380D01*
X94202452Y-86447380D01*
X94107214Y-86495000D01*
X94059595Y-86542619D01*
X94011976Y-86637857D01*
X94011976Y-86733095D01*
X94059595Y-86875952D01*
X94631023Y-87447380D01*
X94011976Y-87447380D01*
%TO.C,SW11*%
X202406023Y-70889761D02*
X202263166Y-70937380D01*
X202025071Y-70937380D01*
X201929833Y-70889761D01*
X201882214Y-70842142D01*
X201834595Y-70746904D01*
X201834595Y-70651666D01*
X201882214Y-70556428D01*
X201929833Y-70508809D01*
X202025071Y-70461190D01*
X202215547Y-70413571D01*
X202310785Y-70365952D01*
X202358404Y-70318333D01*
X202406023Y-70223095D01*
X202406023Y-70127857D01*
X202358404Y-70032619D01*
X202310785Y-69985000D01*
X202215547Y-69937380D01*
X201977452Y-69937380D01*
X201834595Y-69985000D01*
X201501261Y-69937380D02*
X201263166Y-70937380D01*
X201072690Y-70223095D01*
X200882214Y-70937380D01*
X200644119Y-69937380D01*
X199739357Y-70937380D02*
X200310785Y-70937380D01*
X200025071Y-70937380D02*
X200025071Y-69937380D01*
X200120309Y-70080238D01*
X200215547Y-70175476D01*
X200310785Y-70223095D01*
X198786976Y-70937380D02*
X199358404Y-70937380D01*
X199072690Y-70937380D02*
X199072690Y-69937380D01*
X199167928Y-70080238D01*
X199263166Y-70175476D01*
X199358404Y-70223095D01*
%TO.C,SW10*%
X183356023Y-70889761D02*
X183213166Y-70937380D01*
X182975071Y-70937380D01*
X182879833Y-70889761D01*
X182832214Y-70842142D01*
X182784595Y-70746904D01*
X182784595Y-70651666D01*
X182832214Y-70556428D01*
X182879833Y-70508809D01*
X182975071Y-70461190D01*
X183165547Y-70413571D01*
X183260785Y-70365952D01*
X183308404Y-70318333D01*
X183356023Y-70223095D01*
X183356023Y-70127857D01*
X183308404Y-70032619D01*
X183260785Y-69985000D01*
X183165547Y-69937380D01*
X182927452Y-69937380D01*
X182784595Y-69985000D01*
X182451261Y-69937380D02*
X182213166Y-70937380D01*
X182022690Y-70223095D01*
X181832214Y-70937380D01*
X181594119Y-69937380D01*
X180689357Y-70937380D02*
X181260785Y-70937380D01*
X180975071Y-70937380D02*
X180975071Y-69937380D01*
X181070309Y-70080238D01*
X181165547Y-70175476D01*
X181260785Y-70223095D01*
X180070309Y-69937380D02*
X179975071Y-69937380D01*
X179879833Y-69985000D01*
X179832214Y-70032619D01*
X179784595Y-70127857D01*
X179736976Y-70318333D01*
X179736976Y-70556428D01*
X179784595Y-70746904D01*
X179832214Y-70842142D01*
X179879833Y-70889761D01*
X179975071Y-70937380D01*
X180070309Y-70937380D01*
X180165547Y-70889761D01*
X180213166Y-70842142D01*
X180260785Y-70746904D01*
X180308404Y-70556428D01*
X180308404Y-70318333D01*
X180260785Y-70127857D01*
X180213166Y-70032619D01*
X180165547Y-69985000D01*
X180070309Y-69937380D01*
%TO.C,SW9*%
X163829833Y-70889761D02*
X163686976Y-70937380D01*
X163448880Y-70937380D01*
X163353642Y-70889761D01*
X163306023Y-70842142D01*
X163258404Y-70746904D01*
X163258404Y-70651666D01*
X163306023Y-70556428D01*
X163353642Y-70508809D01*
X163448880Y-70461190D01*
X163639357Y-70413571D01*
X163734595Y-70365952D01*
X163782214Y-70318333D01*
X163829833Y-70223095D01*
X163829833Y-70127857D01*
X163782214Y-70032619D01*
X163734595Y-69985000D01*
X163639357Y-69937380D01*
X163401261Y-69937380D01*
X163258404Y-69985000D01*
X162925071Y-69937380D02*
X162686976Y-70937380D01*
X162496500Y-70223095D01*
X162306023Y-70937380D01*
X162067928Y-69937380D01*
X161639357Y-70937380D02*
X161448880Y-70937380D01*
X161353642Y-70889761D01*
X161306023Y-70842142D01*
X161210785Y-70699285D01*
X161163166Y-70508809D01*
X161163166Y-70127857D01*
X161210785Y-70032619D01*
X161258404Y-69985000D01*
X161353642Y-69937380D01*
X161544119Y-69937380D01*
X161639357Y-69985000D01*
X161686976Y-70032619D01*
X161734595Y-70127857D01*
X161734595Y-70365952D01*
X161686976Y-70461190D01*
X161639357Y-70508809D01*
X161544119Y-70556428D01*
X161353642Y-70556428D01*
X161258404Y-70508809D01*
X161210785Y-70461190D01*
X161163166Y-70365952D01*
%TO.C,SW8*%
X144779833Y-70889761D02*
X144636976Y-70937380D01*
X144398880Y-70937380D01*
X144303642Y-70889761D01*
X144256023Y-70842142D01*
X144208404Y-70746904D01*
X144208404Y-70651666D01*
X144256023Y-70556428D01*
X144303642Y-70508809D01*
X144398880Y-70461190D01*
X144589357Y-70413571D01*
X144684595Y-70365952D01*
X144732214Y-70318333D01*
X144779833Y-70223095D01*
X144779833Y-70127857D01*
X144732214Y-70032619D01*
X144684595Y-69985000D01*
X144589357Y-69937380D01*
X144351261Y-69937380D01*
X144208404Y-69985000D01*
X143875071Y-69937380D02*
X143636976Y-70937380D01*
X143446500Y-70223095D01*
X143256023Y-70937380D01*
X143017928Y-69937380D01*
X142494119Y-70365952D02*
X142589357Y-70318333D01*
X142636976Y-70270714D01*
X142684595Y-70175476D01*
X142684595Y-70127857D01*
X142636976Y-70032619D01*
X142589357Y-69985000D01*
X142494119Y-69937380D01*
X142303642Y-69937380D01*
X142208404Y-69985000D01*
X142160785Y-70032619D01*
X142113166Y-70127857D01*
X142113166Y-70175476D01*
X142160785Y-70270714D01*
X142208404Y-70318333D01*
X142303642Y-70365952D01*
X142494119Y-70365952D01*
X142589357Y-70413571D01*
X142636976Y-70461190D01*
X142684595Y-70556428D01*
X142684595Y-70746904D01*
X142636976Y-70842142D01*
X142589357Y-70889761D01*
X142494119Y-70937380D01*
X142303642Y-70937380D01*
X142208404Y-70889761D01*
X142160785Y-70842142D01*
X142113166Y-70746904D01*
X142113166Y-70556428D01*
X142160785Y-70461190D01*
X142208404Y-70413571D01*
X142303642Y-70365952D01*
%TO.C,SW7*%
X125729833Y-70889761D02*
X125586976Y-70937380D01*
X125348880Y-70937380D01*
X125253642Y-70889761D01*
X125206023Y-70842142D01*
X125158404Y-70746904D01*
X125158404Y-70651666D01*
X125206023Y-70556428D01*
X125253642Y-70508809D01*
X125348880Y-70461190D01*
X125539357Y-70413571D01*
X125634595Y-70365952D01*
X125682214Y-70318333D01*
X125729833Y-70223095D01*
X125729833Y-70127857D01*
X125682214Y-70032619D01*
X125634595Y-69985000D01*
X125539357Y-69937380D01*
X125301261Y-69937380D01*
X125158404Y-69985000D01*
X124825071Y-69937380D02*
X124586976Y-70937380D01*
X124396500Y-70223095D01*
X124206023Y-70937380D01*
X123967928Y-69937380D01*
X123682214Y-69937380D02*
X123015547Y-69937380D01*
X123444119Y-70937380D01*
%TO.C,SW6*%
X106679833Y-70889761D02*
X106536976Y-70937380D01*
X106298880Y-70937380D01*
X106203642Y-70889761D01*
X106156023Y-70842142D01*
X106108404Y-70746904D01*
X106108404Y-70651666D01*
X106156023Y-70556428D01*
X106203642Y-70508809D01*
X106298880Y-70461190D01*
X106489357Y-70413571D01*
X106584595Y-70365952D01*
X106632214Y-70318333D01*
X106679833Y-70223095D01*
X106679833Y-70127857D01*
X106632214Y-70032619D01*
X106584595Y-69985000D01*
X106489357Y-69937380D01*
X106251261Y-69937380D01*
X106108404Y-69985000D01*
X105775071Y-69937380D02*
X105536976Y-70937380D01*
X105346500Y-70223095D01*
X105156023Y-70937380D01*
X104917928Y-69937380D01*
X104108404Y-69937380D02*
X104298880Y-69937380D01*
X104394119Y-69985000D01*
X104441738Y-70032619D01*
X104536976Y-70175476D01*
X104584595Y-70365952D01*
X104584595Y-70746904D01*
X104536976Y-70842142D01*
X104489357Y-70889761D01*
X104394119Y-70937380D01*
X104203642Y-70937380D01*
X104108404Y-70889761D01*
X104060785Y-70842142D01*
X104013166Y-70746904D01*
X104013166Y-70508809D01*
X104060785Y-70413571D01*
X104108404Y-70365952D01*
X104203642Y-70318333D01*
X104394119Y-70318333D01*
X104489357Y-70365952D01*
X104536976Y-70413571D01*
X104584595Y-70508809D01*
%TO.C,SW5*%
X192404833Y-54379761D02*
X192261976Y-54427380D01*
X192023880Y-54427380D01*
X191928642Y-54379761D01*
X191881023Y-54332142D01*
X191833404Y-54236904D01*
X191833404Y-54141666D01*
X191881023Y-54046428D01*
X191928642Y-53998809D01*
X192023880Y-53951190D01*
X192214357Y-53903571D01*
X192309595Y-53855952D01*
X192357214Y-53808333D01*
X192404833Y-53713095D01*
X192404833Y-53617857D01*
X192357214Y-53522619D01*
X192309595Y-53475000D01*
X192214357Y-53427380D01*
X191976261Y-53427380D01*
X191833404Y-53475000D01*
X191500071Y-53427380D02*
X191261976Y-54427380D01*
X191071500Y-53713095D01*
X190881023Y-54427380D01*
X190642928Y-53427380D01*
X189785785Y-53427380D02*
X190261976Y-53427380D01*
X190309595Y-53903571D01*
X190261976Y-53855952D01*
X190166738Y-53808333D01*
X189928642Y-53808333D01*
X189833404Y-53855952D01*
X189785785Y-53903571D01*
X189738166Y-53998809D01*
X189738166Y-54236904D01*
X189785785Y-54332142D01*
X189833404Y-54379761D01*
X189928642Y-54427380D01*
X190166738Y-54427380D01*
X190261976Y-54379761D01*
X190309595Y-54332142D01*
%TO.C,SW4*%
X173354833Y-54379761D02*
X173211976Y-54427380D01*
X172973880Y-54427380D01*
X172878642Y-54379761D01*
X172831023Y-54332142D01*
X172783404Y-54236904D01*
X172783404Y-54141666D01*
X172831023Y-54046428D01*
X172878642Y-53998809D01*
X172973880Y-53951190D01*
X173164357Y-53903571D01*
X173259595Y-53855952D01*
X173307214Y-53808333D01*
X173354833Y-53713095D01*
X173354833Y-53617857D01*
X173307214Y-53522619D01*
X173259595Y-53475000D01*
X173164357Y-53427380D01*
X172926261Y-53427380D01*
X172783404Y-53475000D01*
X172450071Y-53427380D02*
X172211976Y-54427380D01*
X172021500Y-53713095D01*
X171831023Y-54427380D01*
X171592928Y-53427380D01*
X170783404Y-53760714D02*
X170783404Y-54427380D01*
X171021500Y-53379761D02*
X171259595Y-54094047D01*
X170640547Y-54094047D01*
%TO.C,SW3*%
X154304833Y-54379761D02*
X154161976Y-54427380D01*
X153923880Y-54427380D01*
X153828642Y-54379761D01*
X153781023Y-54332142D01*
X153733404Y-54236904D01*
X153733404Y-54141666D01*
X153781023Y-54046428D01*
X153828642Y-53998809D01*
X153923880Y-53951190D01*
X154114357Y-53903571D01*
X154209595Y-53855952D01*
X154257214Y-53808333D01*
X154304833Y-53713095D01*
X154304833Y-53617857D01*
X154257214Y-53522619D01*
X154209595Y-53475000D01*
X154114357Y-53427380D01*
X153876261Y-53427380D01*
X153733404Y-53475000D01*
X153400071Y-53427380D02*
X153161976Y-54427380D01*
X152971500Y-53713095D01*
X152781023Y-54427380D01*
X152542928Y-53427380D01*
X152257214Y-53427380D02*
X151638166Y-53427380D01*
X151971500Y-53808333D01*
X151828642Y-53808333D01*
X151733404Y-53855952D01*
X151685785Y-53903571D01*
X151638166Y-53998809D01*
X151638166Y-54236904D01*
X151685785Y-54332142D01*
X151733404Y-54379761D01*
X151828642Y-54427380D01*
X152114357Y-54427380D01*
X152209595Y-54379761D01*
X152257214Y-54332142D01*
%TO.C,SW2*%
X135254833Y-54379761D02*
X135111976Y-54427380D01*
X134873880Y-54427380D01*
X134778642Y-54379761D01*
X134731023Y-54332142D01*
X134683404Y-54236904D01*
X134683404Y-54141666D01*
X134731023Y-54046428D01*
X134778642Y-53998809D01*
X134873880Y-53951190D01*
X135064357Y-53903571D01*
X135159595Y-53855952D01*
X135207214Y-53808333D01*
X135254833Y-53713095D01*
X135254833Y-53617857D01*
X135207214Y-53522619D01*
X135159595Y-53475000D01*
X135064357Y-53427380D01*
X134826261Y-53427380D01*
X134683404Y-53475000D01*
X134350071Y-53427380D02*
X134111976Y-54427380D01*
X133921500Y-53713095D01*
X133731023Y-54427380D01*
X133492928Y-53427380D01*
X133159595Y-53522619D02*
X133111976Y-53475000D01*
X133016738Y-53427380D01*
X132778642Y-53427380D01*
X132683404Y-53475000D01*
X132635785Y-53522619D01*
X132588166Y-53617857D01*
X132588166Y-53713095D01*
X132635785Y-53855952D01*
X133207214Y-54427380D01*
X132588166Y-54427380D01*
%TO.C,SW1*%
X116204833Y-54379761D02*
X116061976Y-54427380D01*
X115823880Y-54427380D01*
X115728642Y-54379761D01*
X115681023Y-54332142D01*
X115633404Y-54236904D01*
X115633404Y-54141666D01*
X115681023Y-54046428D01*
X115728642Y-53998809D01*
X115823880Y-53951190D01*
X116014357Y-53903571D01*
X116109595Y-53855952D01*
X116157214Y-53808333D01*
X116204833Y-53713095D01*
X116204833Y-53617857D01*
X116157214Y-53522619D01*
X116109595Y-53475000D01*
X116014357Y-53427380D01*
X115776261Y-53427380D01*
X115633404Y-53475000D01*
X115300071Y-53427380D02*
X115061976Y-54427380D01*
X114871500Y-53713095D01*
X114681023Y-54427380D01*
X114442928Y-53427380D01*
X113538166Y-54427380D02*
X114109595Y-54427380D01*
X113823880Y-54427380D02*
X113823880Y-53427380D01*
X113919119Y-53570238D01*
X114014357Y-53665476D01*
X114109595Y-53713095D01*
%TD*%
M02*
