%TF.GenerationSoftware,KiCad,Pcbnew,5.1.10-88a1d61d58~88~ubuntu20.04.1*%
%TF.CreationDate,2021-05-20T13:35:29+01:00*%
%TF.ProjectId,scrawler,73637261-776c-4657-922e-6b696361645f,rev?*%
%TF.SameCoordinates,Original*%
%TF.FileFunction,Profile,NP*%
%FSLAX46Y46*%
G04 Gerber Fmt 4.6, Leading zero omitted, Abs format (unit mm)*
G04 Created by KiCad (PCBNEW 5.1.10-88a1d61d58~88~ubuntu20.04.1) date 2021-05-20 13:35:29*
%MOMM*%
%LPD*%
G01*
G04 APERTURE LIST*
%TA.AperFunction,Profile*%
%ADD10C,0.050000*%
%TD*%
G04 APERTURE END LIST*
D10*
X168910000Y-43180000D02*
X168910000Y-27940000D01*
X172720000Y-46990000D02*
G75*
G02*
X168910000Y-43180000I0J3810000D01*
G01*
X212090000Y-46990000D02*
X172720000Y-46990000D01*
X212090000Y-46990000D02*
G75*
G02*
X215900000Y-50800000I0J-3810000D01*
G01*
X215900000Y-97790000D02*
X215900000Y-50800000D01*
X215900000Y-97790000D02*
G75*
G02*
X212090000Y-101600000I-3810000J0D01*
G01*
X168910000Y-101600000D02*
X212090000Y-101600000D01*
X165100000Y-105410000D02*
G75*
G02*
X168910000Y-101600000I3810000J0D01*
G01*
X165100000Y-152400000D02*
X165100000Y-105410000D01*
X165100000Y-152400000D02*
G75*
G02*
X161290000Y-156210000I-3810000J0D01*
G01*
X128270000Y-156210000D02*
X161290000Y-156210000D01*
X128270000Y-156210000D02*
G75*
G02*
X124460000Y-152400000I0J3810000D01*
G01*
X124460000Y-123190000D02*
X124460000Y-152400000D01*
X120650000Y-119380000D02*
G75*
G02*
X124460000Y-123190000I0J-3810000D01*
G01*
X92710000Y-119380000D02*
X120650000Y-119380000D01*
X92710000Y-119380000D02*
G75*
G02*
X88900000Y-115570000I0J3810000D01*
G01*
X88900000Y-83820000D02*
X88900000Y-115570000D01*
X88900000Y-83820000D02*
G75*
G02*
X92710000Y-80010000I3810000J0D01*
G01*
X96520000Y-80010000D02*
X92710000Y-80010000D01*
X97790000Y-78740000D02*
G75*
G02*
X96520000Y-80010000I-1270000J0D01*
G01*
X97777300Y-57150000D02*
X97790000Y-78740000D01*
X97777300Y-57150000D02*
G75*
G02*
X101600000Y-53327300I3822700J0D01*
G01*
X106680000Y-53340000D02*
X101600000Y-53327300D01*
X107950000Y-52070000D02*
G75*
G02*
X106680000Y-53340000I-1270000J0D01*
G01*
X107950000Y-27940000D02*
X107950000Y-52070000D01*
X107950000Y-27940000D02*
G75*
G02*
X111760000Y-24130000I3810000J0D01*
G01*
X165100000Y-24130000D02*
X111760000Y-24130000D01*
X165100000Y-24130000D02*
G75*
G02*
X168910000Y-27940000I0J-3810000D01*
G01*
M02*
