%TF.GenerationSoftware,KiCad,Pcbnew,5.1.10-88a1d61d58~88~ubuntu20.04.1*%
%TF.CreationDate,2021-05-20T13:35:29+01:00*%
%TF.ProjectId,scrawler,73637261-776c-4657-922e-6b696361645f,rev?*%
%TF.SameCoordinates,Original*%
%TF.FileFunction,Copper,L1,Top*%
%TF.FilePolarity,Positive*%
%FSLAX46Y46*%
G04 Gerber Fmt 4.6, Leading zero omitted, Abs format (unit mm)*
G04 Created by KiCad (PCBNEW 5.1.10-88a1d61d58~88~ubuntu20.04.1) date 2021-05-20 13:35:29*
%MOMM*%
%LPD*%
G01*
G04 APERTURE LIST*
%TA.AperFunction,ComponentPad*%
%ADD10C,6.500000*%
%TD*%
%TA.AperFunction,ComponentPad*%
%ADD11C,1.651000*%
%TD*%
%TA.AperFunction,ComponentPad*%
%ADD12C,1.752600*%
%TD*%
%TA.AperFunction,ComponentPad*%
%ADD13R,1.752600X1.752600*%
%TD*%
%TA.AperFunction,ComponentPad*%
%ADD14O,1.600000X2.200000*%
%TD*%
%TA.AperFunction,SMDPad,CuDef*%
%ADD15R,2.600000X2.600000*%
%TD*%
%TA.AperFunction,ComponentPad*%
%ADD16R,1.651000X1.651000*%
%TD*%
%TA.AperFunction,ViaPad*%
%ADD17C,0.800000*%
%TD*%
%TA.AperFunction,Conductor*%
%ADD18C,0.254000*%
%TD*%
%TA.AperFunction,Conductor*%
%ADD19C,0.100000*%
%TD*%
G04 APERTURE END LIST*
D10*
%TO.P,H5,*%
%TO.N,*%
X149631400Y-43421300D03*
%TD*%
D11*
%TO.P,R2,2*%
%TO.N,SCL*%
X160896300Y-38150800D03*
%TO.P,R2,1*%
%TO.N,VCC*%
X160896300Y-27990800D03*
%TD*%
%TO.P,R1,2*%
%TO.N,SDA*%
X165417500Y-38163500D03*
%TO.P,R1,1*%
%TO.N,VCC*%
X165417500Y-28003500D03*
%TD*%
D12*
%TO.P,U2,24*%
%TO.N,Net-(U2-Pad24)*%
X115684300Y-26276300D03*
%TO.P,U2,12*%
%TO.N,COL5*%
X143624300Y-41516300D03*
%TO.P,U2,23*%
%TO.N,GND*%
X118224300Y-26276300D03*
%TO.P,U2,22*%
%TO.N,RESET*%
X120764300Y-26276300D03*
%TO.P,U2,21*%
%TO.N,VCC*%
X123304300Y-26276300D03*
%TO.P,U2,20*%
%TO.N,Net-(U2-Pad20)*%
X125844300Y-26276300D03*
%TO.P,U2,19*%
%TO.N,Net-(U2-Pad19)*%
X128384300Y-26276300D03*
%TO.P,U2,18*%
%TO.N,Net-(U2-Pad18)*%
X130924300Y-26276300D03*
%TO.P,U2,17*%
%TO.N,ROW4*%
X133464300Y-26276300D03*
%TO.P,U2,16*%
%TO.N,ROW3*%
X136004300Y-26276300D03*
%TO.P,U2,15*%
%TO.N,ROW2*%
X138544300Y-26276300D03*
%TO.P,U2,14*%
%TO.N,ROW1*%
X141084300Y-26276300D03*
%TO.P,U2,13*%
%TO.N,ROW0*%
X143624300Y-26276300D03*
%TO.P,U2,11*%
%TO.N,COL4*%
X141084300Y-41516300D03*
%TO.P,U2,10*%
%TO.N,COL3*%
X138544300Y-41516300D03*
%TO.P,U2,9*%
%TO.N,COL2*%
X136004300Y-41516300D03*
%TO.P,U2,8*%
%TO.N,COL1*%
X133464300Y-41516300D03*
%TO.P,U2,7*%
%TO.N,COL0*%
X130924300Y-41516300D03*
%TO.P,U2,6*%
%TO.N,SCL*%
X128384300Y-41516300D03*
%TO.P,U2,5*%
%TO.N,SDA*%
X125844300Y-41516300D03*
%TO.P,U2,4*%
%TO.N,GND*%
X123304300Y-41516300D03*
%TO.P,U2,3*%
X120764300Y-41516300D03*
%TO.P,U2,2*%
%TO.N,Net-(U2-Pad2)*%
X118224300Y-41516300D03*
D13*
%TO.P,U2,1*%
%TO.N,Net-(U2-Pad1)*%
X115684300Y-41516300D03*
%TD*%
D10*
%TO.P,H6,*%
%TO.N,*%
X210731100Y-51968400D03*
%TD*%
%TO.P,H4,*%
%TO.N,*%
X94094300Y-114046000D03*
%TD*%
%TO.P,H3,*%
%TO.N,*%
X102781100Y-58204100D03*
%TD*%
%TO.P,H2,*%
%TO.N,*%
X159308800Y-150990300D03*
%TD*%
%TO.P,H1,*%
%TO.N,*%
X160731200Y-114236500D03*
%TD*%
D14*
%TO.P,U1,3*%
%TO.N,GND*%
X151688800Y-31015800D03*
%TO.P,U1,4*%
%TO.N,VCC*%
X151688800Y-28015800D03*
%TO.P,U1,2*%
%TO.N,SDA*%
X151688800Y-35015800D03*
%TO.P,U1,1*%
%TO.N,SCL*%
X147088800Y-36115800D03*
X156288800Y-36115800D03*
%TD*%
D15*
%TO.P,SW23,1*%
%TO.N,Net-(D23-Pad2)*%
X158921500Y-138733200D03*
%TO.P,SW23,2*%
%TO.N,COL2*%
X156721500Y-127183200D03*
%TD*%
%TO.P,SW22,1*%
%TO.N,Net-(D22-Pad2)*%
X139871500Y-148258200D03*
%TO.P,SW22,2*%
%TO.N,COL1*%
X137671500Y-136708200D03*
%TD*%
%TO.P,SW21,1*%
%TO.N,Net-(D21-Pad2)*%
X139871500Y-129208200D03*
%TO.P,SW21,2*%
%TO.N,COL0*%
X137671500Y-117658200D03*
%TD*%
%TO.P,SW20,1*%
%TO.N,Net-(D20-Pad2)*%
X144616500Y-111360000D03*
%TO.P,SW20,2*%
%TO.N,COL2*%
X156166500Y-109160000D03*
%TD*%
%TO.P,SW19,1*%
%TO.N,Net-(D19-Pad2)*%
X125566500Y-111360000D03*
%TO.P,SW19,2*%
%TO.N,COL1*%
X137116500Y-109160000D03*
%TD*%
%TO.P,SW18,1*%
%TO.N,Net-(D18-Pad2)*%
X106516500Y-111360000D03*
%TO.P,SW18,2*%
%TO.N,COL0*%
X118066500Y-109160000D03*
%TD*%
%TO.P,SW17,1*%
%TO.N,Net-(D17-Pad2)*%
X192241500Y-94850000D03*
%TO.P,SW17,2*%
%TO.N,COL5*%
X203791500Y-92650000D03*
%TD*%
%TO.P,SW16,1*%
%TO.N,Net-(D16-Pad2)*%
X173191500Y-94850000D03*
%TO.P,SW16,2*%
%TO.N,COL4*%
X184741500Y-92650000D03*
%TD*%
%TO.P,SW15,1*%
%TO.N,Net-(D15-Pad2)*%
X154141500Y-94850000D03*
%TO.P,SW15,2*%
%TO.N,COL3*%
X165691500Y-92650000D03*
%TD*%
%TO.P,SW14,1*%
%TO.N,Net-(D14-Pad2)*%
X135091500Y-94850000D03*
%TO.P,SW14,2*%
%TO.N,COL2*%
X146641500Y-92650000D03*
%TD*%
%TO.P,SW13,1*%
%TO.N,Net-(D13-Pad2)*%
X116041500Y-94850000D03*
%TO.P,SW13,2*%
%TO.N,COL1*%
X127591500Y-92650000D03*
%TD*%
%TO.P,SW12,1*%
%TO.N,Net-(D12-Pad2)*%
X96991500Y-94850000D03*
%TO.P,SW12,2*%
%TO.N,COL0*%
X108541500Y-92650000D03*
%TD*%
%TO.P,SW11,1*%
%TO.N,Net-(D11-Pad2)*%
X201766500Y-78340000D03*
%TO.P,SW11,2*%
%TO.N,COL5*%
X213316500Y-76140000D03*
%TD*%
%TO.P,SW10,1*%
%TO.N,Net-(D10-Pad2)*%
X182716500Y-78340000D03*
%TO.P,SW10,2*%
%TO.N,COL4*%
X194266500Y-76140000D03*
%TD*%
%TO.P,SW9,1*%
%TO.N,Net-(D9-Pad2)*%
X163666500Y-78340000D03*
%TO.P,SW9,2*%
%TO.N,COL3*%
X175216500Y-76140000D03*
%TD*%
%TO.P,SW8,1*%
%TO.N,Net-(D8-Pad2)*%
X144616500Y-78340000D03*
%TO.P,SW8,2*%
%TO.N,COL2*%
X156166500Y-76140000D03*
%TD*%
%TO.P,SW7,1*%
%TO.N,Net-(D7-Pad2)*%
X125566500Y-78340000D03*
%TO.P,SW7,2*%
%TO.N,COL1*%
X137116500Y-76140000D03*
%TD*%
%TO.P,SW6,1*%
%TO.N,Net-(D6-Pad2)*%
X106516500Y-78340000D03*
%TO.P,SW6,2*%
%TO.N,COL0*%
X118066500Y-76140000D03*
%TD*%
%TO.P,SW5,1*%
%TO.N,Net-(D5-Pad2)*%
X192241500Y-61830000D03*
%TO.P,SW5,2*%
%TO.N,COL4*%
X203791500Y-59630000D03*
%TD*%
%TO.P,SW4,1*%
%TO.N,Net-(D4-Pad2)*%
X173191500Y-61830000D03*
%TO.P,SW4,2*%
%TO.N,COL3*%
X184741500Y-59630000D03*
%TD*%
%TO.P,SW3,1*%
%TO.N,Net-(D3-Pad2)*%
X154141500Y-61830000D03*
%TO.P,SW3,2*%
%TO.N,COL2*%
X165691500Y-59630000D03*
%TD*%
%TO.P,SW2,1*%
%TO.N,Net-(D2-Pad2)*%
X135091500Y-61830000D03*
%TO.P,SW2,2*%
%TO.N,COL1*%
X146641500Y-59630000D03*
%TD*%
%TO.P,SW1,1*%
%TO.N,Net-(D1-Pad2)*%
X116041500Y-61830000D03*
%TO.P,SW1,2*%
%TO.N,COL0*%
X127591500Y-59630000D03*
%TD*%
D16*
%TO.P,D23,2*%
%TO.N,Net-(D23-Pad2)*%
X162433000Y-135572500D03*
D11*
%TO.P,D23,1*%
%TO.N,ROW4*%
X162433000Y-127952500D03*
%TD*%
D16*
%TO.P,D22,2*%
%TO.N,Net-(D22-Pad2)*%
X143319500Y-145034000D03*
D11*
%TO.P,D22,1*%
%TO.N,ROW4*%
X143319500Y-137414000D03*
%TD*%
D16*
%TO.P,D21,2*%
%TO.N,Net-(D21-Pad2)*%
X143383000Y-125984000D03*
D11*
%TO.P,D21,1*%
%TO.N,ROW4*%
X143383000Y-133604000D03*
%TD*%
D16*
%TO.P,D20,2*%
%TO.N,Net-(D20-Pad2)*%
X147828000Y-114617500D03*
D11*
%TO.P,D20,1*%
%TO.N,ROW3*%
X140208000Y-114617500D03*
%TD*%
D16*
%TO.P,D19,2*%
%TO.N,Net-(D19-Pad2)*%
X128778000Y-114554000D03*
D11*
%TO.P,D19,1*%
%TO.N,ROW3*%
X121158000Y-114554000D03*
%TD*%
D16*
%TO.P,D18,2*%
%TO.N,Net-(D18-Pad2)*%
X109855000Y-114554000D03*
D11*
%TO.P,D18,1*%
%TO.N,ROW3*%
X117475000Y-114554000D03*
%TD*%
D16*
%TO.P,D17,2*%
%TO.N,Net-(D17-Pad2)*%
X195516500Y-98488500D03*
D11*
%TO.P,D17,1*%
%TO.N,ROW2*%
X187896500Y-98488500D03*
%TD*%
D16*
%TO.P,D16,2*%
%TO.N,Net-(D16-Pad2)*%
X176466500Y-98234500D03*
D11*
%TO.P,D16,1*%
%TO.N,ROW2*%
X168846500Y-98234500D03*
%TD*%
D16*
%TO.P,D15,2*%
%TO.N,Net-(D15-Pad2)*%
X157416500Y-97853500D03*
D11*
%TO.P,D15,1*%
%TO.N,ROW2*%
X157416500Y-105473500D03*
%TD*%
D16*
%TO.P,D14,2*%
%TO.N,Net-(D14-Pad2)*%
X138366500Y-98552000D03*
D11*
%TO.P,D14,1*%
%TO.N,ROW2*%
X138366500Y-106172000D03*
%TD*%
D16*
%TO.P,D13,2*%
%TO.N,Net-(D13-Pad2)*%
X119316500Y-98615500D03*
D11*
%TO.P,D13,1*%
%TO.N,ROW2*%
X119316500Y-106235500D03*
%TD*%
D16*
%TO.P,D12,2*%
%TO.N,Net-(D12-Pad2)*%
X100266500Y-98615500D03*
D11*
%TO.P,D12,1*%
%TO.N,ROW2*%
X100266500Y-106235500D03*
%TD*%
D16*
%TO.P,D11,2*%
%TO.N,Net-(D11-Pad2)*%
X205041500Y-82359500D03*
D11*
%TO.P,D11,1*%
%TO.N,ROW1*%
X205041500Y-89979500D03*
%TD*%
D16*
%TO.P,D10,2*%
%TO.N,Net-(D10-Pad2)*%
X185991500Y-82232500D03*
D11*
%TO.P,D10,1*%
%TO.N,ROW1*%
X185991500Y-89852500D03*
%TD*%
D16*
%TO.P,D9,2*%
%TO.N,Net-(D9-Pad2)*%
X166941500Y-82232500D03*
D11*
%TO.P,D9,1*%
%TO.N,ROW1*%
X166941500Y-89852500D03*
%TD*%
D16*
%TO.P,D8,2*%
%TO.N,Net-(D8-Pad2)*%
X147891500Y-82391250D03*
D11*
%TO.P,D8,1*%
%TO.N,ROW1*%
X147891500Y-90011250D03*
%TD*%
D16*
%TO.P,D7,2*%
%TO.N,Net-(D7-Pad2)*%
X128841500Y-82232500D03*
D11*
%TO.P,D7,1*%
%TO.N,ROW1*%
X128841500Y-89852500D03*
%TD*%
D16*
%TO.P,D6,2*%
%TO.N,Net-(D6-Pad2)*%
X109791500Y-82232500D03*
D11*
%TO.P,D6,1*%
%TO.N,ROW1*%
X109791500Y-89852500D03*
%TD*%
D16*
%TO.P,D5,2*%
%TO.N,Net-(D5-Pad2)*%
X195516500Y-65595500D03*
D11*
%TO.P,D5,1*%
%TO.N,ROW0*%
X195516500Y-73215500D03*
%TD*%
D16*
%TO.P,D4,2*%
%TO.N,Net-(D4-Pad2)*%
X176466500Y-65595500D03*
D11*
%TO.P,D4,1*%
%TO.N,ROW0*%
X176466500Y-73215500D03*
%TD*%
D16*
%TO.P,D3,2*%
%TO.N,Net-(D3-Pad2)*%
X157416500Y-65595500D03*
D11*
%TO.P,D3,1*%
%TO.N,ROW0*%
X157416500Y-73215500D03*
%TD*%
D16*
%TO.P,D2,2*%
%TO.N,Net-(D2-Pad2)*%
X138366500Y-65595500D03*
D11*
%TO.P,D2,1*%
%TO.N,ROW0*%
X138366500Y-73215500D03*
%TD*%
D16*
%TO.P,D1,2*%
%TO.N,Net-(D1-Pad2)*%
X119316500Y-65595500D03*
D11*
%TO.P,D1,1*%
%TO.N,ROW0*%
X119316500Y-73215500D03*
%TD*%
D17*
%TO.N,COL0*%
X118066500Y-76140000D03*
X127591500Y-59630000D03*
X108541500Y-92650000D03*
X118066500Y-109160000D03*
X137671500Y-117658200D03*
%TO.N,COL1*%
X137116500Y-76140000D03*
X146641500Y-59630000D03*
X127591500Y-92650000D03*
X137116500Y-109160000D03*
X137671500Y-136708200D03*
%TO.N,COL2*%
X156166500Y-76140000D03*
X165691500Y-59630000D03*
X146641500Y-92650000D03*
X156166500Y-109160000D03*
X156721500Y-127183200D03*
%TO.N,COL3*%
X175216500Y-76140000D03*
X184741500Y-59630000D03*
X165691500Y-92650000D03*
%TO.N,COL4*%
X194266500Y-76140000D03*
X203791500Y-59630000D03*
X184741500Y-92650000D03*
%TO.N,COL5*%
X213316500Y-76140000D03*
X203791500Y-92650000D03*
%TD*%
D18*
%TO.N,Net-(D1-Pad2)*%
X116041500Y-62320500D02*
X119316500Y-65595500D01*
X116041500Y-61830000D02*
X116041500Y-62320500D01*
%TO.N,ROW0*%
X119316500Y-73215500D02*
X123063000Y-69469000D01*
X134620000Y-69469000D02*
X138366500Y-73215500D01*
X123063000Y-69469000D02*
X134620000Y-69469000D01*
X138366500Y-73215500D02*
X142303500Y-69278500D01*
X153479500Y-69278500D02*
X157416500Y-73215500D01*
X142303500Y-69278500D02*
X153479500Y-69278500D01*
X157416500Y-73215500D02*
X161226500Y-69405500D01*
X172656500Y-69405500D02*
X176466500Y-73215500D01*
X161226500Y-69405500D02*
X172656500Y-69405500D01*
X176466500Y-73215500D02*
X180340000Y-69342000D01*
X191643000Y-69342000D02*
X195516500Y-73215500D01*
X180340000Y-69342000D02*
X191643000Y-69342000D01*
X142659100Y-39827200D02*
X143624300Y-38862000D01*
X115032198Y-39827200D02*
X142659100Y-39827200D01*
X143624300Y-38862000D02*
X143624300Y-26276300D01*
X112489499Y-42369899D02*
X115032198Y-39827200D01*
X112489499Y-67555932D02*
X112489499Y-42369899D01*
X118149067Y-73215500D02*
X112489499Y-67555932D01*
X119316500Y-73215500D02*
X118149067Y-73215500D01*
%TO.N,Net-(D2-Pad2)*%
X135091500Y-62320500D02*
X138366500Y-65595500D01*
X135091500Y-61830000D02*
X135091500Y-62320500D01*
%TO.N,Net-(D3-Pad2)*%
X154141500Y-62320500D02*
X157416500Y-65595500D01*
X154141500Y-61830000D02*
X154141500Y-62320500D01*
%TO.N,Net-(D4-Pad2)*%
X173191500Y-62320500D02*
X176466500Y-65595500D01*
X173191500Y-61830000D02*
X173191500Y-62320500D01*
%TO.N,Net-(D5-Pad2)*%
X192241500Y-62320500D02*
X195516500Y-65595500D01*
X192241500Y-61830000D02*
X192241500Y-62320500D01*
%TO.N,Net-(D6-Pad2)*%
X106516500Y-78957500D02*
X109791500Y-82232500D01*
X106516500Y-78340000D02*
X106516500Y-78957500D01*
%TO.N,ROW1*%
X109791500Y-89852500D02*
X113792000Y-85852000D01*
X124841000Y-85852000D02*
X128841500Y-89852500D01*
X113792000Y-85852000D02*
X124841000Y-85852000D01*
X128841500Y-89852500D02*
X132778500Y-85915500D01*
X143795750Y-85915500D02*
X147891500Y-90011250D01*
X132778500Y-85915500D02*
X143795750Y-85915500D01*
X147891500Y-90011250D02*
X151860250Y-86042500D01*
X163131500Y-86042500D02*
X166941500Y-89852500D01*
X151860250Y-86042500D02*
X163131500Y-86042500D01*
X166941500Y-89852500D02*
X170751500Y-86042500D01*
X182181500Y-86042500D02*
X185991500Y-89852500D01*
X170751500Y-86042500D02*
X182181500Y-86042500D01*
X185991500Y-89852500D02*
X190055500Y-85788500D01*
X200850500Y-85788500D02*
X205041500Y-89979500D01*
X190055500Y-85788500D02*
X200850500Y-85788500D01*
X141084300Y-38290500D02*
X141084300Y-26276300D01*
X111760000Y-42316400D02*
X114884200Y-39192200D01*
X111760000Y-62928500D02*
X111760000Y-42316400D01*
X140182600Y-39192200D02*
X141084300Y-38290500D01*
X102964499Y-71724001D02*
X111760000Y-62928500D01*
X102964499Y-84192932D02*
X102964499Y-71724001D01*
X114884200Y-39192200D02*
X140182600Y-39192200D01*
X108624067Y-89852500D02*
X102964499Y-84192932D01*
X109791500Y-89852500D02*
X108624067Y-89852500D01*
%TO.N,Net-(D7-Pad2)*%
X125566500Y-78957500D02*
X128841500Y-82232500D01*
X125566500Y-78340000D02*
X125566500Y-78957500D01*
%TO.N,Net-(D8-Pad2)*%
X144616500Y-79116250D02*
X147891500Y-82391250D01*
X144616500Y-78340000D02*
X144616500Y-79116250D01*
%TO.N,Net-(D9-Pad2)*%
X163666500Y-78957500D02*
X166941500Y-82232500D01*
X163666500Y-78340000D02*
X163666500Y-78957500D01*
%TO.N,Net-(D10-Pad2)*%
X182716500Y-78957500D02*
X185991500Y-82232500D01*
X182716500Y-78340000D02*
X182716500Y-78957500D01*
%TO.N,Net-(D11-Pad2)*%
X201766500Y-78340000D02*
X202292000Y-78340000D01*
X201766500Y-79084500D02*
X205041500Y-82359500D01*
X201766500Y-78340000D02*
X201766500Y-79084500D01*
%TO.N,Net-(D12-Pad2)*%
X96991500Y-95340500D02*
X100266500Y-98615500D01*
X96991500Y-94850000D02*
X96991500Y-95340500D01*
%TO.N,ROW2*%
X187896500Y-98488500D02*
X186563000Y-99822000D01*
X170434000Y-99822000D02*
X168846500Y-98234500D01*
X186563000Y-99822000D02*
X170434000Y-99822000D01*
X168846500Y-98234500D02*
X160337500Y-98234500D01*
X160337500Y-98234500D02*
X159321500Y-99250500D01*
X159321500Y-103568500D02*
X157416500Y-105473500D01*
X159321500Y-99250500D02*
X159321500Y-103568500D01*
X157416500Y-105473500D02*
X154495500Y-102552500D01*
X141986000Y-102552500D02*
X138366500Y-106172000D01*
X154495500Y-102552500D02*
X141986000Y-102552500D01*
X138366500Y-106172000D02*
X134683500Y-102489000D01*
X123063000Y-102489000D02*
X119316500Y-106235500D01*
X134683500Y-102489000D02*
X123063000Y-102489000D01*
X119316500Y-106235500D02*
X115443000Y-102362000D01*
X104140000Y-102362000D02*
X100266500Y-106235500D01*
X115443000Y-102362000D02*
X104140000Y-102362000D01*
X138544300Y-37896800D02*
X138544300Y-26276300D01*
X137871200Y-38569900D02*
X138544300Y-37896800D01*
X114693700Y-38569900D02*
X137871200Y-38569900D01*
X110998000Y-42265600D02*
X114693700Y-38569900D01*
X110998000Y-60546494D02*
X110998000Y-42265600D01*
X102308001Y-69236493D02*
X110998000Y-60546494D01*
X102308001Y-104193999D02*
X102308001Y-69236493D01*
X100266500Y-106235500D02*
X102308001Y-104193999D01*
%TO.N,Net-(D13-Pad2)*%
X116041500Y-95340500D02*
X119316500Y-98615500D01*
X116041500Y-94850000D02*
X116041500Y-95340500D01*
%TO.N,Net-(D14-Pad2)*%
X135091500Y-95277000D02*
X138366500Y-98552000D01*
X135091500Y-94850000D02*
X135091500Y-95277000D01*
%TO.N,Net-(D15-Pad2)*%
X154141500Y-94850000D02*
X154141500Y-95277000D01*
X154413000Y-94850000D02*
X157416500Y-97853500D01*
X154141500Y-94850000D02*
X154413000Y-94850000D01*
%TO.N,Net-(D16-Pad2)*%
X173191500Y-94959500D02*
X176466500Y-98234500D01*
X173191500Y-94850000D02*
X173191500Y-94959500D01*
%TO.N,Net-(D17-Pad2)*%
X192241500Y-95213500D02*
X195516500Y-98488500D01*
X192241500Y-94850000D02*
X192241500Y-95213500D01*
%TO.N,Net-(D18-Pad2)*%
X106516500Y-111360000D02*
X106516500Y-111723500D01*
X106661000Y-111360000D02*
X109855000Y-114554000D01*
X106516500Y-111360000D02*
X106661000Y-111360000D01*
%TO.N,ROW3*%
X117475000Y-114554000D02*
X121158000Y-114554000D01*
X139118999Y-115706501D02*
X130609999Y-115706501D01*
X140208000Y-114617500D02*
X139118999Y-115706501D01*
X130609999Y-115706501D02*
X130175000Y-116141500D01*
X122745500Y-116141500D02*
X121158000Y-114554000D01*
X130175000Y-116141500D02*
X122745500Y-116141500D01*
X136004300Y-37452300D02*
X136004300Y-26276300D01*
X115912900Y-116116100D02*
X107010200Y-116116100D01*
X107010200Y-116116100D02*
X98412300Y-107518200D01*
X98412300Y-99459402D02*
X93230700Y-94277802D01*
X110210600Y-59982100D02*
X110210600Y-42176700D01*
X98412300Y-107518200D02*
X98412300Y-99459402D01*
X135534400Y-37922200D02*
X136004300Y-37452300D01*
X93230700Y-94277802D02*
X93230700Y-88692506D01*
X93230700Y-88692506D02*
X101549200Y-80374006D01*
X101549200Y-80374006D02*
X101549200Y-68643500D01*
X101549200Y-68643500D02*
X110210600Y-59982100D01*
X110210600Y-42176700D02*
X114465100Y-37922200D01*
X117475000Y-114554000D02*
X115912900Y-116116100D01*
X114465100Y-37922200D02*
X135534400Y-37922200D01*
%TO.N,Net-(D19-Pad2)*%
X125566500Y-111360000D02*
X125566500Y-112358500D01*
X125584000Y-111360000D02*
X128778000Y-114554000D01*
X125566500Y-111360000D02*
X125584000Y-111360000D01*
%TO.N,Net-(D20-Pad2)*%
X144616500Y-111406000D02*
X147828000Y-114617500D01*
X144616500Y-111360000D02*
X144616500Y-111406000D01*
%TO.N,Net-(D21-Pad2)*%
X140158800Y-129208200D02*
X143383000Y-125984000D01*
X139871500Y-129208200D02*
X140158800Y-129208200D01*
%TO.N,ROW4*%
X143319500Y-133667500D02*
X143383000Y-133604000D01*
X143319500Y-137414000D02*
X143319500Y-133667500D01*
X143570301Y-133416699D02*
X143383000Y-133604000D01*
X156968801Y-133416699D02*
X143570301Y-133416699D01*
X162433000Y-127952500D02*
X156968801Y-133416699D01*
X109512100Y-42087800D02*
X114325400Y-37274500D01*
X133464300Y-36830000D02*
X133464300Y-26276300D01*
X109512100Y-59410600D02*
X109512100Y-42087800D01*
X143383000Y-133604000D02*
X130955294Y-133604000D01*
X130955294Y-133604000D02*
X127228600Y-129877306D01*
X127228600Y-129877306D02*
X127228600Y-118046500D01*
X100838000Y-68084700D02*
X109512100Y-59410600D01*
X114325400Y-37274500D02*
X133019800Y-37274500D01*
X126250700Y-117068600D02*
X106972100Y-117068600D01*
X106972100Y-117068600D02*
X97612200Y-107708700D01*
X133019800Y-37274500D02*
X133464300Y-36830000D01*
X97586800Y-99580700D02*
X92621100Y-94615000D01*
X97612200Y-107708700D02*
X97612200Y-99580700D01*
X97612200Y-99580700D02*
X97586800Y-99580700D01*
X92621100Y-88342406D02*
X100838000Y-80125506D01*
X92621100Y-94615000D02*
X92621100Y-88342406D01*
X127228600Y-118046500D02*
X126250700Y-117068600D01*
X100838000Y-80125506D02*
X100838000Y-68084700D01*
%TO.N,Net-(D22-Pad2)*%
X140031800Y-148258200D02*
X143256000Y-145034000D01*
X139871500Y-148258200D02*
X140031800Y-148258200D01*
%TO.N,Net-(D23-Pad2)*%
X159399300Y-138733200D02*
X162623500Y-135509000D01*
X158921500Y-138733200D02*
X159399300Y-138733200D01*
%TO.N,COL2*%
X156166500Y-126628200D02*
X156721500Y-127183200D01*
X156166500Y-109160000D02*
X156166500Y-126628200D01*
%TD*%
%TO.N,GND*%
X165711222Y-24853096D02*
X166299164Y-25030606D01*
X166841436Y-25318937D01*
X167317364Y-25707094D01*
X167708845Y-26180314D01*
X168000951Y-26720552D01*
X168182563Y-27307244D01*
X168250001Y-27948888D01*
X168250000Y-43212418D01*
X168252975Y-43242626D01*
X168252809Y-43266416D01*
X168253709Y-43275587D01*
X168331433Y-44015095D01*
X168343458Y-44073675D01*
X168354670Y-44132453D01*
X168357334Y-44141274D01*
X168577217Y-44851601D01*
X168600392Y-44906731D01*
X168622806Y-44962210D01*
X168627133Y-44970346D01*
X168980799Y-45624437D01*
X169014244Y-45674021D01*
X169047004Y-45724084D01*
X169052828Y-45731225D01*
X169526805Y-46304165D01*
X169569241Y-46346305D01*
X169611104Y-46389055D01*
X169618205Y-46394928D01*
X170020716Y-46723208D01*
X151693313Y-46716023D01*
X152107943Y-46438977D01*
X152649077Y-45897843D01*
X153074242Y-45261538D01*
X153367102Y-44554513D01*
X153516400Y-43803939D01*
X153516400Y-43038661D01*
X153367102Y-42288087D01*
X153074242Y-41581062D01*
X152649077Y-40944757D01*
X152107943Y-40403623D01*
X151471638Y-39978458D01*
X150764613Y-39685598D01*
X150014039Y-39536300D01*
X149248761Y-39536300D01*
X148498187Y-39685598D01*
X147791162Y-39978458D01*
X147154857Y-40403623D01*
X146613723Y-40944757D01*
X146188558Y-41581062D01*
X145895698Y-42288087D01*
X145746400Y-43038661D01*
X145746400Y-43803939D01*
X145895698Y-44554513D01*
X146188558Y-45261538D01*
X146613723Y-45897843D01*
X147154857Y-46438977D01*
X147567066Y-46714406D01*
X113251499Y-46700954D01*
X113251499Y-42685529D01*
X114169928Y-41767100D01*
X114169928Y-42392600D01*
X114182188Y-42517082D01*
X114218498Y-42636780D01*
X114277463Y-42747094D01*
X114356815Y-42843785D01*
X114453506Y-42923137D01*
X114563820Y-42982102D01*
X114683518Y-43018412D01*
X114808000Y-43030672D01*
X116560600Y-43030672D01*
X116685082Y-43018412D01*
X116804780Y-42982102D01*
X116915094Y-42923137D01*
X117011785Y-42843785D01*
X117091137Y-42747094D01*
X117150102Y-42636780D01*
X117163456Y-42592758D01*
X117260902Y-42690204D01*
X117508431Y-42855597D01*
X117783470Y-42969522D01*
X118075450Y-43027600D01*
X118373150Y-43027600D01*
X118665130Y-42969522D01*
X118940169Y-42855597D01*
X119187698Y-42690204D01*
X119314433Y-42563469D01*
X119896737Y-42563469D01*
X119977554Y-42815229D01*
X120246079Y-42943757D01*
X120534519Y-43017429D01*
X120831791Y-43033413D01*
X121126467Y-42991096D01*
X121407227Y-42892102D01*
X121551046Y-42815229D01*
X121631863Y-42563469D01*
X122436737Y-42563469D01*
X122517554Y-42815229D01*
X122786079Y-42943757D01*
X123074519Y-43017429D01*
X123371791Y-43033413D01*
X123666467Y-42991096D01*
X123947227Y-42892102D01*
X124091046Y-42815229D01*
X124171863Y-42563469D01*
X123304300Y-41695905D01*
X122436737Y-42563469D01*
X121631863Y-42563469D01*
X120764300Y-41695905D01*
X119896737Y-42563469D01*
X119314433Y-42563469D01*
X119398204Y-42479698D01*
X119507255Y-42316491D01*
X119717131Y-42383863D01*
X120584695Y-41516300D01*
X120570552Y-41502158D01*
X120750158Y-41322552D01*
X120764300Y-41336695D01*
X120778442Y-41322552D01*
X120958048Y-41502158D01*
X120943905Y-41516300D01*
X121811469Y-42383863D01*
X122034300Y-42312332D01*
X122257131Y-42383863D01*
X123124695Y-41516300D01*
X123110552Y-41502158D01*
X123290158Y-41322552D01*
X123304300Y-41336695D01*
X123318442Y-41322552D01*
X123498048Y-41502158D01*
X123483905Y-41516300D01*
X124351469Y-42383863D01*
X124561345Y-42316491D01*
X124670396Y-42479698D01*
X124880902Y-42690204D01*
X125128431Y-42855597D01*
X125403470Y-42969522D01*
X125695450Y-43027600D01*
X125993150Y-43027600D01*
X126285130Y-42969522D01*
X126560169Y-42855597D01*
X126807698Y-42690204D01*
X127018204Y-42479698D01*
X127114300Y-42335880D01*
X127210396Y-42479698D01*
X127420902Y-42690204D01*
X127668431Y-42855597D01*
X127943470Y-42969522D01*
X128235450Y-43027600D01*
X128533150Y-43027600D01*
X128825130Y-42969522D01*
X129100169Y-42855597D01*
X129347698Y-42690204D01*
X129558204Y-42479698D01*
X129654300Y-42335880D01*
X129750396Y-42479698D01*
X129960902Y-42690204D01*
X130208431Y-42855597D01*
X130483470Y-42969522D01*
X130775450Y-43027600D01*
X131073150Y-43027600D01*
X131365130Y-42969522D01*
X131640169Y-42855597D01*
X131887698Y-42690204D01*
X132098204Y-42479698D01*
X132194300Y-42335880D01*
X132290396Y-42479698D01*
X132500902Y-42690204D01*
X132748431Y-42855597D01*
X133023470Y-42969522D01*
X133315450Y-43027600D01*
X133613150Y-43027600D01*
X133905130Y-42969522D01*
X134180169Y-42855597D01*
X134427698Y-42690204D01*
X134638204Y-42479698D01*
X134734300Y-42335880D01*
X134830396Y-42479698D01*
X135040902Y-42690204D01*
X135288431Y-42855597D01*
X135563470Y-42969522D01*
X135855450Y-43027600D01*
X136153150Y-43027600D01*
X136445130Y-42969522D01*
X136720169Y-42855597D01*
X136967698Y-42690204D01*
X137178204Y-42479698D01*
X137274300Y-42335880D01*
X137370396Y-42479698D01*
X137580902Y-42690204D01*
X137828431Y-42855597D01*
X138103470Y-42969522D01*
X138395450Y-43027600D01*
X138693150Y-43027600D01*
X138985130Y-42969522D01*
X139260169Y-42855597D01*
X139507698Y-42690204D01*
X139718204Y-42479698D01*
X139814300Y-42335880D01*
X139910396Y-42479698D01*
X140120902Y-42690204D01*
X140368431Y-42855597D01*
X140643470Y-42969522D01*
X140935450Y-43027600D01*
X141233150Y-43027600D01*
X141525130Y-42969522D01*
X141800169Y-42855597D01*
X142047698Y-42690204D01*
X142258204Y-42479698D01*
X142354300Y-42335880D01*
X142450396Y-42479698D01*
X142660902Y-42690204D01*
X142908431Y-42855597D01*
X143183470Y-42969522D01*
X143475450Y-43027600D01*
X143773150Y-43027600D01*
X144065130Y-42969522D01*
X144340169Y-42855597D01*
X144587698Y-42690204D01*
X144798204Y-42479698D01*
X144963597Y-42232169D01*
X145077522Y-41957130D01*
X145135600Y-41665150D01*
X145135600Y-41367450D01*
X145077522Y-41075470D01*
X144963597Y-40800431D01*
X144798204Y-40552902D01*
X144587698Y-40342396D01*
X144340169Y-40177003D01*
X144065130Y-40063078D01*
X143773150Y-40005000D01*
X143558930Y-40005000D01*
X144136653Y-39427278D01*
X144165722Y-39403422D01*
X144216476Y-39341578D01*
X144260945Y-39287393D01*
X144304159Y-39206545D01*
X144331702Y-39155015D01*
X144375274Y-39011378D01*
X144386300Y-38899426D01*
X144386300Y-38899423D01*
X144389986Y-38862000D01*
X144386300Y-38824577D01*
X144386300Y-38006953D01*
X159435800Y-38006953D01*
X159435800Y-38294647D01*
X159491926Y-38576812D01*
X159602021Y-38842606D01*
X159761855Y-39081815D01*
X159965285Y-39285245D01*
X160204494Y-39445079D01*
X160470288Y-39555174D01*
X160752453Y-39611300D01*
X161040147Y-39611300D01*
X161322312Y-39555174D01*
X161588106Y-39445079D01*
X161827315Y-39285245D01*
X162030745Y-39081815D01*
X162190579Y-38842606D01*
X162300674Y-38576812D01*
X162356800Y-38294647D01*
X162356800Y-38019653D01*
X163957000Y-38019653D01*
X163957000Y-38307347D01*
X164013126Y-38589512D01*
X164123221Y-38855306D01*
X164283055Y-39094515D01*
X164486485Y-39297945D01*
X164725694Y-39457779D01*
X164991488Y-39567874D01*
X165273653Y-39624000D01*
X165561347Y-39624000D01*
X165843512Y-39567874D01*
X166109306Y-39457779D01*
X166348515Y-39297945D01*
X166551945Y-39094515D01*
X166711779Y-38855306D01*
X166821874Y-38589512D01*
X166878000Y-38307347D01*
X166878000Y-38019653D01*
X166821874Y-37737488D01*
X166711779Y-37471694D01*
X166551945Y-37232485D01*
X166348515Y-37029055D01*
X166109306Y-36869221D01*
X165843512Y-36759126D01*
X165561347Y-36703000D01*
X165273653Y-36703000D01*
X164991488Y-36759126D01*
X164725694Y-36869221D01*
X164486485Y-37029055D01*
X164283055Y-37232485D01*
X164123221Y-37471694D01*
X164013126Y-37737488D01*
X163957000Y-38019653D01*
X162356800Y-38019653D01*
X162356800Y-38006953D01*
X162300674Y-37724788D01*
X162190579Y-37458994D01*
X162030745Y-37219785D01*
X161827315Y-37016355D01*
X161588106Y-36856521D01*
X161322312Y-36746426D01*
X161040147Y-36690300D01*
X160752453Y-36690300D01*
X160470288Y-36746426D01*
X160204494Y-36856521D01*
X159965285Y-37016355D01*
X159761855Y-37219785D01*
X159602021Y-37458994D01*
X159491926Y-37724788D01*
X159435800Y-38006953D01*
X144386300Y-38006953D01*
X144386300Y-35745309D01*
X145653800Y-35745309D01*
X145653800Y-36486292D01*
X145674564Y-36697109D01*
X145756618Y-36967608D01*
X145889868Y-37216901D01*
X146069193Y-37435408D01*
X146287700Y-37614732D01*
X146536993Y-37747982D01*
X146807492Y-37830036D01*
X147088800Y-37857743D01*
X147370109Y-37830036D01*
X147640608Y-37747982D01*
X147889901Y-37614732D01*
X148108408Y-37435408D01*
X148287732Y-37216901D01*
X148420982Y-36967608D01*
X148503036Y-36697108D01*
X148523800Y-36486291D01*
X148523800Y-35745308D01*
X148503036Y-35534491D01*
X148420982Y-35263992D01*
X148287732Y-35014699D01*
X148108407Y-34796192D01*
X147889900Y-34616868D01*
X147640607Y-34483618D01*
X147370108Y-34401564D01*
X147088800Y-34373857D01*
X146807491Y-34401564D01*
X146536992Y-34483618D01*
X146287699Y-34616868D01*
X146069192Y-34796193D01*
X145889868Y-35014700D01*
X145756618Y-35263993D01*
X145674564Y-35534492D01*
X145653800Y-35745309D01*
X144386300Y-35745309D01*
X144386300Y-33279389D01*
X148003800Y-33279389D01*
X148003800Y-33552211D01*
X148057025Y-33819789D01*
X148161429Y-34071843D01*
X148313001Y-34298686D01*
X148505914Y-34491599D01*
X148732757Y-34643171D01*
X148984811Y-34747575D01*
X149252389Y-34800800D01*
X149525211Y-34800800D01*
X149792789Y-34747575D01*
X150044843Y-34643171D01*
X150268746Y-34493564D01*
X150253800Y-34645309D01*
X150253800Y-35386292D01*
X150274564Y-35597109D01*
X150356618Y-35867608D01*
X150489868Y-36116901D01*
X150669193Y-36335408D01*
X150887700Y-36514732D01*
X151136993Y-36647982D01*
X151407492Y-36730036D01*
X151688800Y-36757743D01*
X151970109Y-36730036D01*
X152240608Y-36647982D01*
X152489901Y-36514732D01*
X152708408Y-36335408D01*
X152887732Y-36116901D01*
X153020982Y-35867608D01*
X153058080Y-35745309D01*
X154853800Y-35745309D01*
X154853800Y-36486292D01*
X154874564Y-36697109D01*
X154956618Y-36967608D01*
X155089868Y-37216901D01*
X155269193Y-37435408D01*
X155487700Y-37614732D01*
X155736993Y-37747982D01*
X156007492Y-37830036D01*
X156288800Y-37857743D01*
X156570109Y-37830036D01*
X156840608Y-37747982D01*
X157089901Y-37614732D01*
X157308408Y-37435408D01*
X157487732Y-37216901D01*
X157620982Y-36967608D01*
X157703036Y-36697108D01*
X157723800Y-36486291D01*
X157723800Y-35745308D01*
X157703036Y-35534491D01*
X157620982Y-35263992D01*
X157487732Y-35014699D01*
X157308407Y-34796192D01*
X157089900Y-34616868D01*
X156840607Y-34483618D01*
X156570108Y-34401564D01*
X156288800Y-34373857D01*
X156007491Y-34401564D01*
X155736992Y-34483618D01*
X155487699Y-34616868D01*
X155269192Y-34796193D01*
X155089868Y-35014700D01*
X154956618Y-35263993D01*
X154874564Y-35534492D01*
X154853800Y-35745309D01*
X153058080Y-35745309D01*
X153103036Y-35597108D01*
X153123800Y-35386291D01*
X153123800Y-34645308D01*
X153108854Y-34493564D01*
X153332757Y-34643171D01*
X153584811Y-34747575D01*
X153852389Y-34800800D01*
X154125211Y-34800800D01*
X154392789Y-34747575D01*
X154644843Y-34643171D01*
X154871686Y-34491599D01*
X155064599Y-34298686D01*
X155216171Y-34071843D01*
X155320575Y-33819789D01*
X155373800Y-33552211D01*
X155373800Y-33279389D01*
X155320575Y-33011811D01*
X155216171Y-32759757D01*
X155064599Y-32532914D01*
X154871686Y-32340001D01*
X154644843Y-32188429D01*
X154392789Y-32084025D01*
X154125211Y-32030800D01*
X153852389Y-32030800D01*
X153584811Y-32084025D01*
X153332757Y-32188429D01*
X153105914Y-32340001D01*
X152913001Y-32532914D01*
X152761429Y-32759757D01*
X152657025Y-33011811D01*
X152603800Y-33279389D01*
X152603800Y-33552211D01*
X152617619Y-33621684D01*
X152489900Y-33516868D01*
X152240607Y-33383618D01*
X151970108Y-33301564D01*
X151688800Y-33273857D01*
X151407491Y-33301564D01*
X151136992Y-33383618D01*
X150887699Y-33516868D01*
X150759981Y-33621684D01*
X150773800Y-33552211D01*
X150773800Y-33279389D01*
X150720575Y-33011811D01*
X150616171Y-32759757D01*
X150464599Y-32532914D01*
X150271686Y-32340001D01*
X150044843Y-32188429D01*
X149792789Y-32084025D01*
X149525211Y-32030800D01*
X149252389Y-32030800D01*
X148984811Y-32084025D01*
X148732757Y-32188429D01*
X148505914Y-32340001D01*
X148313001Y-32532914D01*
X148161429Y-32759757D01*
X148057025Y-33011811D01*
X148003800Y-33279389D01*
X144386300Y-33279389D01*
X144386300Y-31142800D01*
X150253800Y-31142800D01*
X150253800Y-31442800D01*
X150306150Y-31720314D01*
X150411634Y-31982283D01*
X150566199Y-32218639D01*
X150763905Y-32420300D01*
X150997154Y-32579515D01*
X151256982Y-32690167D01*
X151339761Y-32707704D01*
X151561800Y-32585715D01*
X151561800Y-31142800D01*
X151815800Y-31142800D01*
X151815800Y-32585715D01*
X152037839Y-32707704D01*
X152120618Y-32690167D01*
X152380446Y-32579515D01*
X152613695Y-32420300D01*
X152811401Y-32218639D01*
X152965966Y-31982283D01*
X153071450Y-31720314D01*
X153123800Y-31442800D01*
X153123800Y-31142800D01*
X151815800Y-31142800D01*
X151561800Y-31142800D01*
X150253800Y-31142800D01*
X144386300Y-31142800D01*
X144386300Y-27584773D01*
X144587698Y-27450204D01*
X144798204Y-27239698D01*
X144963597Y-26992169D01*
X145077522Y-26717130D01*
X145135600Y-26425150D01*
X145135600Y-26279389D01*
X148003800Y-26279389D01*
X148003800Y-26552211D01*
X148057025Y-26819789D01*
X148161429Y-27071843D01*
X148313001Y-27298686D01*
X148505914Y-27491599D01*
X148732757Y-27643171D01*
X148984811Y-27747575D01*
X149252389Y-27800800D01*
X149525211Y-27800800D01*
X149792789Y-27747575D01*
X150044843Y-27643171D01*
X150268746Y-27493564D01*
X150253800Y-27645309D01*
X150253800Y-28386292D01*
X150274564Y-28597109D01*
X150356618Y-28867608D01*
X150489868Y-29116901D01*
X150669193Y-29335408D01*
X150887700Y-29514732D01*
X150897614Y-29520031D01*
X150763905Y-29611300D01*
X150566199Y-29812961D01*
X150411634Y-30049317D01*
X150306150Y-30311286D01*
X150253800Y-30588800D01*
X150253800Y-30888800D01*
X151561800Y-30888800D01*
X151561800Y-30868800D01*
X151815800Y-30868800D01*
X151815800Y-30888800D01*
X153123800Y-30888800D01*
X153123800Y-30588800D01*
X153071450Y-30311286D01*
X152965966Y-30049317D01*
X152811401Y-29812961D01*
X152613695Y-29611300D01*
X152479987Y-29520031D01*
X152489901Y-29514732D01*
X152708408Y-29335408D01*
X152887732Y-29116901D01*
X153020982Y-28867608D01*
X153103036Y-28597108D01*
X153123800Y-28386291D01*
X153123800Y-27846953D01*
X159435800Y-27846953D01*
X159435800Y-28134647D01*
X159491926Y-28416812D01*
X159602021Y-28682606D01*
X159761855Y-28921815D01*
X159965285Y-29125245D01*
X160204494Y-29285079D01*
X160470288Y-29395174D01*
X160752453Y-29451300D01*
X161040147Y-29451300D01*
X161322312Y-29395174D01*
X161588106Y-29285079D01*
X161827315Y-29125245D01*
X162030745Y-28921815D01*
X162190579Y-28682606D01*
X162300674Y-28416812D01*
X162356800Y-28134647D01*
X162356800Y-27859653D01*
X163957000Y-27859653D01*
X163957000Y-28147347D01*
X164013126Y-28429512D01*
X164123221Y-28695306D01*
X164283055Y-28934515D01*
X164486485Y-29137945D01*
X164725694Y-29297779D01*
X164991488Y-29407874D01*
X165273653Y-29464000D01*
X165561347Y-29464000D01*
X165843512Y-29407874D01*
X166109306Y-29297779D01*
X166348515Y-29137945D01*
X166551945Y-28934515D01*
X166711779Y-28695306D01*
X166821874Y-28429512D01*
X166878000Y-28147347D01*
X166878000Y-27859653D01*
X166821874Y-27577488D01*
X166711779Y-27311694D01*
X166551945Y-27072485D01*
X166348515Y-26869055D01*
X166109306Y-26709221D01*
X165843512Y-26599126D01*
X165561347Y-26543000D01*
X165273653Y-26543000D01*
X164991488Y-26599126D01*
X164725694Y-26709221D01*
X164486485Y-26869055D01*
X164283055Y-27072485D01*
X164123221Y-27311694D01*
X164013126Y-27577488D01*
X163957000Y-27859653D01*
X162356800Y-27859653D01*
X162356800Y-27846953D01*
X162300674Y-27564788D01*
X162190579Y-27298994D01*
X162030745Y-27059785D01*
X161827315Y-26856355D01*
X161588106Y-26696521D01*
X161322312Y-26586426D01*
X161040147Y-26530300D01*
X160752453Y-26530300D01*
X160470288Y-26586426D01*
X160204494Y-26696521D01*
X159965285Y-26856355D01*
X159761855Y-27059785D01*
X159602021Y-27298994D01*
X159491926Y-27564788D01*
X159435800Y-27846953D01*
X153123800Y-27846953D01*
X153123800Y-27645308D01*
X153108854Y-27493564D01*
X153332757Y-27643171D01*
X153584811Y-27747575D01*
X153852389Y-27800800D01*
X154125211Y-27800800D01*
X154392789Y-27747575D01*
X154644843Y-27643171D01*
X154871686Y-27491599D01*
X155064599Y-27298686D01*
X155216171Y-27071843D01*
X155320575Y-26819789D01*
X155373800Y-26552211D01*
X155373800Y-26279389D01*
X155320575Y-26011811D01*
X155216171Y-25759757D01*
X155064599Y-25532914D01*
X154871686Y-25340001D01*
X154644843Y-25188429D01*
X154392789Y-25084025D01*
X154125211Y-25030800D01*
X153852389Y-25030800D01*
X153584811Y-25084025D01*
X153332757Y-25188429D01*
X153105914Y-25340001D01*
X152913001Y-25532914D01*
X152761429Y-25759757D01*
X152657025Y-26011811D01*
X152603800Y-26279389D01*
X152603800Y-26552211D01*
X152617619Y-26621684D01*
X152489900Y-26516868D01*
X152240607Y-26383618D01*
X151970108Y-26301564D01*
X151688800Y-26273857D01*
X151407491Y-26301564D01*
X151136992Y-26383618D01*
X150887699Y-26516868D01*
X150759981Y-26621684D01*
X150773800Y-26552211D01*
X150773800Y-26279389D01*
X150720575Y-26011811D01*
X150616171Y-25759757D01*
X150464599Y-25532914D01*
X150271686Y-25340001D01*
X150044843Y-25188429D01*
X149792789Y-25084025D01*
X149525211Y-25030800D01*
X149252389Y-25030800D01*
X148984811Y-25084025D01*
X148732757Y-25188429D01*
X148505914Y-25340001D01*
X148313001Y-25532914D01*
X148161429Y-25759757D01*
X148057025Y-26011811D01*
X148003800Y-26279389D01*
X145135600Y-26279389D01*
X145135600Y-26127450D01*
X145077522Y-25835470D01*
X144963597Y-25560431D01*
X144798204Y-25312902D01*
X144587698Y-25102396D01*
X144340169Y-24937003D01*
X144065130Y-24823078D01*
X143898834Y-24790000D01*
X165067721Y-24790000D01*
X165711222Y-24853096D01*
%TA.AperFunction,Conductor*%
D19*
G36*
X165711222Y-24853096D02*
G01*
X166299164Y-25030606D01*
X166841436Y-25318937D01*
X167317364Y-25707094D01*
X167708845Y-26180314D01*
X168000951Y-26720552D01*
X168182563Y-27307244D01*
X168250001Y-27948888D01*
X168250000Y-43212418D01*
X168252975Y-43242626D01*
X168252809Y-43266416D01*
X168253709Y-43275587D01*
X168331433Y-44015095D01*
X168343458Y-44073675D01*
X168354670Y-44132453D01*
X168357334Y-44141274D01*
X168577217Y-44851601D01*
X168600392Y-44906731D01*
X168622806Y-44962210D01*
X168627133Y-44970346D01*
X168980799Y-45624437D01*
X169014244Y-45674021D01*
X169047004Y-45724084D01*
X169052828Y-45731225D01*
X169526805Y-46304165D01*
X169569241Y-46346305D01*
X169611104Y-46389055D01*
X169618205Y-46394928D01*
X170020716Y-46723208D01*
X151693313Y-46716023D01*
X152107943Y-46438977D01*
X152649077Y-45897843D01*
X153074242Y-45261538D01*
X153367102Y-44554513D01*
X153516400Y-43803939D01*
X153516400Y-43038661D01*
X153367102Y-42288087D01*
X153074242Y-41581062D01*
X152649077Y-40944757D01*
X152107943Y-40403623D01*
X151471638Y-39978458D01*
X150764613Y-39685598D01*
X150014039Y-39536300D01*
X149248761Y-39536300D01*
X148498187Y-39685598D01*
X147791162Y-39978458D01*
X147154857Y-40403623D01*
X146613723Y-40944757D01*
X146188558Y-41581062D01*
X145895698Y-42288087D01*
X145746400Y-43038661D01*
X145746400Y-43803939D01*
X145895698Y-44554513D01*
X146188558Y-45261538D01*
X146613723Y-45897843D01*
X147154857Y-46438977D01*
X147567066Y-46714406D01*
X113251499Y-46700954D01*
X113251499Y-42685529D01*
X114169928Y-41767100D01*
X114169928Y-42392600D01*
X114182188Y-42517082D01*
X114218498Y-42636780D01*
X114277463Y-42747094D01*
X114356815Y-42843785D01*
X114453506Y-42923137D01*
X114563820Y-42982102D01*
X114683518Y-43018412D01*
X114808000Y-43030672D01*
X116560600Y-43030672D01*
X116685082Y-43018412D01*
X116804780Y-42982102D01*
X116915094Y-42923137D01*
X117011785Y-42843785D01*
X117091137Y-42747094D01*
X117150102Y-42636780D01*
X117163456Y-42592758D01*
X117260902Y-42690204D01*
X117508431Y-42855597D01*
X117783470Y-42969522D01*
X118075450Y-43027600D01*
X118373150Y-43027600D01*
X118665130Y-42969522D01*
X118940169Y-42855597D01*
X119187698Y-42690204D01*
X119314433Y-42563469D01*
X119896737Y-42563469D01*
X119977554Y-42815229D01*
X120246079Y-42943757D01*
X120534519Y-43017429D01*
X120831791Y-43033413D01*
X121126467Y-42991096D01*
X121407227Y-42892102D01*
X121551046Y-42815229D01*
X121631863Y-42563469D01*
X122436737Y-42563469D01*
X122517554Y-42815229D01*
X122786079Y-42943757D01*
X123074519Y-43017429D01*
X123371791Y-43033413D01*
X123666467Y-42991096D01*
X123947227Y-42892102D01*
X124091046Y-42815229D01*
X124171863Y-42563469D01*
X123304300Y-41695905D01*
X122436737Y-42563469D01*
X121631863Y-42563469D01*
X120764300Y-41695905D01*
X119896737Y-42563469D01*
X119314433Y-42563469D01*
X119398204Y-42479698D01*
X119507255Y-42316491D01*
X119717131Y-42383863D01*
X120584695Y-41516300D01*
X120570552Y-41502158D01*
X120750158Y-41322552D01*
X120764300Y-41336695D01*
X120778442Y-41322552D01*
X120958048Y-41502158D01*
X120943905Y-41516300D01*
X121811469Y-42383863D01*
X122034300Y-42312332D01*
X122257131Y-42383863D01*
X123124695Y-41516300D01*
X123110552Y-41502158D01*
X123290158Y-41322552D01*
X123304300Y-41336695D01*
X123318442Y-41322552D01*
X123498048Y-41502158D01*
X123483905Y-41516300D01*
X124351469Y-42383863D01*
X124561345Y-42316491D01*
X124670396Y-42479698D01*
X124880902Y-42690204D01*
X125128431Y-42855597D01*
X125403470Y-42969522D01*
X125695450Y-43027600D01*
X125993150Y-43027600D01*
X126285130Y-42969522D01*
X126560169Y-42855597D01*
X126807698Y-42690204D01*
X127018204Y-42479698D01*
X127114300Y-42335880D01*
X127210396Y-42479698D01*
X127420902Y-42690204D01*
X127668431Y-42855597D01*
X127943470Y-42969522D01*
X128235450Y-43027600D01*
X128533150Y-43027600D01*
X128825130Y-42969522D01*
X129100169Y-42855597D01*
X129347698Y-42690204D01*
X129558204Y-42479698D01*
X129654300Y-42335880D01*
X129750396Y-42479698D01*
X129960902Y-42690204D01*
X130208431Y-42855597D01*
X130483470Y-42969522D01*
X130775450Y-43027600D01*
X131073150Y-43027600D01*
X131365130Y-42969522D01*
X131640169Y-42855597D01*
X131887698Y-42690204D01*
X132098204Y-42479698D01*
X132194300Y-42335880D01*
X132290396Y-42479698D01*
X132500902Y-42690204D01*
X132748431Y-42855597D01*
X133023470Y-42969522D01*
X133315450Y-43027600D01*
X133613150Y-43027600D01*
X133905130Y-42969522D01*
X134180169Y-42855597D01*
X134427698Y-42690204D01*
X134638204Y-42479698D01*
X134734300Y-42335880D01*
X134830396Y-42479698D01*
X135040902Y-42690204D01*
X135288431Y-42855597D01*
X135563470Y-42969522D01*
X135855450Y-43027600D01*
X136153150Y-43027600D01*
X136445130Y-42969522D01*
X136720169Y-42855597D01*
X136967698Y-42690204D01*
X137178204Y-42479698D01*
X137274300Y-42335880D01*
X137370396Y-42479698D01*
X137580902Y-42690204D01*
X137828431Y-42855597D01*
X138103470Y-42969522D01*
X138395450Y-43027600D01*
X138693150Y-43027600D01*
X138985130Y-42969522D01*
X139260169Y-42855597D01*
X139507698Y-42690204D01*
X139718204Y-42479698D01*
X139814300Y-42335880D01*
X139910396Y-42479698D01*
X140120902Y-42690204D01*
X140368431Y-42855597D01*
X140643470Y-42969522D01*
X140935450Y-43027600D01*
X141233150Y-43027600D01*
X141525130Y-42969522D01*
X141800169Y-42855597D01*
X142047698Y-42690204D01*
X142258204Y-42479698D01*
X142354300Y-42335880D01*
X142450396Y-42479698D01*
X142660902Y-42690204D01*
X142908431Y-42855597D01*
X143183470Y-42969522D01*
X143475450Y-43027600D01*
X143773150Y-43027600D01*
X144065130Y-42969522D01*
X144340169Y-42855597D01*
X144587698Y-42690204D01*
X144798204Y-42479698D01*
X144963597Y-42232169D01*
X145077522Y-41957130D01*
X145135600Y-41665150D01*
X145135600Y-41367450D01*
X145077522Y-41075470D01*
X144963597Y-40800431D01*
X144798204Y-40552902D01*
X144587698Y-40342396D01*
X144340169Y-40177003D01*
X144065130Y-40063078D01*
X143773150Y-40005000D01*
X143558930Y-40005000D01*
X144136653Y-39427278D01*
X144165722Y-39403422D01*
X144216476Y-39341578D01*
X144260945Y-39287393D01*
X144304159Y-39206545D01*
X144331702Y-39155015D01*
X144375274Y-39011378D01*
X144386300Y-38899426D01*
X144386300Y-38899423D01*
X144389986Y-38862000D01*
X144386300Y-38824577D01*
X144386300Y-38006953D01*
X159435800Y-38006953D01*
X159435800Y-38294647D01*
X159491926Y-38576812D01*
X159602021Y-38842606D01*
X159761855Y-39081815D01*
X159965285Y-39285245D01*
X160204494Y-39445079D01*
X160470288Y-39555174D01*
X160752453Y-39611300D01*
X161040147Y-39611300D01*
X161322312Y-39555174D01*
X161588106Y-39445079D01*
X161827315Y-39285245D01*
X162030745Y-39081815D01*
X162190579Y-38842606D01*
X162300674Y-38576812D01*
X162356800Y-38294647D01*
X162356800Y-38019653D01*
X163957000Y-38019653D01*
X163957000Y-38307347D01*
X164013126Y-38589512D01*
X164123221Y-38855306D01*
X164283055Y-39094515D01*
X164486485Y-39297945D01*
X164725694Y-39457779D01*
X164991488Y-39567874D01*
X165273653Y-39624000D01*
X165561347Y-39624000D01*
X165843512Y-39567874D01*
X166109306Y-39457779D01*
X166348515Y-39297945D01*
X166551945Y-39094515D01*
X166711779Y-38855306D01*
X166821874Y-38589512D01*
X166878000Y-38307347D01*
X166878000Y-38019653D01*
X166821874Y-37737488D01*
X166711779Y-37471694D01*
X166551945Y-37232485D01*
X166348515Y-37029055D01*
X166109306Y-36869221D01*
X165843512Y-36759126D01*
X165561347Y-36703000D01*
X165273653Y-36703000D01*
X164991488Y-36759126D01*
X164725694Y-36869221D01*
X164486485Y-37029055D01*
X164283055Y-37232485D01*
X164123221Y-37471694D01*
X164013126Y-37737488D01*
X163957000Y-38019653D01*
X162356800Y-38019653D01*
X162356800Y-38006953D01*
X162300674Y-37724788D01*
X162190579Y-37458994D01*
X162030745Y-37219785D01*
X161827315Y-37016355D01*
X161588106Y-36856521D01*
X161322312Y-36746426D01*
X161040147Y-36690300D01*
X160752453Y-36690300D01*
X160470288Y-36746426D01*
X160204494Y-36856521D01*
X159965285Y-37016355D01*
X159761855Y-37219785D01*
X159602021Y-37458994D01*
X159491926Y-37724788D01*
X159435800Y-38006953D01*
X144386300Y-38006953D01*
X144386300Y-35745309D01*
X145653800Y-35745309D01*
X145653800Y-36486292D01*
X145674564Y-36697109D01*
X145756618Y-36967608D01*
X145889868Y-37216901D01*
X146069193Y-37435408D01*
X146287700Y-37614732D01*
X146536993Y-37747982D01*
X146807492Y-37830036D01*
X147088800Y-37857743D01*
X147370109Y-37830036D01*
X147640608Y-37747982D01*
X147889901Y-37614732D01*
X148108408Y-37435408D01*
X148287732Y-37216901D01*
X148420982Y-36967608D01*
X148503036Y-36697108D01*
X148523800Y-36486291D01*
X148523800Y-35745308D01*
X148503036Y-35534491D01*
X148420982Y-35263992D01*
X148287732Y-35014699D01*
X148108407Y-34796192D01*
X147889900Y-34616868D01*
X147640607Y-34483618D01*
X147370108Y-34401564D01*
X147088800Y-34373857D01*
X146807491Y-34401564D01*
X146536992Y-34483618D01*
X146287699Y-34616868D01*
X146069192Y-34796193D01*
X145889868Y-35014700D01*
X145756618Y-35263993D01*
X145674564Y-35534492D01*
X145653800Y-35745309D01*
X144386300Y-35745309D01*
X144386300Y-33279389D01*
X148003800Y-33279389D01*
X148003800Y-33552211D01*
X148057025Y-33819789D01*
X148161429Y-34071843D01*
X148313001Y-34298686D01*
X148505914Y-34491599D01*
X148732757Y-34643171D01*
X148984811Y-34747575D01*
X149252389Y-34800800D01*
X149525211Y-34800800D01*
X149792789Y-34747575D01*
X150044843Y-34643171D01*
X150268746Y-34493564D01*
X150253800Y-34645309D01*
X150253800Y-35386292D01*
X150274564Y-35597109D01*
X150356618Y-35867608D01*
X150489868Y-36116901D01*
X150669193Y-36335408D01*
X150887700Y-36514732D01*
X151136993Y-36647982D01*
X151407492Y-36730036D01*
X151688800Y-36757743D01*
X151970109Y-36730036D01*
X152240608Y-36647982D01*
X152489901Y-36514732D01*
X152708408Y-36335408D01*
X152887732Y-36116901D01*
X153020982Y-35867608D01*
X153058080Y-35745309D01*
X154853800Y-35745309D01*
X154853800Y-36486292D01*
X154874564Y-36697109D01*
X154956618Y-36967608D01*
X155089868Y-37216901D01*
X155269193Y-37435408D01*
X155487700Y-37614732D01*
X155736993Y-37747982D01*
X156007492Y-37830036D01*
X156288800Y-37857743D01*
X156570109Y-37830036D01*
X156840608Y-37747982D01*
X157089901Y-37614732D01*
X157308408Y-37435408D01*
X157487732Y-37216901D01*
X157620982Y-36967608D01*
X157703036Y-36697108D01*
X157723800Y-36486291D01*
X157723800Y-35745308D01*
X157703036Y-35534491D01*
X157620982Y-35263992D01*
X157487732Y-35014699D01*
X157308407Y-34796192D01*
X157089900Y-34616868D01*
X156840607Y-34483618D01*
X156570108Y-34401564D01*
X156288800Y-34373857D01*
X156007491Y-34401564D01*
X155736992Y-34483618D01*
X155487699Y-34616868D01*
X155269192Y-34796193D01*
X155089868Y-35014700D01*
X154956618Y-35263993D01*
X154874564Y-35534492D01*
X154853800Y-35745309D01*
X153058080Y-35745309D01*
X153103036Y-35597108D01*
X153123800Y-35386291D01*
X153123800Y-34645308D01*
X153108854Y-34493564D01*
X153332757Y-34643171D01*
X153584811Y-34747575D01*
X153852389Y-34800800D01*
X154125211Y-34800800D01*
X154392789Y-34747575D01*
X154644843Y-34643171D01*
X154871686Y-34491599D01*
X155064599Y-34298686D01*
X155216171Y-34071843D01*
X155320575Y-33819789D01*
X155373800Y-33552211D01*
X155373800Y-33279389D01*
X155320575Y-33011811D01*
X155216171Y-32759757D01*
X155064599Y-32532914D01*
X154871686Y-32340001D01*
X154644843Y-32188429D01*
X154392789Y-32084025D01*
X154125211Y-32030800D01*
X153852389Y-32030800D01*
X153584811Y-32084025D01*
X153332757Y-32188429D01*
X153105914Y-32340001D01*
X152913001Y-32532914D01*
X152761429Y-32759757D01*
X152657025Y-33011811D01*
X152603800Y-33279389D01*
X152603800Y-33552211D01*
X152617619Y-33621684D01*
X152489900Y-33516868D01*
X152240607Y-33383618D01*
X151970108Y-33301564D01*
X151688800Y-33273857D01*
X151407491Y-33301564D01*
X151136992Y-33383618D01*
X150887699Y-33516868D01*
X150759981Y-33621684D01*
X150773800Y-33552211D01*
X150773800Y-33279389D01*
X150720575Y-33011811D01*
X150616171Y-32759757D01*
X150464599Y-32532914D01*
X150271686Y-32340001D01*
X150044843Y-32188429D01*
X149792789Y-32084025D01*
X149525211Y-32030800D01*
X149252389Y-32030800D01*
X148984811Y-32084025D01*
X148732757Y-32188429D01*
X148505914Y-32340001D01*
X148313001Y-32532914D01*
X148161429Y-32759757D01*
X148057025Y-33011811D01*
X148003800Y-33279389D01*
X144386300Y-33279389D01*
X144386300Y-31142800D01*
X150253800Y-31142800D01*
X150253800Y-31442800D01*
X150306150Y-31720314D01*
X150411634Y-31982283D01*
X150566199Y-32218639D01*
X150763905Y-32420300D01*
X150997154Y-32579515D01*
X151256982Y-32690167D01*
X151339761Y-32707704D01*
X151561800Y-32585715D01*
X151561800Y-31142800D01*
X151815800Y-31142800D01*
X151815800Y-32585715D01*
X152037839Y-32707704D01*
X152120618Y-32690167D01*
X152380446Y-32579515D01*
X152613695Y-32420300D01*
X152811401Y-32218639D01*
X152965966Y-31982283D01*
X153071450Y-31720314D01*
X153123800Y-31442800D01*
X153123800Y-31142800D01*
X151815800Y-31142800D01*
X151561800Y-31142800D01*
X150253800Y-31142800D01*
X144386300Y-31142800D01*
X144386300Y-27584773D01*
X144587698Y-27450204D01*
X144798204Y-27239698D01*
X144963597Y-26992169D01*
X145077522Y-26717130D01*
X145135600Y-26425150D01*
X145135600Y-26279389D01*
X148003800Y-26279389D01*
X148003800Y-26552211D01*
X148057025Y-26819789D01*
X148161429Y-27071843D01*
X148313001Y-27298686D01*
X148505914Y-27491599D01*
X148732757Y-27643171D01*
X148984811Y-27747575D01*
X149252389Y-27800800D01*
X149525211Y-27800800D01*
X149792789Y-27747575D01*
X150044843Y-27643171D01*
X150268746Y-27493564D01*
X150253800Y-27645309D01*
X150253800Y-28386292D01*
X150274564Y-28597109D01*
X150356618Y-28867608D01*
X150489868Y-29116901D01*
X150669193Y-29335408D01*
X150887700Y-29514732D01*
X150897614Y-29520031D01*
X150763905Y-29611300D01*
X150566199Y-29812961D01*
X150411634Y-30049317D01*
X150306150Y-30311286D01*
X150253800Y-30588800D01*
X150253800Y-30888800D01*
X151561800Y-30888800D01*
X151561800Y-30868800D01*
X151815800Y-30868800D01*
X151815800Y-30888800D01*
X153123800Y-30888800D01*
X153123800Y-30588800D01*
X153071450Y-30311286D01*
X152965966Y-30049317D01*
X152811401Y-29812961D01*
X152613695Y-29611300D01*
X152479987Y-29520031D01*
X152489901Y-29514732D01*
X152708408Y-29335408D01*
X152887732Y-29116901D01*
X153020982Y-28867608D01*
X153103036Y-28597108D01*
X153123800Y-28386291D01*
X153123800Y-27846953D01*
X159435800Y-27846953D01*
X159435800Y-28134647D01*
X159491926Y-28416812D01*
X159602021Y-28682606D01*
X159761855Y-28921815D01*
X159965285Y-29125245D01*
X160204494Y-29285079D01*
X160470288Y-29395174D01*
X160752453Y-29451300D01*
X161040147Y-29451300D01*
X161322312Y-29395174D01*
X161588106Y-29285079D01*
X161827315Y-29125245D01*
X162030745Y-28921815D01*
X162190579Y-28682606D01*
X162300674Y-28416812D01*
X162356800Y-28134647D01*
X162356800Y-27859653D01*
X163957000Y-27859653D01*
X163957000Y-28147347D01*
X164013126Y-28429512D01*
X164123221Y-28695306D01*
X164283055Y-28934515D01*
X164486485Y-29137945D01*
X164725694Y-29297779D01*
X164991488Y-29407874D01*
X165273653Y-29464000D01*
X165561347Y-29464000D01*
X165843512Y-29407874D01*
X166109306Y-29297779D01*
X166348515Y-29137945D01*
X166551945Y-28934515D01*
X166711779Y-28695306D01*
X166821874Y-28429512D01*
X166878000Y-28147347D01*
X166878000Y-27859653D01*
X166821874Y-27577488D01*
X166711779Y-27311694D01*
X166551945Y-27072485D01*
X166348515Y-26869055D01*
X166109306Y-26709221D01*
X165843512Y-26599126D01*
X165561347Y-26543000D01*
X165273653Y-26543000D01*
X164991488Y-26599126D01*
X164725694Y-26709221D01*
X164486485Y-26869055D01*
X164283055Y-27072485D01*
X164123221Y-27311694D01*
X164013126Y-27577488D01*
X163957000Y-27859653D01*
X162356800Y-27859653D01*
X162356800Y-27846953D01*
X162300674Y-27564788D01*
X162190579Y-27298994D01*
X162030745Y-27059785D01*
X161827315Y-26856355D01*
X161588106Y-26696521D01*
X161322312Y-26586426D01*
X161040147Y-26530300D01*
X160752453Y-26530300D01*
X160470288Y-26586426D01*
X160204494Y-26696521D01*
X159965285Y-26856355D01*
X159761855Y-27059785D01*
X159602021Y-27298994D01*
X159491926Y-27564788D01*
X159435800Y-27846953D01*
X153123800Y-27846953D01*
X153123800Y-27645308D01*
X153108854Y-27493564D01*
X153332757Y-27643171D01*
X153584811Y-27747575D01*
X153852389Y-27800800D01*
X154125211Y-27800800D01*
X154392789Y-27747575D01*
X154644843Y-27643171D01*
X154871686Y-27491599D01*
X155064599Y-27298686D01*
X155216171Y-27071843D01*
X155320575Y-26819789D01*
X155373800Y-26552211D01*
X155373800Y-26279389D01*
X155320575Y-26011811D01*
X155216171Y-25759757D01*
X155064599Y-25532914D01*
X154871686Y-25340001D01*
X154644843Y-25188429D01*
X154392789Y-25084025D01*
X154125211Y-25030800D01*
X153852389Y-25030800D01*
X153584811Y-25084025D01*
X153332757Y-25188429D01*
X153105914Y-25340001D01*
X152913001Y-25532914D01*
X152761429Y-25759757D01*
X152657025Y-26011811D01*
X152603800Y-26279389D01*
X152603800Y-26552211D01*
X152617619Y-26621684D01*
X152489900Y-26516868D01*
X152240607Y-26383618D01*
X151970108Y-26301564D01*
X151688800Y-26273857D01*
X151407491Y-26301564D01*
X151136992Y-26383618D01*
X150887699Y-26516868D01*
X150759981Y-26621684D01*
X150773800Y-26552211D01*
X150773800Y-26279389D01*
X150720575Y-26011811D01*
X150616171Y-25759757D01*
X150464599Y-25532914D01*
X150271686Y-25340001D01*
X150044843Y-25188429D01*
X149792789Y-25084025D01*
X149525211Y-25030800D01*
X149252389Y-25030800D01*
X148984811Y-25084025D01*
X148732757Y-25188429D01*
X148505914Y-25340001D01*
X148313001Y-25532914D01*
X148161429Y-25759757D01*
X148057025Y-26011811D01*
X148003800Y-26279389D01*
X145135600Y-26279389D01*
X145135600Y-26127450D01*
X145077522Y-25835470D01*
X144963597Y-25560431D01*
X144798204Y-25312902D01*
X144587698Y-25102396D01*
X144340169Y-24937003D01*
X144065130Y-24823078D01*
X143898834Y-24790000D01*
X165067721Y-24790000D01*
X165711222Y-24853096D01*
G37*
%TD.AperFunction*%
D18*
X115243470Y-24823078D02*
X114968431Y-24937003D01*
X114720902Y-25102396D01*
X114510396Y-25312902D01*
X114345003Y-25560431D01*
X114231078Y-25835470D01*
X114173000Y-26127450D01*
X114173000Y-26425150D01*
X114231078Y-26717130D01*
X114345003Y-26992169D01*
X114510396Y-27239698D01*
X114720902Y-27450204D01*
X114968431Y-27615597D01*
X115243470Y-27729522D01*
X115535450Y-27787600D01*
X115833150Y-27787600D01*
X116125130Y-27729522D01*
X116400169Y-27615597D01*
X116647698Y-27450204D01*
X116774433Y-27323469D01*
X117356737Y-27323469D01*
X117437554Y-27575229D01*
X117706079Y-27703757D01*
X117994519Y-27777429D01*
X118291791Y-27793413D01*
X118586467Y-27751096D01*
X118867227Y-27652102D01*
X119011046Y-27575229D01*
X119091863Y-27323469D01*
X118224300Y-26455905D01*
X117356737Y-27323469D01*
X116774433Y-27323469D01*
X116858204Y-27239698D01*
X116967255Y-27076491D01*
X117177131Y-27143863D01*
X118044695Y-26276300D01*
X117177131Y-25408737D01*
X116967255Y-25476109D01*
X116858204Y-25312902D01*
X116647698Y-25102396D01*
X116400169Y-24937003D01*
X116125130Y-24823078D01*
X115958834Y-24790000D01*
X117942242Y-24790000D01*
X117862133Y-24801504D01*
X117581373Y-24900498D01*
X117437554Y-24977371D01*
X117356737Y-25229131D01*
X118224300Y-26096695D01*
X119091863Y-25229131D01*
X119011046Y-24977371D01*
X118742521Y-24848843D01*
X118512139Y-24790000D01*
X120489766Y-24790000D01*
X120323470Y-24823078D01*
X120048431Y-24937003D01*
X119800902Y-25102396D01*
X119590396Y-25312902D01*
X119481345Y-25476109D01*
X119271469Y-25408737D01*
X118403905Y-26276300D01*
X119271469Y-27143863D01*
X119481345Y-27076491D01*
X119590396Y-27239698D01*
X119800902Y-27450204D01*
X120048431Y-27615597D01*
X120323470Y-27729522D01*
X120615450Y-27787600D01*
X120913150Y-27787600D01*
X121205130Y-27729522D01*
X121480169Y-27615597D01*
X121727698Y-27450204D01*
X121938204Y-27239698D01*
X122034300Y-27095880D01*
X122130396Y-27239698D01*
X122340902Y-27450204D01*
X122588431Y-27615597D01*
X122863470Y-27729522D01*
X123155450Y-27787600D01*
X123453150Y-27787600D01*
X123745130Y-27729522D01*
X124020169Y-27615597D01*
X124267698Y-27450204D01*
X124478204Y-27239698D01*
X124574300Y-27095880D01*
X124670396Y-27239698D01*
X124880902Y-27450204D01*
X125128431Y-27615597D01*
X125403470Y-27729522D01*
X125695450Y-27787600D01*
X125993150Y-27787600D01*
X126285130Y-27729522D01*
X126560169Y-27615597D01*
X126807698Y-27450204D01*
X127018204Y-27239698D01*
X127114300Y-27095880D01*
X127210396Y-27239698D01*
X127420902Y-27450204D01*
X127668431Y-27615597D01*
X127943470Y-27729522D01*
X128235450Y-27787600D01*
X128533150Y-27787600D01*
X128825130Y-27729522D01*
X129100169Y-27615597D01*
X129347698Y-27450204D01*
X129558204Y-27239698D01*
X129654300Y-27095880D01*
X129750396Y-27239698D01*
X129960902Y-27450204D01*
X130208431Y-27615597D01*
X130483470Y-27729522D01*
X130775450Y-27787600D01*
X131073150Y-27787600D01*
X131365130Y-27729522D01*
X131640169Y-27615597D01*
X131887698Y-27450204D01*
X132098204Y-27239698D01*
X132194300Y-27095880D01*
X132290396Y-27239698D01*
X132500902Y-27450204D01*
X132702301Y-27584774D01*
X132702300Y-36512500D01*
X114362822Y-36512500D01*
X114325399Y-36508814D01*
X114287976Y-36512500D01*
X114287974Y-36512500D01*
X114176022Y-36523526D01*
X114032385Y-36567098D01*
X113900008Y-36637855D01*
X113783978Y-36733078D01*
X113760121Y-36762148D01*
X108999749Y-41522521D01*
X108970679Y-41546378D01*
X108946822Y-41575448D01*
X108946821Y-41575449D01*
X108875455Y-41662408D01*
X108804699Y-41794785D01*
X108761127Y-41938422D01*
X108746414Y-42087800D01*
X108750101Y-42125233D01*
X108750101Y-46699190D01*
X108610000Y-46699135D01*
X108610000Y-27972279D01*
X108673096Y-27328778D01*
X108850606Y-26740836D01*
X109138937Y-26198564D01*
X109527094Y-25722636D01*
X110000314Y-25331155D01*
X110540552Y-25039049D01*
X111127244Y-24857437D01*
X111768879Y-24790000D01*
X115409766Y-24790000D01*
X115243470Y-24823078D01*
%TA.AperFunction,Conductor*%
D19*
G36*
X115243470Y-24823078D02*
G01*
X114968431Y-24937003D01*
X114720902Y-25102396D01*
X114510396Y-25312902D01*
X114345003Y-25560431D01*
X114231078Y-25835470D01*
X114173000Y-26127450D01*
X114173000Y-26425150D01*
X114231078Y-26717130D01*
X114345003Y-26992169D01*
X114510396Y-27239698D01*
X114720902Y-27450204D01*
X114968431Y-27615597D01*
X115243470Y-27729522D01*
X115535450Y-27787600D01*
X115833150Y-27787600D01*
X116125130Y-27729522D01*
X116400169Y-27615597D01*
X116647698Y-27450204D01*
X116774433Y-27323469D01*
X117356737Y-27323469D01*
X117437554Y-27575229D01*
X117706079Y-27703757D01*
X117994519Y-27777429D01*
X118291791Y-27793413D01*
X118586467Y-27751096D01*
X118867227Y-27652102D01*
X119011046Y-27575229D01*
X119091863Y-27323469D01*
X118224300Y-26455905D01*
X117356737Y-27323469D01*
X116774433Y-27323469D01*
X116858204Y-27239698D01*
X116967255Y-27076491D01*
X117177131Y-27143863D01*
X118044695Y-26276300D01*
X117177131Y-25408737D01*
X116967255Y-25476109D01*
X116858204Y-25312902D01*
X116647698Y-25102396D01*
X116400169Y-24937003D01*
X116125130Y-24823078D01*
X115958834Y-24790000D01*
X117942242Y-24790000D01*
X117862133Y-24801504D01*
X117581373Y-24900498D01*
X117437554Y-24977371D01*
X117356737Y-25229131D01*
X118224300Y-26096695D01*
X119091863Y-25229131D01*
X119011046Y-24977371D01*
X118742521Y-24848843D01*
X118512139Y-24790000D01*
X120489766Y-24790000D01*
X120323470Y-24823078D01*
X120048431Y-24937003D01*
X119800902Y-25102396D01*
X119590396Y-25312902D01*
X119481345Y-25476109D01*
X119271469Y-25408737D01*
X118403905Y-26276300D01*
X119271469Y-27143863D01*
X119481345Y-27076491D01*
X119590396Y-27239698D01*
X119800902Y-27450204D01*
X120048431Y-27615597D01*
X120323470Y-27729522D01*
X120615450Y-27787600D01*
X120913150Y-27787600D01*
X121205130Y-27729522D01*
X121480169Y-27615597D01*
X121727698Y-27450204D01*
X121938204Y-27239698D01*
X122034300Y-27095880D01*
X122130396Y-27239698D01*
X122340902Y-27450204D01*
X122588431Y-27615597D01*
X122863470Y-27729522D01*
X123155450Y-27787600D01*
X123453150Y-27787600D01*
X123745130Y-27729522D01*
X124020169Y-27615597D01*
X124267698Y-27450204D01*
X124478204Y-27239698D01*
X124574300Y-27095880D01*
X124670396Y-27239698D01*
X124880902Y-27450204D01*
X125128431Y-27615597D01*
X125403470Y-27729522D01*
X125695450Y-27787600D01*
X125993150Y-27787600D01*
X126285130Y-27729522D01*
X126560169Y-27615597D01*
X126807698Y-27450204D01*
X127018204Y-27239698D01*
X127114300Y-27095880D01*
X127210396Y-27239698D01*
X127420902Y-27450204D01*
X127668431Y-27615597D01*
X127943470Y-27729522D01*
X128235450Y-27787600D01*
X128533150Y-27787600D01*
X128825130Y-27729522D01*
X129100169Y-27615597D01*
X129347698Y-27450204D01*
X129558204Y-27239698D01*
X129654300Y-27095880D01*
X129750396Y-27239698D01*
X129960902Y-27450204D01*
X130208431Y-27615597D01*
X130483470Y-27729522D01*
X130775450Y-27787600D01*
X131073150Y-27787600D01*
X131365130Y-27729522D01*
X131640169Y-27615597D01*
X131887698Y-27450204D01*
X132098204Y-27239698D01*
X132194300Y-27095880D01*
X132290396Y-27239698D01*
X132500902Y-27450204D01*
X132702301Y-27584774D01*
X132702300Y-36512500D01*
X114362822Y-36512500D01*
X114325399Y-36508814D01*
X114287976Y-36512500D01*
X114287974Y-36512500D01*
X114176022Y-36523526D01*
X114032385Y-36567098D01*
X113900008Y-36637855D01*
X113783978Y-36733078D01*
X113760121Y-36762148D01*
X108999749Y-41522521D01*
X108970679Y-41546378D01*
X108946822Y-41575448D01*
X108946821Y-41575449D01*
X108875455Y-41662408D01*
X108804699Y-41794785D01*
X108761127Y-41938422D01*
X108746414Y-42087800D01*
X108750101Y-42125233D01*
X108750101Y-46699190D01*
X108610000Y-46699135D01*
X108610000Y-27972279D01*
X108673096Y-27328778D01*
X108850606Y-26740836D01*
X109138937Y-26198564D01*
X109527094Y-25722636D01*
X110000314Y-25331155D01*
X110540552Y-25039049D01*
X111127244Y-24857437D01*
X111768879Y-24790000D01*
X115409766Y-24790000D01*
X115243470Y-24823078D01*
G37*
%TD.AperFunction*%
%TD*%
M02*
